%TF.GenerationSoftware,KiCad,Pcbnew,7.0.9*%
%TF.CreationDate,2024-02-06T13:40:39+00:00*%
%TF.ProjectId,dc-level-shifter,64632d6c-6576-4656-9c2d-736869667465,1.0*%
%TF.SameCoordinates,Original*%
%TF.FileFunction,Legend,Top*%
%TF.FilePolarity,Positive*%
%FSLAX46Y46*%
G04 Gerber Fmt 4.6, Leading zero omitted, Abs format (unit mm)*
G04 Created by KiCad (PCBNEW 7.0.9) date 2024-02-06 13:40:39*
%MOMM*%
%LPD*%
G01*
G04 APERTURE LIST*
%ADD10C,0.150000*%
%ADD11C,0.300000*%
%ADD12C,0.120000*%
G04 APERTURE END LIST*
D10*
X131380000Y-85598000D02*
X131380000Y-84328000D01*
D11*
X114211558Y-111567638D02*
X114211558Y-109567638D01*
X115163939Y-111567638D02*
X115163939Y-109567638D01*
X115163939Y-109567638D02*
X116306796Y-111567638D01*
X116306796Y-111567638D02*
X116306796Y-109567638D01*
X114592510Y-112787638D02*
X114782987Y-112787638D01*
X114782987Y-112787638D02*
X114973463Y-112882876D01*
X114973463Y-112882876D02*
X115068701Y-112978114D01*
X115068701Y-112978114D02*
X115163939Y-113168590D01*
X115163939Y-113168590D02*
X115259177Y-113549542D01*
X115259177Y-113549542D02*
X115259177Y-114025733D01*
X115259177Y-114025733D02*
X115163939Y-114406685D01*
X115163939Y-114406685D02*
X115068701Y-114597161D01*
X115068701Y-114597161D02*
X114973463Y-114692400D01*
X114973463Y-114692400D02*
X114782987Y-114787638D01*
X114782987Y-114787638D02*
X114592510Y-114787638D01*
X114592510Y-114787638D02*
X114402034Y-114692400D01*
X114402034Y-114692400D02*
X114306796Y-114597161D01*
X114306796Y-114597161D02*
X114211558Y-114406685D01*
X114211558Y-114406685D02*
X114116320Y-114025733D01*
X114116320Y-114025733D02*
X114116320Y-113549542D01*
X114116320Y-113549542D02*
X114211558Y-113168590D01*
X114211558Y-113168590D02*
X114306796Y-112978114D01*
X114306796Y-112978114D02*
X114402034Y-112882876D01*
X114402034Y-112882876D02*
X114592510Y-112787638D01*
X116116320Y-114025733D02*
X117640130Y-114025733D01*
X119544891Y-112787638D02*
X118592510Y-112787638D01*
X118592510Y-112787638D02*
X118497272Y-113740019D01*
X118497272Y-113740019D02*
X118592510Y-113644780D01*
X118592510Y-113644780D02*
X118782986Y-113549542D01*
X118782986Y-113549542D02*
X119259177Y-113549542D01*
X119259177Y-113549542D02*
X119449653Y-113644780D01*
X119449653Y-113644780D02*
X119544891Y-113740019D01*
X119544891Y-113740019D02*
X119640129Y-113930495D01*
X119640129Y-113930495D02*
X119640129Y-114406685D01*
X119640129Y-114406685D02*
X119544891Y-114597161D01*
X119544891Y-114597161D02*
X119449653Y-114692400D01*
X119449653Y-114692400D02*
X119259177Y-114787638D01*
X119259177Y-114787638D02*
X118782986Y-114787638D01*
X118782986Y-114787638D02*
X118592510Y-114692400D01*
X118592510Y-114692400D02*
X118497272Y-114597161D01*
X120211558Y-112787638D02*
X120878224Y-114787638D01*
X120878224Y-114787638D02*
X121544891Y-112787638D01*
X123068701Y-114787638D02*
X123068701Y-112787638D01*
X123068701Y-114692400D02*
X122878225Y-114787638D01*
X122878225Y-114787638D02*
X122497272Y-114787638D01*
X122497272Y-114787638D02*
X122306796Y-114692400D01*
X122306796Y-114692400D02*
X122211558Y-114597161D01*
X122211558Y-114597161D02*
X122116320Y-114406685D01*
X122116320Y-114406685D02*
X122116320Y-113835257D01*
X122116320Y-113835257D02*
X122211558Y-113644780D01*
X122211558Y-113644780D02*
X122306796Y-113549542D01*
X122306796Y-113549542D02*
X122497272Y-113454304D01*
X122497272Y-113454304D02*
X122878225Y-113454304D01*
X122878225Y-113454304D02*
X123068701Y-113549542D01*
X124878225Y-114692400D02*
X124687749Y-114787638D01*
X124687749Y-114787638D02*
X124306796Y-114787638D01*
X124306796Y-114787638D02*
X124116320Y-114692400D01*
X124116320Y-114692400D02*
X124021082Y-114597161D01*
X124021082Y-114597161D02*
X123925844Y-114406685D01*
X123925844Y-114406685D02*
X123925844Y-113835257D01*
X123925844Y-113835257D02*
X124021082Y-113644780D01*
X124021082Y-113644780D02*
X124116320Y-113549542D01*
X124116320Y-113549542D02*
X124306796Y-113454304D01*
X124306796Y-113454304D02*
X124687749Y-113454304D01*
X124687749Y-113454304D02*
X124878225Y-113549542D01*
X150139488Y-109567638D02*
X150520441Y-109567638D01*
X150520441Y-109567638D02*
X150710917Y-109662876D01*
X150710917Y-109662876D02*
X150901393Y-109853352D01*
X150901393Y-109853352D02*
X150996631Y-110234304D01*
X150996631Y-110234304D02*
X150996631Y-110900971D01*
X150996631Y-110900971D02*
X150901393Y-111281923D01*
X150901393Y-111281923D02*
X150710917Y-111472400D01*
X150710917Y-111472400D02*
X150520441Y-111567638D01*
X150520441Y-111567638D02*
X150139488Y-111567638D01*
X150139488Y-111567638D02*
X149949012Y-111472400D01*
X149949012Y-111472400D02*
X149758536Y-111281923D01*
X149758536Y-111281923D02*
X149663298Y-110900971D01*
X149663298Y-110900971D02*
X149663298Y-110234304D01*
X149663298Y-110234304D02*
X149758536Y-109853352D01*
X149758536Y-109853352D02*
X149949012Y-109662876D01*
X149949012Y-109662876D02*
X150139488Y-109567638D01*
X151853774Y-109567638D02*
X151853774Y-111186685D01*
X151853774Y-111186685D02*
X151949012Y-111377161D01*
X151949012Y-111377161D02*
X152044250Y-111472400D01*
X152044250Y-111472400D02*
X152234726Y-111567638D01*
X152234726Y-111567638D02*
X152615679Y-111567638D01*
X152615679Y-111567638D02*
X152806155Y-111472400D01*
X152806155Y-111472400D02*
X152901393Y-111377161D01*
X152901393Y-111377161D02*
X152996631Y-111186685D01*
X152996631Y-111186685D02*
X152996631Y-109567638D01*
X153663298Y-109567638D02*
X154806155Y-109567638D01*
X154234726Y-111567638D02*
X154234726Y-109567638D01*
X142425202Y-112787638D02*
X142615679Y-112787638D01*
X142615679Y-112787638D02*
X142806155Y-112882876D01*
X142806155Y-112882876D02*
X142901393Y-112978114D01*
X142901393Y-112978114D02*
X142996631Y-113168590D01*
X142996631Y-113168590D02*
X143091869Y-113549542D01*
X143091869Y-113549542D02*
X143091869Y-114025733D01*
X143091869Y-114025733D02*
X142996631Y-114406685D01*
X142996631Y-114406685D02*
X142901393Y-114597161D01*
X142901393Y-114597161D02*
X142806155Y-114692400D01*
X142806155Y-114692400D02*
X142615679Y-114787638D01*
X142615679Y-114787638D02*
X142425202Y-114787638D01*
X142425202Y-114787638D02*
X142234726Y-114692400D01*
X142234726Y-114692400D02*
X142139488Y-114597161D01*
X142139488Y-114597161D02*
X142044250Y-114406685D01*
X142044250Y-114406685D02*
X141949012Y-114025733D01*
X141949012Y-114025733D02*
X141949012Y-113549542D01*
X141949012Y-113549542D02*
X142044250Y-113168590D01*
X142044250Y-113168590D02*
X142139488Y-112978114D01*
X142139488Y-112978114D02*
X142234726Y-112882876D01*
X142234726Y-112882876D02*
X142425202Y-112787638D01*
X143949012Y-114025733D02*
X145472822Y-114025733D01*
X147472821Y-114787638D02*
X146329964Y-114787638D01*
X146901392Y-114787638D02*
X146901392Y-112787638D01*
X146901392Y-112787638D02*
X146710916Y-113073352D01*
X146710916Y-113073352D02*
X146520440Y-113263828D01*
X146520440Y-113263828D02*
X146329964Y-113359066D01*
X148710916Y-112787638D02*
X148901393Y-112787638D01*
X148901393Y-112787638D02*
X149091869Y-112882876D01*
X149091869Y-112882876D02*
X149187107Y-112978114D01*
X149187107Y-112978114D02*
X149282345Y-113168590D01*
X149282345Y-113168590D02*
X149377583Y-113549542D01*
X149377583Y-113549542D02*
X149377583Y-114025733D01*
X149377583Y-114025733D02*
X149282345Y-114406685D01*
X149282345Y-114406685D02*
X149187107Y-114597161D01*
X149187107Y-114597161D02*
X149091869Y-114692400D01*
X149091869Y-114692400D02*
X148901393Y-114787638D01*
X148901393Y-114787638D02*
X148710916Y-114787638D01*
X148710916Y-114787638D02*
X148520440Y-114692400D01*
X148520440Y-114692400D02*
X148425202Y-114597161D01*
X148425202Y-114597161D02*
X148329964Y-114406685D01*
X148329964Y-114406685D02*
X148234726Y-114025733D01*
X148234726Y-114025733D02*
X148234726Y-113549542D01*
X148234726Y-113549542D02*
X148329964Y-113168590D01*
X148329964Y-113168590D02*
X148425202Y-112978114D01*
X148425202Y-112978114D02*
X148520440Y-112882876D01*
X148520440Y-112882876D02*
X148710916Y-112787638D01*
X149949012Y-112787638D02*
X150615678Y-114787638D01*
X150615678Y-114787638D02*
X151282345Y-112787638D01*
X152806155Y-114787638D02*
X152806155Y-112787638D01*
X152806155Y-114692400D02*
X152615679Y-114787638D01*
X152615679Y-114787638D02*
X152234726Y-114787638D01*
X152234726Y-114787638D02*
X152044250Y-114692400D01*
X152044250Y-114692400D02*
X151949012Y-114597161D01*
X151949012Y-114597161D02*
X151853774Y-114406685D01*
X151853774Y-114406685D02*
X151853774Y-113835257D01*
X151853774Y-113835257D02*
X151949012Y-113644780D01*
X151949012Y-113644780D02*
X152044250Y-113549542D01*
X152044250Y-113549542D02*
X152234726Y-113454304D01*
X152234726Y-113454304D02*
X152615679Y-113454304D01*
X152615679Y-113454304D02*
X152806155Y-113549542D01*
X154615679Y-114692400D02*
X154425203Y-114787638D01*
X154425203Y-114787638D02*
X154044250Y-114787638D01*
X154044250Y-114787638D02*
X153853774Y-114692400D01*
X153853774Y-114692400D02*
X153758536Y-114597161D01*
X153758536Y-114597161D02*
X153663298Y-114406685D01*
X153663298Y-114406685D02*
X153663298Y-113835257D01*
X153663298Y-113835257D02*
X153758536Y-113644780D01*
X153758536Y-113644780D02*
X153853774Y-113549542D01*
X153853774Y-113549542D02*
X154044250Y-113454304D01*
X154044250Y-113454304D02*
X154425203Y-113454304D01*
X154425203Y-113454304D02*
X154615679Y-113549542D01*
D10*
X138322207Y-55749819D02*
X137988874Y-55273628D01*
X137750779Y-55749819D02*
X137750779Y-54749819D01*
X137750779Y-54749819D02*
X138131731Y-54749819D01*
X138131731Y-54749819D02*
X138226969Y-54797438D01*
X138226969Y-54797438D02*
X138274588Y-54845057D01*
X138274588Y-54845057D02*
X138322207Y-54940295D01*
X138322207Y-54940295D02*
X138322207Y-55083152D01*
X138322207Y-55083152D02*
X138274588Y-55178390D01*
X138274588Y-55178390D02*
X138226969Y-55226009D01*
X138226969Y-55226009D02*
X138131731Y-55273628D01*
X138131731Y-55273628D02*
X137750779Y-55273628D01*
X139131731Y-55702200D02*
X139036493Y-55749819D01*
X139036493Y-55749819D02*
X138846017Y-55749819D01*
X138846017Y-55749819D02*
X138750779Y-55702200D01*
X138750779Y-55702200D02*
X138703160Y-55606961D01*
X138703160Y-55606961D02*
X138703160Y-55226009D01*
X138703160Y-55226009D02*
X138750779Y-55130771D01*
X138750779Y-55130771D02*
X138846017Y-55083152D01*
X138846017Y-55083152D02*
X139036493Y-55083152D01*
X139036493Y-55083152D02*
X139131731Y-55130771D01*
X139131731Y-55130771D02*
X139179350Y-55226009D01*
X139179350Y-55226009D02*
X139179350Y-55321247D01*
X139179350Y-55321247D02*
X138703160Y-55416485D01*
X139512684Y-55083152D02*
X139750779Y-55749819D01*
X139750779Y-55749819D02*
X139988874Y-55083152D01*
X140369827Y-55654580D02*
X140417446Y-55702200D01*
X140417446Y-55702200D02*
X140369827Y-55749819D01*
X140369827Y-55749819D02*
X140322208Y-55702200D01*
X140322208Y-55702200D02*
X140369827Y-55654580D01*
X140369827Y-55654580D02*
X140369827Y-55749819D01*
X140369827Y-55130771D02*
X140417446Y-55178390D01*
X140417446Y-55178390D02*
X140369827Y-55226009D01*
X140369827Y-55226009D02*
X140322208Y-55178390D01*
X140322208Y-55178390D02*
X140369827Y-55130771D01*
X140369827Y-55130771D02*
X140369827Y-55226009D01*
X137941255Y-52971819D02*
X138036493Y-52971819D01*
X138036493Y-52971819D02*
X138131731Y-53019438D01*
X138131731Y-53019438D02*
X138179350Y-53067057D01*
X138179350Y-53067057D02*
X138226969Y-53162295D01*
X138226969Y-53162295D02*
X138274588Y-53352771D01*
X138274588Y-53352771D02*
X138274588Y-53590866D01*
X138274588Y-53590866D02*
X138226969Y-53781342D01*
X138226969Y-53781342D02*
X138179350Y-53876580D01*
X138179350Y-53876580D02*
X138131731Y-53924200D01*
X138131731Y-53924200D02*
X138036493Y-53971819D01*
X138036493Y-53971819D02*
X137941255Y-53971819D01*
X137941255Y-53971819D02*
X137846017Y-53924200D01*
X137846017Y-53924200D02*
X137798398Y-53876580D01*
X137798398Y-53876580D02*
X137750779Y-53781342D01*
X137750779Y-53781342D02*
X137703160Y-53590866D01*
X137703160Y-53590866D02*
X137703160Y-53352771D01*
X137703160Y-53352771D02*
X137750779Y-53162295D01*
X137750779Y-53162295D02*
X137798398Y-53067057D01*
X137798398Y-53067057D02*
X137846017Y-53019438D01*
X137846017Y-53019438D02*
X137941255Y-52971819D01*
X138703160Y-53590866D02*
X139465065Y-53590866D01*
X140417445Y-52971819D02*
X139941255Y-52971819D01*
X139941255Y-52971819D02*
X139893636Y-53448009D01*
X139893636Y-53448009D02*
X139941255Y-53400390D01*
X139941255Y-53400390D02*
X140036493Y-53352771D01*
X140036493Y-53352771D02*
X140274588Y-53352771D01*
X140274588Y-53352771D02*
X140369826Y-53400390D01*
X140369826Y-53400390D02*
X140417445Y-53448009D01*
X140417445Y-53448009D02*
X140465064Y-53543247D01*
X140465064Y-53543247D02*
X140465064Y-53781342D01*
X140465064Y-53781342D02*
X140417445Y-53876580D01*
X140417445Y-53876580D02*
X140369826Y-53924200D01*
X140369826Y-53924200D02*
X140274588Y-53971819D01*
X140274588Y-53971819D02*
X140036493Y-53971819D01*
X140036493Y-53971819D02*
X139941255Y-53924200D01*
X139941255Y-53924200D02*
X139893636Y-53876580D01*
X141512684Y-53305152D02*
X141893636Y-53305152D01*
X141655541Y-52971819D02*
X141655541Y-53828961D01*
X141655541Y-53828961D02*
X141703160Y-53924200D01*
X141703160Y-53924200D02*
X141798398Y-53971819D01*
X141798398Y-53971819D02*
X141893636Y-53971819D01*
X142369827Y-53971819D02*
X142274589Y-53924200D01*
X142274589Y-53924200D02*
X142226970Y-53876580D01*
X142226970Y-53876580D02*
X142179351Y-53781342D01*
X142179351Y-53781342D02*
X142179351Y-53495628D01*
X142179351Y-53495628D02*
X142226970Y-53400390D01*
X142226970Y-53400390D02*
X142274589Y-53352771D01*
X142274589Y-53352771D02*
X142369827Y-53305152D01*
X142369827Y-53305152D02*
X142512684Y-53305152D01*
X142512684Y-53305152D02*
X142607922Y-53352771D01*
X142607922Y-53352771D02*
X142655541Y-53400390D01*
X142655541Y-53400390D02*
X142703160Y-53495628D01*
X142703160Y-53495628D02*
X142703160Y-53781342D01*
X142703160Y-53781342D02*
X142655541Y-53876580D01*
X142655541Y-53876580D02*
X142607922Y-53924200D01*
X142607922Y-53924200D02*
X142512684Y-53971819D01*
X142512684Y-53971819D02*
X142369827Y-53971819D01*
X144084113Y-52971819D02*
X144179351Y-52971819D01*
X144179351Y-52971819D02*
X144274589Y-53019438D01*
X144274589Y-53019438D02*
X144322208Y-53067057D01*
X144322208Y-53067057D02*
X144369827Y-53162295D01*
X144369827Y-53162295D02*
X144417446Y-53352771D01*
X144417446Y-53352771D02*
X144417446Y-53590866D01*
X144417446Y-53590866D02*
X144369827Y-53781342D01*
X144369827Y-53781342D02*
X144322208Y-53876580D01*
X144322208Y-53876580D02*
X144274589Y-53924200D01*
X144274589Y-53924200D02*
X144179351Y-53971819D01*
X144179351Y-53971819D02*
X144084113Y-53971819D01*
X144084113Y-53971819D02*
X143988875Y-53924200D01*
X143988875Y-53924200D02*
X143941256Y-53876580D01*
X143941256Y-53876580D02*
X143893637Y-53781342D01*
X143893637Y-53781342D02*
X143846018Y-53590866D01*
X143846018Y-53590866D02*
X143846018Y-53352771D01*
X143846018Y-53352771D02*
X143893637Y-53162295D01*
X143893637Y-53162295D02*
X143941256Y-53067057D01*
X143941256Y-53067057D02*
X143988875Y-53019438D01*
X143988875Y-53019438D02*
X144084113Y-52971819D01*
X144846018Y-53590866D02*
X145607923Y-53590866D01*
X146607922Y-53971819D02*
X146036494Y-53971819D01*
X146322208Y-53971819D02*
X146322208Y-52971819D01*
X146322208Y-52971819D02*
X146226970Y-53114676D01*
X146226970Y-53114676D02*
X146131732Y-53209914D01*
X146131732Y-53209914D02*
X146036494Y-53257533D01*
X147226970Y-52971819D02*
X147322208Y-52971819D01*
X147322208Y-52971819D02*
X147417446Y-53019438D01*
X147417446Y-53019438D02*
X147465065Y-53067057D01*
X147465065Y-53067057D02*
X147512684Y-53162295D01*
X147512684Y-53162295D02*
X147560303Y-53352771D01*
X147560303Y-53352771D02*
X147560303Y-53590866D01*
X147560303Y-53590866D02*
X147512684Y-53781342D01*
X147512684Y-53781342D02*
X147465065Y-53876580D01*
X147465065Y-53876580D02*
X147417446Y-53924200D01*
X147417446Y-53924200D02*
X147322208Y-53971819D01*
X147322208Y-53971819D02*
X147226970Y-53971819D01*
X147226970Y-53971819D02*
X147131732Y-53924200D01*
X147131732Y-53924200D02*
X147084113Y-53876580D01*
X147084113Y-53876580D02*
X147036494Y-53781342D01*
X147036494Y-53781342D02*
X146988875Y-53590866D01*
X146988875Y-53590866D02*
X146988875Y-53352771D01*
X146988875Y-53352771D02*
X147036494Y-53162295D01*
X147036494Y-53162295D02*
X147084113Y-53067057D01*
X147084113Y-53067057D02*
X147131732Y-53019438D01*
X147131732Y-53019438D02*
X147226970Y-52971819D01*
X147846018Y-52971819D02*
X148179351Y-53971819D01*
X148179351Y-53971819D02*
X148512684Y-52971819D01*
X149274589Y-53971819D02*
X149274589Y-52971819D01*
X149274589Y-53924200D02*
X149179351Y-53971819D01*
X149179351Y-53971819D02*
X148988875Y-53971819D01*
X148988875Y-53971819D02*
X148893637Y-53924200D01*
X148893637Y-53924200D02*
X148846018Y-53876580D01*
X148846018Y-53876580D02*
X148798399Y-53781342D01*
X148798399Y-53781342D02*
X148798399Y-53495628D01*
X148798399Y-53495628D02*
X148846018Y-53400390D01*
X148846018Y-53400390D02*
X148893637Y-53352771D01*
X148893637Y-53352771D02*
X148988875Y-53305152D01*
X148988875Y-53305152D02*
X149179351Y-53305152D01*
X149179351Y-53305152D02*
X149274589Y-53352771D01*
X150179351Y-53924200D02*
X150084113Y-53971819D01*
X150084113Y-53971819D02*
X149893637Y-53971819D01*
X149893637Y-53971819D02*
X149798399Y-53924200D01*
X149798399Y-53924200D02*
X149750780Y-53876580D01*
X149750780Y-53876580D02*
X149703161Y-53781342D01*
X149703161Y-53781342D02*
X149703161Y-53495628D01*
X149703161Y-53495628D02*
X149750780Y-53400390D01*
X149750780Y-53400390D02*
X149798399Y-53352771D01*
X149798399Y-53352771D02*
X149893637Y-53305152D01*
X149893637Y-53305152D02*
X150084113Y-53305152D01*
X150084113Y-53305152D02*
X150179351Y-53352771D01*
X151322209Y-53924200D02*
X151465066Y-53971819D01*
X151465066Y-53971819D02*
X151703161Y-53971819D01*
X151703161Y-53971819D02*
X151798399Y-53924200D01*
X151798399Y-53924200D02*
X151846018Y-53876580D01*
X151846018Y-53876580D02*
X151893637Y-53781342D01*
X151893637Y-53781342D02*
X151893637Y-53686104D01*
X151893637Y-53686104D02*
X151846018Y-53590866D01*
X151846018Y-53590866D02*
X151798399Y-53543247D01*
X151798399Y-53543247D02*
X151703161Y-53495628D01*
X151703161Y-53495628D02*
X151512685Y-53448009D01*
X151512685Y-53448009D02*
X151417447Y-53400390D01*
X151417447Y-53400390D02*
X151369828Y-53352771D01*
X151369828Y-53352771D02*
X151322209Y-53257533D01*
X151322209Y-53257533D02*
X151322209Y-53162295D01*
X151322209Y-53162295D02*
X151369828Y-53067057D01*
X151369828Y-53067057D02*
X151417447Y-53019438D01*
X151417447Y-53019438D02*
X151512685Y-52971819D01*
X151512685Y-52971819D02*
X151750780Y-52971819D01*
X151750780Y-52971819D02*
X151893637Y-53019438D01*
X152322209Y-53971819D02*
X152322209Y-52971819D01*
X152750780Y-53971819D02*
X152750780Y-53448009D01*
X152750780Y-53448009D02*
X152703161Y-53352771D01*
X152703161Y-53352771D02*
X152607923Y-53305152D01*
X152607923Y-53305152D02*
X152465066Y-53305152D01*
X152465066Y-53305152D02*
X152369828Y-53352771D01*
X152369828Y-53352771D02*
X152322209Y-53400390D01*
X153226971Y-53971819D02*
X153226971Y-53305152D01*
X153226971Y-52971819D02*
X153179352Y-53019438D01*
X153179352Y-53019438D02*
X153226971Y-53067057D01*
X153226971Y-53067057D02*
X153274590Y-53019438D01*
X153274590Y-53019438D02*
X153226971Y-52971819D01*
X153226971Y-52971819D02*
X153226971Y-53067057D01*
X153560304Y-53305152D02*
X153941256Y-53305152D01*
X153703161Y-53971819D02*
X153703161Y-53114676D01*
X153703161Y-53114676D02*
X153750780Y-53019438D01*
X153750780Y-53019438D02*
X153846018Y-52971819D01*
X153846018Y-52971819D02*
X153941256Y-52971819D01*
X154131733Y-53305152D02*
X154512685Y-53305152D01*
X154274590Y-52971819D02*
X154274590Y-53828961D01*
X154274590Y-53828961D02*
X154322209Y-53924200D01*
X154322209Y-53924200D02*
X154417447Y-53971819D01*
X154417447Y-53971819D02*
X154512685Y-53971819D01*
X155226971Y-53924200D02*
X155131733Y-53971819D01*
X155131733Y-53971819D02*
X154941257Y-53971819D01*
X154941257Y-53971819D02*
X154846019Y-53924200D01*
X154846019Y-53924200D02*
X154798400Y-53828961D01*
X154798400Y-53828961D02*
X154798400Y-53448009D01*
X154798400Y-53448009D02*
X154846019Y-53352771D01*
X154846019Y-53352771D02*
X154941257Y-53305152D01*
X154941257Y-53305152D02*
X155131733Y-53305152D01*
X155131733Y-53305152D02*
X155226971Y-53352771D01*
X155226971Y-53352771D02*
X155274590Y-53448009D01*
X155274590Y-53448009D02*
X155274590Y-53543247D01*
X155274590Y-53543247D02*
X154798400Y-53638485D01*
X155703162Y-53971819D02*
X155703162Y-53305152D01*
X155703162Y-53495628D02*
X155750781Y-53400390D01*
X155750781Y-53400390D02*
X155798400Y-53352771D01*
X155798400Y-53352771D02*
X155893638Y-53305152D01*
X155893638Y-53305152D02*
X155988876Y-53305152D01*
X135698095Y-84979819D02*
X135698095Y-85789342D01*
X135698095Y-85789342D02*
X135745714Y-85884580D01*
X135745714Y-85884580D02*
X135793333Y-85932200D01*
X135793333Y-85932200D02*
X135888571Y-85979819D01*
X135888571Y-85979819D02*
X136079047Y-85979819D01*
X136079047Y-85979819D02*
X136174285Y-85932200D01*
X136174285Y-85932200D02*
X136221904Y-85884580D01*
X136221904Y-85884580D02*
X136269523Y-85789342D01*
X136269523Y-85789342D02*
X136269523Y-84979819D01*
X137269523Y-85979819D02*
X136698095Y-85979819D01*
X136983809Y-85979819D02*
X136983809Y-84979819D01*
X136983809Y-84979819D02*
X136888571Y-85122676D01*
X136888571Y-85122676D02*
X136793333Y-85217914D01*
X136793333Y-85217914D02*
X136698095Y-85265533D01*
X118037142Y-92689819D02*
X117703809Y-92213628D01*
X117465714Y-92689819D02*
X117465714Y-91689819D01*
X117465714Y-91689819D02*
X117846666Y-91689819D01*
X117846666Y-91689819D02*
X117941904Y-91737438D01*
X117941904Y-91737438D02*
X117989523Y-91785057D01*
X117989523Y-91785057D02*
X118037142Y-91880295D01*
X118037142Y-91880295D02*
X118037142Y-92023152D01*
X118037142Y-92023152D02*
X117989523Y-92118390D01*
X117989523Y-92118390D02*
X117941904Y-92166009D01*
X117941904Y-92166009D02*
X117846666Y-92213628D01*
X117846666Y-92213628D02*
X117465714Y-92213628D01*
X118989523Y-92689819D02*
X118418095Y-92689819D01*
X118703809Y-92689819D02*
X118703809Y-91689819D01*
X118703809Y-91689819D02*
X118608571Y-91832676D01*
X118608571Y-91832676D02*
X118513333Y-91927914D01*
X118513333Y-91927914D02*
X118418095Y-91975533D01*
X119941904Y-92689819D02*
X119370476Y-92689819D01*
X119656190Y-92689819D02*
X119656190Y-91689819D01*
X119656190Y-91689819D02*
X119560952Y-91832676D01*
X119560952Y-91832676D02*
X119465714Y-91927914D01*
X119465714Y-91927914D02*
X119370476Y-91975533D01*
X128499819Y-87606666D02*
X128023628Y-87939999D01*
X128499819Y-88178094D02*
X127499819Y-88178094D01*
X127499819Y-88178094D02*
X127499819Y-87797142D01*
X127499819Y-87797142D02*
X127547438Y-87701904D01*
X127547438Y-87701904D02*
X127595057Y-87654285D01*
X127595057Y-87654285D02*
X127690295Y-87606666D01*
X127690295Y-87606666D02*
X127833152Y-87606666D01*
X127833152Y-87606666D02*
X127928390Y-87654285D01*
X127928390Y-87654285D02*
X127976009Y-87701904D01*
X127976009Y-87701904D02*
X128023628Y-87797142D01*
X128023628Y-87797142D02*
X128023628Y-88178094D01*
X128499819Y-86654285D02*
X128499819Y-87225713D01*
X128499819Y-86939999D02*
X127499819Y-86939999D01*
X127499819Y-86939999D02*
X127642676Y-87035237D01*
X127642676Y-87035237D02*
X127737914Y-87130475D01*
X127737914Y-87130475D02*
X127785533Y-87225713D01*
X114516819Y-68151333D02*
X115231104Y-68151333D01*
X115231104Y-68151333D02*
X115373961Y-68198952D01*
X115373961Y-68198952D02*
X115469200Y-68294190D01*
X115469200Y-68294190D02*
X115516819Y-68437047D01*
X115516819Y-68437047D02*
X115516819Y-68532285D01*
X115516819Y-67151333D02*
X115516819Y-67722761D01*
X115516819Y-67437047D02*
X114516819Y-67437047D01*
X114516819Y-67437047D02*
X114659676Y-67532285D01*
X114659676Y-67532285D02*
X114754914Y-67627523D01*
X114754914Y-67627523D02*
X114802533Y-67722761D01*
X118513333Y-82529819D02*
X118180000Y-82053628D01*
X117941905Y-82529819D02*
X117941905Y-81529819D01*
X117941905Y-81529819D02*
X118322857Y-81529819D01*
X118322857Y-81529819D02*
X118418095Y-81577438D01*
X118418095Y-81577438D02*
X118465714Y-81625057D01*
X118465714Y-81625057D02*
X118513333Y-81720295D01*
X118513333Y-81720295D02*
X118513333Y-81863152D01*
X118513333Y-81863152D02*
X118465714Y-81958390D01*
X118465714Y-81958390D02*
X118418095Y-82006009D01*
X118418095Y-82006009D02*
X118322857Y-82053628D01*
X118322857Y-82053628D02*
X117941905Y-82053628D01*
X119370476Y-81529819D02*
X119180000Y-81529819D01*
X119180000Y-81529819D02*
X119084762Y-81577438D01*
X119084762Y-81577438D02*
X119037143Y-81625057D01*
X119037143Y-81625057D02*
X118941905Y-81767914D01*
X118941905Y-81767914D02*
X118894286Y-81958390D01*
X118894286Y-81958390D02*
X118894286Y-82339342D01*
X118894286Y-82339342D02*
X118941905Y-82434580D01*
X118941905Y-82434580D02*
X118989524Y-82482200D01*
X118989524Y-82482200D02*
X119084762Y-82529819D01*
X119084762Y-82529819D02*
X119275238Y-82529819D01*
X119275238Y-82529819D02*
X119370476Y-82482200D01*
X119370476Y-82482200D02*
X119418095Y-82434580D01*
X119418095Y-82434580D02*
X119465714Y-82339342D01*
X119465714Y-82339342D02*
X119465714Y-82101247D01*
X119465714Y-82101247D02*
X119418095Y-82006009D01*
X119418095Y-82006009D02*
X119370476Y-81958390D01*
X119370476Y-81958390D02*
X119275238Y-81910771D01*
X119275238Y-81910771D02*
X119084762Y-81910771D01*
X119084762Y-81910771D02*
X118989524Y-81958390D01*
X118989524Y-81958390D02*
X118941905Y-82006009D01*
X118941905Y-82006009D02*
X118894286Y-82101247D01*
X150326905Y-104499819D02*
X150326905Y-103499819D01*
X150326905Y-103499819D02*
X150565000Y-103499819D01*
X150565000Y-103499819D02*
X150707857Y-103547438D01*
X150707857Y-103547438D02*
X150803095Y-103642676D01*
X150803095Y-103642676D02*
X150850714Y-103737914D01*
X150850714Y-103737914D02*
X150898333Y-103928390D01*
X150898333Y-103928390D02*
X150898333Y-104071247D01*
X150898333Y-104071247D02*
X150850714Y-104261723D01*
X150850714Y-104261723D02*
X150803095Y-104356961D01*
X150803095Y-104356961D02*
X150707857Y-104452200D01*
X150707857Y-104452200D02*
X150565000Y-104499819D01*
X150565000Y-104499819D02*
X150326905Y-104499819D01*
X151469762Y-103928390D02*
X151374524Y-103880771D01*
X151374524Y-103880771D02*
X151326905Y-103833152D01*
X151326905Y-103833152D02*
X151279286Y-103737914D01*
X151279286Y-103737914D02*
X151279286Y-103690295D01*
X151279286Y-103690295D02*
X151326905Y-103595057D01*
X151326905Y-103595057D02*
X151374524Y-103547438D01*
X151374524Y-103547438D02*
X151469762Y-103499819D01*
X151469762Y-103499819D02*
X151660238Y-103499819D01*
X151660238Y-103499819D02*
X151755476Y-103547438D01*
X151755476Y-103547438D02*
X151803095Y-103595057D01*
X151803095Y-103595057D02*
X151850714Y-103690295D01*
X151850714Y-103690295D02*
X151850714Y-103737914D01*
X151850714Y-103737914D02*
X151803095Y-103833152D01*
X151803095Y-103833152D02*
X151755476Y-103880771D01*
X151755476Y-103880771D02*
X151660238Y-103928390D01*
X151660238Y-103928390D02*
X151469762Y-103928390D01*
X151469762Y-103928390D02*
X151374524Y-103976009D01*
X151374524Y-103976009D02*
X151326905Y-104023628D01*
X151326905Y-104023628D02*
X151279286Y-104118866D01*
X151279286Y-104118866D02*
X151279286Y-104309342D01*
X151279286Y-104309342D02*
X151326905Y-104404580D01*
X151326905Y-104404580D02*
X151374524Y-104452200D01*
X151374524Y-104452200D02*
X151469762Y-104499819D01*
X151469762Y-104499819D02*
X151660238Y-104499819D01*
X151660238Y-104499819D02*
X151755476Y-104452200D01*
X151755476Y-104452200D02*
X151803095Y-104404580D01*
X151803095Y-104404580D02*
X151850714Y-104309342D01*
X151850714Y-104309342D02*
X151850714Y-104118866D01*
X151850714Y-104118866D02*
X151803095Y-104023628D01*
X151803095Y-104023628D02*
X151755476Y-103976009D01*
X151755476Y-103976009D02*
X151660238Y-103928390D01*
X120991333Y-68272819D02*
X120658000Y-67796628D01*
X120419905Y-68272819D02*
X120419905Y-67272819D01*
X120419905Y-67272819D02*
X120800857Y-67272819D01*
X120800857Y-67272819D02*
X120896095Y-67320438D01*
X120896095Y-67320438D02*
X120943714Y-67368057D01*
X120943714Y-67368057D02*
X120991333Y-67463295D01*
X120991333Y-67463295D02*
X120991333Y-67606152D01*
X120991333Y-67606152D02*
X120943714Y-67701390D01*
X120943714Y-67701390D02*
X120896095Y-67749009D01*
X120896095Y-67749009D02*
X120800857Y-67796628D01*
X120800857Y-67796628D02*
X120419905Y-67796628D01*
X121848476Y-67606152D02*
X121848476Y-68272819D01*
X121610381Y-67225200D02*
X121372286Y-67939485D01*
X121372286Y-67939485D02*
X121991333Y-67939485D01*
X129994819Y-96940666D02*
X129518628Y-97273999D01*
X129994819Y-97512094D02*
X128994819Y-97512094D01*
X128994819Y-97512094D02*
X128994819Y-97131142D01*
X128994819Y-97131142D02*
X129042438Y-97035904D01*
X129042438Y-97035904D02*
X129090057Y-96988285D01*
X129090057Y-96988285D02*
X129185295Y-96940666D01*
X129185295Y-96940666D02*
X129328152Y-96940666D01*
X129328152Y-96940666D02*
X129423390Y-96988285D01*
X129423390Y-96988285D02*
X129471009Y-97035904D01*
X129471009Y-97035904D02*
X129518628Y-97131142D01*
X129518628Y-97131142D02*
X129518628Y-97512094D01*
X129423390Y-96369237D02*
X129375771Y-96464475D01*
X129375771Y-96464475D02*
X129328152Y-96512094D01*
X129328152Y-96512094D02*
X129232914Y-96559713D01*
X129232914Y-96559713D02*
X129185295Y-96559713D01*
X129185295Y-96559713D02*
X129090057Y-96512094D01*
X129090057Y-96512094D02*
X129042438Y-96464475D01*
X129042438Y-96464475D02*
X128994819Y-96369237D01*
X128994819Y-96369237D02*
X128994819Y-96178761D01*
X128994819Y-96178761D02*
X129042438Y-96083523D01*
X129042438Y-96083523D02*
X129090057Y-96035904D01*
X129090057Y-96035904D02*
X129185295Y-95988285D01*
X129185295Y-95988285D02*
X129232914Y-95988285D01*
X129232914Y-95988285D02*
X129328152Y-96035904D01*
X129328152Y-96035904D02*
X129375771Y-96083523D01*
X129375771Y-96083523D02*
X129423390Y-96178761D01*
X129423390Y-96178761D02*
X129423390Y-96369237D01*
X129423390Y-96369237D02*
X129471009Y-96464475D01*
X129471009Y-96464475D02*
X129518628Y-96512094D01*
X129518628Y-96512094D02*
X129613866Y-96559713D01*
X129613866Y-96559713D02*
X129804342Y-96559713D01*
X129804342Y-96559713D02*
X129899580Y-96512094D01*
X129899580Y-96512094D02*
X129947200Y-96464475D01*
X129947200Y-96464475D02*
X129994819Y-96369237D01*
X129994819Y-96369237D02*
X129994819Y-96178761D01*
X129994819Y-96178761D02*
X129947200Y-96083523D01*
X129947200Y-96083523D02*
X129899580Y-96035904D01*
X129899580Y-96035904D02*
X129804342Y-95988285D01*
X129804342Y-95988285D02*
X129613866Y-95988285D01*
X129613866Y-95988285D02*
X129518628Y-96035904D01*
X129518628Y-96035904D02*
X129471009Y-96083523D01*
X129471009Y-96083523D02*
X129423390Y-96178761D01*
X135741580Y-83224666D02*
X135789200Y-83272285D01*
X135789200Y-83272285D02*
X135836819Y-83415142D01*
X135836819Y-83415142D02*
X135836819Y-83510380D01*
X135836819Y-83510380D02*
X135789200Y-83653237D01*
X135789200Y-83653237D02*
X135693961Y-83748475D01*
X135693961Y-83748475D02*
X135598723Y-83796094D01*
X135598723Y-83796094D02*
X135408247Y-83843713D01*
X135408247Y-83843713D02*
X135265390Y-83843713D01*
X135265390Y-83843713D02*
X135074914Y-83796094D01*
X135074914Y-83796094D02*
X134979676Y-83748475D01*
X134979676Y-83748475D02*
X134884438Y-83653237D01*
X134884438Y-83653237D02*
X134836819Y-83510380D01*
X134836819Y-83510380D02*
X134836819Y-83415142D01*
X134836819Y-83415142D02*
X134884438Y-83272285D01*
X134884438Y-83272285D02*
X134932057Y-83224666D01*
X134932057Y-82843713D02*
X134884438Y-82796094D01*
X134884438Y-82796094D02*
X134836819Y-82700856D01*
X134836819Y-82700856D02*
X134836819Y-82462761D01*
X134836819Y-82462761D02*
X134884438Y-82367523D01*
X134884438Y-82367523D02*
X134932057Y-82319904D01*
X134932057Y-82319904D02*
X135027295Y-82272285D01*
X135027295Y-82272285D02*
X135122533Y-82272285D01*
X135122533Y-82272285D02*
X135265390Y-82319904D01*
X135265390Y-82319904D02*
X135836819Y-82891332D01*
X135836819Y-82891332D02*
X135836819Y-82272285D01*
X114234819Y-60653333D02*
X114949104Y-60653333D01*
X114949104Y-60653333D02*
X115091961Y-60700952D01*
X115091961Y-60700952D02*
X115187200Y-60796190D01*
X115187200Y-60796190D02*
X115234819Y-60939047D01*
X115234819Y-60939047D02*
X115234819Y-61034285D01*
X114234819Y-60272380D02*
X114234819Y-59653333D01*
X114234819Y-59653333D02*
X114615771Y-59986666D01*
X114615771Y-59986666D02*
X114615771Y-59843809D01*
X114615771Y-59843809D02*
X114663390Y-59748571D01*
X114663390Y-59748571D02*
X114711009Y-59700952D01*
X114711009Y-59700952D02*
X114806247Y-59653333D01*
X114806247Y-59653333D02*
X115044342Y-59653333D01*
X115044342Y-59653333D02*
X115139580Y-59700952D01*
X115139580Y-59700952D02*
X115187200Y-59748571D01*
X115187200Y-59748571D02*
X115234819Y-59843809D01*
X115234819Y-59843809D02*
X115234819Y-60129523D01*
X115234819Y-60129523D02*
X115187200Y-60224761D01*
X115187200Y-60224761D02*
X115139580Y-60272380D01*
X121023142Y-88592819D02*
X120689809Y-88116628D01*
X120451714Y-88592819D02*
X120451714Y-87592819D01*
X120451714Y-87592819D02*
X120832666Y-87592819D01*
X120832666Y-87592819D02*
X120927904Y-87640438D01*
X120927904Y-87640438D02*
X120975523Y-87688057D01*
X120975523Y-87688057D02*
X121023142Y-87783295D01*
X121023142Y-87783295D02*
X121023142Y-87926152D01*
X121023142Y-87926152D02*
X120975523Y-88021390D01*
X120975523Y-88021390D02*
X120927904Y-88069009D01*
X120927904Y-88069009D02*
X120832666Y-88116628D01*
X120832666Y-88116628D02*
X120451714Y-88116628D01*
X121975523Y-88592819D02*
X121404095Y-88592819D01*
X121689809Y-88592819D02*
X121689809Y-87592819D01*
X121689809Y-87592819D02*
X121594571Y-87735676D01*
X121594571Y-87735676D02*
X121499333Y-87830914D01*
X121499333Y-87830914D02*
X121404095Y-87878533D01*
X122356476Y-87688057D02*
X122404095Y-87640438D01*
X122404095Y-87640438D02*
X122499333Y-87592819D01*
X122499333Y-87592819D02*
X122737428Y-87592819D01*
X122737428Y-87592819D02*
X122832666Y-87640438D01*
X122832666Y-87640438D02*
X122880285Y-87688057D01*
X122880285Y-87688057D02*
X122927904Y-87783295D01*
X122927904Y-87783295D02*
X122927904Y-87878533D01*
X122927904Y-87878533D02*
X122880285Y-88021390D01*
X122880285Y-88021390D02*
X122308857Y-88592819D01*
X122308857Y-88592819D02*
X122927904Y-88592819D01*
X154089819Y-67389333D02*
X154804104Y-67389333D01*
X154804104Y-67389333D02*
X154946961Y-67436952D01*
X154946961Y-67436952D02*
X155042200Y-67532190D01*
X155042200Y-67532190D02*
X155089819Y-67675047D01*
X155089819Y-67675047D02*
X155089819Y-67770285D01*
X154185057Y-66960761D02*
X154137438Y-66913142D01*
X154137438Y-66913142D02*
X154089819Y-66817904D01*
X154089819Y-66817904D02*
X154089819Y-66579809D01*
X154089819Y-66579809D02*
X154137438Y-66484571D01*
X154137438Y-66484571D02*
X154185057Y-66436952D01*
X154185057Y-66436952D02*
X154280295Y-66389333D01*
X154280295Y-66389333D02*
X154375533Y-66389333D01*
X154375533Y-66389333D02*
X154518390Y-66436952D01*
X154518390Y-66436952D02*
X155089819Y-67008380D01*
X155089819Y-67008380D02*
X155089819Y-66389333D01*
X150326905Y-84179819D02*
X150326905Y-83179819D01*
X150326905Y-83179819D02*
X150565000Y-83179819D01*
X150565000Y-83179819D02*
X150707857Y-83227438D01*
X150707857Y-83227438D02*
X150803095Y-83322676D01*
X150803095Y-83322676D02*
X150850714Y-83417914D01*
X150850714Y-83417914D02*
X150898333Y-83608390D01*
X150898333Y-83608390D02*
X150898333Y-83751247D01*
X150898333Y-83751247D02*
X150850714Y-83941723D01*
X150850714Y-83941723D02*
X150803095Y-84036961D01*
X150803095Y-84036961D02*
X150707857Y-84132200D01*
X150707857Y-84132200D02*
X150565000Y-84179819D01*
X150565000Y-84179819D02*
X150326905Y-84179819D01*
X151755476Y-83513152D02*
X151755476Y-84179819D01*
X151517381Y-83132200D02*
X151279286Y-83846485D01*
X151279286Y-83846485D02*
X151898333Y-83846485D01*
X120991333Y-78432819D02*
X120658000Y-77956628D01*
X120419905Y-78432819D02*
X120419905Y-77432819D01*
X120419905Y-77432819D02*
X120800857Y-77432819D01*
X120800857Y-77432819D02*
X120896095Y-77480438D01*
X120896095Y-77480438D02*
X120943714Y-77528057D01*
X120943714Y-77528057D02*
X120991333Y-77623295D01*
X120991333Y-77623295D02*
X120991333Y-77766152D01*
X120991333Y-77766152D02*
X120943714Y-77861390D01*
X120943714Y-77861390D02*
X120896095Y-77909009D01*
X120896095Y-77909009D02*
X120800857Y-77956628D01*
X120800857Y-77956628D02*
X120419905Y-77956628D01*
X121324667Y-77432819D02*
X121991333Y-77432819D01*
X121991333Y-77432819D02*
X121562762Y-78432819D01*
X150898333Y-72369819D02*
X150565000Y-71893628D01*
X150326905Y-72369819D02*
X150326905Y-71369819D01*
X150326905Y-71369819D02*
X150707857Y-71369819D01*
X150707857Y-71369819D02*
X150803095Y-71417438D01*
X150803095Y-71417438D02*
X150850714Y-71465057D01*
X150850714Y-71465057D02*
X150898333Y-71560295D01*
X150898333Y-71560295D02*
X150898333Y-71703152D01*
X150898333Y-71703152D02*
X150850714Y-71798390D01*
X150850714Y-71798390D02*
X150803095Y-71846009D01*
X150803095Y-71846009D02*
X150707857Y-71893628D01*
X150707857Y-71893628D02*
X150326905Y-71893628D01*
X151231667Y-71369819D02*
X151850714Y-71369819D01*
X151850714Y-71369819D02*
X151517381Y-71750771D01*
X151517381Y-71750771D02*
X151660238Y-71750771D01*
X151660238Y-71750771D02*
X151755476Y-71798390D01*
X151755476Y-71798390D02*
X151803095Y-71846009D01*
X151803095Y-71846009D02*
X151850714Y-71941247D01*
X151850714Y-71941247D02*
X151850714Y-72179342D01*
X151850714Y-72179342D02*
X151803095Y-72274580D01*
X151803095Y-72274580D02*
X151755476Y-72322200D01*
X151755476Y-72322200D02*
X151660238Y-72369819D01*
X151660238Y-72369819D02*
X151374524Y-72369819D01*
X151374524Y-72369819D02*
X151279286Y-72322200D01*
X151279286Y-72322200D02*
X151231667Y-72274580D01*
X119149905Y-58112819D02*
X119149905Y-57112819D01*
X119149905Y-57112819D02*
X119388000Y-57112819D01*
X119388000Y-57112819D02*
X119530857Y-57160438D01*
X119530857Y-57160438D02*
X119626095Y-57255676D01*
X119626095Y-57255676D02*
X119673714Y-57350914D01*
X119673714Y-57350914D02*
X119721333Y-57541390D01*
X119721333Y-57541390D02*
X119721333Y-57684247D01*
X119721333Y-57684247D02*
X119673714Y-57874723D01*
X119673714Y-57874723D02*
X119626095Y-57969961D01*
X119626095Y-57969961D02*
X119530857Y-58065200D01*
X119530857Y-58065200D02*
X119388000Y-58112819D01*
X119388000Y-58112819D02*
X119149905Y-58112819D01*
X120197524Y-58112819D02*
X120388000Y-58112819D01*
X120388000Y-58112819D02*
X120483238Y-58065200D01*
X120483238Y-58065200D02*
X120530857Y-58017580D01*
X120530857Y-58017580D02*
X120626095Y-57874723D01*
X120626095Y-57874723D02*
X120673714Y-57684247D01*
X120673714Y-57684247D02*
X120673714Y-57303295D01*
X120673714Y-57303295D02*
X120626095Y-57208057D01*
X120626095Y-57208057D02*
X120578476Y-57160438D01*
X120578476Y-57160438D02*
X120483238Y-57112819D01*
X120483238Y-57112819D02*
X120292762Y-57112819D01*
X120292762Y-57112819D02*
X120197524Y-57160438D01*
X120197524Y-57160438D02*
X120149905Y-57208057D01*
X120149905Y-57208057D02*
X120102286Y-57303295D01*
X120102286Y-57303295D02*
X120102286Y-57541390D01*
X120102286Y-57541390D02*
X120149905Y-57636628D01*
X120149905Y-57636628D02*
X120197524Y-57684247D01*
X120197524Y-57684247D02*
X120292762Y-57731866D01*
X120292762Y-57731866D02*
X120483238Y-57731866D01*
X120483238Y-57731866D02*
X120578476Y-57684247D01*
X120578476Y-57684247D02*
X120626095Y-57636628D01*
X120626095Y-57636628D02*
X120673714Y-57541390D01*
X131772819Y-83224666D02*
X131296628Y-83557999D01*
X131772819Y-83796094D02*
X130772819Y-83796094D01*
X130772819Y-83796094D02*
X130772819Y-83415142D01*
X130772819Y-83415142D02*
X130820438Y-83319904D01*
X130820438Y-83319904D02*
X130868057Y-83272285D01*
X130868057Y-83272285D02*
X130963295Y-83224666D01*
X130963295Y-83224666D02*
X131106152Y-83224666D01*
X131106152Y-83224666D02*
X131201390Y-83272285D01*
X131201390Y-83272285D02*
X131249009Y-83319904D01*
X131249009Y-83319904D02*
X131296628Y-83415142D01*
X131296628Y-83415142D02*
X131296628Y-83796094D01*
X130868057Y-82843713D02*
X130820438Y-82796094D01*
X130820438Y-82796094D02*
X130772819Y-82700856D01*
X130772819Y-82700856D02*
X130772819Y-82462761D01*
X130772819Y-82462761D02*
X130820438Y-82367523D01*
X130820438Y-82367523D02*
X130868057Y-82319904D01*
X130868057Y-82319904D02*
X130963295Y-82272285D01*
X130963295Y-82272285D02*
X131058533Y-82272285D01*
X131058533Y-82272285D02*
X131201390Y-82319904D01*
X131201390Y-82319904D02*
X131772819Y-82891332D01*
X131772819Y-82891332D02*
X131772819Y-82272285D01*
X128357333Y-92053580D02*
X128309714Y-92101200D01*
X128309714Y-92101200D02*
X128166857Y-92148819D01*
X128166857Y-92148819D02*
X128071619Y-92148819D01*
X128071619Y-92148819D02*
X127928762Y-92101200D01*
X127928762Y-92101200D02*
X127833524Y-92005961D01*
X127833524Y-92005961D02*
X127785905Y-91910723D01*
X127785905Y-91910723D02*
X127738286Y-91720247D01*
X127738286Y-91720247D02*
X127738286Y-91577390D01*
X127738286Y-91577390D02*
X127785905Y-91386914D01*
X127785905Y-91386914D02*
X127833524Y-91291676D01*
X127833524Y-91291676D02*
X127928762Y-91196438D01*
X127928762Y-91196438D02*
X128071619Y-91148819D01*
X128071619Y-91148819D02*
X128166857Y-91148819D01*
X128166857Y-91148819D02*
X128309714Y-91196438D01*
X128309714Y-91196438D02*
X128357333Y-91244057D01*
X129309714Y-92148819D02*
X128738286Y-92148819D01*
X129024000Y-92148819D02*
X129024000Y-91148819D01*
X129024000Y-91148819D02*
X128928762Y-91291676D01*
X128928762Y-91291676D02*
X128833524Y-91386914D01*
X128833524Y-91386914D02*
X128738286Y-91434533D01*
X121435905Y-75638819D02*
X121435905Y-74638819D01*
X121435905Y-74638819D02*
X121674000Y-74638819D01*
X121674000Y-74638819D02*
X121816857Y-74686438D01*
X121816857Y-74686438D02*
X121912095Y-74781676D01*
X121912095Y-74781676D02*
X121959714Y-74876914D01*
X121959714Y-74876914D02*
X122007333Y-75067390D01*
X122007333Y-75067390D02*
X122007333Y-75210247D01*
X122007333Y-75210247D02*
X121959714Y-75400723D01*
X121959714Y-75400723D02*
X121912095Y-75495961D01*
X121912095Y-75495961D02*
X121816857Y-75591200D01*
X121816857Y-75591200D02*
X121674000Y-75638819D01*
X121674000Y-75638819D02*
X121435905Y-75638819D01*
X122959714Y-75638819D02*
X122388286Y-75638819D01*
X122674000Y-75638819D02*
X122674000Y-74638819D01*
X122674000Y-74638819D02*
X122578762Y-74781676D01*
X122578762Y-74781676D02*
X122483524Y-74876914D01*
X122483524Y-74876914D02*
X122388286Y-74924533D01*
X144472819Y-84970857D02*
X143996628Y-85304190D01*
X144472819Y-85542285D02*
X143472819Y-85542285D01*
X143472819Y-85542285D02*
X143472819Y-85161333D01*
X143472819Y-85161333D02*
X143520438Y-85066095D01*
X143520438Y-85066095D02*
X143568057Y-85018476D01*
X143568057Y-85018476D02*
X143663295Y-84970857D01*
X143663295Y-84970857D02*
X143806152Y-84970857D01*
X143806152Y-84970857D02*
X143901390Y-85018476D01*
X143901390Y-85018476D02*
X143949009Y-85066095D01*
X143949009Y-85066095D02*
X143996628Y-85161333D01*
X143996628Y-85161333D02*
X143996628Y-85542285D01*
X144472819Y-84018476D02*
X144472819Y-84589904D01*
X144472819Y-84304190D02*
X143472819Y-84304190D01*
X143472819Y-84304190D02*
X143615676Y-84399428D01*
X143615676Y-84399428D02*
X143710914Y-84494666D01*
X143710914Y-84494666D02*
X143758533Y-84589904D01*
X143901390Y-83447047D02*
X143853771Y-83542285D01*
X143853771Y-83542285D02*
X143806152Y-83589904D01*
X143806152Y-83589904D02*
X143710914Y-83637523D01*
X143710914Y-83637523D02*
X143663295Y-83637523D01*
X143663295Y-83637523D02*
X143568057Y-83589904D01*
X143568057Y-83589904D02*
X143520438Y-83542285D01*
X143520438Y-83542285D02*
X143472819Y-83447047D01*
X143472819Y-83447047D02*
X143472819Y-83256571D01*
X143472819Y-83256571D02*
X143520438Y-83161333D01*
X143520438Y-83161333D02*
X143568057Y-83113714D01*
X143568057Y-83113714D02*
X143663295Y-83066095D01*
X143663295Y-83066095D02*
X143710914Y-83066095D01*
X143710914Y-83066095D02*
X143806152Y-83113714D01*
X143806152Y-83113714D02*
X143853771Y-83161333D01*
X143853771Y-83161333D02*
X143901390Y-83256571D01*
X143901390Y-83256571D02*
X143901390Y-83447047D01*
X143901390Y-83447047D02*
X143949009Y-83542285D01*
X143949009Y-83542285D02*
X143996628Y-83589904D01*
X143996628Y-83589904D02*
X144091866Y-83637523D01*
X144091866Y-83637523D02*
X144282342Y-83637523D01*
X144282342Y-83637523D02*
X144377580Y-83589904D01*
X144377580Y-83589904D02*
X144425200Y-83542285D01*
X144425200Y-83542285D02*
X144472819Y-83447047D01*
X144472819Y-83447047D02*
X144472819Y-83256571D01*
X144472819Y-83256571D02*
X144425200Y-83161333D01*
X144425200Y-83161333D02*
X144377580Y-83113714D01*
X144377580Y-83113714D02*
X144282342Y-83066095D01*
X144282342Y-83066095D02*
X144091866Y-83066095D01*
X144091866Y-83066095D02*
X143996628Y-83113714D01*
X143996628Y-83113714D02*
X143949009Y-83161333D01*
X143949009Y-83161333D02*
X143901390Y-83256571D01*
X118513333Y-72369819D02*
X118180000Y-71893628D01*
X117941905Y-72369819D02*
X117941905Y-71369819D01*
X117941905Y-71369819D02*
X118322857Y-71369819D01*
X118322857Y-71369819D02*
X118418095Y-71417438D01*
X118418095Y-71417438D02*
X118465714Y-71465057D01*
X118465714Y-71465057D02*
X118513333Y-71560295D01*
X118513333Y-71560295D02*
X118513333Y-71703152D01*
X118513333Y-71703152D02*
X118465714Y-71798390D01*
X118465714Y-71798390D02*
X118418095Y-71846009D01*
X118418095Y-71846009D02*
X118322857Y-71893628D01*
X118322857Y-71893628D02*
X117941905Y-71893628D01*
X119418095Y-71369819D02*
X118941905Y-71369819D01*
X118941905Y-71369819D02*
X118894286Y-71846009D01*
X118894286Y-71846009D02*
X118941905Y-71798390D01*
X118941905Y-71798390D02*
X119037143Y-71750771D01*
X119037143Y-71750771D02*
X119275238Y-71750771D01*
X119275238Y-71750771D02*
X119370476Y-71798390D01*
X119370476Y-71798390D02*
X119418095Y-71846009D01*
X119418095Y-71846009D02*
X119465714Y-71941247D01*
X119465714Y-71941247D02*
X119465714Y-72179342D01*
X119465714Y-72179342D02*
X119418095Y-72274580D01*
X119418095Y-72274580D02*
X119370476Y-72322200D01*
X119370476Y-72322200D02*
X119275238Y-72369819D01*
X119275238Y-72369819D02*
X119037143Y-72369819D01*
X119037143Y-72369819D02*
X118941905Y-72322200D01*
X118941905Y-72322200D02*
X118894286Y-72274580D01*
X121435905Y-95958819D02*
X121435905Y-94958819D01*
X121435905Y-94958819D02*
X121674000Y-94958819D01*
X121674000Y-94958819D02*
X121816857Y-95006438D01*
X121816857Y-95006438D02*
X121912095Y-95101676D01*
X121912095Y-95101676D02*
X121959714Y-95196914D01*
X121959714Y-95196914D02*
X122007333Y-95387390D01*
X122007333Y-95387390D02*
X122007333Y-95530247D01*
X122007333Y-95530247D02*
X121959714Y-95720723D01*
X121959714Y-95720723D02*
X121912095Y-95815961D01*
X121912095Y-95815961D02*
X121816857Y-95911200D01*
X121816857Y-95911200D02*
X121674000Y-95958819D01*
X121674000Y-95958819D02*
X121435905Y-95958819D01*
X122912095Y-94958819D02*
X122435905Y-94958819D01*
X122435905Y-94958819D02*
X122388286Y-95435009D01*
X122388286Y-95435009D02*
X122435905Y-95387390D01*
X122435905Y-95387390D02*
X122531143Y-95339771D01*
X122531143Y-95339771D02*
X122769238Y-95339771D01*
X122769238Y-95339771D02*
X122864476Y-95387390D01*
X122864476Y-95387390D02*
X122912095Y-95435009D01*
X122912095Y-95435009D02*
X122959714Y-95530247D01*
X122959714Y-95530247D02*
X122959714Y-95768342D01*
X122959714Y-95768342D02*
X122912095Y-95863580D01*
X122912095Y-95863580D02*
X122864476Y-95911200D01*
X122864476Y-95911200D02*
X122769238Y-95958819D01*
X122769238Y-95958819D02*
X122531143Y-95958819D01*
X122531143Y-95958819D02*
X122435905Y-95911200D01*
X122435905Y-95911200D02*
X122388286Y-95863580D01*
X121023142Y-98752819D02*
X120689809Y-98276628D01*
X120451714Y-98752819D02*
X120451714Y-97752819D01*
X120451714Y-97752819D02*
X120832666Y-97752819D01*
X120832666Y-97752819D02*
X120927904Y-97800438D01*
X120927904Y-97800438D02*
X120975523Y-97848057D01*
X120975523Y-97848057D02*
X121023142Y-97943295D01*
X121023142Y-97943295D02*
X121023142Y-98086152D01*
X121023142Y-98086152D02*
X120975523Y-98181390D01*
X120975523Y-98181390D02*
X120927904Y-98229009D01*
X120927904Y-98229009D02*
X120832666Y-98276628D01*
X120832666Y-98276628D02*
X120451714Y-98276628D01*
X121975523Y-98752819D02*
X121404095Y-98752819D01*
X121689809Y-98752819D02*
X121689809Y-97752819D01*
X121689809Y-97752819D02*
X121594571Y-97895676D01*
X121594571Y-97895676D02*
X121499333Y-97990914D01*
X121499333Y-97990914D02*
X121404095Y-98038533D01*
X122308857Y-97752819D02*
X122975523Y-97752819D01*
X122975523Y-97752819D02*
X122546952Y-98752819D01*
X150326905Y-94339819D02*
X150326905Y-93339819D01*
X150326905Y-93339819D02*
X150565000Y-93339819D01*
X150565000Y-93339819D02*
X150707857Y-93387438D01*
X150707857Y-93387438D02*
X150803095Y-93482676D01*
X150803095Y-93482676D02*
X150850714Y-93577914D01*
X150850714Y-93577914D02*
X150898333Y-93768390D01*
X150898333Y-93768390D02*
X150898333Y-93911247D01*
X150898333Y-93911247D02*
X150850714Y-94101723D01*
X150850714Y-94101723D02*
X150803095Y-94196961D01*
X150803095Y-94196961D02*
X150707857Y-94292200D01*
X150707857Y-94292200D02*
X150565000Y-94339819D01*
X150565000Y-94339819D02*
X150326905Y-94339819D01*
X151755476Y-93339819D02*
X151565000Y-93339819D01*
X151565000Y-93339819D02*
X151469762Y-93387438D01*
X151469762Y-93387438D02*
X151422143Y-93435057D01*
X151422143Y-93435057D02*
X151326905Y-93577914D01*
X151326905Y-93577914D02*
X151279286Y-93768390D01*
X151279286Y-93768390D02*
X151279286Y-94149342D01*
X151279286Y-94149342D02*
X151326905Y-94244580D01*
X151326905Y-94244580D02*
X151374524Y-94292200D01*
X151374524Y-94292200D02*
X151469762Y-94339819D01*
X151469762Y-94339819D02*
X151660238Y-94339819D01*
X151660238Y-94339819D02*
X151755476Y-94292200D01*
X151755476Y-94292200D02*
X151803095Y-94244580D01*
X151803095Y-94244580D02*
X151850714Y-94149342D01*
X151850714Y-94149342D02*
X151850714Y-93911247D01*
X151850714Y-93911247D02*
X151803095Y-93816009D01*
X151803095Y-93816009D02*
X151755476Y-93768390D01*
X151755476Y-93768390D02*
X151660238Y-93720771D01*
X151660238Y-93720771D02*
X151469762Y-93720771D01*
X151469762Y-93720771D02*
X151374524Y-93768390D01*
X151374524Y-93768390D02*
X151326905Y-93816009D01*
X151326905Y-93816009D02*
X151279286Y-93911247D01*
X150326905Y-74019819D02*
X150326905Y-73019819D01*
X150326905Y-73019819D02*
X150565000Y-73019819D01*
X150565000Y-73019819D02*
X150707857Y-73067438D01*
X150707857Y-73067438D02*
X150803095Y-73162676D01*
X150803095Y-73162676D02*
X150850714Y-73257914D01*
X150850714Y-73257914D02*
X150898333Y-73448390D01*
X150898333Y-73448390D02*
X150898333Y-73591247D01*
X150898333Y-73591247D02*
X150850714Y-73781723D01*
X150850714Y-73781723D02*
X150803095Y-73876961D01*
X150803095Y-73876961D02*
X150707857Y-73972200D01*
X150707857Y-73972200D02*
X150565000Y-74019819D01*
X150565000Y-74019819D02*
X150326905Y-74019819D01*
X151279286Y-73115057D02*
X151326905Y-73067438D01*
X151326905Y-73067438D02*
X151422143Y-73019819D01*
X151422143Y-73019819D02*
X151660238Y-73019819D01*
X151660238Y-73019819D02*
X151755476Y-73067438D01*
X151755476Y-73067438D02*
X151803095Y-73115057D01*
X151803095Y-73115057D02*
X151850714Y-73210295D01*
X151850714Y-73210295D02*
X151850714Y-73305533D01*
X151850714Y-73305533D02*
X151803095Y-73448390D01*
X151803095Y-73448390D02*
X151231667Y-74019819D01*
X151231667Y-74019819D02*
X151850714Y-74019819D01*
X145329819Y-94812857D02*
X144853628Y-95146190D01*
X145329819Y-95384285D02*
X144329819Y-95384285D01*
X144329819Y-95384285D02*
X144329819Y-95003333D01*
X144329819Y-95003333D02*
X144377438Y-94908095D01*
X144377438Y-94908095D02*
X144425057Y-94860476D01*
X144425057Y-94860476D02*
X144520295Y-94812857D01*
X144520295Y-94812857D02*
X144663152Y-94812857D01*
X144663152Y-94812857D02*
X144758390Y-94860476D01*
X144758390Y-94860476D02*
X144806009Y-94908095D01*
X144806009Y-94908095D02*
X144853628Y-95003333D01*
X144853628Y-95003333D02*
X144853628Y-95384285D01*
X145329819Y-93860476D02*
X145329819Y-94431904D01*
X145329819Y-94146190D02*
X144329819Y-94146190D01*
X144329819Y-94146190D02*
X144472676Y-94241428D01*
X144472676Y-94241428D02*
X144567914Y-94336666D01*
X144567914Y-94336666D02*
X144615533Y-94431904D01*
X144329819Y-93527142D02*
X144329819Y-92908095D01*
X144329819Y-92908095D02*
X144710771Y-93241428D01*
X144710771Y-93241428D02*
X144710771Y-93098571D01*
X144710771Y-93098571D02*
X144758390Y-93003333D01*
X144758390Y-93003333D02*
X144806009Y-92955714D01*
X144806009Y-92955714D02*
X144901247Y-92908095D01*
X144901247Y-92908095D02*
X145139342Y-92908095D01*
X145139342Y-92908095D02*
X145234580Y-92955714D01*
X145234580Y-92955714D02*
X145282200Y-93003333D01*
X145282200Y-93003333D02*
X145329819Y-93098571D01*
X145329819Y-93098571D02*
X145329819Y-93384285D01*
X145329819Y-93384285D02*
X145282200Y-93479523D01*
X145282200Y-93479523D02*
X145234580Y-93527142D01*
X118037142Y-102849819D02*
X117703809Y-102373628D01*
X117465714Y-102849819D02*
X117465714Y-101849819D01*
X117465714Y-101849819D02*
X117846666Y-101849819D01*
X117846666Y-101849819D02*
X117941904Y-101897438D01*
X117941904Y-101897438D02*
X117989523Y-101945057D01*
X117989523Y-101945057D02*
X118037142Y-102040295D01*
X118037142Y-102040295D02*
X118037142Y-102183152D01*
X118037142Y-102183152D02*
X117989523Y-102278390D01*
X117989523Y-102278390D02*
X117941904Y-102326009D01*
X117941904Y-102326009D02*
X117846666Y-102373628D01*
X117846666Y-102373628D02*
X117465714Y-102373628D01*
X118989523Y-102849819D02*
X118418095Y-102849819D01*
X118703809Y-102849819D02*
X118703809Y-101849819D01*
X118703809Y-101849819D02*
X118608571Y-101992676D01*
X118608571Y-101992676D02*
X118513333Y-102087914D01*
X118513333Y-102087914D02*
X118418095Y-102135533D01*
X119846666Y-101849819D02*
X119656190Y-101849819D01*
X119656190Y-101849819D02*
X119560952Y-101897438D01*
X119560952Y-101897438D02*
X119513333Y-101945057D01*
X119513333Y-101945057D02*
X119418095Y-102087914D01*
X119418095Y-102087914D02*
X119370476Y-102278390D01*
X119370476Y-102278390D02*
X119370476Y-102659342D01*
X119370476Y-102659342D02*
X119418095Y-102754580D01*
X119418095Y-102754580D02*
X119465714Y-102802200D01*
X119465714Y-102802200D02*
X119560952Y-102849819D01*
X119560952Y-102849819D02*
X119751428Y-102849819D01*
X119751428Y-102849819D02*
X119846666Y-102802200D01*
X119846666Y-102802200D02*
X119894285Y-102754580D01*
X119894285Y-102754580D02*
X119941904Y-102659342D01*
X119941904Y-102659342D02*
X119941904Y-102421247D01*
X119941904Y-102421247D02*
X119894285Y-102326009D01*
X119894285Y-102326009D02*
X119846666Y-102278390D01*
X119846666Y-102278390D02*
X119751428Y-102230771D01*
X119751428Y-102230771D02*
X119560952Y-102230771D01*
X119560952Y-102230771D02*
X119465714Y-102278390D01*
X119465714Y-102278390D02*
X119418095Y-102326009D01*
X119418095Y-102326009D02*
X119370476Y-102421247D01*
X131772819Y-96940666D02*
X131296628Y-97273999D01*
X131772819Y-97512094D02*
X130772819Y-97512094D01*
X130772819Y-97512094D02*
X130772819Y-97131142D01*
X130772819Y-97131142D02*
X130820438Y-97035904D01*
X130820438Y-97035904D02*
X130868057Y-96988285D01*
X130868057Y-96988285D02*
X130963295Y-96940666D01*
X130963295Y-96940666D02*
X131106152Y-96940666D01*
X131106152Y-96940666D02*
X131201390Y-96988285D01*
X131201390Y-96988285D02*
X131249009Y-97035904D01*
X131249009Y-97035904D02*
X131296628Y-97131142D01*
X131296628Y-97131142D02*
X131296628Y-97512094D01*
X131772819Y-96464475D02*
X131772819Y-96273999D01*
X131772819Y-96273999D02*
X131725200Y-96178761D01*
X131725200Y-96178761D02*
X131677580Y-96131142D01*
X131677580Y-96131142D02*
X131534723Y-96035904D01*
X131534723Y-96035904D02*
X131344247Y-95988285D01*
X131344247Y-95988285D02*
X130963295Y-95988285D01*
X130963295Y-95988285D02*
X130868057Y-96035904D01*
X130868057Y-96035904D02*
X130820438Y-96083523D01*
X130820438Y-96083523D02*
X130772819Y-96178761D01*
X130772819Y-96178761D02*
X130772819Y-96369237D01*
X130772819Y-96369237D02*
X130820438Y-96464475D01*
X130820438Y-96464475D02*
X130868057Y-96512094D01*
X130868057Y-96512094D02*
X130963295Y-96559713D01*
X130963295Y-96559713D02*
X131201390Y-96559713D01*
X131201390Y-96559713D02*
X131296628Y-96512094D01*
X131296628Y-96512094D02*
X131344247Y-96464475D01*
X131344247Y-96464475D02*
X131391866Y-96369237D01*
X131391866Y-96369237D02*
X131391866Y-96178761D01*
X131391866Y-96178761D02*
X131344247Y-96083523D01*
X131344247Y-96083523D02*
X131296628Y-96035904D01*
X131296628Y-96035904D02*
X131201390Y-95988285D01*
X150422142Y-92689819D02*
X150088809Y-92213628D01*
X149850714Y-92689819D02*
X149850714Y-91689819D01*
X149850714Y-91689819D02*
X150231666Y-91689819D01*
X150231666Y-91689819D02*
X150326904Y-91737438D01*
X150326904Y-91737438D02*
X150374523Y-91785057D01*
X150374523Y-91785057D02*
X150422142Y-91880295D01*
X150422142Y-91880295D02*
X150422142Y-92023152D01*
X150422142Y-92023152D02*
X150374523Y-92118390D01*
X150374523Y-92118390D02*
X150326904Y-92166009D01*
X150326904Y-92166009D02*
X150231666Y-92213628D01*
X150231666Y-92213628D02*
X149850714Y-92213628D01*
X151374523Y-92689819D02*
X150803095Y-92689819D01*
X151088809Y-92689819D02*
X151088809Y-91689819D01*
X151088809Y-91689819D02*
X150993571Y-91832676D01*
X150993571Y-91832676D02*
X150898333Y-91927914D01*
X150898333Y-91927914D02*
X150803095Y-91975533D01*
X152279285Y-91689819D02*
X151803095Y-91689819D01*
X151803095Y-91689819D02*
X151755476Y-92166009D01*
X151755476Y-92166009D02*
X151803095Y-92118390D01*
X151803095Y-92118390D02*
X151898333Y-92070771D01*
X151898333Y-92070771D02*
X152136428Y-92070771D01*
X152136428Y-92070771D02*
X152231666Y-92118390D01*
X152231666Y-92118390D02*
X152279285Y-92166009D01*
X152279285Y-92166009D02*
X152326904Y-92261247D01*
X152326904Y-92261247D02*
X152326904Y-92499342D01*
X152326904Y-92499342D02*
X152279285Y-92594580D01*
X152279285Y-92594580D02*
X152231666Y-92642200D01*
X152231666Y-92642200D02*
X152136428Y-92689819D01*
X152136428Y-92689819D02*
X151898333Y-92689819D01*
X151898333Y-92689819D02*
X151803095Y-92642200D01*
X151803095Y-92642200D02*
X151755476Y-92594580D01*
X141932819Y-84970857D02*
X141456628Y-85304190D01*
X141932819Y-85542285D02*
X140932819Y-85542285D01*
X140932819Y-85542285D02*
X140932819Y-85161333D01*
X140932819Y-85161333D02*
X140980438Y-85066095D01*
X140980438Y-85066095D02*
X141028057Y-85018476D01*
X141028057Y-85018476D02*
X141123295Y-84970857D01*
X141123295Y-84970857D02*
X141266152Y-84970857D01*
X141266152Y-84970857D02*
X141361390Y-85018476D01*
X141361390Y-85018476D02*
X141409009Y-85066095D01*
X141409009Y-85066095D02*
X141456628Y-85161333D01*
X141456628Y-85161333D02*
X141456628Y-85542285D01*
X141932819Y-84018476D02*
X141932819Y-84589904D01*
X141932819Y-84304190D02*
X140932819Y-84304190D01*
X140932819Y-84304190D02*
X141075676Y-84399428D01*
X141075676Y-84399428D02*
X141170914Y-84494666D01*
X141170914Y-84494666D02*
X141218533Y-84589904D01*
X141932819Y-83542285D02*
X141932819Y-83351809D01*
X141932819Y-83351809D02*
X141885200Y-83256571D01*
X141885200Y-83256571D02*
X141837580Y-83208952D01*
X141837580Y-83208952D02*
X141694723Y-83113714D01*
X141694723Y-83113714D02*
X141504247Y-83066095D01*
X141504247Y-83066095D02*
X141123295Y-83066095D01*
X141123295Y-83066095D02*
X141028057Y-83113714D01*
X141028057Y-83113714D02*
X140980438Y-83161333D01*
X140980438Y-83161333D02*
X140932819Y-83256571D01*
X140932819Y-83256571D02*
X140932819Y-83447047D01*
X140932819Y-83447047D02*
X140980438Y-83542285D01*
X140980438Y-83542285D02*
X141028057Y-83589904D01*
X141028057Y-83589904D02*
X141123295Y-83637523D01*
X141123295Y-83637523D02*
X141361390Y-83637523D01*
X141361390Y-83637523D02*
X141456628Y-83589904D01*
X141456628Y-83589904D02*
X141504247Y-83542285D01*
X141504247Y-83542285D02*
X141551866Y-83447047D01*
X141551866Y-83447047D02*
X141551866Y-83256571D01*
X141551866Y-83256571D02*
X141504247Y-83161333D01*
X141504247Y-83161333D02*
X141456628Y-83113714D01*
X141456628Y-83113714D02*
X141361390Y-83066095D01*
X150422142Y-82529819D02*
X150088809Y-82053628D01*
X149850714Y-82529819D02*
X149850714Y-81529819D01*
X149850714Y-81529819D02*
X150231666Y-81529819D01*
X150231666Y-81529819D02*
X150326904Y-81577438D01*
X150326904Y-81577438D02*
X150374523Y-81625057D01*
X150374523Y-81625057D02*
X150422142Y-81720295D01*
X150422142Y-81720295D02*
X150422142Y-81863152D01*
X150422142Y-81863152D02*
X150374523Y-81958390D01*
X150374523Y-81958390D02*
X150326904Y-82006009D01*
X150326904Y-82006009D02*
X150231666Y-82053628D01*
X150231666Y-82053628D02*
X149850714Y-82053628D01*
X151374523Y-82529819D02*
X150803095Y-82529819D01*
X151088809Y-82529819D02*
X151088809Y-81529819D01*
X151088809Y-81529819D02*
X150993571Y-81672676D01*
X150993571Y-81672676D02*
X150898333Y-81767914D01*
X150898333Y-81767914D02*
X150803095Y-81815533D01*
X151993571Y-81529819D02*
X152088809Y-81529819D01*
X152088809Y-81529819D02*
X152184047Y-81577438D01*
X152184047Y-81577438D02*
X152231666Y-81625057D01*
X152231666Y-81625057D02*
X152279285Y-81720295D01*
X152279285Y-81720295D02*
X152326904Y-81910771D01*
X152326904Y-81910771D02*
X152326904Y-82148866D01*
X152326904Y-82148866D02*
X152279285Y-82339342D01*
X152279285Y-82339342D02*
X152231666Y-82434580D01*
X152231666Y-82434580D02*
X152184047Y-82482200D01*
X152184047Y-82482200D02*
X152088809Y-82529819D01*
X152088809Y-82529819D02*
X151993571Y-82529819D01*
X151993571Y-82529819D02*
X151898333Y-82482200D01*
X151898333Y-82482200D02*
X151850714Y-82434580D01*
X151850714Y-82434580D02*
X151803095Y-82339342D01*
X151803095Y-82339342D02*
X151755476Y-82148866D01*
X151755476Y-82148866D02*
X151755476Y-81910771D01*
X151755476Y-81910771D02*
X151803095Y-81720295D01*
X151803095Y-81720295D02*
X151850714Y-81625057D01*
X151850714Y-81625057D02*
X151898333Y-81577438D01*
X151898333Y-81577438D02*
X151993571Y-81529819D01*
X121435905Y-85544819D02*
X121435905Y-84544819D01*
X121435905Y-84544819D02*
X121674000Y-84544819D01*
X121674000Y-84544819D02*
X121816857Y-84592438D01*
X121816857Y-84592438D02*
X121912095Y-84687676D01*
X121912095Y-84687676D02*
X121959714Y-84782914D01*
X121959714Y-84782914D02*
X122007333Y-84973390D01*
X122007333Y-84973390D02*
X122007333Y-85116247D01*
X122007333Y-85116247D02*
X121959714Y-85306723D01*
X121959714Y-85306723D02*
X121912095Y-85401961D01*
X121912095Y-85401961D02*
X121816857Y-85497200D01*
X121816857Y-85497200D02*
X121674000Y-85544819D01*
X121674000Y-85544819D02*
X121435905Y-85544819D01*
X122340667Y-84544819D02*
X122959714Y-84544819D01*
X122959714Y-84544819D02*
X122626381Y-84925771D01*
X122626381Y-84925771D02*
X122769238Y-84925771D01*
X122769238Y-84925771D02*
X122864476Y-84973390D01*
X122864476Y-84973390D02*
X122912095Y-85021009D01*
X122912095Y-85021009D02*
X122959714Y-85116247D01*
X122959714Y-85116247D02*
X122959714Y-85354342D01*
X122959714Y-85354342D02*
X122912095Y-85449580D01*
X122912095Y-85449580D02*
X122864476Y-85497200D01*
X122864476Y-85497200D02*
X122769238Y-85544819D01*
X122769238Y-85544819D02*
X122483524Y-85544819D01*
X122483524Y-85544819D02*
X122388286Y-85497200D01*
X122388286Y-85497200D02*
X122340667Y-85449580D01*
X117919405Y-108499819D02*
X117919405Y-107499819D01*
X117919405Y-107499819D02*
X118157500Y-107499819D01*
X118157500Y-107499819D02*
X118300357Y-107547438D01*
X118300357Y-107547438D02*
X118395595Y-107642676D01*
X118395595Y-107642676D02*
X118443214Y-107737914D01*
X118443214Y-107737914D02*
X118490833Y-107928390D01*
X118490833Y-107928390D02*
X118490833Y-108071247D01*
X118490833Y-108071247D02*
X118443214Y-108261723D01*
X118443214Y-108261723D02*
X118395595Y-108356961D01*
X118395595Y-108356961D02*
X118300357Y-108452200D01*
X118300357Y-108452200D02*
X118157500Y-108499819D01*
X118157500Y-108499819D02*
X117919405Y-108499819D01*
X118824167Y-107499819D02*
X119490833Y-107499819D01*
X119490833Y-107499819D02*
X119062262Y-108499819D01*
X150422142Y-102849819D02*
X150088809Y-102373628D01*
X149850714Y-102849819D02*
X149850714Y-101849819D01*
X149850714Y-101849819D02*
X150231666Y-101849819D01*
X150231666Y-101849819D02*
X150326904Y-101897438D01*
X150326904Y-101897438D02*
X150374523Y-101945057D01*
X150374523Y-101945057D02*
X150422142Y-102040295D01*
X150422142Y-102040295D02*
X150422142Y-102183152D01*
X150422142Y-102183152D02*
X150374523Y-102278390D01*
X150374523Y-102278390D02*
X150326904Y-102326009D01*
X150326904Y-102326009D02*
X150231666Y-102373628D01*
X150231666Y-102373628D02*
X149850714Y-102373628D01*
X150803095Y-101945057D02*
X150850714Y-101897438D01*
X150850714Y-101897438D02*
X150945952Y-101849819D01*
X150945952Y-101849819D02*
X151184047Y-101849819D01*
X151184047Y-101849819D02*
X151279285Y-101897438D01*
X151279285Y-101897438D02*
X151326904Y-101945057D01*
X151326904Y-101945057D02*
X151374523Y-102040295D01*
X151374523Y-102040295D02*
X151374523Y-102135533D01*
X151374523Y-102135533D02*
X151326904Y-102278390D01*
X151326904Y-102278390D02*
X150755476Y-102849819D01*
X150755476Y-102849819D02*
X151374523Y-102849819D01*
X151993571Y-101849819D02*
X152088809Y-101849819D01*
X152088809Y-101849819D02*
X152184047Y-101897438D01*
X152184047Y-101897438D02*
X152231666Y-101945057D01*
X152231666Y-101945057D02*
X152279285Y-102040295D01*
X152279285Y-102040295D02*
X152326904Y-102230771D01*
X152326904Y-102230771D02*
X152326904Y-102468866D01*
X152326904Y-102468866D02*
X152279285Y-102659342D01*
X152279285Y-102659342D02*
X152231666Y-102754580D01*
X152231666Y-102754580D02*
X152184047Y-102802200D01*
X152184047Y-102802200D02*
X152088809Y-102849819D01*
X152088809Y-102849819D02*
X151993571Y-102849819D01*
X151993571Y-102849819D02*
X151898333Y-102802200D01*
X151898333Y-102802200D02*
X151850714Y-102754580D01*
X151850714Y-102754580D02*
X151803095Y-102659342D01*
X151803095Y-102659342D02*
X151755476Y-102468866D01*
X151755476Y-102468866D02*
X151755476Y-102230771D01*
X151755476Y-102230771D02*
X151803095Y-102040295D01*
X151803095Y-102040295D02*
X151850714Y-101945057D01*
X151850714Y-101945057D02*
X151898333Y-101897438D01*
X151898333Y-101897438D02*
X151993571Y-101849819D01*
X140564819Y-94812857D02*
X140088628Y-95146190D01*
X140564819Y-95384285D02*
X139564819Y-95384285D01*
X139564819Y-95384285D02*
X139564819Y-95003333D01*
X139564819Y-95003333D02*
X139612438Y-94908095D01*
X139612438Y-94908095D02*
X139660057Y-94860476D01*
X139660057Y-94860476D02*
X139755295Y-94812857D01*
X139755295Y-94812857D02*
X139898152Y-94812857D01*
X139898152Y-94812857D02*
X139993390Y-94860476D01*
X139993390Y-94860476D02*
X140041009Y-94908095D01*
X140041009Y-94908095D02*
X140088628Y-95003333D01*
X140088628Y-95003333D02*
X140088628Y-95384285D01*
X140564819Y-93860476D02*
X140564819Y-94431904D01*
X140564819Y-94146190D02*
X139564819Y-94146190D01*
X139564819Y-94146190D02*
X139707676Y-94241428D01*
X139707676Y-94241428D02*
X139802914Y-94336666D01*
X139802914Y-94336666D02*
X139850533Y-94431904D01*
X139898152Y-93003333D02*
X140564819Y-93003333D01*
X139517200Y-93241428D02*
X140231485Y-93479523D01*
X140231485Y-93479523D02*
X140231485Y-92860476D01*
D12*
%TO.C,U1*%
X136460000Y-86370000D02*
X133010000Y-86370000D01*
X136460000Y-86370000D02*
X138410000Y-86370000D01*
X136460000Y-95240000D02*
X134510000Y-95240000D01*
X136460000Y-95240000D02*
X138410000Y-95240000D01*
%TO.C,kibuzzard-65C2349A*%
G36*
X154643667Y-101716417D02*
G01*
X154312938Y-101716417D01*
X154165300Y-101716417D01*
X153535062Y-101716417D01*
X153204333Y-101716417D01*
X152677283Y-101716417D01*
X152835557Y-101188838D01*
X153535062Y-101188838D01*
X153974800Y-101188838D01*
X153974800Y-101385688D01*
X154165300Y-101385688D01*
X154165300Y-101188838D01*
X154312938Y-101188838D01*
X154312938Y-101017387D01*
X154165300Y-101017387D01*
X154165300Y-100764975D01*
X153974800Y-100764975D01*
X153974800Y-101017387D01*
X153735088Y-101017387D01*
X154095450Y-100290312D01*
X153882725Y-100290312D01*
X153535062Y-101007862D01*
X153535062Y-101188838D01*
X152835557Y-101188838D01*
X153204333Y-99959583D01*
X153535062Y-99959583D01*
X153535063Y-99959583D01*
X154312938Y-99959583D01*
X154643667Y-99959583D01*
X155170717Y-99959583D01*
X154643667Y-101716417D01*
G37*
%TO.C,R11*%
X118917258Y-91327500D02*
X118442742Y-91327500D01*
X118917258Y-90282500D02*
X118442742Y-90282500D01*
%TO.C,R1*%
X128952500Y-87677258D02*
X128952500Y-87202742D01*
X129997500Y-87677258D02*
X129997500Y-87202742D01*
%TO.C,J1*%
X104360000Y-67645000D02*
X103620000Y-67645000D01*
X103620000Y-67645000D02*
X103620000Y-68145000D01*
X113781000Y-67885000D02*
X103860000Y-67885000D01*
X113781000Y-67885000D02*
X113781000Y-108645000D01*
X110821000Y-67885000D02*
X110821000Y-108645000D01*
X105920000Y-67885000D02*
X105920000Y-108645000D01*
X104420000Y-67885000D02*
X104420000Y-108645000D01*
X103860000Y-67885000D02*
X103860000Y-108645000D01*
X107497000Y-74338000D02*
X107451000Y-74291000D01*
X107281000Y-74531000D02*
X107246000Y-74496000D01*
X109795000Y-76635000D02*
X109759000Y-76600000D01*
X109589000Y-76840000D02*
X109543000Y-76793000D01*
X107497000Y-79418000D02*
X107451000Y-79371000D01*
X107281000Y-79611000D02*
X107246000Y-79576000D01*
X109795000Y-81715000D02*
X109759000Y-81680000D01*
X109589000Y-81920000D02*
X109543000Y-81873000D01*
X107497000Y-84498000D02*
X107451000Y-84451000D01*
X107281000Y-84691000D02*
X107246000Y-84656000D01*
X109795000Y-86795000D02*
X109759000Y-86760000D01*
X109589000Y-87000000D02*
X109543000Y-86953000D01*
X107497000Y-89578000D02*
X107451000Y-89531000D01*
X107281000Y-89771000D02*
X107246000Y-89736000D01*
X109795000Y-91875000D02*
X109759000Y-91840000D01*
X109589000Y-92080000D02*
X109543000Y-92033000D01*
X107497000Y-94658000D02*
X107451000Y-94611000D01*
X107281000Y-94851000D02*
X107246000Y-94816000D01*
X109795000Y-96955000D02*
X109759000Y-96920000D01*
X109589000Y-97160000D02*
X109543000Y-97113000D01*
X107497000Y-99738000D02*
X107451000Y-99691000D01*
X107281000Y-99931000D02*
X107246000Y-99896000D01*
X109795000Y-102035000D02*
X109759000Y-102000000D01*
X109589000Y-102240000D02*
X109543000Y-102193000D01*
X107497000Y-104818000D02*
X107451000Y-104771000D01*
X107281000Y-105011000D02*
X107246000Y-104976000D01*
X109795000Y-107115000D02*
X109759000Y-107080000D01*
X109589000Y-107320000D02*
X109543000Y-107273000D01*
X113781000Y-108645000D02*
X103860000Y-108645000D01*
X109203999Y-68950001D02*
G75*
G03*
X107836958Y-68949574I-684000J-1534992D01*
G01*
X110054999Y-71168999D02*
G75*
G03*
X110055426Y-69801958I-1534992J684000D01*
G01*
X106985001Y-69801000D02*
G75*
G03*
X106839748Y-70513805I1535000J-683999D01*
G01*
X106840001Y-70485000D02*
G75*
G03*
X106985245Y-71168318I1679999J0D01*
G01*
X107836000Y-72020000D02*
G75*
G03*
X109203042Y-72020426I684000J1535000D01*
G01*
X110200000Y-75565000D02*
G75*
G03*
X110200000Y-75565000I-1680000J0D01*
G01*
X110200000Y-80645000D02*
G75*
G03*
X110200000Y-80645000I-1680000J0D01*
G01*
X110200000Y-85725000D02*
G75*
G03*
X110200000Y-85725000I-1680000J0D01*
G01*
X110200000Y-90805000D02*
G75*
G03*
X110200000Y-90805000I-1680000J0D01*
G01*
X110200000Y-95885000D02*
G75*
G03*
X110200000Y-95885000I-1680000J0D01*
G01*
X110200000Y-100965000D02*
G75*
G03*
X110200000Y-100965000I-1680000J0D01*
G01*
X110200000Y-106045000D02*
G75*
G03*
X110200000Y-106045000I-1680000J0D01*
G01*
%TO.C,kibuzzard-65C23431*%
G36*
X121901347Y-56435625D02*
G01*
X121405253Y-56435625D01*
X120924241Y-56435625D01*
X119869347Y-56435625D01*
X118178659Y-56435625D01*
X116592747Y-56435625D01*
X115830747Y-56435625D01*
X115334653Y-56435625D01*
X114544078Y-56435625D01*
X114870786Y-55346600D01*
X115830747Y-55346600D01*
X116311759Y-55346600D01*
X116311759Y-55860950D01*
X116592747Y-55860950D01*
X116592747Y-55346600D01*
X117073759Y-55346600D01*
X117073759Y-55094187D01*
X116592747Y-55094187D01*
X116592747Y-54994175D01*
X117371416Y-54994175D01*
X117800041Y-54729856D01*
X117892909Y-54653656D01*
X117883384Y-54801294D01*
X117883384Y-55939531D01*
X118178659Y-55939531D01*
X118178659Y-54772719D01*
X118719203Y-54772719D01*
X119024003Y-54772719D01*
X119057341Y-54640559D01*
X119139494Y-54573884D01*
X119295466Y-54553644D01*
X119450247Y-54572694D01*
X119527637Y-54635797D01*
X119550259Y-54763194D01*
X119533591Y-54872731D01*
X119471678Y-54963219D01*
X119363927Y-55063827D01*
X119226409Y-55179913D01*
X119139791Y-55249266D01*
X119032338Y-55333503D01*
X118904048Y-55432623D01*
X118754922Y-55546625D01*
X118754922Y-55939531D01*
X119869347Y-55939531D01*
X119869347Y-55672831D01*
X119062103Y-55672831D01*
X119062103Y-55651400D01*
X119203523Y-55551123D01*
X119322982Y-55463017D01*
X119420481Y-55387081D01*
X119549366Y-55276948D01*
X119676466Y-55156100D01*
X119760405Y-55060850D01*
X119812197Y-54975125D01*
X119838986Y-54882852D01*
X119847916Y-54767956D01*
X119835414Y-54603352D01*
X119797909Y-54481016D01*
X119730937Y-54394695D01*
X119630031Y-54338141D01*
X119548216Y-54320281D01*
X120069372Y-54320281D01*
X120550384Y-55939531D01*
X120924241Y-55939531D01*
X121405253Y-54320281D01*
X121095691Y-54320281D01*
X120743266Y-55582344D01*
X120731359Y-55582344D01*
X120378934Y-54320281D01*
X120069372Y-54320281D01*
X119548216Y-54320281D01*
X119486859Y-54306887D01*
X119293084Y-54296469D01*
X119100501Y-54307184D01*
X118956137Y-54339331D01*
X118852553Y-54396779D01*
X118782306Y-54483397D01*
X118739741Y-54606329D01*
X118719203Y-54772719D01*
X118178659Y-54772719D01*
X118178659Y-54320281D01*
X117883384Y-54320281D01*
X117371416Y-54679850D01*
X117371416Y-54994175D01*
X116592747Y-54994175D01*
X116592747Y-54594125D01*
X116311759Y-54594125D01*
X116311759Y-55094187D01*
X115830747Y-55094187D01*
X115830747Y-55346600D01*
X114870786Y-55346600D01*
X115334653Y-53800375D01*
X115830747Y-53800375D01*
X121405253Y-53800375D01*
X121901347Y-53800375D01*
X122691922Y-53800375D01*
X121901347Y-56435625D01*
G37*
%TO.C,R6*%
X118917258Y-81167500D02*
X118442742Y-81167500D01*
X118917258Y-80122500D02*
X118442742Y-80122500D01*
%TO.C,kibuzzard-65C2346D*%
G36*
X154638110Y-81396417D02*
G01*
X154307381Y-81396417D01*
X153540619Y-81396417D01*
X153209890Y-81396417D01*
X152682840Y-81396417D01*
X153015421Y-80287812D01*
X153540619Y-80287812D01*
X153743819Y-80287812D01*
X153766044Y-80199706D01*
X153820812Y-80155256D01*
X153924794Y-80141762D01*
X154027981Y-80154462D01*
X154079575Y-80196531D01*
X154094656Y-80281462D01*
X154083544Y-80354487D01*
X154042269Y-80414812D01*
X153970434Y-80481884D01*
X153878756Y-80559275D01*
X153821011Y-80605511D01*
X153749375Y-80661669D01*
X153663848Y-80727748D01*
X153564431Y-80803750D01*
X153564431Y-81065688D01*
X154307381Y-81065688D01*
X154307381Y-80887888D01*
X153769219Y-80887888D01*
X153769219Y-80873600D01*
X153863499Y-80806749D01*
X153943138Y-80748011D01*
X154008138Y-80697387D01*
X154094061Y-80623966D01*
X154178794Y-80543400D01*
X154234753Y-80479900D01*
X154269281Y-80422750D01*
X154287141Y-80361234D01*
X154293094Y-80284637D01*
X154284759Y-80174902D01*
X154259756Y-80093344D01*
X154215108Y-80035797D01*
X154147838Y-79998094D01*
X154052389Y-79977258D01*
X153923206Y-79970312D01*
X153794817Y-79977456D01*
X153698575Y-79998887D01*
X153629519Y-80037186D01*
X153582687Y-80094931D01*
X153554311Y-80176886D01*
X153540619Y-80287812D01*
X153015421Y-80287812D01*
X153209890Y-79639583D01*
X153540619Y-79639583D01*
X154307381Y-79639583D01*
X154638110Y-79639583D01*
X155165160Y-79639583D01*
X154638110Y-81396417D01*
G37*
%TO.C,kibuzzard-65C23458*%
G36*
X154523810Y-71228479D02*
G01*
X154193081Y-71228479D01*
X153654919Y-71228479D01*
X153324190Y-71228479D01*
X152801902Y-71228479D01*
X153090192Y-70267512D01*
X153654919Y-70267512D01*
X153940669Y-70091300D01*
X154002581Y-70040500D01*
X153996231Y-70138925D01*
X153996231Y-70897750D01*
X154193081Y-70897750D01*
X154193081Y-69818250D01*
X153996231Y-69818250D01*
X153654919Y-70057963D01*
X153654919Y-70267512D01*
X153090192Y-70267512D01*
X153324190Y-69487521D01*
X153654919Y-69487521D01*
X154193081Y-69487521D01*
X154523810Y-69487521D01*
X155046098Y-69487521D01*
X154523810Y-71228479D01*
G37*
%TO.C,D8*%
X148705000Y-105045000D02*
X148705000Y-107045000D01*
X148705000Y-105045000D02*
X152715000Y-105045000D01*
X148705000Y-107045000D02*
X152715000Y-107045000D01*
%TO.C,R4*%
X118917258Y-68467500D02*
X118442742Y-68467500D01*
X118917258Y-67422500D02*
X118442742Y-67422500D01*
%TO.C,R8*%
X129997500Y-93932742D02*
X129997500Y-94407258D01*
X128952500Y-93932742D02*
X128952500Y-94407258D01*
%TO.C,C2*%
X133475000Y-83960580D02*
X133475000Y-83679420D01*
X134495000Y-83960580D02*
X134495000Y-83679420D01*
%TO.C,J3*%
X104360000Y-54940000D02*
X103620000Y-54940000D01*
X103620000Y-54940000D02*
X103620000Y-55440000D01*
X113781000Y-55180000D02*
X103860000Y-55180000D01*
X113781000Y-55180000D02*
X113781000Y-65460000D01*
X110821000Y-55180000D02*
X110821000Y-65460000D01*
X105920000Y-55180000D02*
X105920000Y-65460000D01*
X104420000Y-55180000D02*
X104420000Y-65460000D01*
X103860000Y-55180000D02*
X103860000Y-65460000D01*
X107497000Y-61633000D02*
X107451000Y-61586000D01*
X107281000Y-61826000D02*
X107246000Y-61791000D01*
X109795000Y-63930000D02*
X109759000Y-63895000D01*
X109589000Y-64135000D02*
X109543000Y-64088000D01*
X113781000Y-65460000D02*
X103860000Y-65460000D01*
X109203999Y-56245001D02*
G75*
G03*
X107836958Y-56244574I-684000J-1534992D01*
G01*
X110054999Y-58463999D02*
G75*
G03*
X110055426Y-57096958I-1534992J684000D01*
G01*
X106985001Y-57096000D02*
G75*
G03*
X106839748Y-57808805I1535000J-683999D01*
G01*
X106840001Y-57780000D02*
G75*
G03*
X106985245Y-58463318I1679999J0D01*
G01*
X107836000Y-59315000D02*
G75*
G03*
X109203042Y-59315426I684000J1535000D01*
G01*
X110200000Y-62860000D02*
G75*
G03*
X110200000Y-62860000I-1680000J0D01*
G01*
%TO.C,kibuzzard-65C23448*%
G36*
X119343487Y-62438955D02*
G01*
X119455406Y-62447884D01*
X119592626Y-62473780D01*
X119694722Y-62518131D01*
X119767052Y-62586592D01*
X119814975Y-62684819D01*
X119841764Y-62819657D01*
X119850694Y-62997953D01*
X119841466Y-63186370D01*
X119813784Y-63327756D01*
X119764076Y-63429257D01*
X119688769Y-63498016D01*
X119582208Y-63539687D01*
X119438737Y-63559928D01*
X119250619Y-63552784D01*
X119250619Y-62435978D01*
X119343487Y-62438955D01*
G37*
G36*
X120653969Y-64320341D02*
G01*
X120157875Y-64320341D01*
X119367300Y-64320341D01*
X118712456Y-64320341D01*
X116733637Y-64320341D01*
X116062125Y-64320341D01*
X115566031Y-64320341D01*
X114769027Y-64320341D01*
X115167172Y-62993191D01*
X116062125Y-62993191D01*
X116068872Y-63194142D01*
X116089112Y-63362020D01*
X116122847Y-63496825D01*
X116204107Y-63648630D01*
X116326444Y-63749237D01*
X116435187Y-63790909D01*
X116570919Y-63815912D01*
X116733637Y-63824247D01*
X116880084Y-63817698D01*
X117005100Y-63798053D01*
X117130711Y-63759953D01*
X117278944Y-63698041D01*
X117278944Y-62890797D01*
X116655056Y-62890797D01*
X116655056Y-63150353D01*
X116990812Y-63150353D01*
X116990812Y-63514684D01*
X116872941Y-63551594D01*
X116726494Y-63562309D01*
X116599990Y-63549808D01*
X116506228Y-63512303D01*
X116439851Y-63444735D01*
X116395500Y-63342044D01*
X116370497Y-63196490D01*
X116362162Y-63000334D01*
X116369604Y-62799714D01*
X116391928Y-62650291D01*
X116432112Y-62544325D01*
X116493131Y-62474078D01*
X116579452Y-62434787D01*
X116695537Y-62421691D01*
X116863416Y-62440741D01*
X116952712Y-62503844D01*
X116988431Y-62631241D01*
X117283706Y-62631241D01*
X117262573Y-62466934D01*
X117218222Y-62345491D01*
X117145296Y-62259766D01*
X117038437Y-62202616D01*
X116950596Y-62183566D01*
X117493256Y-62183566D01*
X117493256Y-63802816D01*
X117786150Y-63802816D01*
X117786150Y-62871747D01*
X117752812Y-62533609D01*
X117759956Y-62533609D01*
X118340981Y-63802816D01*
X118712456Y-63802816D01*
X118945819Y-63802816D01*
X119101658Y-63813399D01*
X119242152Y-63819749D01*
X119367300Y-63821866D01*
X119558065Y-63813664D01*
X119717608Y-63789057D01*
X119845931Y-63748047D01*
X119990592Y-63649523D01*
X120086437Y-63501587D01*
X120126125Y-63370751D01*
X120149937Y-63208429D01*
X120157875Y-63014622D01*
X120150996Y-62829281D01*
X120130358Y-62673309D01*
X120095962Y-62546706D01*
X120012321Y-62399962D01*
X119885222Y-62295484D01*
X119772377Y-62246272D01*
X119632280Y-62209759D01*
X119464931Y-62185947D01*
X119350631Y-62177017D01*
X119222044Y-62174041D01*
X119091075Y-62176422D01*
X118945819Y-62183566D01*
X118945819Y-63802816D01*
X118712456Y-63802816D01*
X118712456Y-62183566D01*
X118419562Y-62183566D01*
X118419562Y-63114634D01*
X118452900Y-63452772D01*
X118445756Y-63452772D01*
X117864731Y-62183566D01*
X117493256Y-62183566D01*
X116950596Y-62183566D01*
X116890205Y-62170469D01*
X116693156Y-62159753D01*
X116540624Y-62168088D01*
X116413227Y-62193091D01*
X116310966Y-62234762D01*
X116195773Y-62335370D01*
X116119275Y-62487175D01*
X116087525Y-62622245D01*
X116068475Y-62790917D01*
X116062125Y-62993191D01*
X115167172Y-62993191D01*
X115566031Y-61663659D01*
X116062125Y-61663659D01*
X120157875Y-61663659D01*
X120653969Y-61663659D01*
X121450973Y-61663659D01*
X120653969Y-64320341D01*
G37*
%TO.C,kibuzzard-65C2346D*%
G36*
X116284110Y-81396417D02*
G01*
X115953381Y-81396417D01*
X115186619Y-81396417D01*
X114855890Y-81396417D01*
X114328840Y-81396417D01*
X114661421Y-80287812D01*
X115186619Y-80287812D01*
X115389819Y-80287812D01*
X115412044Y-80199706D01*
X115466812Y-80155256D01*
X115570794Y-80141762D01*
X115673981Y-80154462D01*
X115725575Y-80196531D01*
X115740656Y-80281462D01*
X115729544Y-80354487D01*
X115688269Y-80414812D01*
X115616434Y-80481884D01*
X115524756Y-80559275D01*
X115467011Y-80605511D01*
X115395375Y-80661669D01*
X115309848Y-80727748D01*
X115210431Y-80803750D01*
X115210431Y-81065688D01*
X115953381Y-81065688D01*
X115953381Y-80887888D01*
X115415219Y-80887888D01*
X115415219Y-80873600D01*
X115509499Y-80806749D01*
X115589138Y-80748011D01*
X115654138Y-80697387D01*
X115740061Y-80623966D01*
X115824794Y-80543400D01*
X115880753Y-80479900D01*
X115915281Y-80422750D01*
X115933141Y-80361234D01*
X115939094Y-80284637D01*
X115930759Y-80174902D01*
X115905756Y-80093344D01*
X115861108Y-80035797D01*
X115793838Y-79998094D01*
X115698389Y-79977258D01*
X115569206Y-79970312D01*
X115440817Y-79977456D01*
X115344575Y-79998887D01*
X115275519Y-80037186D01*
X115228687Y-80094931D01*
X115200311Y-80176886D01*
X115186619Y-80287812D01*
X114661421Y-80287812D01*
X114855890Y-79639583D01*
X115186619Y-79639583D01*
X115953381Y-79639583D01*
X116284110Y-79639583D01*
X116811160Y-79639583D01*
X116284110Y-81396417D01*
G37*
%TO.C,R12*%
X118917258Y-88787500D02*
X118442742Y-88787500D01*
X118917258Y-87742500D02*
X118442742Y-87742500D01*
%TO.C,kibuzzard-65C2349A*%
G36*
X116289667Y-101716417D02*
G01*
X115958938Y-101716417D01*
X115811300Y-101716417D01*
X115181062Y-101716417D01*
X114850333Y-101716417D01*
X114323283Y-101716417D01*
X114481557Y-101188838D01*
X115181062Y-101188838D01*
X115620800Y-101188838D01*
X115620800Y-101385688D01*
X115811300Y-101385688D01*
X115811300Y-101188838D01*
X115958938Y-101188838D01*
X115958938Y-101017387D01*
X115811300Y-101017387D01*
X115811300Y-100764975D01*
X115620800Y-100764975D01*
X115620800Y-101017387D01*
X115381088Y-101017387D01*
X115741450Y-100290312D01*
X115528725Y-100290312D01*
X115181062Y-101007862D01*
X115181062Y-101188838D01*
X114481557Y-101188838D01*
X114850333Y-99959583D01*
X115181062Y-99959583D01*
X115181063Y-99959583D01*
X115958938Y-99959583D01*
X116289667Y-99959583D01*
X116816717Y-99959583D01*
X116289667Y-101716417D01*
G37*
%TO.C,kibuzzard-65C23477*%
G36*
X154618267Y-91555623D02*
G01*
X154287537Y-91555623D01*
X153866850Y-91555623D01*
X153560462Y-91555623D01*
X153229733Y-91555623D01*
X152703160Y-91555623D01*
X152821905Y-91159806D01*
X153560462Y-91159806D01*
X153634480Y-91190762D01*
X153704131Y-91210606D01*
X153778545Y-91221322D01*
X153866850Y-91224894D01*
X154008534Y-91216163D01*
X154116087Y-91189969D01*
X154194073Y-91144328D01*
X154247056Y-91077256D01*
X154277417Y-90984784D01*
X154287537Y-90862944D01*
X154281584Y-90758764D01*
X154263725Y-90678000D01*
X154232570Y-90618270D01*
X154186731Y-90577194D01*
X154124223Y-90553381D01*
X154043062Y-90545444D01*
X153979562Y-90548619D01*
X153979562Y-90540681D01*
X154246262Y-90315256D01*
X154246262Y-90131106D01*
X153582687Y-90131106D01*
X153582687Y-90299381D01*
X154004962Y-90299381D01*
X153738262Y-90535919D01*
X153738262Y-90723244D01*
X153834306Y-90708956D01*
X153912887Y-90704194D01*
X153994644Y-90713719D01*
X154049412Y-90742294D01*
X154080369Y-90791506D01*
X154090687Y-90862944D01*
X154078186Y-90953233D01*
X154040681Y-91011375D01*
X153971823Y-91042927D01*
X153865262Y-91053444D01*
X153793627Y-91048284D01*
X153724769Y-91032806D01*
X153649958Y-91004628D01*
X153560462Y-90961369D01*
X153560462Y-91159806D01*
X152821905Y-91159806D01*
X153229733Y-89800377D01*
X153560462Y-89800377D01*
X154287537Y-89800377D01*
X154618267Y-89800377D01*
X155144840Y-89800377D01*
X154618267Y-91555623D01*
G37*
%TO.C,J2*%
X165055000Y-108885000D02*
X165795000Y-108885000D01*
X165795000Y-108885000D02*
X165795000Y-108385000D01*
X155634000Y-108645000D02*
X165555000Y-108645000D01*
X155634000Y-108645000D02*
X155634000Y-67885000D01*
X158594000Y-108645000D02*
X158594000Y-67885000D01*
X163495000Y-108645000D02*
X163495000Y-67885000D01*
X164995000Y-108645000D02*
X164995000Y-67885000D01*
X165555000Y-108645000D02*
X165555000Y-67885000D01*
X161918000Y-102192000D02*
X161964000Y-102239000D01*
X162134000Y-101999000D02*
X162169000Y-102034000D01*
X159620000Y-99895000D02*
X159656000Y-99930000D01*
X159826000Y-99690000D02*
X159872000Y-99737000D01*
X161918000Y-97112000D02*
X161964000Y-97159000D01*
X162134000Y-96919000D02*
X162169000Y-96954000D01*
X159620000Y-94815000D02*
X159656000Y-94850000D01*
X159826000Y-94610000D02*
X159872000Y-94657000D01*
X161918000Y-92032000D02*
X161964000Y-92079000D01*
X162134000Y-91839000D02*
X162169000Y-91874000D01*
X159620000Y-89735000D02*
X159656000Y-89770000D01*
X159826000Y-89530000D02*
X159872000Y-89577000D01*
X161918000Y-86952000D02*
X161964000Y-86999000D01*
X162134000Y-86759000D02*
X162169000Y-86794000D01*
X159620000Y-84655000D02*
X159656000Y-84690000D01*
X159826000Y-84450000D02*
X159872000Y-84497000D01*
X161918000Y-81872000D02*
X161964000Y-81919000D01*
X162134000Y-81679000D02*
X162169000Y-81714000D01*
X159620000Y-79575000D02*
X159656000Y-79610000D01*
X159826000Y-79370000D02*
X159872000Y-79417000D01*
X161918000Y-76792000D02*
X161964000Y-76839000D01*
X162134000Y-76599000D02*
X162169000Y-76634000D01*
X159620000Y-74495000D02*
X159656000Y-74530000D01*
X159826000Y-74290000D02*
X159872000Y-74337000D01*
X161918000Y-71712000D02*
X161964000Y-71759000D01*
X162134000Y-71519000D02*
X162169000Y-71554000D01*
X159620000Y-69415000D02*
X159656000Y-69450000D01*
X159826000Y-69210000D02*
X159872000Y-69257000D01*
X155634000Y-67885000D02*
X165555000Y-67885000D01*
X160211001Y-107579999D02*
G75*
G03*
X161578042Y-107580426I684000J1534992D01*
G01*
X159360001Y-105361001D02*
G75*
G03*
X159359574Y-106728042I1534992J-684000D01*
G01*
X162429999Y-106729000D02*
G75*
G03*
X162575252Y-106016195I-1535000J683999D01*
G01*
X162574999Y-106045000D02*
G75*
G03*
X162429755Y-105361682I-1679999J0D01*
G01*
X161579000Y-104510000D02*
G75*
G03*
X160211958Y-104509574I-684000J-1535000D01*
G01*
X162575000Y-100965000D02*
G75*
G03*
X162575000Y-100965000I-1680000J0D01*
G01*
X162575000Y-95885000D02*
G75*
G03*
X162575000Y-95885000I-1680000J0D01*
G01*
X162575000Y-90805000D02*
G75*
G03*
X162575000Y-90805000I-1680000J0D01*
G01*
X162575000Y-85725000D02*
G75*
G03*
X162575000Y-85725000I-1680000J0D01*
G01*
X162575000Y-80645000D02*
G75*
G03*
X162575000Y-80645000I-1680000J0D01*
G01*
X162575000Y-75565000D02*
G75*
G03*
X162575000Y-75565000I-1680000J0D01*
G01*
X162575000Y-70485000D02*
G75*
G03*
X162575000Y-70485000I-1680000J0D01*
G01*
%TO.C,D4*%
X148705000Y-84725000D02*
X148705000Y-86725000D01*
X148705000Y-84725000D02*
X152715000Y-84725000D01*
X148705000Y-86725000D02*
X152715000Y-86725000D01*
%TO.C,R7*%
X118917258Y-78627500D02*
X118442742Y-78627500D01*
X118917258Y-77582500D02*
X118442742Y-77582500D01*
%TO.C,kibuzzard-65C23477*%
G36*
X116264267Y-91555623D02*
G01*
X115933537Y-91555623D01*
X115512850Y-91555623D01*
X115206462Y-91555623D01*
X114875733Y-91555623D01*
X114349160Y-91555623D01*
X114467905Y-91159806D01*
X115206462Y-91159806D01*
X115280480Y-91190762D01*
X115350131Y-91210606D01*
X115424545Y-91221322D01*
X115512850Y-91224894D01*
X115654534Y-91216163D01*
X115762087Y-91189969D01*
X115840073Y-91144328D01*
X115893056Y-91077256D01*
X115923417Y-90984784D01*
X115933537Y-90862944D01*
X115927584Y-90758764D01*
X115909725Y-90678000D01*
X115878570Y-90618270D01*
X115832731Y-90577194D01*
X115770223Y-90553381D01*
X115689062Y-90545444D01*
X115625562Y-90548619D01*
X115625562Y-90540681D01*
X115892262Y-90315256D01*
X115892262Y-90131106D01*
X115228687Y-90131106D01*
X115228687Y-90299381D01*
X115650962Y-90299381D01*
X115384262Y-90535919D01*
X115384262Y-90723244D01*
X115480306Y-90708956D01*
X115558887Y-90704194D01*
X115640644Y-90713719D01*
X115695412Y-90742294D01*
X115726369Y-90791506D01*
X115736687Y-90862944D01*
X115724186Y-90953233D01*
X115686681Y-91011375D01*
X115617823Y-91042927D01*
X115511262Y-91053444D01*
X115439627Y-91048284D01*
X115370769Y-91032806D01*
X115295958Y-91004628D01*
X115206462Y-90961369D01*
X115206462Y-91159806D01*
X114467905Y-91159806D01*
X114875733Y-89800377D01*
X115206462Y-89800377D01*
X115933537Y-89800377D01*
X116264267Y-89800377D01*
X116790840Y-89800377D01*
X116264267Y-91555623D01*
G37*
%TO.C,R3*%
X151302258Y-71007500D02*
X150827742Y-71007500D01*
X151302258Y-69962500D02*
X150827742Y-69962500D01*
%TO.C,D9*%
X118800000Y-58630000D02*
X118800000Y-56930000D01*
X118800000Y-58630000D02*
X116140000Y-58630000D01*
X118800000Y-56930000D02*
X116140000Y-56930000D01*
%TO.C,R2*%
X131902500Y-87202742D02*
X131902500Y-87677258D01*
X130857500Y-87202742D02*
X130857500Y-87677258D01*
%TO.C,C1*%
X130885580Y-91315000D02*
X130604420Y-91315000D01*
X130885580Y-90295000D02*
X130604420Y-90295000D01*
%TO.C,D1*%
X121040000Y-76565000D02*
X121040000Y-74565000D01*
X121040000Y-76565000D02*
X117030000Y-76565000D01*
X121040000Y-74565000D02*
X117030000Y-74565000D01*
%TO.C,R18*%
X142922500Y-87677258D02*
X142922500Y-87202742D01*
X143967500Y-87677258D02*
X143967500Y-87202742D01*
%TO.C,R5*%
X118917258Y-71007500D02*
X118442742Y-71007500D01*
X118917258Y-69962500D02*
X118442742Y-69962500D01*
%TO.C,D5*%
X121017500Y-96885000D02*
X121017500Y-94885000D01*
X121017500Y-96885000D02*
X117007500Y-96885000D01*
X121017500Y-94885000D02*
X117007500Y-94885000D01*
%TO.C,kibuzzard-65C23458*%
G36*
X116169810Y-71228479D02*
G01*
X115839081Y-71228479D01*
X115300919Y-71228479D01*
X114970190Y-71228479D01*
X114447902Y-71228479D01*
X114736192Y-70267512D01*
X115300919Y-70267512D01*
X115586669Y-70091300D01*
X115648581Y-70040500D01*
X115642231Y-70138925D01*
X115642231Y-70897750D01*
X115839081Y-70897750D01*
X115839081Y-69818250D01*
X115642231Y-69818250D01*
X115300919Y-70057963D01*
X115300919Y-70267512D01*
X114736192Y-70267512D01*
X114970190Y-69487521D01*
X115300919Y-69487521D01*
X115839081Y-69487521D01*
X116169810Y-69487521D01*
X116692098Y-69487521D01*
X116169810Y-71228479D01*
G37*
%TO.C,R17*%
X118917258Y-98947500D02*
X118442742Y-98947500D01*
X118917258Y-97902500D02*
X118442742Y-97902500D01*
%TO.C,D6*%
X148705000Y-94885000D02*
X148705000Y-96885000D01*
X148705000Y-94885000D02*
X152715000Y-94885000D01*
X148705000Y-96885000D02*
X152715000Y-96885000D01*
%TO.C,D2*%
X148705000Y-74565000D02*
X148705000Y-76565000D01*
X148705000Y-74565000D02*
X152715000Y-74565000D01*
X148705000Y-76565000D02*
X152715000Y-76565000D01*
%TO.C,R13*%
X143967500Y-93932742D02*
X143967500Y-94407258D01*
X142922500Y-93932742D02*
X142922500Y-94407258D01*
%TO.C,R16*%
X118917258Y-101487500D02*
X118442742Y-101487500D01*
X118917258Y-100442500D02*
X118442742Y-100442500D01*
%TO.C,R9*%
X130857500Y-94407258D02*
X130857500Y-93932742D01*
X131902500Y-94407258D02*
X131902500Y-93932742D01*
%TO.C,R15*%
X151302258Y-91327500D02*
X150827742Y-91327500D01*
X151302258Y-90282500D02*
X150827742Y-90282500D01*
%TO.C,kibuzzard-65C234C2*%
G36*
X144631569Y-55367237D02*
G01*
X144626013Y-55510112D01*
X144609344Y-55624412D01*
X144583944Y-55710138D01*
X144537906Y-55747444D01*
X144433131Y-55759350D01*
X144326769Y-55747444D01*
X144279144Y-55703788D01*
X144628394Y-55262462D01*
X144631569Y-55367237D01*
G37*
G36*
X144548225Y-55001319D02*
G01*
X144598231Y-55065612D01*
X144242631Y-55514875D01*
X144237869Y-55441056D01*
X144236281Y-55372000D01*
X144237869Y-55290045D01*
X144242631Y-55225156D01*
X144258506Y-55116412D01*
X144285494Y-55031481D01*
X144331531Y-54994969D01*
X144431544Y-54984650D01*
X144548225Y-55001319D01*
G37*
G36*
X145247613Y-54489914D02*
G01*
X145333655Y-54502677D01*
X145418030Y-54523812D01*
X145499928Y-54553116D01*
X145578560Y-54590305D01*
X145653167Y-54635023D01*
X145723033Y-54686839D01*
X145787482Y-54745253D01*
X145845896Y-54809703D01*
X145897712Y-54879568D01*
X145942430Y-54954176D01*
X145979620Y-55032807D01*
X146008923Y-55114705D01*
X146030059Y-55199081D01*
X146042822Y-55285122D01*
X146047090Y-55372000D01*
X146042822Y-55458878D01*
X146030059Y-55544919D01*
X146008923Y-55629295D01*
X145979620Y-55711193D01*
X145942430Y-55789824D01*
X145897712Y-55864432D01*
X145845896Y-55934297D01*
X145787482Y-55998747D01*
X145723033Y-56057161D01*
X145653167Y-56108977D01*
X145578560Y-56153695D01*
X145499928Y-56190884D01*
X145418030Y-56220188D01*
X145333655Y-56241323D01*
X145247613Y-56254086D01*
X145160735Y-56258354D01*
X144830006Y-56258354D01*
X144431544Y-56258354D01*
X143528256Y-56258354D01*
X142728156Y-56258354D01*
X142189994Y-56258354D01*
X141859265Y-56258354D01*
X141772387Y-56254086D01*
X141686345Y-56241323D01*
X141601970Y-56220188D01*
X141520072Y-56190884D01*
X141441440Y-56153695D01*
X141366833Y-56108977D01*
X141296967Y-56057161D01*
X141232518Y-55998747D01*
X141174104Y-55934297D01*
X141122288Y-55864432D01*
X141077570Y-55789824D01*
X141040380Y-55711193D01*
X141011077Y-55629295D01*
X140989941Y-55544919D01*
X140977178Y-55458878D01*
X140972910Y-55372000D01*
X140977178Y-55285122D01*
X140977478Y-55283100D01*
X142189994Y-55283100D01*
X142475744Y-55106887D01*
X142537656Y-55056087D01*
X142531306Y-55154512D01*
X142531306Y-55913337D01*
X142728156Y-55913337D01*
X142728156Y-55622825D01*
X143226631Y-55622825D01*
X143226631Y-55913337D01*
X143528256Y-55913337D01*
X143528256Y-55622825D01*
X143226631Y-55622825D01*
X142728156Y-55622825D01*
X142728156Y-55370412D01*
X144037844Y-55370412D01*
X144041195Y-55482596D01*
X144051249Y-55584196D01*
X144068006Y-55675212D01*
X144097970Y-55770661D01*
X144133888Y-55837931D01*
X144179727Y-55882381D01*
X144239456Y-55909369D01*
X144320816Y-55923061D01*
X144431544Y-55927625D01*
X144543463Y-55923061D01*
X144625219Y-55909369D01*
X144685147Y-55882580D01*
X144731581Y-55838725D01*
X144768094Y-55772447D01*
X144798256Y-55678388D01*
X144813139Y-55608934D01*
X144822863Y-55540275D01*
X144828220Y-55466456D01*
X144830006Y-55381525D01*
X144826302Y-55260699D01*
X144815190Y-55154336D01*
X144796669Y-55062437D01*
X144767102Y-54971156D01*
X144732375Y-54906862D01*
X144687727Y-54863802D01*
X144628394Y-54836219D01*
X144546638Y-54821336D01*
X144434719Y-54816375D01*
X144322602Y-54821336D01*
X144240250Y-54836219D01*
X144180322Y-54864000D01*
X144135475Y-54907656D01*
X144100748Y-54972545D01*
X144071181Y-55064025D01*
X144052660Y-55153101D01*
X144041548Y-55255231D01*
X144037844Y-55370412D01*
X142728156Y-55370412D01*
X142728156Y-54833837D01*
X142531306Y-54833837D01*
X142189994Y-55073550D01*
X142189994Y-55283100D01*
X140977478Y-55283100D01*
X140989941Y-55199081D01*
X141011077Y-55114705D01*
X141040380Y-55032807D01*
X141077570Y-54954176D01*
X141122288Y-54879568D01*
X141174104Y-54809703D01*
X141232518Y-54745253D01*
X141296967Y-54686839D01*
X141366833Y-54635023D01*
X141441440Y-54590305D01*
X141520072Y-54553116D01*
X141601970Y-54523812D01*
X141686345Y-54502677D01*
X141772387Y-54489914D01*
X141859265Y-54485646D01*
X142189994Y-54485646D01*
X144830006Y-54485646D01*
X145160735Y-54485646D01*
X145247613Y-54489914D01*
G37*
%TO.C,R19*%
X142062500Y-87202742D02*
X142062500Y-87677258D01*
X141017500Y-87202742D02*
X141017500Y-87677258D01*
%TO.C,R10*%
X151302258Y-81167500D02*
X150827742Y-81167500D01*
X151302258Y-80122500D02*
X150827742Y-80122500D01*
%TO.C,D3*%
X121062500Y-86725000D02*
X121062500Y-84725000D01*
X121062500Y-86725000D02*
X117052500Y-86725000D01*
X121062500Y-84725000D02*
X117052500Y-84725000D01*
%TO.C,D7*%
X121017500Y-107045000D02*
X121017500Y-105045000D01*
X121017500Y-107045000D02*
X117007500Y-107045000D01*
X121017500Y-105045000D02*
X117007500Y-105045000D01*
%TO.C,R20*%
X151302258Y-101487500D02*
X150827742Y-101487500D01*
X151302258Y-100442500D02*
X150827742Y-100442500D01*
%TO.C,R14*%
X141017500Y-94407258D02*
X141017500Y-93932742D01*
X142062500Y-94407258D02*
X142062500Y-93932742D01*
%TD*%
M02*
