M48
; DRILL file {KiCad 7.0.9} date Tue Feb  6 13:40:46 2024
; FORMAT={-:-/ absolute / inch / decimal}
; #@! TF.CreationDate,2024-02-06T13:40:46+00:00
; #@! TF.GenerationSoftware,Kicad,Pcbnew,7.0.9
; #@! TF.FileFunction,Plated,1,2,PTH
FMAT,2
INCH
; #@! TA.AperFunction,Plated,PTH,ViaDrill
T1C0.0157
; #@! TA.AperFunction,Plated,PTH,ComponentDrill
T2C0.0512
%
G90
G05
T1
X4.43Y-4.08
X4.44Y-3.02
X4.48Y-2.01
X4.55Y-2.975
X4.55Y-3.075
X4.55Y-3.375
X4.55Y-3.475
X4.55Y-3.775
X4.55Y-3.875
X4.55Y-4.175
X4.64Y-2.62
X4.88Y-3.02
X4.99Y-4.18
X5.02Y-3.56
X5.08Y-3.35
X5.14Y-3.33
X5.21Y-3.33
X5.275Y-3.2
X5.4Y-3.9
X5.4Y-3.97
X5.46Y-2.58
X5.47Y-3.91
X5.48Y-2.01
X5.48Y-3.01
X5.51Y-3.98
X5.55Y-3.575
X5.55Y-3.82
X5.62Y-3.27
X5.63Y-4.2
X5.65Y-3.55
X5.65Y-3.6
X5.69Y-3.89
X5.7Y-3.41
X5.74Y-3.74
X5.76Y-3.48
X6.03Y-3.47
X6.06Y-3.9
X6.07Y-3.69
X6.33Y-2.47
X6.48Y-2.01
X6.48Y-3.01
X6.48Y-4.01
T2
X4.2724Y-2.2748
X4.2724Y-2.4748
X4.2724Y-2.775
X4.2724Y-2.975
X4.2724Y-3.175
X4.2724Y-3.375
X4.2724Y-3.575
X4.2724Y-3.775
X4.2724Y-3.975
X4.2724Y-4.175
X6.3344Y-2.775
X6.3344Y-2.975
X6.3344Y-3.175
X6.3344Y-3.375
X6.3344Y-3.575
X6.3344Y-3.775
X6.3344Y-3.975
X6.3344Y-4.175
T0
M30
