%TF.GenerationSoftware,KiCad,Pcbnew,7.0.9*%
%TF.CreationDate,2024-02-06T13:40:39+00:00*%
%TF.ProjectId,dc-level-shifter,64632d6c-6576-4656-9c2d-736869667465,1.0*%
%TF.SameCoordinates,Original*%
%TF.FileFunction,Copper,L1,Top*%
%TF.FilePolarity,Positive*%
%FSLAX46Y46*%
G04 Gerber Fmt 4.6, Leading zero omitted, Abs format (unit mm)*
G04 Created by KiCad (PCBNEW 7.0.9) date 2024-02-06 13:40:39*
%MOMM*%
%LPD*%
G01*
G04 APERTURE LIST*
G04 Aperture macros list*
%AMRoundRect*
0 Rectangle with rounded corners*
0 $1 Rounding radius*
0 $2 $3 $4 $5 $6 $7 $8 $9 X,Y pos of 4 corners*
0 Add a 4 corners polygon primitive as box body*
4,1,4,$2,$3,$4,$5,$6,$7,$8,$9,$2,$3,0*
0 Add four circle primitives for the rounded corners*
1,1,$1+$1,$2,$3*
1,1,$1+$1,$4,$5*
1,1,$1+$1,$6,$7*
1,1,$1+$1,$8,$9*
0 Add four rect primitives between the rounded corners*
20,1,$1+$1,$2,$3,$4,$5,0*
20,1,$1+$1,$4,$5,$6,$7,0*
20,1,$1+$1,$6,$7,$8,$9,0*
20,1,$1+$1,$8,$9,$2,$3,0*%
G04 Aperture macros list end*
%TA.AperFunction,SMDPad,CuDef*%
%ADD10RoundRect,0.150000X-0.825000X-0.150000X0.825000X-0.150000X0.825000X0.150000X-0.825000X0.150000X0*%
%TD*%
%TA.AperFunction,SMDPad,CuDef*%
%ADD11RoundRect,0.200000X0.200000X0.275000X-0.200000X0.275000X-0.200000X-0.275000X0.200000X-0.275000X0*%
%TD*%
%TA.AperFunction,SMDPad,CuDef*%
%ADD12RoundRect,0.200000X0.275000X-0.200000X0.275000X0.200000X-0.275000X0.200000X-0.275000X-0.200000X0*%
%TD*%
%TA.AperFunction,ComponentPad*%
%ADD13R,2.600000X2.600000*%
%TD*%
%TA.AperFunction,ComponentPad*%
%ADD14C,2.600000*%
%TD*%
%TA.AperFunction,SMDPad,CuDef*%
%ADD15RoundRect,0.225000X-0.225000X-0.375000X0.225000X-0.375000X0.225000X0.375000X-0.225000X0.375000X0*%
%TD*%
%TA.AperFunction,SMDPad,CuDef*%
%ADD16RoundRect,0.200000X-0.275000X0.200000X-0.275000X-0.200000X0.275000X-0.200000X0.275000X0.200000X0*%
%TD*%
%TA.AperFunction,SMDPad,CuDef*%
%ADD17RoundRect,0.225000X0.250000X-0.225000X0.250000X0.225000X-0.250000X0.225000X-0.250000X-0.225000X0*%
%TD*%
%TA.AperFunction,SMDPad,CuDef*%
%ADD18RoundRect,0.112500X0.187500X0.112500X-0.187500X0.112500X-0.187500X-0.112500X0.187500X-0.112500X0*%
%TD*%
%TA.AperFunction,SMDPad,CuDef*%
%ADD19RoundRect,0.225000X0.225000X0.250000X-0.225000X0.250000X-0.225000X-0.250000X0.225000X-0.250000X0*%
%TD*%
%TA.AperFunction,SMDPad,CuDef*%
%ADD20RoundRect,0.225000X0.225000X0.375000X-0.225000X0.375000X-0.225000X-0.375000X0.225000X-0.375000X0*%
%TD*%
%TA.AperFunction,ViaPad*%
%ADD21C,0.800000*%
%TD*%
%TA.AperFunction,Conductor*%
%ADD22C,0.500000*%
%TD*%
%TA.AperFunction,Conductor*%
%ADD23C,0.250000*%
%TD*%
G04 APERTURE END LIST*
D10*
%TO.P,U1,1,OUT1*%
%TO.N,Net-(U1A-OUT1)*%
X133985000Y-86995000D03*
%TO.P,U1,2,IN-*%
%TO.N,Net-(U1A-IN-)*%
X133985000Y-88265000D03*
%TO.P,U1,3,IN+*%
%TO.N,Net-(U1A-IN+)*%
X133985000Y-89535000D03*
%TO.P,U1,4,V+*%
%TO.N,Net-(D9-K)*%
X133985000Y-90805000D03*
%TO.P,U1,5,IN+*%
%TO.N,Net-(U1B-IN+)*%
X133985000Y-92075000D03*
%TO.P,U1,6,IN-*%
%TO.N,Net-(U1B-IN-)*%
X133985000Y-93345000D03*
%TO.P,U1,7,OUT2*%
%TO.N,Net-(U1B-OUT2)*%
X133985000Y-94615000D03*
%TO.P,U1,8,OUT3*%
%TO.N,Net-(U1C-OUT3)*%
X138935000Y-94615000D03*
%TO.P,U1,9,IN-*%
%TO.N,Net-(U1C-IN-)*%
X138935000Y-93345000D03*
%TO.P,U1,10,IN+*%
%TO.N,Net-(U1C-IN+)*%
X138935000Y-92075000D03*
%TO.P,U1,11,V-*%
%TO.N,GND*%
X138935000Y-90805000D03*
%TO.P,U1,12,IN+*%
%TO.N,Net-(U1D-IN+)*%
X138935000Y-89535000D03*
%TO.P,U1,13,IN-*%
%TO.N,Net-(U1D-IN-)*%
X138935000Y-88265000D03*
%TO.P,U1,14,OUT4*%
%TO.N,Net-(U1D-OUT4)*%
X138935000Y-86995000D03*
%TD*%
D11*
%TO.P,R11,1*%
%TO.N,Net-(U1C-IN+)*%
X119505000Y-90805000D03*
%TO.P,R11,2*%
%TO.N,/IN_3*%
X117855000Y-90805000D03*
%TD*%
D12*
%TO.P,R1,1*%
%TO.N,Net-(U1A-IN-)*%
X129475000Y-88265000D03*
%TO.P,R1,2*%
%TO.N,GND*%
X129475000Y-86615000D03*
%TD*%
D13*
%TO.P,J1,1,Pin_1*%
%TO.N,/IN_1*%
X108520000Y-70485000D03*
D14*
%TO.P,J1,2,Pin_2*%
%TO.N,GND*%
X108520000Y-75565000D03*
%TO.P,J1,3,Pin_3*%
%TO.N,/IN_2*%
X108520000Y-80645000D03*
%TO.P,J1,4,Pin_4*%
%TO.N,GND*%
X108520000Y-85725000D03*
%TO.P,J1,5,Pin_5*%
%TO.N,/IN_3*%
X108520000Y-90805000D03*
%TO.P,J1,6,Pin_6*%
%TO.N,GND*%
X108520000Y-95885000D03*
%TO.P,J1,7,Pin_7*%
%TO.N,/IN_4*%
X108520000Y-100965000D03*
%TO.P,J1,8,Pin_8*%
%TO.N,GND*%
X108520000Y-106045000D03*
%TD*%
D11*
%TO.P,R6,1*%
%TO.N,Net-(U1B-IN+)*%
X119505000Y-80645000D03*
%TO.P,R6,2*%
%TO.N,/IN_2*%
X117855000Y-80645000D03*
%TD*%
D15*
%TO.P,D8,1,K*%
%TO.N,/OUT_4*%
X149415000Y-106045000D03*
%TO.P,D8,2,A*%
%TO.N,GND*%
X152715000Y-106045000D03*
%TD*%
D11*
%TO.P,R4,1*%
%TO.N,Net-(U1A-IN+)*%
X119505000Y-67945000D03*
%TO.P,R4,2*%
%TO.N,GND*%
X117855000Y-67945000D03*
%TD*%
D16*
%TO.P,R8,1*%
%TO.N,Net-(U1B-IN-)*%
X129475000Y-93345000D03*
%TO.P,R8,2*%
%TO.N,GND*%
X129475000Y-94995000D03*
%TD*%
D17*
%TO.P,C2,1*%
%TO.N,Net-(D9-K)*%
X133985000Y-84595000D03*
%TO.P,C2,2*%
%TO.N,GND*%
X133985000Y-83045000D03*
%TD*%
D13*
%TO.P,J3,1,Pin_1*%
%TO.N,Net-(D9-A)*%
X108520000Y-57780000D03*
D14*
%TO.P,J3,2,Pin_2*%
%TO.N,GND*%
X108520000Y-62860000D03*
%TD*%
D11*
%TO.P,R12,1*%
%TO.N,Net-(U1C-IN+)*%
X119505000Y-88265000D03*
%TO.P,R12,2*%
%TO.N,GND*%
X117855000Y-88265000D03*
%TD*%
D13*
%TO.P,J2,1,Pin_1*%
%TO.N,GND*%
X160895000Y-106045000D03*
D14*
%TO.P,J2,2,Pin_2*%
%TO.N,/OUT_4*%
X160895000Y-100965000D03*
%TO.P,J2,3,Pin_3*%
%TO.N,GND*%
X160895000Y-95885000D03*
%TO.P,J2,4,Pin_4*%
%TO.N,/OUT_3*%
X160895000Y-90805000D03*
%TO.P,J2,5,Pin_5*%
%TO.N,GND*%
X160895000Y-85725000D03*
%TO.P,J2,6,Pin_6*%
%TO.N,/OUT_2*%
X160895000Y-80645000D03*
%TO.P,J2,7,Pin_7*%
%TO.N,GND*%
X160895000Y-75565000D03*
%TO.P,J2,8,Pin_8*%
%TO.N,/OUT_1*%
X160895000Y-70485000D03*
%TD*%
D15*
%TO.P,D4,1,K*%
%TO.N,/OUT_2*%
X149415000Y-85725000D03*
%TO.P,D4,2,A*%
%TO.N,GND*%
X152715000Y-85725000D03*
%TD*%
D11*
%TO.P,R7,1*%
%TO.N,Net-(U1B-IN+)*%
X119505000Y-78105000D03*
%TO.P,R7,2*%
%TO.N,GND*%
X117855000Y-78105000D03*
%TD*%
%TO.P,R3,1*%
%TO.N,/OUT_1*%
X151890000Y-70485000D03*
%TO.P,R3,2*%
%TO.N,Net-(U1A-OUT1)*%
X150240000Y-70485000D03*
%TD*%
D18*
%TO.P,D9,1,K*%
%TO.N,Net-(D9-K)*%
X118240000Y-57780000D03*
%TO.P,D9,2,A*%
%TO.N,Net-(D9-A)*%
X116140000Y-57780000D03*
%TD*%
D16*
%TO.P,R2,1*%
%TO.N,Net-(U1A-OUT1)*%
X131380000Y-86615000D03*
%TO.P,R2,2*%
%TO.N,Net-(U1A-IN-)*%
X131380000Y-88265000D03*
%TD*%
D19*
%TO.P,C1,1*%
%TO.N,Net-(D9-K)*%
X131520000Y-90805000D03*
%TO.P,C1,2*%
%TO.N,GND*%
X129970000Y-90805000D03*
%TD*%
D20*
%TO.P,D1,1,K*%
%TO.N,/IN_1*%
X120330000Y-75565000D03*
%TO.P,D1,2,A*%
%TO.N,GND*%
X117030000Y-75565000D03*
%TD*%
D12*
%TO.P,R18,1*%
%TO.N,Net-(U1D-IN-)*%
X143445000Y-88265000D03*
%TO.P,R18,2*%
%TO.N,GND*%
X143445000Y-86615000D03*
%TD*%
D11*
%TO.P,R5,1*%
%TO.N,Net-(U1A-IN+)*%
X119505000Y-70485000D03*
%TO.P,R5,2*%
%TO.N,/IN_1*%
X117855000Y-70485000D03*
%TD*%
D20*
%TO.P,D5,1,K*%
%TO.N,/IN_3*%
X120307500Y-95885000D03*
%TO.P,D5,2,A*%
%TO.N,GND*%
X117007500Y-95885000D03*
%TD*%
D11*
%TO.P,R17,1*%
%TO.N,Net-(U1D-IN+)*%
X119505000Y-98425000D03*
%TO.P,R17,2*%
%TO.N,GND*%
X117855000Y-98425000D03*
%TD*%
D15*
%TO.P,D6,1,K*%
%TO.N,/OUT_3*%
X149415000Y-95885000D03*
%TO.P,D6,2,A*%
%TO.N,GND*%
X152715000Y-95885000D03*
%TD*%
%TO.P,D2,1,K*%
%TO.N,/OUT_1*%
X149415000Y-75565000D03*
%TO.P,D2,2,A*%
%TO.N,GND*%
X152715000Y-75565000D03*
%TD*%
D16*
%TO.P,R13,1*%
%TO.N,Net-(U1C-IN-)*%
X143445000Y-93345000D03*
%TO.P,R13,2*%
%TO.N,GND*%
X143445000Y-94995000D03*
%TD*%
D11*
%TO.P,R16,1*%
%TO.N,Net-(U1D-IN+)*%
X119505000Y-100965000D03*
%TO.P,R16,2*%
%TO.N,/IN_4*%
X117855000Y-100965000D03*
%TD*%
D12*
%TO.P,R9,1*%
%TO.N,Net-(U1B-OUT2)*%
X131380000Y-94995000D03*
%TO.P,R9,2*%
%TO.N,Net-(U1B-IN-)*%
X131380000Y-93345000D03*
%TD*%
D11*
%TO.P,R15,1*%
%TO.N,/OUT_3*%
X151890000Y-90805000D03*
%TO.P,R15,2*%
%TO.N,Net-(U1C-OUT3)*%
X150240000Y-90805000D03*
%TD*%
D16*
%TO.P,R19,1*%
%TO.N,Net-(U1D-OUT4)*%
X141540000Y-86615000D03*
%TO.P,R19,2*%
%TO.N,Net-(U1D-IN-)*%
X141540000Y-88265000D03*
%TD*%
D11*
%TO.P,R10,1*%
%TO.N,/OUT_2*%
X151890000Y-80645000D03*
%TO.P,R10,2*%
%TO.N,Net-(U1B-OUT2)*%
X150240000Y-80645000D03*
%TD*%
D20*
%TO.P,D3,1,K*%
%TO.N,/IN_2*%
X120352500Y-85725000D03*
%TO.P,D3,2,A*%
%TO.N,GND*%
X117052500Y-85725000D03*
%TD*%
%TO.P,D7,1,K*%
%TO.N,/IN_4*%
X120307500Y-106045000D03*
%TO.P,D7,2,A*%
%TO.N,GND*%
X117007500Y-106045000D03*
%TD*%
D11*
%TO.P,R20,1*%
%TO.N,/OUT_4*%
X151890000Y-100965000D03*
%TO.P,R20,2*%
%TO.N,Net-(U1D-OUT4)*%
X150240000Y-100965000D03*
%TD*%
D12*
%TO.P,R14,1*%
%TO.N,Net-(U1C-OUT3)*%
X141540000Y-94995000D03*
%TO.P,R14,2*%
%TO.N,Net-(U1C-IN-)*%
X141540000Y-93345000D03*
%TD*%
D21*
%TO.N,Net-(D9-K)*%
X130556000Y-84582000D03*
X132334000Y-84582000D03*
%TO.N,GND*%
X133985000Y-81280000D03*
X140970000Y-90805000D03*
X115570000Y-75565000D03*
X154178000Y-93726000D03*
X153924000Y-99060000D03*
X115570000Y-95885000D03*
X115570000Y-85725000D03*
X160782000Y-62738000D03*
X142748000Y-83058000D03*
X113792000Y-51054000D03*
X146304000Y-88392000D03*
X145796000Y-94996000D03*
X153162000Y-88138000D03*
X138684000Y-65532000D03*
X164592000Y-101854000D03*
X115570000Y-106045000D03*
X139192000Y-51054000D03*
X112776000Y-76708000D03*
X164592000Y-51054000D03*
X129032000Y-85090000D03*
X139192000Y-76454000D03*
X144780000Y-86614000D03*
X123952000Y-76708000D03*
X115570000Y-78105000D03*
X126746000Y-106172000D03*
X140970000Y-97028000D03*
X139954000Y-101092000D03*
X115570000Y-98425000D03*
X144526000Y-98806000D03*
X112522000Y-103632000D03*
X127508000Y-90424000D03*
X164592000Y-76454000D03*
X143002000Y-106680000D03*
X115570000Y-88265000D03*
X117856000Y-66548000D03*
X138938000Y-99314000D03*
%TO.N,Net-(U1C-IN+)*%
X143510000Y-91440000D03*
X137160000Y-99060000D03*
%TO.N,Net-(U1D-IN+)*%
X137160000Y-100838000D03*
X143510000Y-90170000D03*
%TD*%
D22*
%TO.N,Net-(D9-K)*%
X133985000Y-90805000D02*
X131520000Y-90805000D01*
X129286000Y-83312000D02*
X129286000Y-58928000D01*
X129286000Y-58928000D02*
X128138000Y-57780000D01*
X132347000Y-84595000D02*
X132334000Y-84582000D01*
X135395000Y-84595000D02*
X133985000Y-84595000D01*
X133985000Y-84595000D02*
X132347000Y-84595000D01*
X135255000Y-90805000D02*
X135636000Y-90424000D01*
X135636000Y-84836000D02*
X135395000Y-84595000D01*
X130556000Y-84582000D02*
X129286000Y-83312000D01*
X133985000Y-90805000D02*
X135255000Y-90805000D01*
X128138000Y-57780000D02*
X118240000Y-57780000D01*
X135636000Y-90424000D02*
X135636000Y-84836000D01*
D23*
%TO.N,GND*%
X115443000Y-95885000D02*
X108520000Y-95885000D01*
X115443000Y-85725000D02*
X108520000Y-85725000D01*
X115570000Y-75692000D02*
X115443000Y-75565000D01*
X111060000Y-78105000D02*
X108520000Y-75565000D01*
X115697000Y-106045000D02*
X115570000Y-105918000D01*
X152715000Y-85725000D02*
X160895000Y-85725000D01*
X152715000Y-75565000D02*
X160895000Y-75565000D01*
X115697000Y-85725000D02*
X115570000Y-85598000D01*
X115443000Y-75565000D02*
X108520000Y-75565000D01*
X117855000Y-98425000D02*
X115697000Y-98425000D01*
X144779000Y-86615000D02*
X144780000Y-86614000D01*
X145795000Y-94995000D02*
X143445000Y-94995000D01*
X115697000Y-88265000D02*
X115570000Y-88138000D01*
X117855000Y-66549000D02*
X117856000Y-66548000D01*
X111060000Y-88265000D02*
X108520000Y-85725000D01*
X117855000Y-88265000D02*
X115697000Y-88265000D01*
X129475000Y-85533000D02*
X129032000Y-85090000D01*
X115570000Y-78232000D02*
X115443000Y-78105000D01*
X152715000Y-106045000D02*
X160895000Y-106045000D01*
X117855000Y-78105000D02*
X115697000Y-78105000D01*
X115570000Y-88138000D02*
X115443000Y-88265000D01*
X117052500Y-85725000D02*
X115697000Y-85725000D01*
X115697000Y-95885000D02*
X115570000Y-96012000D01*
X115443000Y-98425000D02*
X111060000Y-98425000D01*
X115443000Y-88265000D02*
X111060000Y-88265000D01*
X143445000Y-86615000D02*
X144779000Y-86615000D01*
X152715000Y-95885000D02*
X160895000Y-95885000D01*
X115443000Y-106045000D02*
X108520000Y-106045000D01*
X145796000Y-94996000D02*
X145795000Y-94995000D01*
X117007500Y-106045000D02*
X115697000Y-106045000D01*
X140970000Y-90805000D02*
X138935000Y-90805000D01*
X115570000Y-105918000D02*
X115443000Y-106045000D01*
X115697000Y-78105000D02*
X115570000Y-78232000D01*
X117007500Y-95885000D02*
X115697000Y-95885000D01*
X115570000Y-98298000D02*
X115443000Y-98425000D01*
X115443000Y-78105000D02*
X111060000Y-78105000D01*
X115570000Y-85598000D02*
X115443000Y-85725000D01*
X117030000Y-75565000D02*
X115697000Y-75565000D01*
D22*
X133985000Y-83045000D02*
X133985000Y-81280000D01*
D23*
X117855000Y-67945000D02*
X117855000Y-66549000D01*
D22*
X127889000Y-90805000D02*
X127508000Y-90424000D01*
D23*
X115697000Y-75565000D02*
X115570000Y-75692000D01*
X129475000Y-86615000D02*
X129475000Y-85533000D01*
X111060000Y-98425000D02*
X108520000Y-95885000D01*
D22*
X129970000Y-90805000D02*
X127889000Y-90805000D01*
D23*
X115697000Y-98425000D02*
X115570000Y-98298000D01*
X115570000Y-96012000D02*
X115443000Y-95885000D01*
%TO.N,/IN_1*%
X120330000Y-75565000D02*
X120330000Y-73975000D01*
X108520000Y-70485000D02*
X117855000Y-70485000D01*
X117855000Y-71500000D02*
X117855000Y-70485000D01*
X120330000Y-73975000D02*
X117855000Y-71500000D01*
%TO.N,/OUT_1*%
X151890000Y-71630000D02*
X151890000Y-70485000D01*
X149415000Y-74105000D02*
X151890000Y-71630000D01*
X149415000Y-75565000D02*
X149415000Y-74105000D01*
X151890000Y-70485000D02*
X160895000Y-70485000D01*
%TO.N,/IN_2*%
X117920000Y-81660000D02*
X117920000Y-80645000D01*
X108585000Y-80645000D02*
X117920000Y-80645000D01*
X120395000Y-84135000D02*
X117920000Y-81660000D01*
X120395000Y-85725000D02*
X120395000Y-84135000D01*
%TO.N,/OUT_2*%
X151890000Y-81790000D02*
X151890000Y-80645000D01*
X151890000Y-80645000D02*
X160895000Y-80645000D01*
X149415000Y-84265000D02*
X151890000Y-81790000D01*
X149415000Y-85725000D02*
X149415000Y-84265000D01*
%TO.N,/IN_3*%
X108585000Y-90805000D02*
X117920000Y-90805000D01*
X120395000Y-94295000D02*
X117920000Y-91820000D01*
X120395000Y-95885000D02*
X120395000Y-94295000D01*
X117920000Y-91820000D02*
X117920000Y-90805000D01*
%TO.N,/OUT_3*%
X151890000Y-91950000D02*
X151890000Y-90805000D01*
X149415000Y-95885000D02*
X149415000Y-94425000D01*
X149415000Y-94425000D02*
X151890000Y-91950000D01*
X151890000Y-90805000D02*
X160895000Y-90805000D01*
%TO.N,/IN_4*%
X117920000Y-101980000D02*
X117920000Y-100965000D01*
X120395000Y-104455000D02*
X117920000Y-101980000D01*
X120395000Y-106045000D02*
X120395000Y-104455000D01*
X108585000Y-100965000D02*
X117920000Y-100965000D01*
%TO.N,/OUT_4*%
X151890000Y-102110000D02*
X151890000Y-100965000D01*
X149415000Y-106045000D02*
X149415000Y-104585000D01*
X151890000Y-100965000D02*
X160895000Y-100965000D01*
X149415000Y-104585000D02*
X151890000Y-102110000D01*
D22*
%TO.N,Net-(D9-A)*%
X108520000Y-57780000D02*
X116140000Y-57780000D01*
D23*
%TO.N,Net-(U1A-IN-)*%
X133985000Y-88265000D02*
X129475000Y-88265000D01*
%TO.N,Net-(U1A-OUT1)*%
X140335000Y-70485000D02*
X150240000Y-70485000D01*
X131380000Y-86615000D02*
X131380000Y-79440000D01*
X131380000Y-79440000D02*
X140335000Y-70485000D01*
X133924000Y-87058000D02*
X132524000Y-87058000D01*
X132524000Y-87058000D02*
X132144000Y-86678000D01*
X132144000Y-86678000D02*
X131319000Y-86678000D01*
%TO.N,Net-(U1A-IN+)*%
X127000000Y-88646000D02*
X127000000Y-72136000D01*
X125349000Y-70485000D02*
X119505000Y-70485000D01*
X127889000Y-89535000D02*
X127000000Y-88646000D01*
X119505000Y-70485000D02*
X119505000Y-67945000D01*
X127000000Y-72136000D02*
X125349000Y-70485000D01*
X133985000Y-89535000D02*
X127889000Y-89535000D01*
%TO.N,Net-(U1B-IN+)*%
X124587000Y-80645000D02*
X119505000Y-80645000D01*
X119505000Y-80645000D02*
X119505000Y-78105000D01*
X127889000Y-92075000D02*
X125984000Y-90170000D01*
X125984000Y-90170000D02*
X125984000Y-82042000D01*
X133985000Y-92075000D02*
X127889000Y-92075000D01*
X125984000Y-82042000D02*
X124587000Y-80645000D01*
%TO.N,Net-(U1B-IN-)*%
X133985000Y-93345000D02*
X129475000Y-93345000D01*
%TO.N,Net-(U1B-OUT2)*%
X133985000Y-94615000D02*
X132715000Y-94615000D01*
X136398000Y-84582000D02*
X140335000Y-80645000D01*
X135255000Y-94615000D02*
X136398000Y-93472000D01*
X132715000Y-94615000D02*
X132334000Y-94996000D01*
X140335000Y-80645000D02*
X150240000Y-80645000D01*
X132333000Y-94995000D02*
X131380000Y-94995000D01*
X133985000Y-94615000D02*
X135255000Y-94615000D01*
X136398000Y-93472000D02*
X136398000Y-84582000D01*
X132334000Y-94996000D02*
X132333000Y-94995000D01*
%TO.N,Net-(U1C-IN+)*%
X119505000Y-90805000D02*
X119505000Y-88265000D01*
X122047000Y-88265000D02*
X122936000Y-89154000D01*
X122936000Y-89154000D02*
X122936000Y-96774000D01*
X125222000Y-99060000D02*
X137160000Y-99060000D01*
X119505000Y-88265000D02*
X122047000Y-88265000D01*
X142875000Y-92075000D02*
X143510000Y-91440000D01*
X122936000Y-96774000D02*
X125222000Y-99060000D01*
X138935000Y-92075000D02*
X142875000Y-92075000D01*
%TO.N,Net-(U1C-IN-)*%
X138935000Y-93345000D02*
X143445000Y-93345000D01*
%TO.N,Net-(U1C-OUT3)*%
X140715000Y-94995000D02*
X141540000Y-94995000D01*
X147320000Y-95885000D02*
X147320000Y-92075000D01*
X146685000Y-96520000D02*
X147320000Y-95885000D01*
X141540000Y-94995000D02*
X141540000Y-95820000D01*
X138935000Y-94615000D02*
X140335000Y-94615000D01*
X142240000Y-96520000D02*
X146685000Y-96520000D01*
X148590000Y-90805000D02*
X150240000Y-90805000D01*
X140335000Y-94615000D02*
X140715000Y-94995000D01*
X147320000Y-92075000D02*
X148590000Y-90805000D01*
X141540000Y-95820000D02*
X142240000Y-96520000D01*
%TO.N,Net-(U1D-IN+)*%
X137160000Y-100838000D02*
X137033000Y-100965000D01*
X137033000Y-100965000D02*
X119505000Y-100965000D01*
X142875000Y-89535000D02*
X143510000Y-90170000D01*
X138935000Y-89535000D02*
X142875000Y-89535000D01*
X119505000Y-100965000D02*
X119505000Y-98425000D01*
%TO.N,Net-(U1D-IN-)*%
X138935000Y-88265000D02*
X143445000Y-88265000D01*
%TO.N,Net-(U1D-OUT4)*%
X137160000Y-87630000D02*
X137160000Y-95250000D01*
X137160000Y-95250000D02*
X142875000Y-100965000D01*
X138935000Y-86995000D02*
X137795000Y-86995000D01*
X137795000Y-86995000D02*
X137160000Y-87630000D01*
X140272000Y-87058000D02*
X140652000Y-86678000D01*
X140652000Y-86678000D02*
X141477000Y-86678000D01*
X142875000Y-100965000D02*
X150240000Y-100965000D01*
X138872000Y-87058000D02*
X140272000Y-87058000D01*
%TD*%
%TA.AperFunction,Conductor*%
%TO.N,GND*%
G36*
X126814703Y-89345739D02*
G01*
X126821177Y-89351767D01*
X127107193Y-89637784D01*
X127388197Y-89918788D01*
X127398022Y-89931051D01*
X127398243Y-89930869D01*
X127403214Y-89936878D01*
X127429217Y-89961295D01*
X127453635Y-89984226D01*
X127474529Y-90005120D01*
X127480011Y-90009373D01*
X127484443Y-90013157D01*
X127518418Y-90045062D01*
X127535976Y-90054714D01*
X127552233Y-90065393D01*
X127568064Y-90077673D01*
X127587737Y-90086186D01*
X127610833Y-90096182D01*
X127616077Y-90098750D01*
X127656908Y-90121197D01*
X127669523Y-90124435D01*
X127676305Y-90126177D01*
X127694719Y-90132481D01*
X127713104Y-90140438D01*
X127759157Y-90147732D01*
X127764826Y-90148906D01*
X127809981Y-90160500D01*
X127830016Y-90160500D01*
X127849413Y-90162026D01*
X127869196Y-90165160D01*
X127915584Y-90160775D01*
X127921422Y-90160500D01*
X128940236Y-90160500D01*
X129007275Y-90180185D01*
X129053030Y-90232989D01*
X129062974Y-90302147D01*
X129057942Y-90323504D01*
X129030144Y-90407392D01*
X129020000Y-90506677D01*
X129020000Y-90555000D01*
X130096000Y-90555000D01*
X130163039Y-90574685D01*
X130208794Y-90627489D01*
X130220000Y-90679000D01*
X130220000Y-90931000D01*
X130200315Y-90998039D01*
X130147511Y-91043794D01*
X130096000Y-91055000D01*
X129020001Y-91055000D01*
X129020001Y-91103322D01*
X129030144Y-91202607D01*
X129057942Y-91286496D01*
X129060344Y-91356325D01*
X129024612Y-91416366D01*
X128962091Y-91447559D01*
X128940236Y-91449500D01*
X128199452Y-91449500D01*
X128132413Y-91429815D01*
X128111771Y-91413181D01*
X126645819Y-89947228D01*
X126612334Y-89885905D01*
X126609500Y-89859547D01*
X126609500Y-89439452D01*
X126629185Y-89372413D01*
X126681989Y-89326658D01*
X126751147Y-89316714D01*
X126814703Y-89345739D01*
G37*
%TD.AperFunction*%
%TA.AperFunction,Conductor*%
G36*
X142558930Y-90180185D02*
G01*
X142604685Y-90232989D01*
X142615211Y-90271536D01*
X142624326Y-90358256D01*
X142624327Y-90358259D01*
X142682818Y-90538277D01*
X142682821Y-90538284D01*
X142777467Y-90702216D01*
X142787806Y-90713699D01*
X142795307Y-90722030D01*
X142825535Y-90785022D01*
X142816909Y-90854357D01*
X142795307Y-90887970D01*
X142777466Y-90907785D01*
X142682821Y-91071715D01*
X142682818Y-91071722D01*
X142624327Y-91251740D01*
X142624326Y-91251744D01*
X142620674Y-91286496D01*
X142615212Y-91338462D01*
X142588627Y-91403077D01*
X142531330Y-91443061D01*
X142491891Y-91449500D01*
X140440111Y-91449500D01*
X140373072Y-91429815D01*
X140327317Y-91377011D01*
X140317373Y-91307853D01*
X140333379Y-91262379D01*
X140361281Y-91215198D01*
X140407100Y-91057486D01*
X140407295Y-91055001D01*
X140407295Y-91055000D01*
X138809000Y-91055000D01*
X138741961Y-91035315D01*
X138696206Y-90982511D01*
X138685000Y-90931000D01*
X138685000Y-90679000D01*
X138704685Y-90611961D01*
X138757489Y-90566206D01*
X138809000Y-90555000D01*
X140407295Y-90555000D01*
X140407295Y-90554998D01*
X140407100Y-90552513D01*
X140361281Y-90394801D01*
X140333379Y-90347621D01*
X140316196Y-90279897D01*
X140338356Y-90213635D01*
X140392822Y-90169871D01*
X140440111Y-90160500D01*
X142491891Y-90160500D01*
X142558930Y-90180185D01*
G37*
%TD.AperFunction*%
%TA.AperFunction,Conductor*%
G36*
X165805039Y-47263685D02*
G01*
X165850794Y-47316489D01*
X165862000Y-47368000D01*
X165862000Y-117224000D01*
X165842315Y-117291039D01*
X165789511Y-117336794D01*
X165738000Y-117348000D01*
X103756450Y-117348000D01*
X103689411Y-117328315D01*
X103643656Y-117275511D01*
X103632451Y-117223551D01*
X103645099Y-113732763D01*
X106665787Y-113732763D01*
X106695413Y-114002013D01*
X106695415Y-114002024D01*
X106763926Y-114264082D01*
X106763928Y-114264088D01*
X106869870Y-114513390D01*
X106941998Y-114631575D01*
X107010979Y-114744605D01*
X107010986Y-114744615D01*
X107184253Y-114952819D01*
X107184259Y-114952824D01*
X107385998Y-115133582D01*
X107611910Y-115283044D01*
X107857176Y-115398020D01*
X107857183Y-115398022D01*
X107857185Y-115398023D01*
X108116557Y-115476057D01*
X108116564Y-115476058D01*
X108116569Y-115476060D01*
X108384561Y-115515500D01*
X108384566Y-115515500D01*
X108587636Y-115515500D01*
X108639133Y-115511730D01*
X108790156Y-115500677D01*
X108902758Y-115475593D01*
X109054546Y-115441782D01*
X109054548Y-115441781D01*
X109054553Y-115441780D01*
X109307558Y-115345014D01*
X109543777Y-115212441D01*
X109758177Y-115046888D01*
X109946186Y-114851881D01*
X110103799Y-114631579D01*
X110177787Y-114487669D01*
X110227649Y-114390690D01*
X110227651Y-114390684D01*
X110227656Y-114390675D01*
X110315118Y-114134305D01*
X110364319Y-113867933D01*
X110369259Y-113732763D01*
X158735787Y-113732763D01*
X158765413Y-114002013D01*
X158765415Y-114002024D01*
X158833926Y-114264082D01*
X158833928Y-114264088D01*
X158939870Y-114513390D01*
X159011998Y-114631575D01*
X159080979Y-114744605D01*
X159080986Y-114744615D01*
X159254253Y-114952819D01*
X159254259Y-114952824D01*
X159455998Y-115133582D01*
X159681910Y-115283044D01*
X159927176Y-115398020D01*
X159927183Y-115398022D01*
X159927185Y-115398023D01*
X160186557Y-115476057D01*
X160186564Y-115476058D01*
X160186569Y-115476060D01*
X160454561Y-115515500D01*
X160454566Y-115515500D01*
X160657636Y-115515500D01*
X160709133Y-115511730D01*
X160860156Y-115500677D01*
X160972758Y-115475593D01*
X161124546Y-115441782D01*
X161124548Y-115441781D01*
X161124553Y-115441780D01*
X161377558Y-115345014D01*
X161613777Y-115212441D01*
X161828177Y-115046888D01*
X162016186Y-114851881D01*
X162173799Y-114631579D01*
X162247787Y-114487669D01*
X162297649Y-114390690D01*
X162297651Y-114390684D01*
X162297656Y-114390675D01*
X162385118Y-114134305D01*
X162434319Y-113867933D01*
X162444212Y-113597235D01*
X162414586Y-113327982D01*
X162346072Y-113065912D01*
X162240130Y-112816610D01*
X162099018Y-112585390D01*
X162009747Y-112478119D01*
X161925746Y-112377180D01*
X161925740Y-112377175D01*
X161724002Y-112196418D01*
X161498092Y-112046957D01*
X161498090Y-112046956D01*
X161252824Y-111931980D01*
X161252819Y-111931978D01*
X161252814Y-111931976D01*
X160993442Y-111853942D01*
X160993428Y-111853939D01*
X160877791Y-111836921D01*
X160725439Y-111814500D01*
X160522369Y-111814500D01*
X160522364Y-111814500D01*
X160319844Y-111829323D01*
X160319831Y-111829325D01*
X160055453Y-111888217D01*
X160055446Y-111888220D01*
X159802439Y-111984987D01*
X159566226Y-112117557D01*
X159351822Y-112283112D01*
X159163822Y-112478109D01*
X159163816Y-112478116D01*
X159006202Y-112698419D01*
X159006199Y-112698424D01*
X158882350Y-112939309D01*
X158882343Y-112939327D01*
X158794884Y-113195685D01*
X158794881Y-113195699D01*
X158745681Y-113462068D01*
X158745680Y-113462075D01*
X158735787Y-113732763D01*
X110369259Y-113732763D01*
X110374212Y-113597235D01*
X110344586Y-113327982D01*
X110276072Y-113065912D01*
X110170130Y-112816610D01*
X110029018Y-112585390D01*
X109939747Y-112478119D01*
X109855746Y-112377180D01*
X109855740Y-112377175D01*
X109654002Y-112196418D01*
X109428092Y-112046957D01*
X109428090Y-112046956D01*
X109182824Y-111931980D01*
X109182819Y-111931978D01*
X109182814Y-111931976D01*
X108923442Y-111853942D01*
X108923428Y-111853939D01*
X108807791Y-111836921D01*
X108655439Y-111814500D01*
X108452369Y-111814500D01*
X108452364Y-111814500D01*
X108249844Y-111829323D01*
X108249831Y-111829325D01*
X107985453Y-111888217D01*
X107985446Y-111888220D01*
X107732439Y-111984987D01*
X107496226Y-112117557D01*
X107281822Y-112283112D01*
X107093822Y-112478109D01*
X107093816Y-112478116D01*
X106936202Y-112698419D01*
X106936199Y-112698424D01*
X106812350Y-112939309D01*
X106812343Y-112939327D01*
X106724884Y-113195685D01*
X106724881Y-113195699D01*
X106675681Y-113462068D01*
X106675680Y-113462075D01*
X106665787Y-113732763D01*
X103645099Y-113732763D01*
X103672953Y-106045004D01*
X106714953Y-106045004D01*
X106735113Y-106314026D01*
X106735113Y-106314028D01*
X106795142Y-106577033D01*
X106795148Y-106577052D01*
X106893709Y-106828181D01*
X106893708Y-106828181D01*
X107028602Y-107061822D01*
X107082294Y-107129151D01*
X107917452Y-106293992D01*
X107927188Y-106323956D01*
X108015186Y-106462619D01*
X108134903Y-106575040D01*
X108269510Y-106649041D01*
X107434848Y-107483702D01*
X107617483Y-107608220D01*
X107617485Y-107608221D01*
X107860539Y-107725269D01*
X107860537Y-107725269D01*
X108118337Y-107804790D01*
X108118343Y-107804792D01*
X108385101Y-107844999D01*
X108385110Y-107845000D01*
X108654890Y-107845000D01*
X108654898Y-107844999D01*
X108921656Y-107804792D01*
X108921662Y-107804790D01*
X109179461Y-107725269D01*
X109422521Y-107608218D01*
X109605150Y-107483702D01*
X109514292Y-107392844D01*
X159095000Y-107392844D01*
X159101401Y-107452372D01*
X159101403Y-107452379D01*
X159151645Y-107587086D01*
X159151649Y-107587093D01*
X159237809Y-107702187D01*
X159237812Y-107702190D01*
X159352906Y-107788350D01*
X159352913Y-107788354D01*
X159487620Y-107838596D01*
X159487627Y-107838598D01*
X159547155Y-107844999D01*
X159547172Y-107845000D01*
X160645000Y-107845000D01*
X160645000Y-106649310D01*
X160653817Y-106654158D01*
X160812886Y-106695000D01*
X160935894Y-106695000D01*
X161057933Y-106679583D01*
X161145000Y-106645110D01*
X161145000Y-107845000D01*
X162242828Y-107845000D01*
X162242844Y-107844999D01*
X162302372Y-107838598D01*
X162302379Y-107838596D01*
X162437086Y-107788354D01*
X162437093Y-107788350D01*
X162552187Y-107702190D01*
X162552190Y-107702187D01*
X162638350Y-107587093D01*
X162638354Y-107587086D01*
X162688596Y-107452379D01*
X162688598Y-107452372D01*
X162694999Y-107392844D01*
X162695000Y-107392827D01*
X162695000Y-106295000D01*
X161495728Y-106295000D01*
X161518100Y-106247457D01*
X161548873Y-106086138D01*
X161538561Y-105922234D01*
X161497220Y-105795000D01*
X162695000Y-105795000D01*
X162695000Y-104697172D01*
X162694999Y-104697155D01*
X162688598Y-104637627D01*
X162688596Y-104637620D01*
X162638354Y-104502913D01*
X162638350Y-104502906D01*
X162552190Y-104387812D01*
X162552187Y-104387809D01*
X162437093Y-104301649D01*
X162437086Y-104301645D01*
X162302379Y-104251403D01*
X162302372Y-104251401D01*
X162242844Y-104245000D01*
X161145000Y-104245000D01*
X161145000Y-105440689D01*
X161136183Y-105435842D01*
X160977114Y-105395000D01*
X160854106Y-105395000D01*
X160732067Y-105410417D01*
X160645000Y-105444889D01*
X160645000Y-104245000D01*
X159547155Y-104245000D01*
X159487627Y-104251401D01*
X159487620Y-104251403D01*
X159352913Y-104301645D01*
X159352906Y-104301649D01*
X159237812Y-104387809D01*
X159237809Y-104387812D01*
X159151649Y-104502906D01*
X159151645Y-104502913D01*
X159101403Y-104637620D01*
X159101401Y-104637627D01*
X159095000Y-104697155D01*
X159095000Y-105795000D01*
X160294272Y-105795000D01*
X160271900Y-105842543D01*
X160241127Y-106003862D01*
X160251439Y-106167766D01*
X160292780Y-106295000D01*
X159095000Y-106295000D01*
X159095000Y-107392844D01*
X109514292Y-107392844D01*
X108767534Y-106646086D01*
X108835629Y-106619126D01*
X108968492Y-106522595D01*
X109073175Y-106396055D01*
X109121631Y-106293079D01*
X109957703Y-107129151D01*
X109957704Y-107129150D01*
X110011393Y-107061828D01*
X110011400Y-107061817D01*
X110146290Y-106828181D01*
X110244851Y-106577052D01*
X110244857Y-106577033D01*
X110304886Y-106314028D01*
X110304886Y-106314026D01*
X110306312Y-106295000D01*
X116057501Y-106295000D01*
X116057501Y-106468322D01*
X116067644Y-106567607D01*
X116120952Y-106728481D01*
X116120957Y-106728492D01*
X116209924Y-106872728D01*
X116209927Y-106872732D01*
X116329767Y-106992572D01*
X116329771Y-106992575D01*
X116474007Y-107081542D01*
X116474018Y-107081547D01*
X116634893Y-107134855D01*
X116734183Y-107144999D01*
X116757500Y-107144998D01*
X116757500Y-106295000D01*
X117257500Y-106295000D01*
X117257500Y-107144999D01*
X117280808Y-107144999D01*
X117280822Y-107144998D01*
X117380107Y-107134855D01*
X117540981Y-107081547D01*
X117540992Y-107081542D01*
X117685228Y-106992575D01*
X117685232Y-106992572D01*
X117805072Y-106872732D01*
X117805075Y-106872728D01*
X117894042Y-106728492D01*
X117894047Y-106728481D01*
X117947355Y-106567606D01*
X117957499Y-106468322D01*
X117957500Y-106468309D01*
X117957500Y-106295000D01*
X117257500Y-106295000D01*
X116757500Y-106295000D01*
X116057501Y-106295000D01*
X110306312Y-106295000D01*
X110325047Y-106045004D01*
X110325047Y-106044995D01*
X110306312Y-105795000D01*
X116057500Y-105795000D01*
X116757500Y-105795000D01*
X116757500Y-104945000D01*
X117257500Y-104945000D01*
X117257500Y-105795000D01*
X117957499Y-105795000D01*
X117957499Y-105621692D01*
X117957498Y-105621677D01*
X117947355Y-105522392D01*
X117894047Y-105361518D01*
X117894042Y-105361507D01*
X117805075Y-105217271D01*
X117805072Y-105217267D01*
X117685232Y-105097427D01*
X117685228Y-105097424D01*
X117540992Y-105008457D01*
X117540981Y-105008452D01*
X117380106Y-104955144D01*
X117280822Y-104945000D01*
X117257500Y-104945000D01*
X116757500Y-104945000D01*
X116757500Y-104944999D01*
X116734193Y-104945000D01*
X116734174Y-104945001D01*
X116634892Y-104955144D01*
X116474018Y-105008452D01*
X116474007Y-105008457D01*
X116329771Y-105097424D01*
X116329767Y-105097427D01*
X116209927Y-105217267D01*
X116209924Y-105217271D01*
X116120957Y-105361507D01*
X116120952Y-105361518D01*
X116067644Y-105522393D01*
X116057500Y-105621677D01*
X116057500Y-105795000D01*
X110306312Y-105795000D01*
X110304886Y-105775973D01*
X110304886Y-105775971D01*
X110244857Y-105512966D01*
X110244851Y-105512947D01*
X110146290Y-105261818D01*
X110146291Y-105261818D01*
X110011397Y-105028177D01*
X109957704Y-104960847D01*
X109122546Y-105796004D01*
X109112812Y-105766044D01*
X109024814Y-105627381D01*
X108905097Y-105514960D01*
X108770489Y-105440958D01*
X109605150Y-104606296D01*
X109422517Y-104481779D01*
X109422516Y-104481778D01*
X109179460Y-104364730D01*
X109179462Y-104364730D01*
X108921662Y-104285209D01*
X108921656Y-104285207D01*
X108654898Y-104245000D01*
X108385101Y-104245000D01*
X108118343Y-104285207D01*
X108118337Y-104285209D01*
X107860538Y-104364730D01*
X107617485Y-104481778D01*
X107617476Y-104481783D01*
X107434848Y-104606296D01*
X108272465Y-105443913D01*
X108204371Y-105470874D01*
X108071508Y-105567405D01*
X107966825Y-105693945D01*
X107918368Y-105796921D01*
X107082295Y-104960848D01*
X107028600Y-105028180D01*
X106893709Y-105261818D01*
X106795148Y-105512947D01*
X106795142Y-105512966D01*
X106735113Y-105775971D01*
X106735113Y-105775973D01*
X106714953Y-106044995D01*
X106714953Y-106045004D01*
X103672953Y-106045004D01*
X103690484Y-101206284D01*
X103691358Y-100965004D01*
X106714451Y-100965004D01*
X106734616Y-101234101D01*
X106794664Y-101497188D01*
X106794666Y-101497195D01*
X106893256Y-101748396D01*
X106893258Y-101748400D01*
X106920433Y-101795469D01*
X107028185Y-101982102D01*
X107127974Y-102107233D01*
X107196442Y-102193089D01*
X107357037Y-102342098D01*
X107394259Y-102376635D01*
X107617226Y-102528651D01*
X107860359Y-102645738D01*
X108118228Y-102725280D01*
X108118229Y-102725280D01*
X108118232Y-102725281D01*
X108385063Y-102765499D01*
X108385068Y-102765499D01*
X108385071Y-102765500D01*
X108385072Y-102765500D01*
X108654928Y-102765500D01*
X108654929Y-102765500D01*
X108654936Y-102765499D01*
X108921767Y-102725281D01*
X108921768Y-102725280D01*
X108921772Y-102725280D01*
X109179641Y-102645738D01*
X109422775Y-102528651D01*
X109645741Y-102376635D01*
X109843561Y-102193085D01*
X110011815Y-101982102D01*
X110146743Y-101748398D01*
X110177827Y-101669195D01*
X110220643Y-101613984D01*
X110286513Y-101590683D01*
X110293255Y-101590500D01*
X116978398Y-101590500D01*
X117045437Y-101610185D01*
X117084514Y-101650349D01*
X117099528Y-101675185D01*
X117219815Y-101795472D01*
X117232975Y-101803427D01*
X117280162Y-101854954D01*
X117290759Y-101912911D01*
X117292082Y-101912870D01*
X117294500Y-101989814D01*
X117294500Y-102019343D01*
X117294501Y-102019360D01*
X117295368Y-102026231D01*
X117295826Y-102032050D01*
X117297290Y-102078624D01*
X117297291Y-102078627D01*
X117302880Y-102097867D01*
X117306824Y-102116911D01*
X117309336Y-102136791D01*
X117326490Y-102180119D01*
X117328382Y-102185647D01*
X117330544Y-102193089D01*
X117341382Y-102230390D01*
X117345280Y-102236982D01*
X117351580Y-102247634D01*
X117360138Y-102265103D01*
X117367514Y-102283732D01*
X117394898Y-102321423D01*
X117398106Y-102326307D01*
X117421827Y-102366416D01*
X117421833Y-102366424D01*
X117435990Y-102380580D01*
X117448628Y-102395376D01*
X117460405Y-102411586D01*
X117460406Y-102411587D01*
X117496309Y-102441288D01*
X117500620Y-102445210D01*
X119045186Y-103989776D01*
X119733181Y-104677771D01*
X119766666Y-104739094D01*
X119769500Y-104765452D01*
X119769500Y-104941444D01*
X119749815Y-105008483D01*
X119710598Y-105046982D01*
X119629456Y-105097031D01*
X119509532Y-105216955D01*
X119509529Y-105216959D01*
X119420501Y-105361294D01*
X119420496Y-105361305D01*
X119367151Y-105522290D01*
X119357000Y-105621647D01*
X119357000Y-106468337D01*
X119357001Y-106468355D01*
X119367150Y-106567707D01*
X119367151Y-106567710D01*
X119420496Y-106728694D01*
X119420501Y-106728705D01*
X119509529Y-106873040D01*
X119509532Y-106873044D01*
X119629455Y-106992967D01*
X119629459Y-106992970D01*
X119773794Y-107081998D01*
X119773797Y-107081999D01*
X119773803Y-107082003D01*
X119934792Y-107135349D01*
X120034155Y-107145500D01*
X120580844Y-107145499D01*
X120580852Y-107145498D01*
X120580855Y-107145498D01*
X120635260Y-107139940D01*
X120680208Y-107135349D01*
X120841197Y-107082003D01*
X120985544Y-106992968D01*
X121105468Y-106873044D01*
X121194503Y-106728697D01*
X121247849Y-106567708D01*
X121258000Y-106468345D01*
X121257999Y-105621656D01*
X121247849Y-105522292D01*
X121194503Y-105361303D01*
X121194499Y-105361297D01*
X121194498Y-105361294D01*
X121105470Y-105216959D01*
X121105467Y-105216955D01*
X121056819Y-105168307D01*
X121023334Y-105106984D01*
X121020500Y-105080626D01*
X121020500Y-104537742D01*
X121022224Y-104522122D01*
X121021939Y-104522095D01*
X121022673Y-104514333D01*
X121020500Y-104445172D01*
X121020500Y-104415656D01*
X121020500Y-104415650D01*
X121019631Y-104408779D01*
X121019173Y-104402952D01*
X121017710Y-104356373D01*
X121012119Y-104337130D01*
X121008173Y-104318078D01*
X121005664Y-104298208D01*
X120988504Y-104254867D01*
X120986624Y-104249379D01*
X120973618Y-104204610D01*
X120963422Y-104187370D01*
X120954861Y-104169894D01*
X120947487Y-104151270D01*
X120946300Y-104149636D01*
X120920079Y-104113545D01*
X120916888Y-104108686D01*
X120911286Y-104099214D01*
X120893170Y-104068580D01*
X120893168Y-104068578D01*
X120893165Y-104068574D01*
X120879006Y-104054415D01*
X120866368Y-104039619D01*
X120854594Y-104023413D01*
X120818688Y-103993709D01*
X120814376Y-103989786D01*
X118924686Y-102100096D01*
X118891201Y-102038773D01*
X118896185Y-101969081D01*
X118938057Y-101913148D01*
X119003521Y-101888731D01*
X119049252Y-101894028D01*
X119177804Y-101934086D01*
X119248384Y-101940500D01*
X119248387Y-101940500D01*
X119761613Y-101940500D01*
X119761616Y-101940500D01*
X119832196Y-101934086D01*
X119994606Y-101883478D01*
X120140185Y-101795472D01*
X120260472Y-101675185D01*
X120275486Y-101650349D01*
X120327014Y-101603162D01*
X120381602Y-101590500D01*
X136623416Y-101590500D01*
X136690455Y-101610185D01*
X136696302Y-101614182D01*
X136707270Y-101622151D01*
X136880192Y-101699142D01*
X136880197Y-101699144D01*
X137065354Y-101738500D01*
X137065355Y-101738500D01*
X137254644Y-101738500D01*
X137254646Y-101738500D01*
X137439803Y-101699144D01*
X137612730Y-101622151D01*
X137765871Y-101510888D01*
X137892533Y-101370216D01*
X137987179Y-101206284D01*
X138045674Y-101026256D01*
X138065460Y-100838000D01*
X138045674Y-100649744D01*
X137987179Y-100469716D01*
X137892533Y-100305784D01*
X137765871Y-100165112D01*
X137723780Y-100134531D01*
X137607473Y-100050029D01*
X137609028Y-100047888D01*
X137568921Y-100005840D01*
X137555685Y-99937235D01*
X137581642Y-99872366D01*
X137608370Y-99849205D01*
X137607473Y-99847971D01*
X137677879Y-99796817D01*
X137765871Y-99732888D01*
X137892533Y-99592216D01*
X137987179Y-99428284D01*
X138045674Y-99248256D01*
X138065460Y-99060000D01*
X138045674Y-98871744D01*
X137987179Y-98691716D01*
X137892533Y-98527784D01*
X137765871Y-98387112D01*
X137765870Y-98387111D01*
X137612734Y-98275851D01*
X137612729Y-98275848D01*
X137439807Y-98198857D01*
X137439802Y-98198855D01*
X137294001Y-98167865D01*
X137254646Y-98159500D01*
X137065354Y-98159500D01*
X137032897Y-98166398D01*
X136880197Y-98198855D01*
X136880192Y-98198857D01*
X136707270Y-98275848D01*
X136707265Y-98275851D01*
X136554130Y-98387110D01*
X136554126Y-98387114D01*
X136548400Y-98393474D01*
X136488913Y-98430121D01*
X136456252Y-98434500D01*
X125532453Y-98434500D01*
X125465414Y-98414815D01*
X125444772Y-98398181D01*
X123597819Y-96551228D01*
X123564334Y-96489905D01*
X123561500Y-96463547D01*
X123561500Y-95245000D01*
X128500001Y-95245000D01*
X128500001Y-95251582D01*
X128506408Y-95322102D01*
X128506409Y-95322107D01*
X128556981Y-95484396D01*
X128644927Y-95629877D01*
X128765122Y-95750072D01*
X128910604Y-95838019D01*
X128910603Y-95838019D01*
X129072894Y-95888590D01*
X129072892Y-95888590D01*
X129143418Y-95894999D01*
X129224999Y-95894998D01*
X129225000Y-95894998D01*
X129225000Y-95245000D01*
X128500001Y-95245000D01*
X123561500Y-95245000D01*
X123561500Y-89236742D01*
X123563224Y-89221122D01*
X123562939Y-89221096D01*
X123563671Y-89213340D01*
X123563673Y-89213333D01*
X123561500Y-89144185D01*
X123561500Y-89114650D01*
X123560631Y-89107772D01*
X123560172Y-89101943D01*
X123559780Y-89089480D01*
X123558709Y-89055373D01*
X123553122Y-89036144D01*
X123549174Y-89017084D01*
X123546663Y-88997204D01*
X123529512Y-88953887D01*
X123527619Y-88948358D01*
X123514618Y-88903609D01*
X123514616Y-88903606D01*
X123504423Y-88886371D01*
X123495861Y-88868894D01*
X123488487Y-88850270D01*
X123488486Y-88850268D01*
X123461079Y-88812545D01*
X123457888Y-88807686D01*
X123434172Y-88767583D01*
X123434165Y-88767574D01*
X123420006Y-88753415D01*
X123407368Y-88738619D01*
X123395594Y-88722413D01*
X123359688Y-88692709D01*
X123355376Y-88688786D01*
X122547803Y-87881212D01*
X122537980Y-87868950D01*
X122537759Y-87869134D01*
X122532786Y-87863123D01*
X122532446Y-87862804D01*
X122482364Y-87815773D01*
X122471919Y-87805328D01*
X122461475Y-87794883D01*
X122455986Y-87790625D01*
X122451561Y-87786847D01*
X122417582Y-87754938D01*
X122417580Y-87754936D01*
X122417577Y-87754935D01*
X122400029Y-87745288D01*
X122383763Y-87734604D01*
X122367933Y-87722325D01*
X122325168Y-87703818D01*
X122319922Y-87701248D01*
X122279093Y-87678803D01*
X122279092Y-87678802D01*
X122259693Y-87673822D01*
X122241281Y-87667518D01*
X122222898Y-87659562D01*
X122222892Y-87659560D01*
X122176874Y-87652272D01*
X122171152Y-87651087D01*
X122126021Y-87639500D01*
X122126019Y-87639500D01*
X122105984Y-87639500D01*
X122086586Y-87637973D01*
X122078030Y-87636618D01*
X122066805Y-87634840D01*
X122066804Y-87634840D01*
X122020416Y-87639225D01*
X122014578Y-87639500D01*
X120381602Y-87639500D01*
X120314563Y-87619815D01*
X120275486Y-87579651D01*
X120261291Y-87556170D01*
X120260472Y-87554815D01*
X120260471Y-87554814D01*
X120260468Y-87554810D01*
X120140188Y-87434530D01*
X120118670Y-87421522D01*
X119994606Y-87346522D01*
X119832196Y-87295914D01*
X119832194Y-87295913D01*
X119832192Y-87295913D01*
X119782778Y-87291423D01*
X119761616Y-87289500D01*
X119248384Y-87289500D01*
X119229145Y-87291248D01*
X119177807Y-87295913D01*
X119015393Y-87346522D01*
X118869811Y-87434530D01*
X118869810Y-87434531D01*
X118767327Y-87537015D01*
X118706004Y-87570500D01*
X118636312Y-87565516D01*
X118591965Y-87537015D01*
X118489877Y-87434927D01*
X118344395Y-87346980D01*
X118344396Y-87346980D01*
X118182105Y-87296409D01*
X118182106Y-87296409D01*
X118111572Y-87290000D01*
X118105000Y-87290000D01*
X118105000Y-89239999D01*
X118111581Y-89239999D01*
X118182102Y-89233591D01*
X118182107Y-89233590D01*
X118344396Y-89183018D01*
X118489877Y-89095072D01*
X118489878Y-89095071D01*
X118591963Y-88992985D01*
X118653286Y-88959499D01*
X118722977Y-88964483D01*
X118767326Y-88992983D01*
X118843182Y-89068839D01*
X118876666Y-89130160D01*
X118879500Y-89156519D01*
X118879500Y-89913480D01*
X118859815Y-89980519D01*
X118843181Y-90001161D01*
X118767681Y-90076661D01*
X118706358Y-90110146D01*
X118636666Y-90105162D01*
X118592319Y-90076661D01*
X118490188Y-89974530D01*
X118480499Y-89968673D01*
X118344606Y-89886522D01*
X118182196Y-89835914D01*
X118182194Y-89835913D01*
X118182192Y-89835913D01*
X118132778Y-89831423D01*
X118111616Y-89829500D01*
X117598384Y-89829500D01*
X117579145Y-89831248D01*
X117527807Y-89835913D01*
X117365393Y-89886522D01*
X117219811Y-89974530D01*
X117099531Y-90094810D01*
X117099528Y-90094814D01*
X117084514Y-90119651D01*
X117032986Y-90166838D01*
X116978398Y-90179500D01*
X110293255Y-90179500D01*
X110226216Y-90159815D01*
X110180461Y-90107011D01*
X110177827Y-90100803D01*
X110177022Y-90098752D01*
X110146743Y-90021602D01*
X110011815Y-89787898D01*
X109843561Y-89576915D01*
X109843560Y-89576914D01*
X109843557Y-89576910D01*
X109645741Y-89393365D01*
X109634720Y-89385851D01*
X109422775Y-89241349D01*
X109422769Y-89241346D01*
X109422768Y-89241345D01*
X109422767Y-89241344D01*
X109179643Y-89124263D01*
X109179645Y-89124263D01*
X108921773Y-89044720D01*
X108921767Y-89044718D01*
X108654936Y-89004500D01*
X108654929Y-89004500D01*
X108385071Y-89004500D01*
X108385063Y-89004500D01*
X108118232Y-89044718D01*
X108118226Y-89044720D01*
X107860358Y-89124262D01*
X107617230Y-89241346D01*
X107394258Y-89393365D01*
X107196442Y-89576910D01*
X107028185Y-89787898D01*
X106893258Y-90021599D01*
X106893256Y-90021603D01*
X106794666Y-90272804D01*
X106794664Y-90272811D01*
X106734616Y-90535898D01*
X106714451Y-90804995D01*
X106714451Y-90805004D01*
X106734616Y-91074101D01*
X106794664Y-91337188D01*
X106794666Y-91337195D01*
X106893256Y-91588396D01*
X106893258Y-91588400D01*
X106920433Y-91635469D01*
X107028185Y-91822102D01*
X107135698Y-91956918D01*
X107196442Y-92033089D01*
X107357037Y-92182098D01*
X107394259Y-92216635D01*
X107617226Y-92368651D01*
X107860359Y-92485738D01*
X108118228Y-92565280D01*
X108118229Y-92565280D01*
X108118232Y-92565281D01*
X108385063Y-92605499D01*
X108385068Y-92605499D01*
X108385071Y-92605500D01*
X108385072Y-92605500D01*
X108654928Y-92605500D01*
X108654929Y-92605500D01*
X108655626Y-92605395D01*
X108921767Y-92565281D01*
X108921768Y-92565280D01*
X108921772Y-92565280D01*
X109179641Y-92485738D01*
X109422775Y-92368651D01*
X109645741Y-92216635D01*
X109843561Y-92033085D01*
X110011815Y-91822102D01*
X110146743Y-91588398D01*
X110177827Y-91509195D01*
X110220643Y-91453984D01*
X110286513Y-91430683D01*
X110293255Y-91430500D01*
X116978398Y-91430500D01*
X117045437Y-91450185D01*
X117084514Y-91490349D01*
X117099528Y-91515185D01*
X117219815Y-91635472D01*
X117232975Y-91643427D01*
X117280162Y-91694954D01*
X117290759Y-91752911D01*
X117292082Y-91752870D01*
X117294500Y-91829814D01*
X117294500Y-91859343D01*
X117294501Y-91859360D01*
X117295368Y-91866231D01*
X117295826Y-91872050D01*
X117297290Y-91918624D01*
X117297291Y-91918627D01*
X117302880Y-91937867D01*
X117306824Y-91956911D01*
X117309336Y-91976792D01*
X117326490Y-92020119D01*
X117328382Y-92025647D01*
X117336967Y-92055196D01*
X117341382Y-92070390D01*
X117345280Y-92076982D01*
X117351580Y-92087634D01*
X117360138Y-92105103D01*
X117367514Y-92123732D01*
X117394898Y-92161423D01*
X117398106Y-92166307D01*
X117421827Y-92206416D01*
X117421833Y-92206424D01*
X117435990Y-92220580D01*
X117448628Y-92235376D01*
X117460405Y-92251586D01*
X117460406Y-92251587D01*
X117496309Y-92281288D01*
X117500620Y-92285210D01*
X118740319Y-93524909D01*
X119733181Y-94517771D01*
X119766666Y-94579094D01*
X119769500Y-94605452D01*
X119769500Y-94781444D01*
X119749815Y-94848483D01*
X119710598Y-94886982D01*
X119629456Y-94937031D01*
X119509532Y-95056955D01*
X119509529Y-95056959D01*
X119420501Y-95201294D01*
X119420496Y-95201305D01*
X119367151Y-95362290D01*
X119357000Y-95461647D01*
X119357000Y-96308337D01*
X119357001Y-96308355D01*
X119367150Y-96407707D01*
X119367151Y-96407710D01*
X119420496Y-96568694D01*
X119420501Y-96568705D01*
X119509529Y-96713040D01*
X119509532Y-96713044D01*
X119629455Y-96832967D01*
X119629459Y-96832970D01*
X119773794Y-96921998D01*
X119773797Y-96921999D01*
X119773803Y-96922003D01*
X119934792Y-96975349D01*
X120034155Y-96985500D01*
X120580844Y-96985499D01*
X120580852Y-96985498D01*
X120580855Y-96985498D01*
X120638132Y-96979647D01*
X120680208Y-96975349D01*
X120841197Y-96922003D01*
X120985544Y-96832968D01*
X121105468Y-96713044D01*
X121194503Y-96568697D01*
X121247849Y-96407708D01*
X121258000Y-96308345D01*
X121257999Y-95461656D01*
X121257638Y-95458126D01*
X121247849Y-95362292D01*
X121247848Y-95362289D01*
X121237473Y-95330978D01*
X121194503Y-95201303D01*
X121194499Y-95201297D01*
X121194498Y-95201294D01*
X121105470Y-95056959D01*
X121105467Y-95056955D01*
X121056819Y-95008307D01*
X121023334Y-94946984D01*
X121020500Y-94920626D01*
X121020500Y-94377742D01*
X121022224Y-94362122D01*
X121021939Y-94362095D01*
X121022673Y-94354333D01*
X121020500Y-94285172D01*
X121020500Y-94255656D01*
X121020500Y-94255650D01*
X121019631Y-94248779D01*
X121019173Y-94242952D01*
X121017710Y-94196373D01*
X121012119Y-94177130D01*
X121008173Y-94158078D01*
X121005664Y-94138208D01*
X120988504Y-94094867D01*
X120986624Y-94089379D01*
X120973618Y-94044610D01*
X120963422Y-94027370D01*
X120954861Y-94009894D01*
X120947487Y-93991270D01*
X120947486Y-93991268D01*
X120920079Y-93953545D01*
X120916888Y-93948686D01*
X120911286Y-93939214D01*
X120893170Y-93908580D01*
X120893168Y-93908578D01*
X120893165Y-93908574D01*
X120879006Y-93894415D01*
X120866368Y-93879619D01*
X120854594Y-93863413D01*
X120818688Y-93833709D01*
X120814376Y-93829786D01*
X118924686Y-91940096D01*
X118891201Y-91878773D01*
X118896185Y-91809081D01*
X118938057Y-91753148D01*
X119003521Y-91728731D01*
X119049252Y-91734028D01*
X119177804Y-91774086D01*
X119248384Y-91780500D01*
X119248387Y-91780500D01*
X119761613Y-91780500D01*
X119761616Y-91780500D01*
X119832196Y-91774086D01*
X119994606Y-91723478D01*
X120140185Y-91635472D01*
X120260472Y-91515185D01*
X120348478Y-91369606D01*
X120399086Y-91207196D01*
X120405500Y-91136616D01*
X120405500Y-90473384D01*
X120399086Y-90402804D01*
X120348478Y-90240394D01*
X120260472Y-90094815D01*
X120260470Y-90094813D01*
X120260469Y-90094811D01*
X120166819Y-90001161D01*
X120133334Y-89939838D01*
X120130500Y-89913480D01*
X120130500Y-89156519D01*
X120150185Y-89089480D01*
X120166814Y-89068842D01*
X120260472Y-88975185D01*
X120275486Y-88950349D01*
X120327014Y-88903162D01*
X120381602Y-88890500D01*
X121736548Y-88890500D01*
X121803587Y-88910185D01*
X121824229Y-88926819D01*
X122274181Y-89376771D01*
X122307666Y-89438094D01*
X122310500Y-89464452D01*
X122310500Y-96691255D01*
X122308775Y-96706872D01*
X122309061Y-96706899D01*
X122308326Y-96714665D01*
X122310500Y-96783814D01*
X122310500Y-96813343D01*
X122310501Y-96813360D01*
X122311368Y-96820231D01*
X122311826Y-96826050D01*
X122313290Y-96872624D01*
X122313291Y-96872627D01*
X122318880Y-96891867D01*
X122322824Y-96910911D01*
X122325336Y-96930792D01*
X122329551Y-96941437D01*
X122342490Y-96974119D01*
X122344382Y-96979647D01*
X122355574Y-97018170D01*
X122357382Y-97024390D01*
X122366442Y-97039711D01*
X122367580Y-97041634D01*
X122376136Y-97059100D01*
X122383514Y-97077732D01*
X122398688Y-97098618D01*
X122410898Y-97115423D01*
X122414106Y-97120307D01*
X122437827Y-97160416D01*
X122437833Y-97160424D01*
X122451990Y-97174580D01*
X122464628Y-97189376D01*
X122476405Y-97205586D01*
X122476406Y-97205587D01*
X122512309Y-97235288D01*
X122516620Y-97239210D01*
X124266805Y-98989396D01*
X124721197Y-99443788D01*
X124731022Y-99456051D01*
X124731243Y-99455869D01*
X124736214Y-99461878D01*
X124762217Y-99486295D01*
X124786635Y-99509226D01*
X124807529Y-99530120D01*
X124813011Y-99534373D01*
X124817443Y-99538157D01*
X124851418Y-99570062D01*
X124868976Y-99579714D01*
X124885235Y-99590395D01*
X124901064Y-99602673D01*
X124943838Y-99621182D01*
X124949056Y-99623738D01*
X124989908Y-99646197D01*
X125009316Y-99651180D01*
X125027717Y-99657480D01*
X125046104Y-99665437D01*
X125089488Y-99672308D01*
X125092119Y-99672725D01*
X125097839Y-99673909D01*
X125142981Y-99685500D01*
X125163016Y-99685500D01*
X125182414Y-99687026D01*
X125202194Y-99690159D01*
X125202195Y-99690160D01*
X125202195Y-99690159D01*
X125202196Y-99690160D01*
X125248584Y-99685775D01*
X125254422Y-99685500D01*
X136456252Y-99685500D01*
X136523291Y-99705185D01*
X136548400Y-99726526D01*
X136554126Y-99732885D01*
X136554130Y-99732889D01*
X136712527Y-99847971D01*
X136710976Y-99850105D01*
X136751098Y-99892199D01*
X136764309Y-99960808D01*
X136738330Y-100025668D01*
X136711634Y-100048800D01*
X136712527Y-100050029D01*
X136554129Y-100165111D01*
X136434051Y-100298472D01*
X136374564Y-100335121D01*
X136341901Y-100339500D01*
X120381602Y-100339500D01*
X120314563Y-100319815D01*
X120275486Y-100279651D01*
X120260471Y-100254814D01*
X120260468Y-100254810D01*
X120166819Y-100161161D01*
X120133334Y-100099838D01*
X120130500Y-100073480D01*
X120130500Y-99316519D01*
X120150185Y-99249480D01*
X120166814Y-99228842D01*
X120260472Y-99135185D01*
X120348478Y-98989606D01*
X120399086Y-98827196D01*
X120405500Y-98756616D01*
X120405500Y-98093384D01*
X120399086Y-98022804D01*
X120348478Y-97860394D01*
X120260472Y-97714815D01*
X120260470Y-97714813D01*
X120260469Y-97714811D01*
X120140188Y-97594530D01*
X119994606Y-97506522D01*
X119832196Y-97455914D01*
X119832194Y-97455913D01*
X119832192Y-97455913D01*
X119782778Y-97451423D01*
X119761616Y-97449500D01*
X119248384Y-97449500D01*
X119229145Y-97451248D01*
X119177807Y-97455913D01*
X119015393Y-97506522D01*
X118869811Y-97594530D01*
X118869810Y-97594531D01*
X118767327Y-97697015D01*
X118706004Y-97730500D01*
X118636312Y-97725516D01*
X118591965Y-97697015D01*
X118489877Y-97594927D01*
X118344395Y-97506980D01*
X118344396Y-97506980D01*
X118182105Y-97456409D01*
X118182106Y-97456409D01*
X118111572Y-97450000D01*
X118105000Y-97450000D01*
X118105000Y-99399999D01*
X118111581Y-99399999D01*
X118182102Y-99393591D01*
X118182107Y-99393590D01*
X118344396Y-99343018D01*
X118489877Y-99255072D01*
X118489878Y-99255071D01*
X118591963Y-99152985D01*
X118653286Y-99119499D01*
X118722977Y-99124483D01*
X118767326Y-99152983D01*
X118843182Y-99228839D01*
X118876666Y-99290160D01*
X118879500Y-99316519D01*
X118879500Y-100073480D01*
X118859815Y-100140519D01*
X118843181Y-100161161D01*
X118767681Y-100236661D01*
X118706358Y-100270146D01*
X118636666Y-100265162D01*
X118592319Y-100236661D01*
X118490188Y-100134530D01*
X118480499Y-100128673D01*
X118344606Y-100046522D01*
X118182196Y-99995914D01*
X118182194Y-99995913D01*
X118182192Y-99995913D01*
X118132778Y-99991423D01*
X118111616Y-99989500D01*
X117598384Y-99989500D01*
X117579145Y-99991248D01*
X117527807Y-99995913D01*
X117365393Y-100046522D01*
X117219811Y-100134530D01*
X117099531Y-100254810D01*
X117099528Y-100254814D01*
X117084514Y-100279651D01*
X117032986Y-100326838D01*
X116978398Y-100339500D01*
X110293255Y-100339500D01*
X110226216Y-100319815D01*
X110180461Y-100267011D01*
X110177827Y-100260803D01*
X110175477Y-100254815D01*
X110146743Y-100181602D01*
X110011815Y-99947898D01*
X109843561Y-99736915D01*
X109843560Y-99736914D01*
X109843557Y-99736910D01*
X109645741Y-99553365D01*
X109611647Y-99530120D01*
X109422775Y-99401349D01*
X109422769Y-99401346D01*
X109422768Y-99401345D01*
X109422767Y-99401344D01*
X109179643Y-99284263D01*
X109179645Y-99284263D01*
X108921773Y-99204720D01*
X108921767Y-99204718D01*
X108654936Y-99164500D01*
X108654929Y-99164500D01*
X108385071Y-99164500D01*
X108385063Y-99164500D01*
X108118232Y-99204718D01*
X108118226Y-99204720D01*
X107860358Y-99284262D01*
X107617230Y-99401346D01*
X107394258Y-99553365D01*
X107196442Y-99736910D01*
X107028185Y-99947898D01*
X106893258Y-100181599D01*
X106893256Y-100181603D01*
X106794666Y-100432804D01*
X106794664Y-100432811D01*
X106734616Y-100695898D01*
X106714451Y-100964995D01*
X106714451Y-100965004D01*
X103691358Y-100965004D01*
X103699655Y-98675000D01*
X116955001Y-98675000D01*
X116955001Y-98756582D01*
X116961408Y-98827102D01*
X116961409Y-98827107D01*
X117011981Y-98989396D01*
X117099927Y-99134877D01*
X117220122Y-99255072D01*
X117365604Y-99343019D01*
X117365603Y-99343019D01*
X117527894Y-99393590D01*
X117527893Y-99393590D01*
X117598408Y-99399998D01*
X117598426Y-99399999D01*
X117604999Y-99399998D01*
X117605000Y-99399998D01*
X117605000Y-98675000D01*
X116955001Y-98675000D01*
X103699655Y-98675000D01*
X103701467Y-98175000D01*
X116955000Y-98175000D01*
X117605000Y-98175000D01*
X117605000Y-97450000D01*
X117604999Y-97449999D01*
X117598436Y-97450000D01*
X117598417Y-97450001D01*
X117527897Y-97456408D01*
X117527892Y-97456409D01*
X117365603Y-97506981D01*
X117220122Y-97594927D01*
X117099927Y-97715122D01*
X117011980Y-97860604D01*
X116961409Y-98022893D01*
X116955000Y-98093427D01*
X116955000Y-98175000D01*
X103701467Y-98175000D01*
X103709764Y-95885004D01*
X106714953Y-95885004D01*
X106735113Y-96154026D01*
X106735113Y-96154028D01*
X106795142Y-96417033D01*
X106795148Y-96417052D01*
X106893709Y-96668181D01*
X106893708Y-96668181D01*
X107028602Y-96901822D01*
X107082294Y-96969151D01*
X107917452Y-96133992D01*
X107927188Y-96163956D01*
X108015186Y-96302619D01*
X108134903Y-96415040D01*
X108269510Y-96489041D01*
X107434848Y-97323702D01*
X107617483Y-97448220D01*
X107617485Y-97448221D01*
X107860539Y-97565269D01*
X107860537Y-97565269D01*
X108118337Y-97644790D01*
X108118343Y-97644792D01*
X108385101Y-97684999D01*
X108385110Y-97685000D01*
X108654890Y-97685000D01*
X108654898Y-97684999D01*
X108921656Y-97644792D01*
X108921662Y-97644790D01*
X109179461Y-97565269D01*
X109422521Y-97448218D01*
X109605150Y-97323702D01*
X108767534Y-96486086D01*
X108835629Y-96459126D01*
X108968492Y-96362595D01*
X109073175Y-96236055D01*
X109121631Y-96133079D01*
X109957703Y-96969151D01*
X109957704Y-96969150D01*
X110011393Y-96901828D01*
X110011400Y-96901817D01*
X110146290Y-96668181D01*
X110244851Y-96417052D01*
X110244857Y-96417033D01*
X110304886Y-96154028D01*
X110304886Y-96154026D01*
X110306312Y-96135000D01*
X116057501Y-96135000D01*
X116057501Y-96308322D01*
X116067644Y-96407607D01*
X116120952Y-96568481D01*
X116120957Y-96568492D01*
X116209924Y-96712728D01*
X116209927Y-96712732D01*
X116329767Y-96832572D01*
X116329771Y-96832575D01*
X116474007Y-96921542D01*
X116474018Y-96921547D01*
X116634893Y-96974855D01*
X116734183Y-96984999D01*
X116757500Y-96984998D01*
X116757500Y-96135000D01*
X117257500Y-96135000D01*
X117257500Y-96984999D01*
X117280808Y-96984999D01*
X117280822Y-96984998D01*
X117380107Y-96974855D01*
X117540981Y-96921547D01*
X117540992Y-96921542D01*
X117685228Y-96832575D01*
X117685232Y-96832572D01*
X117805072Y-96712732D01*
X117805075Y-96712728D01*
X117894042Y-96568492D01*
X117894047Y-96568481D01*
X117947355Y-96407606D01*
X117957499Y-96308322D01*
X117957500Y-96308309D01*
X117957500Y-96135000D01*
X117257500Y-96135000D01*
X116757500Y-96135000D01*
X116057501Y-96135000D01*
X110306312Y-96135000D01*
X110325047Y-95885004D01*
X110325047Y-95884995D01*
X110306312Y-95635000D01*
X116057500Y-95635000D01*
X116757500Y-95635000D01*
X116757500Y-94785000D01*
X117257500Y-94785000D01*
X117257500Y-95635000D01*
X117957499Y-95635000D01*
X117957499Y-95461692D01*
X117957498Y-95461677D01*
X117947355Y-95362392D01*
X117894047Y-95201518D01*
X117894042Y-95201507D01*
X117805075Y-95057271D01*
X117805072Y-95057267D01*
X117685232Y-94937427D01*
X117685228Y-94937424D01*
X117540992Y-94848457D01*
X117540981Y-94848452D01*
X117380106Y-94795144D01*
X117280822Y-94785000D01*
X117257500Y-94785000D01*
X116757500Y-94785000D01*
X116757500Y-94784999D01*
X116734193Y-94785000D01*
X116734174Y-94785001D01*
X116634892Y-94795144D01*
X116474018Y-94848452D01*
X116474007Y-94848457D01*
X116329771Y-94937424D01*
X116329767Y-94937427D01*
X116209927Y-95057267D01*
X116209924Y-95057271D01*
X116120957Y-95201507D01*
X116120952Y-95201518D01*
X116067644Y-95362393D01*
X116057500Y-95461677D01*
X116057500Y-95635000D01*
X110306312Y-95635000D01*
X110304886Y-95615973D01*
X110304886Y-95615971D01*
X110244857Y-95352966D01*
X110244851Y-95352947D01*
X110146290Y-95101818D01*
X110146291Y-95101818D01*
X110011397Y-94868177D01*
X109957704Y-94800847D01*
X109122546Y-95636004D01*
X109112812Y-95606044D01*
X109024814Y-95467381D01*
X108905097Y-95354960D01*
X108770489Y-95280958D01*
X109605150Y-94446296D01*
X109422517Y-94321779D01*
X109422516Y-94321778D01*
X109179460Y-94204730D01*
X109179462Y-94204730D01*
X108921662Y-94125209D01*
X108921656Y-94125207D01*
X108654898Y-94085000D01*
X108385101Y-94085000D01*
X108118343Y-94125207D01*
X108118337Y-94125209D01*
X107860538Y-94204730D01*
X107617485Y-94321778D01*
X107617476Y-94321783D01*
X107434848Y-94446296D01*
X108272465Y-95283913D01*
X108204371Y-95310874D01*
X108071508Y-95407405D01*
X107966825Y-95533945D01*
X107918368Y-95636921D01*
X107082295Y-94800848D01*
X107028600Y-94868180D01*
X106893709Y-95101818D01*
X106795148Y-95352947D01*
X106795142Y-95352966D01*
X106735113Y-95615971D01*
X106735113Y-95615973D01*
X106714953Y-95884995D01*
X106714953Y-95885004D01*
X103709764Y-95885004D01*
X103736466Y-88515000D01*
X116955001Y-88515000D01*
X116955001Y-88596582D01*
X116961408Y-88667102D01*
X116961409Y-88667107D01*
X117011981Y-88829396D01*
X117099927Y-88974877D01*
X117220122Y-89095072D01*
X117365604Y-89183019D01*
X117365603Y-89183019D01*
X117527894Y-89233590D01*
X117527893Y-89233590D01*
X117598408Y-89239998D01*
X117598426Y-89239999D01*
X117604999Y-89239998D01*
X117605000Y-89239998D01*
X117605000Y-88515000D01*
X116955001Y-88515000D01*
X103736466Y-88515000D01*
X103738278Y-88015000D01*
X116955000Y-88015000D01*
X117605000Y-88015000D01*
X117605000Y-87290000D01*
X117604999Y-87289999D01*
X117598436Y-87290000D01*
X117598417Y-87290001D01*
X117527897Y-87296408D01*
X117527892Y-87296409D01*
X117365603Y-87346981D01*
X117220122Y-87434927D01*
X117099927Y-87555122D01*
X117011980Y-87700604D01*
X116961409Y-87862893D01*
X116955000Y-87933427D01*
X116955000Y-88015000D01*
X103738278Y-88015000D01*
X103746575Y-85725004D01*
X106714953Y-85725004D01*
X106735113Y-85994026D01*
X106735113Y-85994028D01*
X106795142Y-86257033D01*
X106795148Y-86257052D01*
X106893709Y-86508181D01*
X106893708Y-86508181D01*
X107028602Y-86741822D01*
X107082294Y-86809151D01*
X107917452Y-85973992D01*
X107927188Y-86003956D01*
X108015186Y-86142619D01*
X108134903Y-86255040D01*
X108269510Y-86329041D01*
X107434848Y-87163702D01*
X107617483Y-87288220D01*
X107617485Y-87288221D01*
X107860539Y-87405269D01*
X107860537Y-87405269D01*
X108118337Y-87484790D01*
X108118343Y-87484792D01*
X108385101Y-87524999D01*
X108385110Y-87525000D01*
X108654890Y-87525000D01*
X108654898Y-87524999D01*
X108921656Y-87484792D01*
X108921662Y-87484790D01*
X109179461Y-87405269D01*
X109422521Y-87288218D01*
X109605150Y-87163702D01*
X108767534Y-86326086D01*
X108835629Y-86299126D01*
X108968492Y-86202595D01*
X109073175Y-86076055D01*
X109121631Y-85973079D01*
X109957703Y-86809151D01*
X109957704Y-86809150D01*
X110011393Y-86741828D01*
X110011400Y-86741817D01*
X110146290Y-86508181D01*
X110244851Y-86257052D01*
X110244857Y-86257033D01*
X110304886Y-85994028D01*
X110304886Y-85994026D01*
X110306312Y-85975000D01*
X116102501Y-85975000D01*
X116102501Y-86148322D01*
X116112644Y-86247607D01*
X116165952Y-86408481D01*
X116165957Y-86408492D01*
X116254924Y-86552728D01*
X116254927Y-86552732D01*
X116374767Y-86672572D01*
X116374771Y-86672575D01*
X116519007Y-86761542D01*
X116519018Y-86761547D01*
X116679893Y-86814855D01*
X116779183Y-86824999D01*
X116802500Y-86824998D01*
X116802500Y-85975000D01*
X117302500Y-85975000D01*
X117302500Y-86824999D01*
X117325808Y-86824999D01*
X117325822Y-86824998D01*
X117425107Y-86814855D01*
X117585981Y-86761547D01*
X117585992Y-86761542D01*
X117730228Y-86672575D01*
X117730232Y-86672572D01*
X117850072Y-86552732D01*
X117850075Y-86552728D01*
X117939042Y-86408492D01*
X117939047Y-86408481D01*
X117992355Y-86247606D01*
X118002499Y-86148322D01*
X118002500Y-86148309D01*
X118002500Y-85975000D01*
X117302500Y-85975000D01*
X116802500Y-85975000D01*
X116102501Y-85975000D01*
X110306312Y-85975000D01*
X110325047Y-85725004D01*
X110325047Y-85724995D01*
X110306312Y-85475000D01*
X116102500Y-85475000D01*
X116802500Y-85475000D01*
X116802500Y-84625000D01*
X117302500Y-84625000D01*
X117302500Y-85475000D01*
X118002499Y-85475000D01*
X118002499Y-85301692D01*
X118002498Y-85301677D01*
X117992355Y-85202392D01*
X117939047Y-85041518D01*
X117939042Y-85041507D01*
X117850075Y-84897271D01*
X117850072Y-84897267D01*
X117730232Y-84777427D01*
X117730228Y-84777424D01*
X117585992Y-84688457D01*
X117585981Y-84688452D01*
X117425106Y-84635144D01*
X117325822Y-84625000D01*
X117302500Y-84625000D01*
X116802500Y-84625000D01*
X116802500Y-84624999D01*
X116779193Y-84625000D01*
X116779174Y-84625001D01*
X116679892Y-84635144D01*
X116519018Y-84688452D01*
X116519007Y-84688457D01*
X116374771Y-84777424D01*
X116374767Y-84777427D01*
X116254927Y-84897267D01*
X116254924Y-84897271D01*
X116165957Y-85041507D01*
X116165952Y-85041518D01*
X116112644Y-85202393D01*
X116102500Y-85301677D01*
X116102500Y-85475000D01*
X110306312Y-85475000D01*
X110304886Y-85455973D01*
X110304886Y-85455971D01*
X110244857Y-85192966D01*
X110244851Y-85192947D01*
X110146290Y-84941818D01*
X110146291Y-84941818D01*
X110011397Y-84708177D01*
X109957704Y-84640847D01*
X109122546Y-85476004D01*
X109112812Y-85446044D01*
X109024814Y-85307381D01*
X108905097Y-85194960D01*
X108770489Y-85120958D01*
X109605150Y-84286296D01*
X109422517Y-84161779D01*
X109422516Y-84161778D01*
X109179460Y-84044730D01*
X109179462Y-84044730D01*
X108921662Y-83965209D01*
X108921656Y-83965207D01*
X108654898Y-83925000D01*
X108385101Y-83925000D01*
X108118343Y-83965207D01*
X108118337Y-83965209D01*
X107860538Y-84044730D01*
X107617485Y-84161778D01*
X107617476Y-84161783D01*
X107434848Y-84286296D01*
X108272465Y-85123913D01*
X108204371Y-85150874D01*
X108071508Y-85247405D01*
X107966825Y-85373945D01*
X107918368Y-85476921D01*
X107082295Y-84640848D01*
X107028600Y-84708180D01*
X106893709Y-84941818D01*
X106795148Y-85192947D01*
X106795142Y-85192966D01*
X106735113Y-85455971D01*
X106735113Y-85455973D01*
X106714953Y-85724995D01*
X106714953Y-85725004D01*
X103746575Y-85725004D01*
X103764981Y-80645004D01*
X106714451Y-80645004D01*
X106734616Y-80914101D01*
X106794664Y-81177188D01*
X106794666Y-81177195D01*
X106893256Y-81428396D01*
X106893258Y-81428400D01*
X106920433Y-81475469D01*
X107028185Y-81662102D01*
X107127974Y-81787233D01*
X107196442Y-81873089D01*
X107357037Y-82022098D01*
X107394259Y-82056635D01*
X107617226Y-82208651D01*
X107860359Y-82325738D01*
X108118228Y-82405280D01*
X108118229Y-82405280D01*
X108118232Y-82405281D01*
X108385063Y-82445499D01*
X108385068Y-82445499D01*
X108385071Y-82445500D01*
X108385072Y-82445500D01*
X108654928Y-82445500D01*
X108654929Y-82445500D01*
X108654936Y-82445499D01*
X108921767Y-82405281D01*
X108921768Y-82405280D01*
X108921772Y-82405280D01*
X109179641Y-82325738D01*
X109422775Y-82208651D01*
X109645741Y-82056635D01*
X109843561Y-81873085D01*
X110011815Y-81662102D01*
X110146743Y-81428398D01*
X110177827Y-81349195D01*
X110220643Y-81293984D01*
X110286513Y-81270683D01*
X110293255Y-81270500D01*
X116978398Y-81270500D01*
X117045437Y-81290185D01*
X117084514Y-81330349D01*
X117099528Y-81355185D01*
X117219815Y-81475472D01*
X117232975Y-81483427D01*
X117280162Y-81534954D01*
X117290759Y-81592911D01*
X117292082Y-81592870D01*
X117294500Y-81669814D01*
X117294500Y-81699343D01*
X117294501Y-81699360D01*
X117295368Y-81706231D01*
X117295826Y-81712050D01*
X117297290Y-81758624D01*
X117297291Y-81758627D01*
X117302880Y-81777867D01*
X117306824Y-81796911D01*
X117309336Y-81816791D01*
X117326490Y-81860119D01*
X117328382Y-81865647D01*
X117330544Y-81873089D01*
X117341382Y-81910390D01*
X117345280Y-81916982D01*
X117351580Y-81927634D01*
X117360138Y-81945103D01*
X117367514Y-81963732D01*
X117394898Y-82001423D01*
X117398106Y-82006307D01*
X117421827Y-82046416D01*
X117421833Y-82046424D01*
X117435990Y-82060580D01*
X117448628Y-82075376D01*
X117460405Y-82091586D01*
X117460406Y-82091587D01*
X117496309Y-82121288D01*
X117500620Y-82125210D01*
X118623704Y-83248294D01*
X119733181Y-84357771D01*
X119766666Y-84419094D01*
X119769500Y-84445452D01*
X119769500Y-84649200D01*
X119749815Y-84716239D01*
X119710598Y-84754738D01*
X119674457Y-84777030D01*
X119554529Y-84896959D01*
X119465501Y-85041294D01*
X119465496Y-85041305D01*
X119412151Y-85202290D01*
X119402000Y-85301647D01*
X119402000Y-86148337D01*
X119402001Y-86148355D01*
X119412150Y-86247707D01*
X119412151Y-86247710D01*
X119465496Y-86408694D01*
X119465501Y-86408705D01*
X119554529Y-86553040D01*
X119554532Y-86553044D01*
X119674455Y-86672967D01*
X119674459Y-86672970D01*
X119818794Y-86761998D01*
X119818797Y-86761999D01*
X119818803Y-86762003D01*
X119979792Y-86815349D01*
X120079155Y-86825500D01*
X120625844Y-86825499D01*
X120625852Y-86825498D01*
X120625855Y-86825498D01*
X120680260Y-86819940D01*
X120725208Y-86815349D01*
X120886197Y-86762003D01*
X121030544Y-86672968D01*
X121150468Y-86553044D01*
X121239503Y-86408697D01*
X121292849Y-86247708D01*
X121303000Y-86148345D01*
X121302999Y-85301656D01*
X121292849Y-85202292D01*
X121239503Y-85041303D01*
X121239499Y-85041297D01*
X121239498Y-85041294D01*
X121150470Y-84896959D01*
X121150469Y-84896958D01*
X121150468Y-84896956D01*
X121056818Y-84803306D01*
X121023334Y-84741982D01*
X121020500Y-84715625D01*
X121020500Y-84217742D01*
X121022224Y-84202122D01*
X121021939Y-84202095D01*
X121022673Y-84194333D01*
X121020500Y-84125172D01*
X121020500Y-84095656D01*
X121020500Y-84095650D01*
X121019631Y-84088779D01*
X121019173Y-84082952D01*
X121017710Y-84036373D01*
X121012119Y-84017130D01*
X121008173Y-83998078D01*
X121005664Y-83978208D01*
X120988504Y-83934867D01*
X120986624Y-83929379D01*
X120973618Y-83884610D01*
X120970867Y-83879959D01*
X120963423Y-83867371D01*
X120954861Y-83849894D01*
X120947487Y-83831270D01*
X120946300Y-83829636D01*
X120920079Y-83793545D01*
X120916888Y-83788686D01*
X120915510Y-83786356D01*
X120893170Y-83748580D01*
X120893168Y-83748578D01*
X120893165Y-83748574D01*
X120879006Y-83734415D01*
X120866368Y-83719619D01*
X120857924Y-83707997D01*
X120854594Y-83703413D01*
X120818688Y-83673709D01*
X120814376Y-83669786D01*
X118924686Y-81780096D01*
X118891201Y-81718773D01*
X118896185Y-81649081D01*
X118938057Y-81593148D01*
X119003521Y-81568731D01*
X119049252Y-81574028D01*
X119177804Y-81614086D01*
X119248384Y-81620500D01*
X119248387Y-81620500D01*
X119761613Y-81620500D01*
X119761616Y-81620500D01*
X119832196Y-81614086D01*
X119994606Y-81563478D01*
X120140185Y-81475472D01*
X120260472Y-81355185D01*
X120275486Y-81330349D01*
X120327014Y-81283162D01*
X120381602Y-81270500D01*
X124276548Y-81270500D01*
X124343587Y-81290185D01*
X124364229Y-81306819D01*
X125322181Y-82264771D01*
X125355666Y-82326094D01*
X125358500Y-82352452D01*
X125358500Y-90087255D01*
X125356775Y-90102872D01*
X125357061Y-90102899D01*
X125356326Y-90110665D01*
X125358500Y-90179814D01*
X125358500Y-90209343D01*
X125358501Y-90209360D01*
X125359368Y-90216231D01*
X125359826Y-90222050D01*
X125361290Y-90268624D01*
X125361291Y-90268627D01*
X125366880Y-90287867D01*
X125370824Y-90306911D01*
X125373336Y-90326792D01*
X125390490Y-90370119D01*
X125392382Y-90375647D01*
X125405381Y-90420388D01*
X125415580Y-90437634D01*
X125424138Y-90455103D01*
X125431514Y-90473732D01*
X125458898Y-90511423D01*
X125462106Y-90516307D01*
X125485827Y-90556416D01*
X125485833Y-90556424D01*
X125499990Y-90570580D01*
X125512628Y-90585376D01*
X125524405Y-90601586D01*
X125524406Y-90601587D01*
X125560309Y-90631288D01*
X125564620Y-90635210D01*
X126938392Y-92008983D01*
X127388197Y-92458788D01*
X127398022Y-92471051D01*
X127398243Y-92470869D01*
X127403214Y-92476878D01*
X127429217Y-92501295D01*
X127453635Y-92524226D01*
X127474529Y-92545120D01*
X127480011Y-92549373D01*
X127484443Y-92553157D01*
X127518418Y-92585062D01*
X127535976Y-92594714D01*
X127552233Y-92605393D01*
X127568064Y-92617673D01*
X127587737Y-92626186D01*
X127610833Y-92636182D01*
X127616077Y-92638750D01*
X127656908Y-92661197D01*
X127669523Y-92664435D01*
X127676305Y-92666177D01*
X127694719Y-92672481D01*
X127713104Y-92680438D01*
X127759157Y-92687732D01*
X127764826Y-92688906D01*
X127809981Y-92700500D01*
X127830016Y-92700500D01*
X127849413Y-92702026D01*
X127869196Y-92705160D01*
X127915584Y-92700775D01*
X127921422Y-92700500D01*
X128436268Y-92700500D01*
X128503307Y-92720185D01*
X128549062Y-92772989D01*
X128559006Y-92842147D01*
X128554654Y-92861389D01*
X128505914Y-93017805D01*
X128499500Y-93088386D01*
X128499500Y-93601613D01*
X128505913Y-93672192D01*
X128505913Y-93672194D01*
X128505914Y-93672196D01*
X128556522Y-93834606D01*
X128640386Y-93973334D01*
X128644530Y-93980188D01*
X128747015Y-94082673D01*
X128780500Y-94143996D01*
X128775516Y-94213688D01*
X128747015Y-94258035D01*
X128644928Y-94360121D01*
X128644927Y-94360122D01*
X128556980Y-94505604D01*
X128506409Y-94667893D01*
X128500000Y-94738427D01*
X128500000Y-94745000D01*
X129601000Y-94745000D01*
X129668039Y-94764685D01*
X129713794Y-94817489D01*
X129725000Y-94869000D01*
X129725000Y-95894999D01*
X129806581Y-95894999D01*
X129877102Y-95888591D01*
X129877107Y-95888590D01*
X130039396Y-95838018D01*
X130184877Y-95750072D01*
X130305071Y-95629878D01*
X130305072Y-95629876D01*
X130321089Y-95603382D01*
X130372616Y-95556193D01*
X130441476Y-95544354D01*
X130505805Y-95571622D01*
X130533323Y-95603379D01*
X130549528Y-95630185D01*
X130549531Y-95630189D01*
X130669811Y-95750469D01*
X130669813Y-95750470D01*
X130669815Y-95750472D01*
X130815394Y-95838478D01*
X130977804Y-95889086D01*
X131048384Y-95895500D01*
X131048387Y-95895500D01*
X131711613Y-95895500D01*
X131711616Y-95895500D01*
X131782196Y-95889086D01*
X131944606Y-95838478D01*
X132090185Y-95750472D01*
X132180707Y-95659949D01*
X132242028Y-95626466D01*
X132266901Y-95624973D01*
X132266868Y-95623918D01*
X132274666Y-95623672D01*
X132274667Y-95623673D01*
X132282835Y-95623416D01*
X132306124Y-95624881D01*
X132314196Y-95626160D01*
X132314197Y-95626159D01*
X132314199Y-95626160D01*
X132353765Y-95622419D01*
X132371358Y-95620755D01*
X132375224Y-95620512D01*
X132432627Y-95618709D01*
X132440467Y-95616430D01*
X132463402Y-95612055D01*
X132471533Y-95611287D01*
X132477856Y-95609010D01*
X132483429Y-95607296D01*
X132489786Y-95605664D01*
X132489792Y-95605664D01*
X132516257Y-95595185D01*
X132525540Y-95591843D01*
X132529241Y-95590639D01*
X132584390Y-95574618D01*
X132591420Y-95570459D01*
X132612542Y-95560520D01*
X132620228Y-95557754D01*
X132627011Y-95553144D01*
X132632007Y-95550082D01*
X132636719Y-95547490D01*
X132636732Y-95547486D01*
X132656932Y-95532809D01*
X132667728Y-95525471D01*
X132670963Y-95523417D01*
X132720420Y-95494170D01*
X132726194Y-95488395D01*
X132744181Y-95473514D01*
X132750938Y-95468923D01*
X132756758Y-95462319D01*
X132760823Y-95458126D01*
X132764581Y-95454597D01*
X132764587Y-95454594D01*
X132780050Y-95435902D01*
X132783789Y-95431660D01*
X132788909Y-95425852D01*
X132791551Y-95423038D01*
X132807643Y-95406947D01*
X132868966Y-95373462D01*
X132929918Y-95375551D01*
X133057431Y-95412598D01*
X133069722Y-95413565D01*
X133094304Y-95415500D01*
X133094306Y-95415500D01*
X134875696Y-95415500D01*
X134894131Y-95414049D01*
X134912569Y-95412598D01*
X134912571Y-95412597D01*
X134912573Y-95412597D01*
X134954191Y-95400505D01*
X135070398Y-95366744D01*
X135211865Y-95283081D01*
X135218653Y-95276291D01*
X135279974Y-95242806D01*
X135290782Y-95240951D01*
X135294346Y-95240500D01*
X135294350Y-95240500D01*
X135301245Y-95239628D01*
X135307042Y-95239172D01*
X135353627Y-95237709D01*
X135372869Y-95232117D01*
X135391912Y-95228174D01*
X135411792Y-95225664D01*
X135455122Y-95208507D01*
X135460646Y-95206617D01*
X135464396Y-95205527D01*
X135505390Y-95193618D01*
X135522629Y-95183422D01*
X135540103Y-95174862D01*
X135558727Y-95167488D01*
X135558727Y-95167487D01*
X135558732Y-95167486D01*
X135596449Y-95140082D01*
X135601305Y-95136892D01*
X135641420Y-95113170D01*
X135655586Y-95099003D01*
X135670381Y-95086368D01*
X135673619Y-95084014D01*
X135686587Y-95074594D01*
X135716302Y-95038674D01*
X135720202Y-95034387D01*
X136322819Y-94431771D01*
X136384142Y-94398286D01*
X136453834Y-94403270D01*
X136509767Y-94445142D01*
X136534184Y-94510606D01*
X136534500Y-94519452D01*
X136534500Y-95167255D01*
X136532775Y-95182872D01*
X136533061Y-95182899D01*
X136532326Y-95190665D01*
X136534500Y-95259814D01*
X136534500Y-95289343D01*
X136534501Y-95289360D01*
X136535368Y-95296231D01*
X136535826Y-95302050D01*
X136537290Y-95348624D01*
X136537291Y-95348627D01*
X136542880Y-95367867D01*
X136546824Y-95386911D01*
X136549336Y-95406792D01*
X136560860Y-95435898D01*
X136566490Y-95450119D01*
X136568382Y-95455647D01*
X136581381Y-95500388D01*
X136591580Y-95517634D01*
X136600136Y-95535100D01*
X136607514Y-95553732D01*
X136622688Y-95574618D01*
X136634898Y-95591423D01*
X136638106Y-95596307D01*
X136661827Y-95636416D01*
X136661833Y-95636424D01*
X136675990Y-95650580D01*
X136688628Y-95665376D01*
X136700405Y-95681586D01*
X136700406Y-95681587D01*
X136736309Y-95711288D01*
X136740620Y-95715210D01*
X139700410Y-98675000D01*
X142374194Y-101348784D01*
X142384019Y-101361048D01*
X142384240Y-101360866D01*
X142389210Y-101366873D01*
X142389213Y-101366876D01*
X142389214Y-101366877D01*
X142439651Y-101414241D01*
X142460530Y-101435120D01*
X142466004Y-101439366D01*
X142470442Y-101443156D01*
X142504418Y-101475062D01*
X142504422Y-101475064D01*
X142521973Y-101484713D01*
X142538231Y-101495392D01*
X142554064Y-101507674D01*
X142561492Y-101510888D01*
X142596837Y-101526183D01*
X142602081Y-101528752D01*
X142642908Y-101551197D01*
X142662312Y-101556179D01*
X142680710Y-101562478D01*
X142699105Y-101570438D01*
X142745129Y-101577726D01*
X142750832Y-101578907D01*
X142795981Y-101590500D01*
X142816016Y-101590500D01*
X142835413Y-101592026D01*
X142855196Y-101595160D01*
X142901584Y-101590775D01*
X142907422Y-101590500D01*
X149363398Y-101590500D01*
X149430437Y-101610185D01*
X149469514Y-101650349D01*
X149484528Y-101675185D01*
X149484531Y-101675189D01*
X149604811Y-101795469D01*
X149604813Y-101795470D01*
X149604815Y-101795472D01*
X149750394Y-101883478D01*
X149912804Y-101934086D01*
X149983384Y-101940500D01*
X149983387Y-101940500D01*
X150496613Y-101940500D01*
X150496616Y-101940500D01*
X150567196Y-101934086D01*
X150729606Y-101883478D01*
X150875185Y-101795472D01*
X150977320Y-101693336D01*
X151038641Y-101659853D01*
X151108333Y-101664837D01*
X151152682Y-101693339D01*
X151199695Y-101740353D01*
X151233179Y-101801676D01*
X151228194Y-101871368D01*
X151199694Y-101915714D01*
X149031208Y-104084199D01*
X149018951Y-104094020D01*
X149019134Y-104094241D01*
X149013123Y-104099213D01*
X148965772Y-104149636D01*
X148944889Y-104170519D01*
X148944877Y-104170532D01*
X148940621Y-104176017D01*
X148936837Y-104180447D01*
X148904937Y-104214418D01*
X148904936Y-104214420D01*
X148895284Y-104231976D01*
X148884610Y-104248226D01*
X148872329Y-104264061D01*
X148872324Y-104264068D01*
X148853815Y-104306838D01*
X148851245Y-104312084D01*
X148828803Y-104352906D01*
X148823822Y-104372307D01*
X148817521Y-104390710D01*
X148809562Y-104409102D01*
X148809561Y-104409105D01*
X148802271Y-104455127D01*
X148801087Y-104460846D01*
X148789501Y-104505972D01*
X148789500Y-104505982D01*
X148789500Y-104526016D01*
X148787973Y-104545415D01*
X148784840Y-104565194D01*
X148784840Y-104565195D01*
X148789225Y-104611583D01*
X148789500Y-104617421D01*
X148789500Y-104995452D01*
X148769815Y-105062491D01*
X148742410Y-105092719D01*
X148736958Y-105097029D01*
X148617029Y-105216959D01*
X148528001Y-105361294D01*
X148527996Y-105361305D01*
X148474651Y-105522290D01*
X148464500Y-105621647D01*
X148464500Y-106468337D01*
X148464501Y-106468355D01*
X148474650Y-106567707D01*
X148474651Y-106567710D01*
X148527996Y-106728694D01*
X148528001Y-106728705D01*
X148617029Y-106873040D01*
X148617032Y-106873044D01*
X148736955Y-106992967D01*
X148736959Y-106992970D01*
X148881294Y-107081998D01*
X148881297Y-107081999D01*
X148881303Y-107082003D01*
X149042292Y-107135349D01*
X149141655Y-107145500D01*
X149688344Y-107145499D01*
X149688352Y-107145498D01*
X149688355Y-107145498D01*
X149742760Y-107139940D01*
X149787708Y-107135349D01*
X149948697Y-107082003D01*
X150093044Y-106992968D01*
X150212968Y-106873044D01*
X150302003Y-106728697D01*
X150355349Y-106567708D01*
X150365500Y-106468345D01*
X150365500Y-106295000D01*
X151765001Y-106295000D01*
X151765001Y-106468322D01*
X151775144Y-106567607D01*
X151828452Y-106728481D01*
X151828457Y-106728492D01*
X151917424Y-106872728D01*
X151917427Y-106872732D01*
X152037267Y-106992572D01*
X152037271Y-106992575D01*
X152181507Y-107081542D01*
X152181518Y-107081547D01*
X152342393Y-107134855D01*
X152441683Y-107144999D01*
X152465000Y-107144998D01*
X152465000Y-106295000D01*
X152965000Y-106295000D01*
X152965000Y-107144999D01*
X152988308Y-107144999D01*
X152988322Y-107144998D01*
X153087607Y-107134855D01*
X153248481Y-107081547D01*
X153248492Y-107081542D01*
X153392728Y-106992575D01*
X153392732Y-106992572D01*
X153512572Y-106872732D01*
X153512575Y-106872728D01*
X153601542Y-106728492D01*
X153601547Y-106728481D01*
X153654855Y-106567606D01*
X153664999Y-106468322D01*
X153665000Y-106468309D01*
X153665000Y-106295000D01*
X152965000Y-106295000D01*
X152465000Y-106295000D01*
X151765001Y-106295000D01*
X150365500Y-106295000D01*
X150365499Y-105795000D01*
X151765000Y-105795000D01*
X152465000Y-105795000D01*
X152465000Y-104945000D01*
X152965000Y-104945000D01*
X152965000Y-105795000D01*
X153664999Y-105795000D01*
X153664999Y-105621692D01*
X153664998Y-105621677D01*
X153654855Y-105522392D01*
X153601547Y-105361518D01*
X153601542Y-105361507D01*
X153512575Y-105217271D01*
X153512572Y-105217267D01*
X153392732Y-105097427D01*
X153392728Y-105097424D01*
X153248492Y-105008457D01*
X153248481Y-105008452D01*
X153087606Y-104955144D01*
X152988322Y-104945000D01*
X152965000Y-104945000D01*
X152465000Y-104945000D01*
X152465000Y-104944999D01*
X152441693Y-104945000D01*
X152441674Y-104945001D01*
X152342392Y-104955144D01*
X152181518Y-105008452D01*
X152181507Y-105008457D01*
X152037271Y-105097424D01*
X152037267Y-105097427D01*
X151917427Y-105217267D01*
X151917424Y-105217271D01*
X151828457Y-105361507D01*
X151828452Y-105361518D01*
X151775144Y-105522393D01*
X151765000Y-105621677D01*
X151765000Y-105795000D01*
X150365499Y-105795000D01*
X150365499Y-105621656D01*
X150355349Y-105522292D01*
X150302003Y-105361303D01*
X150301999Y-105361297D01*
X150301998Y-105361294D01*
X150212970Y-105216959D01*
X150212969Y-105216958D01*
X150212968Y-105216956D01*
X150093044Y-105097032D01*
X150093043Y-105097031D01*
X150093041Y-105097029D01*
X150087590Y-105092719D01*
X150047213Y-105035697D01*
X150040500Y-104995452D01*
X150040500Y-104895451D01*
X150060185Y-104828412D01*
X150076814Y-104807775D01*
X152273786Y-102610802D01*
X152286048Y-102600980D01*
X152285865Y-102600759D01*
X152291867Y-102595792D01*
X152291877Y-102595786D01*
X152339241Y-102545348D01*
X152360120Y-102524470D01*
X152364373Y-102518986D01*
X152368150Y-102514563D01*
X152400062Y-102480582D01*
X152409714Y-102463023D01*
X152420389Y-102446772D01*
X152432674Y-102430936D01*
X152451186Y-102388152D01*
X152453742Y-102382935D01*
X152476197Y-102342092D01*
X152481180Y-102322680D01*
X152487477Y-102304291D01*
X152495438Y-102285895D01*
X152502729Y-102239853D01*
X152503908Y-102234162D01*
X152515500Y-102189019D01*
X152515500Y-102168983D01*
X152517027Y-102149582D01*
X152520160Y-102129804D01*
X152515775Y-102083415D01*
X152515500Y-102077577D01*
X152515500Y-101856519D01*
X152535185Y-101789480D01*
X152551814Y-101768842D01*
X152645472Y-101675185D01*
X152660486Y-101650349D01*
X152712014Y-101603162D01*
X152766602Y-101590500D01*
X159121745Y-101590500D01*
X159188784Y-101610185D01*
X159234539Y-101662989D01*
X159237167Y-101669184D01*
X159265100Y-101740353D01*
X159268258Y-101748400D01*
X159295433Y-101795469D01*
X159403185Y-101982102D01*
X159502974Y-102107233D01*
X159571442Y-102193089D01*
X159732037Y-102342098D01*
X159769259Y-102376635D01*
X159992226Y-102528651D01*
X160235359Y-102645738D01*
X160493228Y-102725280D01*
X160493229Y-102725280D01*
X160493232Y-102725281D01*
X160760063Y-102765499D01*
X160760068Y-102765499D01*
X160760071Y-102765500D01*
X160760072Y-102765500D01*
X161029928Y-102765500D01*
X161029929Y-102765500D01*
X161029936Y-102765499D01*
X161296767Y-102725281D01*
X161296768Y-102725280D01*
X161296772Y-102725280D01*
X161554641Y-102645738D01*
X161797775Y-102528651D01*
X162020741Y-102376635D01*
X162218561Y-102193085D01*
X162386815Y-101982102D01*
X162521743Y-101748398D01*
X162620334Y-101497195D01*
X162680383Y-101234103D01*
X162687105Y-101144402D01*
X162700549Y-100965004D01*
X162700549Y-100964995D01*
X162680383Y-100695898D01*
X162628760Y-100469722D01*
X162620334Y-100432805D01*
X162521743Y-100181602D01*
X162386815Y-99947898D01*
X162218561Y-99736915D01*
X162218560Y-99736914D01*
X162218557Y-99736910D01*
X162020741Y-99553365D01*
X161986647Y-99530120D01*
X161797775Y-99401349D01*
X161797769Y-99401346D01*
X161797768Y-99401345D01*
X161797767Y-99401344D01*
X161554643Y-99284263D01*
X161554645Y-99284263D01*
X161296773Y-99204720D01*
X161296767Y-99204718D01*
X161029936Y-99164500D01*
X161029929Y-99164500D01*
X160760071Y-99164500D01*
X160760063Y-99164500D01*
X160493232Y-99204718D01*
X160493226Y-99204720D01*
X160235358Y-99284262D01*
X159992230Y-99401346D01*
X159769258Y-99553365D01*
X159571442Y-99736910D01*
X159403185Y-99947898D01*
X159268258Y-100181599D01*
X159237173Y-100260803D01*
X159194357Y-100316016D01*
X159128487Y-100339317D01*
X159121745Y-100339500D01*
X152766602Y-100339500D01*
X152699563Y-100319815D01*
X152660486Y-100279651D01*
X152645471Y-100254814D01*
X152645468Y-100254810D01*
X152525188Y-100134530D01*
X152515499Y-100128673D01*
X152379606Y-100046522D01*
X152217196Y-99995914D01*
X152217194Y-99995913D01*
X152217192Y-99995913D01*
X152167778Y-99991423D01*
X152146616Y-99989500D01*
X151633384Y-99989500D01*
X151614145Y-99991248D01*
X151562807Y-99995913D01*
X151400393Y-100046522D01*
X151254811Y-100134530D01*
X151254810Y-100134531D01*
X151152681Y-100236661D01*
X151091358Y-100270146D01*
X151021666Y-100265162D01*
X150977319Y-100236661D01*
X150875188Y-100134530D01*
X150865499Y-100128673D01*
X150729606Y-100046522D01*
X150567196Y-99995914D01*
X150567194Y-99995913D01*
X150567192Y-99995913D01*
X150517778Y-99991423D01*
X150496616Y-99989500D01*
X149983384Y-99989500D01*
X149964145Y-99991248D01*
X149912807Y-99995913D01*
X149750393Y-100046522D01*
X149604811Y-100134530D01*
X149484531Y-100254810D01*
X149484528Y-100254814D01*
X149469514Y-100279651D01*
X149417986Y-100326838D01*
X149363398Y-100339500D01*
X143185453Y-100339500D01*
X143118414Y-100319815D01*
X143097772Y-100303181D01*
X138421772Y-95627181D01*
X138388287Y-95565858D01*
X138393271Y-95496166D01*
X138435143Y-95440233D01*
X138500607Y-95415816D01*
X138509453Y-95415500D01*
X139825696Y-95415500D01*
X139844131Y-95414049D01*
X139862569Y-95412598D01*
X139862571Y-95412597D01*
X139862573Y-95412597D01*
X139904191Y-95400505D01*
X140020398Y-95366744D01*
X140029562Y-95361323D01*
X140051819Y-95348162D01*
X140119543Y-95330978D01*
X140185806Y-95353137D01*
X140202622Y-95367212D01*
X140214194Y-95378784D01*
X140224017Y-95391045D01*
X140224239Y-95390863D01*
X140229212Y-95396875D01*
X140229213Y-95396876D01*
X140229214Y-95396877D01*
X140260083Y-95425865D01*
X140279636Y-95444227D01*
X140300523Y-95465115D01*
X140300527Y-95465118D01*
X140300529Y-95465120D01*
X140306011Y-95469373D01*
X140310443Y-95473157D01*
X140344418Y-95505062D01*
X140361976Y-95514714D01*
X140378235Y-95525395D01*
X140394064Y-95537673D01*
X140436838Y-95556182D01*
X140442056Y-95558738D01*
X140482908Y-95581197D01*
X140502316Y-95586180D01*
X140520717Y-95592480D01*
X140539104Y-95600437D01*
X140582411Y-95607296D01*
X140585119Y-95607725D01*
X140590839Y-95608909D01*
X140635981Y-95620500D01*
X140648481Y-95620500D01*
X140715520Y-95640185D01*
X140736157Y-95656814D01*
X140829815Y-95750472D01*
X140849272Y-95762234D01*
X140855260Y-95765854D01*
X140902446Y-95817383D01*
X140914130Y-95856427D01*
X140915367Y-95866220D01*
X140915826Y-95872046D01*
X140917290Y-95918624D01*
X140917291Y-95918627D01*
X140922880Y-95937867D01*
X140926824Y-95956911D01*
X140927723Y-95964021D01*
X140929336Y-95976791D01*
X140946490Y-96020119D01*
X140948382Y-96025647D01*
X140961381Y-96070388D01*
X140971580Y-96087634D01*
X140980138Y-96105103D01*
X140987514Y-96123732D01*
X141014898Y-96161423D01*
X141018106Y-96166307D01*
X141041827Y-96206416D01*
X141041833Y-96206424D01*
X141055990Y-96220580D01*
X141068628Y-96235376D01*
X141080405Y-96251586D01*
X141080406Y-96251587D01*
X141116309Y-96281288D01*
X141120620Y-96285210D01*
X141619223Y-96783814D01*
X141739197Y-96903788D01*
X141749022Y-96916051D01*
X141749243Y-96915869D01*
X141754214Y-96921878D01*
X141775043Y-96941437D01*
X141804635Y-96969226D01*
X141825529Y-96990120D01*
X141831011Y-96994373D01*
X141835443Y-96998157D01*
X141869418Y-97030062D01*
X141886976Y-97039714D01*
X141903235Y-97050395D01*
X141919064Y-97062673D01*
X141961838Y-97081182D01*
X141967056Y-97083738D01*
X142007908Y-97106197D01*
X142027316Y-97111180D01*
X142045717Y-97117480D01*
X142064104Y-97125437D01*
X142107488Y-97132308D01*
X142110119Y-97132725D01*
X142115839Y-97133909D01*
X142160981Y-97145500D01*
X142181016Y-97145500D01*
X142200415Y-97147027D01*
X142220196Y-97150160D01*
X142260434Y-97146356D01*
X142266582Y-97145775D01*
X142272420Y-97145500D01*
X146602257Y-97145500D01*
X146617877Y-97147224D01*
X146617904Y-97146939D01*
X146625660Y-97147671D01*
X146625667Y-97147673D01*
X146694814Y-97145500D01*
X146724350Y-97145500D01*
X146731228Y-97144630D01*
X146737041Y-97144172D01*
X146783627Y-97142709D01*
X146802869Y-97137117D01*
X146821912Y-97133174D01*
X146841792Y-97130664D01*
X146885122Y-97113507D01*
X146890646Y-97111617D01*
X146894396Y-97110527D01*
X146935390Y-97098618D01*
X146952629Y-97088422D01*
X146970103Y-97079862D01*
X146988727Y-97072488D01*
X146988727Y-97072487D01*
X146988732Y-97072486D01*
X147026449Y-97045082D01*
X147031305Y-97041892D01*
X147071420Y-97018170D01*
X147085589Y-97003999D01*
X147100379Y-96991368D01*
X147116587Y-96979594D01*
X147146299Y-96943676D01*
X147150212Y-96939376D01*
X147703786Y-96385802D01*
X147716048Y-96375980D01*
X147715865Y-96375759D01*
X147721867Y-96370792D01*
X147721877Y-96370786D01*
X147769241Y-96320348D01*
X147790120Y-96299470D01*
X147794373Y-96293986D01*
X147798150Y-96289563D01*
X147830062Y-96255582D01*
X147839714Y-96238023D01*
X147850389Y-96221772D01*
X147862674Y-96205936D01*
X147881186Y-96163152D01*
X147883742Y-96157935D01*
X147901383Y-96125848D01*
X147906194Y-96117098D01*
X147906194Y-96117097D01*
X147906197Y-96117092D01*
X147911180Y-96097680D01*
X147917477Y-96079291D01*
X147925438Y-96060895D01*
X147932729Y-96014853D01*
X147933908Y-96009162D01*
X147945500Y-95964019D01*
X147945500Y-95943983D01*
X147947027Y-95924582D01*
X147950160Y-95904804D01*
X147945775Y-95858415D01*
X147945500Y-95852577D01*
X147945500Y-92385452D01*
X147965185Y-92318413D01*
X147981819Y-92297771D01*
X148812772Y-91466819D01*
X148874095Y-91433334D01*
X148900453Y-91430500D01*
X149363398Y-91430500D01*
X149430437Y-91450185D01*
X149469514Y-91490349D01*
X149484528Y-91515185D01*
X149484531Y-91515189D01*
X149604811Y-91635469D01*
X149604813Y-91635470D01*
X149604815Y-91635472D01*
X149750394Y-91723478D01*
X149912804Y-91774086D01*
X149983384Y-91780500D01*
X149983387Y-91780500D01*
X150496613Y-91780500D01*
X150496616Y-91780500D01*
X150567196Y-91774086D01*
X150729606Y-91723478D01*
X150875185Y-91635472D01*
X150977320Y-91533336D01*
X151038641Y-91499853D01*
X151108333Y-91504837D01*
X151152682Y-91533339D01*
X151199695Y-91580353D01*
X151233179Y-91641676D01*
X151228194Y-91711368D01*
X151199694Y-91755714D01*
X149031208Y-93924199D01*
X149018951Y-93934020D01*
X149019134Y-93934241D01*
X149013123Y-93939213D01*
X148965772Y-93989636D01*
X148944889Y-94010519D01*
X148944877Y-94010532D01*
X148940621Y-94016017D01*
X148936837Y-94020447D01*
X148904937Y-94054418D01*
X148904936Y-94054420D01*
X148895284Y-94071976D01*
X148884610Y-94088226D01*
X148872329Y-94104061D01*
X148872324Y-94104068D01*
X148853815Y-94146838D01*
X148851245Y-94152084D01*
X148828803Y-94192906D01*
X148823822Y-94212307D01*
X148817521Y-94230710D01*
X148809562Y-94249102D01*
X148809561Y-94249105D01*
X148802271Y-94295127D01*
X148801087Y-94300846D01*
X148789501Y-94345972D01*
X148789500Y-94345982D01*
X148789500Y-94366016D01*
X148787973Y-94385415D01*
X148784840Y-94405194D01*
X148784840Y-94405195D01*
X148789225Y-94451583D01*
X148789500Y-94457421D01*
X148789500Y-94835452D01*
X148769815Y-94902491D01*
X148742410Y-94932719D01*
X148736958Y-94937029D01*
X148617029Y-95056959D01*
X148528001Y-95201294D01*
X148527996Y-95201305D01*
X148474651Y-95362290D01*
X148464500Y-95461647D01*
X148464500Y-96308337D01*
X148464501Y-96308355D01*
X148474650Y-96407707D01*
X148474651Y-96407710D01*
X148527996Y-96568694D01*
X148528001Y-96568705D01*
X148617029Y-96713040D01*
X148617032Y-96713044D01*
X148736955Y-96832967D01*
X148736959Y-96832970D01*
X148881294Y-96921998D01*
X148881297Y-96921999D01*
X148881303Y-96922003D01*
X149042292Y-96975349D01*
X149141655Y-96985500D01*
X149688344Y-96985499D01*
X149688352Y-96985498D01*
X149688355Y-96985498D01*
X149745632Y-96979647D01*
X149787708Y-96975349D01*
X149948697Y-96922003D01*
X150093044Y-96832968D01*
X150212968Y-96713044D01*
X150302003Y-96568697D01*
X150355349Y-96407708D01*
X150365500Y-96308345D01*
X150365500Y-96135000D01*
X151765001Y-96135000D01*
X151765001Y-96308322D01*
X151775144Y-96407607D01*
X151828452Y-96568481D01*
X151828457Y-96568492D01*
X151917424Y-96712728D01*
X151917427Y-96712732D01*
X152037267Y-96832572D01*
X152037271Y-96832575D01*
X152181507Y-96921542D01*
X152181518Y-96921547D01*
X152342393Y-96974855D01*
X152441683Y-96984999D01*
X152465000Y-96984998D01*
X152465000Y-96135000D01*
X152965000Y-96135000D01*
X152965000Y-96984999D01*
X152988308Y-96984999D01*
X152988322Y-96984998D01*
X153087607Y-96974855D01*
X153248481Y-96921547D01*
X153248492Y-96921542D01*
X153392728Y-96832575D01*
X153392732Y-96832572D01*
X153512572Y-96712732D01*
X153512575Y-96712728D01*
X153601542Y-96568492D01*
X153601547Y-96568481D01*
X153654855Y-96407606D01*
X153664999Y-96308322D01*
X153665000Y-96308309D01*
X153665000Y-96135000D01*
X152965000Y-96135000D01*
X152465000Y-96135000D01*
X151765001Y-96135000D01*
X150365500Y-96135000D01*
X150365500Y-95885004D01*
X159089953Y-95885004D01*
X159110113Y-96154026D01*
X159110113Y-96154028D01*
X159170142Y-96417033D01*
X159170148Y-96417052D01*
X159268709Y-96668181D01*
X159268708Y-96668181D01*
X159403602Y-96901822D01*
X159457294Y-96969151D01*
X159457295Y-96969151D01*
X160292452Y-96133993D01*
X160302188Y-96163956D01*
X160390186Y-96302619D01*
X160509903Y-96415040D01*
X160644510Y-96489041D01*
X159809848Y-97323702D01*
X159992483Y-97448220D01*
X159992485Y-97448221D01*
X160235539Y-97565269D01*
X160235537Y-97565269D01*
X160493337Y-97644790D01*
X160493343Y-97644792D01*
X160760101Y-97684999D01*
X160760110Y-97685000D01*
X161029890Y-97685000D01*
X161029898Y-97684999D01*
X161296656Y-97644792D01*
X161296662Y-97644790D01*
X161554461Y-97565269D01*
X161797521Y-97448218D01*
X161980150Y-97323702D01*
X161142534Y-96486086D01*
X161210629Y-96459126D01*
X161343492Y-96362595D01*
X161448175Y-96236055D01*
X161496631Y-96133079D01*
X162332703Y-96969151D01*
X162332704Y-96969150D01*
X162386393Y-96901828D01*
X162386400Y-96901817D01*
X162521290Y-96668181D01*
X162619851Y-96417052D01*
X162619857Y-96417033D01*
X162679886Y-96154028D01*
X162679886Y-96154026D01*
X162700047Y-95885004D01*
X162700047Y-95884995D01*
X162679886Y-95615973D01*
X162679886Y-95615971D01*
X162619857Y-95352966D01*
X162619851Y-95352947D01*
X162521290Y-95101818D01*
X162521291Y-95101818D01*
X162386397Y-94868177D01*
X162332704Y-94800847D01*
X161497546Y-95636004D01*
X161487812Y-95606044D01*
X161399814Y-95467381D01*
X161280097Y-95354960D01*
X161145489Y-95280958D01*
X161980150Y-94446296D01*
X161797517Y-94321779D01*
X161797516Y-94321778D01*
X161554460Y-94204730D01*
X161554462Y-94204730D01*
X161296662Y-94125209D01*
X161296656Y-94125207D01*
X161029898Y-94085000D01*
X160760101Y-94085000D01*
X160493343Y-94125207D01*
X160493337Y-94125209D01*
X160235538Y-94204730D01*
X159992485Y-94321778D01*
X159992476Y-94321783D01*
X159809848Y-94446296D01*
X160647465Y-95283913D01*
X160579371Y-95310874D01*
X160446508Y-95407405D01*
X160341825Y-95533945D01*
X160293368Y-95636920D01*
X159457295Y-94800848D01*
X159403600Y-94868180D01*
X159268709Y-95101818D01*
X159170148Y-95352947D01*
X159170142Y-95352966D01*
X159110113Y-95615971D01*
X159110113Y-95615973D01*
X159089953Y-95884995D01*
X159089953Y-95885004D01*
X150365500Y-95885004D01*
X150365499Y-95635000D01*
X151765000Y-95635000D01*
X152465000Y-95635000D01*
X152465000Y-94785000D01*
X152965000Y-94785000D01*
X152965000Y-95635000D01*
X153664999Y-95635000D01*
X153664999Y-95461692D01*
X153664998Y-95461677D01*
X153654855Y-95362392D01*
X153601547Y-95201518D01*
X153601542Y-95201507D01*
X153512575Y-95057271D01*
X153512572Y-95057267D01*
X153392732Y-94937427D01*
X153392728Y-94937424D01*
X153248492Y-94848457D01*
X153248481Y-94848452D01*
X153087606Y-94795144D01*
X152988322Y-94785000D01*
X152965000Y-94785000D01*
X152465000Y-94785000D01*
X152465000Y-94784999D01*
X152441693Y-94785000D01*
X152441674Y-94785001D01*
X152342392Y-94795144D01*
X152181518Y-94848452D01*
X152181507Y-94848457D01*
X152037271Y-94937424D01*
X152037267Y-94937427D01*
X151917427Y-95057267D01*
X151917424Y-95057271D01*
X151828457Y-95201507D01*
X151828452Y-95201518D01*
X151775144Y-95362393D01*
X151765000Y-95461677D01*
X151765000Y-95635000D01*
X150365499Y-95635000D01*
X150365499Y-95461656D01*
X150365138Y-95458126D01*
X150355349Y-95362292D01*
X150355348Y-95362289D01*
X150344973Y-95330978D01*
X150302003Y-95201303D01*
X150301999Y-95201297D01*
X150301998Y-95201294D01*
X150212970Y-95056959D01*
X150212969Y-95056958D01*
X150212968Y-95056956D01*
X150093044Y-94937032D01*
X150093043Y-94937031D01*
X150093041Y-94937029D01*
X150087590Y-94932719D01*
X150047213Y-94875697D01*
X150040500Y-94835452D01*
X150040500Y-94735451D01*
X150060185Y-94668412D01*
X150076814Y-94647775D01*
X152273786Y-92450802D01*
X152286048Y-92440980D01*
X152285865Y-92440759D01*
X152291867Y-92435792D01*
X152291877Y-92435786D01*
X152339241Y-92385348D01*
X152360120Y-92364470D01*
X152364373Y-92358986D01*
X152368150Y-92354563D01*
X152400062Y-92320582D01*
X152409714Y-92303023D01*
X152420389Y-92286772D01*
X152432674Y-92270936D01*
X152451186Y-92228152D01*
X152453742Y-92222935D01*
X152476197Y-92182092D01*
X152481180Y-92162680D01*
X152487477Y-92144291D01*
X152495438Y-92125895D01*
X152502729Y-92079853D01*
X152503908Y-92074162D01*
X152515500Y-92029019D01*
X152515500Y-92008983D01*
X152517027Y-91989582D01*
X152520160Y-91969804D01*
X152515775Y-91923415D01*
X152515500Y-91917577D01*
X152515500Y-91696519D01*
X152535185Y-91629480D01*
X152551814Y-91608842D01*
X152645472Y-91515185D01*
X152660486Y-91490349D01*
X152712014Y-91443162D01*
X152766602Y-91430500D01*
X159121745Y-91430500D01*
X159188784Y-91450185D01*
X159234539Y-91502989D01*
X159237167Y-91509184D01*
X159268256Y-91588396D01*
X159268258Y-91588400D01*
X159295433Y-91635469D01*
X159403185Y-91822102D01*
X159510698Y-91956918D01*
X159571442Y-92033089D01*
X159732037Y-92182098D01*
X159769259Y-92216635D01*
X159992226Y-92368651D01*
X160235359Y-92485738D01*
X160493228Y-92565280D01*
X160493229Y-92565280D01*
X160493232Y-92565281D01*
X160760063Y-92605499D01*
X160760068Y-92605499D01*
X160760071Y-92605500D01*
X160760072Y-92605500D01*
X161029928Y-92605500D01*
X161029929Y-92605500D01*
X161030626Y-92605395D01*
X161296767Y-92565281D01*
X161296768Y-92565280D01*
X161296772Y-92565280D01*
X161554641Y-92485738D01*
X161797775Y-92368651D01*
X162020741Y-92216635D01*
X162218561Y-92033085D01*
X162386815Y-91822102D01*
X162521743Y-91588398D01*
X162620334Y-91337195D01*
X162680383Y-91074103D01*
X162694331Y-90887972D01*
X162700549Y-90805004D01*
X162700549Y-90804995D01*
X162681921Y-90556416D01*
X162680383Y-90535897D01*
X162620334Y-90272805D01*
X162521743Y-90021602D01*
X162386815Y-89787898D01*
X162218561Y-89576915D01*
X162218560Y-89576914D01*
X162218557Y-89576910D01*
X162020741Y-89393365D01*
X162009720Y-89385851D01*
X161797775Y-89241349D01*
X161797769Y-89241346D01*
X161797768Y-89241345D01*
X161797767Y-89241344D01*
X161554643Y-89124263D01*
X161554645Y-89124263D01*
X161296773Y-89044720D01*
X161296767Y-89044718D01*
X161029936Y-89004500D01*
X161029929Y-89004500D01*
X160760071Y-89004500D01*
X160760063Y-89004500D01*
X160493232Y-89044718D01*
X160493226Y-89044720D01*
X160235358Y-89124262D01*
X159992230Y-89241346D01*
X159769258Y-89393365D01*
X159571442Y-89576910D01*
X159403185Y-89787898D01*
X159268258Y-90021599D01*
X159259051Y-90045059D01*
X159238532Y-90097341D01*
X159237173Y-90100803D01*
X159194357Y-90156016D01*
X159128487Y-90179317D01*
X159121745Y-90179500D01*
X152766602Y-90179500D01*
X152699563Y-90159815D01*
X152660486Y-90119651D01*
X152650359Y-90102899D01*
X152645472Y-90094815D01*
X152645471Y-90094814D01*
X152645468Y-90094810D01*
X152525188Y-89974530D01*
X152515499Y-89968673D01*
X152379606Y-89886522D01*
X152217196Y-89835914D01*
X152217194Y-89835913D01*
X152217192Y-89835913D01*
X152167778Y-89831423D01*
X152146616Y-89829500D01*
X151633384Y-89829500D01*
X151614145Y-89831248D01*
X151562807Y-89835913D01*
X151400393Y-89886522D01*
X151254811Y-89974530D01*
X151254810Y-89974531D01*
X151152681Y-90076661D01*
X151091358Y-90110146D01*
X151021666Y-90105162D01*
X150977319Y-90076661D01*
X150875188Y-89974530D01*
X150865499Y-89968673D01*
X150729606Y-89886522D01*
X150567196Y-89835914D01*
X150567194Y-89835913D01*
X150567192Y-89835913D01*
X150517778Y-89831423D01*
X150496616Y-89829500D01*
X149983384Y-89829500D01*
X149964145Y-89831248D01*
X149912807Y-89835913D01*
X149750393Y-89886522D01*
X149604811Y-89974530D01*
X149484531Y-90094810D01*
X149484528Y-90094814D01*
X149469514Y-90119651D01*
X149417986Y-90166838D01*
X149363398Y-90179500D01*
X148672737Y-90179500D01*
X148657120Y-90177776D01*
X148657093Y-90178062D01*
X148649331Y-90177327D01*
X148580203Y-90179500D01*
X148550650Y-90179500D01*
X148549929Y-90179590D01*
X148543757Y-90180369D01*
X148537945Y-90180826D01*
X148491373Y-90182290D01*
X148491372Y-90182290D01*
X148472129Y-90187881D01*
X148453079Y-90191825D01*
X148433211Y-90194334D01*
X148433209Y-90194335D01*
X148389884Y-90211488D01*
X148384357Y-90213380D01*
X148339610Y-90226381D01*
X148339609Y-90226382D01*
X148322367Y-90236579D01*
X148304899Y-90245137D01*
X148286269Y-90252513D01*
X148286267Y-90252514D01*
X148248576Y-90279898D01*
X148243694Y-90283105D01*
X148203579Y-90306830D01*
X148189408Y-90321000D01*
X148174623Y-90333628D01*
X148158412Y-90345407D01*
X148128709Y-90381310D01*
X148124777Y-90385631D01*
X146936208Y-91574199D01*
X146923951Y-91584020D01*
X146924134Y-91584241D01*
X146918123Y-91589213D01*
X146870772Y-91639636D01*
X146849889Y-91660519D01*
X146849877Y-91660532D01*
X146845621Y-91666017D01*
X146841837Y-91670447D01*
X146809937Y-91704418D01*
X146809936Y-91704420D01*
X146800284Y-91721976D01*
X146789610Y-91738226D01*
X146777329Y-91754061D01*
X146777324Y-91754068D01*
X146758815Y-91796838D01*
X146756245Y-91802084D01*
X146733803Y-91842906D01*
X146728822Y-91862307D01*
X146722521Y-91880710D01*
X146714562Y-91899102D01*
X146714561Y-91899105D01*
X146707271Y-91945127D01*
X146706087Y-91950846D01*
X146694501Y-91995972D01*
X146694500Y-91995982D01*
X146694500Y-92016016D01*
X146692973Y-92035415D01*
X146689840Y-92055194D01*
X146689840Y-92055195D01*
X146694225Y-92101583D01*
X146694500Y-92107421D01*
X146694500Y-95574547D01*
X146674815Y-95641586D01*
X146658181Y-95662228D01*
X146462228Y-95858181D01*
X146400905Y-95891666D01*
X146374547Y-95894500D01*
X144309812Y-95894500D01*
X144242773Y-95874815D01*
X144197018Y-95822011D01*
X144187074Y-95752853D01*
X144216099Y-95689297D01*
X144222131Y-95682819D01*
X144275071Y-95629878D01*
X144275072Y-95629877D01*
X144363019Y-95484395D01*
X144413590Y-95322106D01*
X144420000Y-95251572D01*
X144420000Y-95245000D01*
X143319000Y-95245000D01*
X143251961Y-95225315D01*
X143206206Y-95172511D01*
X143195000Y-95121000D01*
X143195000Y-94869000D01*
X143214685Y-94801961D01*
X143267489Y-94756206D01*
X143319000Y-94745000D01*
X144419999Y-94745000D01*
X144419999Y-94738417D01*
X144413591Y-94667897D01*
X144413590Y-94667892D01*
X144363018Y-94505603D01*
X144275072Y-94360122D01*
X144172984Y-94258034D01*
X144139499Y-94196711D01*
X144144483Y-94127019D01*
X144172983Y-94082673D01*
X144275472Y-93980185D01*
X144363478Y-93834606D01*
X144414086Y-93672196D01*
X144420500Y-93601616D01*
X144420500Y-93088384D01*
X144414086Y-93017804D01*
X144363478Y-92855394D01*
X144275472Y-92709815D01*
X144275470Y-92709813D01*
X144275469Y-92709811D01*
X144155188Y-92589530D01*
X144147792Y-92585059D01*
X144009606Y-92501522D01*
X144009604Y-92501521D01*
X144009602Y-92501520D01*
X144009603Y-92501520D01*
X143929607Y-92476593D01*
X143871459Y-92437856D01*
X143843485Y-92373831D01*
X143854567Y-92304845D01*
X143901185Y-92252802D01*
X143916047Y-92244935D01*
X143962730Y-92224151D01*
X144115871Y-92112888D01*
X144242533Y-91972216D01*
X144337179Y-91808284D01*
X144395674Y-91628256D01*
X144415460Y-91440000D01*
X144395674Y-91251744D01*
X144337179Y-91071716D01*
X144242533Y-90907784D01*
X144224693Y-90887971D01*
X144194464Y-90824981D01*
X144203089Y-90755646D01*
X144224694Y-90722028D01*
X144242533Y-90702216D01*
X144337179Y-90538284D01*
X144395674Y-90358256D01*
X144415460Y-90170000D01*
X144395674Y-89981744D01*
X144337179Y-89801716D01*
X144242533Y-89637784D01*
X144115871Y-89497112D01*
X144115870Y-89497111D01*
X143962734Y-89385851D01*
X143962732Y-89385850D01*
X143932552Y-89372413D01*
X143916059Y-89365069D01*
X143862824Y-89319819D01*
X143842503Y-89252970D01*
X143861549Y-89185746D01*
X143913915Y-89139492D01*
X143929596Y-89133409D01*
X144009606Y-89108478D01*
X144155185Y-89020472D01*
X144275472Y-88900185D01*
X144363478Y-88754606D01*
X144414086Y-88592196D01*
X144420500Y-88521616D01*
X144420500Y-88008384D01*
X144414086Y-87937804D01*
X144363478Y-87775394D01*
X144275472Y-87629815D01*
X144275470Y-87629813D01*
X144275469Y-87629811D01*
X144172984Y-87527326D01*
X144139499Y-87466003D01*
X144144483Y-87396311D01*
X144172985Y-87351963D01*
X144275071Y-87249878D01*
X144275072Y-87249877D01*
X144363019Y-87104395D01*
X144413590Y-86942106D01*
X144420000Y-86871572D01*
X144420000Y-86865000D01*
X143319000Y-86865000D01*
X143251961Y-86845315D01*
X143206206Y-86792511D01*
X143195000Y-86741000D01*
X143195000Y-85715000D01*
X143695000Y-85715000D01*
X143695000Y-86365000D01*
X144419999Y-86365000D01*
X144419999Y-86358417D01*
X144413591Y-86287897D01*
X144413590Y-86287892D01*
X144363018Y-86125603D01*
X144275072Y-85980122D01*
X144154877Y-85859927D01*
X144009395Y-85771980D01*
X144009396Y-85771980D01*
X143847105Y-85721409D01*
X143847106Y-85721409D01*
X143776572Y-85715000D01*
X143695000Y-85715000D01*
X143195000Y-85715000D01*
X143194999Y-85714999D01*
X143113417Y-85715000D01*
X143042897Y-85721408D01*
X143042892Y-85721409D01*
X142880603Y-85771981D01*
X142735122Y-85859927D01*
X142614928Y-85980121D01*
X142614923Y-85980128D01*
X142598907Y-86006621D01*
X142547379Y-86053808D01*
X142478519Y-86065645D01*
X142414191Y-86038375D01*
X142386677Y-86006621D01*
X142370472Y-85979815D01*
X142370470Y-85979813D01*
X142370469Y-85979811D01*
X142250188Y-85859530D01*
X142165498Y-85808333D01*
X142104606Y-85771522D01*
X141942196Y-85720914D01*
X141942194Y-85720913D01*
X141942192Y-85720913D01*
X141892778Y-85716423D01*
X141871616Y-85714500D01*
X141208384Y-85714500D01*
X141189145Y-85716248D01*
X141137807Y-85720913D01*
X140975393Y-85771522D01*
X140829811Y-85859530D01*
X140709530Y-85979811D01*
X140709524Y-85979818D01*
X140701005Y-85993911D01*
X140649476Y-86041097D01*
X140610435Y-86052779D01*
X140605779Y-86053367D01*
X140599952Y-86053826D01*
X140553373Y-86055290D01*
X140553372Y-86055290D01*
X140534129Y-86060881D01*
X140515079Y-86064825D01*
X140495211Y-86067334D01*
X140495209Y-86067335D01*
X140451884Y-86084488D01*
X140446357Y-86086380D01*
X140401610Y-86099381D01*
X140401609Y-86099382D01*
X140384367Y-86109579D01*
X140366899Y-86118137D01*
X140348269Y-86125513D01*
X140348267Y-86125514D01*
X140310576Y-86152898D01*
X140305694Y-86156105D01*
X140265579Y-86179830D01*
X140251408Y-86194000D01*
X140236623Y-86206628D01*
X140220411Y-86218407D01*
X140220410Y-86218408D01*
X140208402Y-86232923D01*
X140150500Y-86272027D01*
X140080649Y-86273619D01*
X140049742Y-86260609D01*
X140020402Y-86243257D01*
X140020394Y-86243254D01*
X139862573Y-86197402D01*
X139862567Y-86197401D01*
X139825696Y-86194500D01*
X139825694Y-86194500D01*
X138044306Y-86194500D01*
X138044304Y-86194500D01*
X138007432Y-86197401D01*
X138007426Y-86197402D01*
X137849606Y-86243254D01*
X137849603Y-86243255D01*
X137708140Y-86326915D01*
X137708134Y-86326920D01*
X137677072Y-86357981D01*
X137635038Y-86385590D01*
X137594885Y-86401487D01*
X137589358Y-86403379D01*
X137544614Y-86416379D01*
X137544610Y-86416381D01*
X137527366Y-86426579D01*
X137509905Y-86435133D01*
X137491274Y-86442510D01*
X137491262Y-86442517D01*
X137453570Y-86469902D01*
X137448687Y-86473109D01*
X137408580Y-86496829D01*
X137394414Y-86510995D01*
X137379624Y-86523627D01*
X137363414Y-86535404D01*
X137363411Y-86535407D01*
X137333710Y-86571309D01*
X137329778Y-86575631D01*
X137235179Y-86670229D01*
X137173859Y-86703713D01*
X137104167Y-86698729D01*
X137048233Y-86656858D01*
X137023816Y-86591394D01*
X137023500Y-86582547D01*
X137023500Y-84892452D01*
X137043185Y-84825413D01*
X137059819Y-84804771D01*
X140557771Y-81306819D01*
X140619094Y-81273334D01*
X140645452Y-81270500D01*
X149363398Y-81270500D01*
X149430437Y-81290185D01*
X149469514Y-81330349D01*
X149484528Y-81355185D01*
X149484531Y-81355189D01*
X149604811Y-81475469D01*
X149604813Y-81475470D01*
X149604815Y-81475472D01*
X149750394Y-81563478D01*
X149912804Y-81614086D01*
X149983384Y-81620500D01*
X149983387Y-81620500D01*
X150496613Y-81620500D01*
X150496616Y-81620500D01*
X150567196Y-81614086D01*
X150729606Y-81563478D01*
X150875185Y-81475472D01*
X150977320Y-81373336D01*
X151038641Y-81339853D01*
X151108333Y-81344837D01*
X151152682Y-81373339D01*
X151199695Y-81420353D01*
X151233179Y-81481676D01*
X151228194Y-81551368D01*
X151199694Y-81595714D01*
X149031208Y-83764199D01*
X149018951Y-83774020D01*
X149019134Y-83774241D01*
X149013123Y-83779213D01*
X148965772Y-83829636D01*
X148944889Y-83850519D01*
X148944877Y-83850532D01*
X148940621Y-83856017D01*
X148936837Y-83860447D01*
X148904937Y-83894418D01*
X148904936Y-83894420D01*
X148895284Y-83911976D01*
X148884610Y-83928226D01*
X148872329Y-83944061D01*
X148872324Y-83944068D01*
X148853815Y-83986838D01*
X148851245Y-83992084D01*
X148828803Y-84032906D01*
X148823822Y-84052307D01*
X148817521Y-84070710D01*
X148809562Y-84089102D01*
X148809561Y-84089105D01*
X148802271Y-84135127D01*
X148801087Y-84140846D01*
X148789501Y-84185972D01*
X148789500Y-84185982D01*
X148789500Y-84206016D01*
X148787973Y-84225415D01*
X148784840Y-84245194D01*
X148784840Y-84245195D01*
X148789225Y-84291583D01*
X148789500Y-84297421D01*
X148789500Y-84675452D01*
X148769815Y-84742491D01*
X148742410Y-84772719D01*
X148736958Y-84777029D01*
X148617029Y-84896959D01*
X148528001Y-85041294D01*
X148527996Y-85041305D01*
X148474651Y-85202290D01*
X148464500Y-85301647D01*
X148464500Y-86148337D01*
X148464501Y-86148355D01*
X148474650Y-86247707D01*
X148474651Y-86247710D01*
X148527996Y-86408694D01*
X148528001Y-86408705D01*
X148617029Y-86553040D01*
X148617032Y-86553044D01*
X148736955Y-86672967D01*
X148736959Y-86672970D01*
X148881294Y-86761998D01*
X148881297Y-86761999D01*
X148881303Y-86762003D01*
X149042292Y-86815349D01*
X149141655Y-86825500D01*
X149688344Y-86825499D01*
X149688352Y-86825498D01*
X149688355Y-86825498D01*
X149742760Y-86819940D01*
X149787708Y-86815349D01*
X149948697Y-86762003D01*
X150093044Y-86672968D01*
X150212968Y-86553044D01*
X150302003Y-86408697D01*
X150355349Y-86247708D01*
X150365500Y-86148345D01*
X150365500Y-85975000D01*
X151765001Y-85975000D01*
X151765001Y-86148322D01*
X151775144Y-86247607D01*
X151828452Y-86408481D01*
X151828457Y-86408492D01*
X151917424Y-86552728D01*
X151917427Y-86552732D01*
X152037267Y-86672572D01*
X152037271Y-86672575D01*
X152181507Y-86761542D01*
X152181518Y-86761547D01*
X152342393Y-86814855D01*
X152441683Y-86824999D01*
X152465000Y-86824998D01*
X152465000Y-85975000D01*
X152965000Y-85975000D01*
X152965000Y-86824999D01*
X152988308Y-86824999D01*
X152988322Y-86824998D01*
X153087607Y-86814855D01*
X153248481Y-86761547D01*
X153248492Y-86761542D01*
X153392728Y-86672575D01*
X153392732Y-86672572D01*
X153512572Y-86552732D01*
X153512575Y-86552728D01*
X153601542Y-86408492D01*
X153601547Y-86408481D01*
X153654855Y-86247606D01*
X153664999Y-86148322D01*
X153665000Y-86148309D01*
X153665000Y-85975000D01*
X152965000Y-85975000D01*
X152465000Y-85975000D01*
X151765001Y-85975000D01*
X150365500Y-85975000D01*
X150365500Y-85725004D01*
X159089953Y-85725004D01*
X159110113Y-85994026D01*
X159110113Y-85994028D01*
X159170142Y-86257033D01*
X159170148Y-86257052D01*
X159268709Y-86508181D01*
X159268708Y-86508181D01*
X159403602Y-86741822D01*
X159457294Y-86809151D01*
X159457295Y-86809151D01*
X160292452Y-85973993D01*
X160302188Y-86003956D01*
X160390186Y-86142619D01*
X160509903Y-86255040D01*
X160644510Y-86329041D01*
X159809848Y-87163702D01*
X159992483Y-87288220D01*
X159992485Y-87288221D01*
X160235539Y-87405269D01*
X160235537Y-87405269D01*
X160493337Y-87484790D01*
X160493343Y-87484792D01*
X160760101Y-87524999D01*
X160760110Y-87525000D01*
X161029890Y-87525000D01*
X161029898Y-87524999D01*
X161296656Y-87484792D01*
X161296662Y-87484790D01*
X161554461Y-87405269D01*
X161797521Y-87288218D01*
X161980150Y-87163702D01*
X161142534Y-86326086D01*
X161210629Y-86299126D01*
X161343492Y-86202595D01*
X161448175Y-86076055D01*
X161496631Y-85973079D01*
X162332703Y-86809151D01*
X162332704Y-86809150D01*
X162386393Y-86741828D01*
X162386400Y-86741817D01*
X162521290Y-86508181D01*
X162619851Y-86257052D01*
X162619857Y-86257033D01*
X162679886Y-85994028D01*
X162679886Y-85994026D01*
X162700047Y-85725004D01*
X162700047Y-85724995D01*
X162679886Y-85455973D01*
X162679886Y-85455971D01*
X162619857Y-85192966D01*
X162619851Y-85192947D01*
X162521290Y-84941818D01*
X162521291Y-84941818D01*
X162386397Y-84708177D01*
X162332704Y-84640847D01*
X161497546Y-85476004D01*
X161487812Y-85446044D01*
X161399814Y-85307381D01*
X161280097Y-85194960D01*
X161145489Y-85120958D01*
X161980150Y-84286296D01*
X161797517Y-84161779D01*
X161797516Y-84161778D01*
X161554460Y-84044730D01*
X161554462Y-84044730D01*
X161296662Y-83965209D01*
X161296656Y-83965207D01*
X161029898Y-83925000D01*
X160760101Y-83925000D01*
X160493343Y-83965207D01*
X160493337Y-83965209D01*
X160235538Y-84044730D01*
X159992485Y-84161778D01*
X159992476Y-84161783D01*
X159809848Y-84286296D01*
X160647465Y-85123913D01*
X160579371Y-85150874D01*
X160446508Y-85247405D01*
X160341825Y-85373945D01*
X160293368Y-85476920D01*
X159457295Y-84640848D01*
X159403600Y-84708180D01*
X159268709Y-84941818D01*
X159170148Y-85192947D01*
X159170142Y-85192966D01*
X159110113Y-85455971D01*
X159110113Y-85455973D01*
X159089953Y-85724995D01*
X159089953Y-85725004D01*
X150365500Y-85725004D01*
X150365499Y-85475000D01*
X151765000Y-85475000D01*
X152465000Y-85475000D01*
X152465000Y-84625000D01*
X152965000Y-84625000D01*
X152965000Y-85475000D01*
X153664999Y-85475000D01*
X153664999Y-85301692D01*
X153664998Y-85301677D01*
X153654855Y-85202392D01*
X153601547Y-85041518D01*
X153601542Y-85041507D01*
X153512575Y-84897271D01*
X153512572Y-84897267D01*
X153392732Y-84777427D01*
X153392728Y-84777424D01*
X153248492Y-84688457D01*
X153248481Y-84688452D01*
X153087606Y-84635144D01*
X152988322Y-84625000D01*
X152965000Y-84625000D01*
X152465000Y-84625000D01*
X152465000Y-84624999D01*
X152441693Y-84625000D01*
X152441674Y-84625001D01*
X152342392Y-84635144D01*
X152181518Y-84688452D01*
X152181507Y-84688457D01*
X152037271Y-84777424D01*
X152037267Y-84777427D01*
X151917427Y-84897267D01*
X151917424Y-84897271D01*
X151828457Y-85041507D01*
X151828452Y-85041518D01*
X151775144Y-85202393D01*
X151765000Y-85301677D01*
X151765000Y-85475000D01*
X150365499Y-85475000D01*
X150365499Y-85301656D01*
X150355349Y-85202292D01*
X150302003Y-85041303D01*
X150301999Y-85041297D01*
X150301998Y-85041294D01*
X150212970Y-84896959D01*
X150212969Y-84896958D01*
X150212968Y-84896956D01*
X150093044Y-84777032D01*
X150093043Y-84777031D01*
X150093041Y-84777029D01*
X150087590Y-84772719D01*
X150047213Y-84715697D01*
X150040500Y-84675452D01*
X150040500Y-84575451D01*
X150060185Y-84508412D01*
X150076814Y-84487775D01*
X152273786Y-82290802D01*
X152286048Y-82280980D01*
X152285865Y-82280759D01*
X152291867Y-82275792D01*
X152291877Y-82275786D01*
X152339241Y-82225348D01*
X152360120Y-82204470D01*
X152364373Y-82198986D01*
X152368150Y-82194563D01*
X152400062Y-82160582D01*
X152409714Y-82143023D01*
X152420389Y-82126772D01*
X152432674Y-82110936D01*
X152451186Y-82068152D01*
X152453742Y-82062935D01*
X152476197Y-82022092D01*
X152481180Y-82002680D01*
X152487477Y-81984291D01*
X152495438Y-81965895D01*
X152502729Y-81919853D01*
X152503908Y-81914162D01*
X152515500Y-81869019D01*
X152515500Y-81848983D01*
X152517027Y-81829582D01*
X152520160Y-81809804D01*
X152515775Y-81763415D01*
X152515500Y-81757577D01*
X152515500Y-81536519D01*
X152535185Y-81469480D01*
X152551814Y-81448842D01*
X152645472Y-81355185D01*
X152660486Y-81330349D01*
X152712014Y-81283162D01*
X152766602Y-81270500D01*
X159121745Y-81270500D01*
X159188784Y-81290185D01*
X159234539Y-81342989D01*
X159237167Y-81349184D01*
X159265100Y-81420353D01*
X159268258Y-81428400D01*
X159295433Y-81475469D01*
X159403185Y-81662102D01*
X159502974Y-81787233D01*
X159571442Y-81873089D01*
X159732037Y-82022098D01*
X159769259Y-82056635D01*
X159992226Y-82208651D01*
X160235359Y-82325738D01*
X160493228Y-82405280D01*
X160493229Y-82405280D01*
X160493232Y-82405281D01*
X160760063Y-82445499D01*
X160760068Y-82445499D01*
X160760071Y-82445500D01*
X160760072Y-82445500D01*
X161029928Y-82445500D01*
X161029929Y-82445500D01*
X161029936Y-82445499D01*
X161296767Y-82405281D01*
X161296768Y-82405280D01*
X161296772Y-82405280D01*
X161554641Y-82325738D01*
X161797775Y-82208651D01*
X162020741Y-82056635D01*
X162218561Y-81873085D01*
X162386815Y-81662102D01*
X162521743Y-81428398D01*
X162620334Y-81177195D01*
X162680383Y-80914103D01*
X162700549Y-80645000D01*
X162680383Y-80375897D01*
X162620334Y-80112805D01*
X162521743Y-79861602D01*
X162386815Y-79627898D01*
X162218561Y-79416915D01*
X162218560Y-79416914D01*
X162218557Y-79416910D01*
X162020741Y-79233365D01*
X162011856Y-79227307D01*
X161797775Y-79081349D01*
X161797769Y-79081346D01*
X161797768Y-79081345D01*
X161797767Y-79081344D01*
X161554643Y-78964263D01*
X161554645Y-78964263D01*
X161296773Y-78884720D01*
X161296767Y-78884718D01*
X161029936Y-78844500D01*
X161029929Y-78844500D01*
X160760071Y-78844500D01*
X160760063Y-78844500D01*
X160493232Y-78884718D01*
X160493226Y-78884720D01*
X160235358Y-78964262D01*
X159992230Y-79081346D01*
X159769258Y-79233365D01*
X159571442Y-79416910D01*
X159403185Y-79627898D01*
X159268258Y-79861599D01*
X159237173Y-79940803D01*
X159194357Y-79996016D01*
X159128487Y-80019317D01*
X159121745Y-80019500D01*
X152766602Y-80019500D01*
X152699563Y-79999815D01*
X152660486Y-79959651D01*
X152645471Y-79934814D01*
X152645468Y-79934810D01*
X152525188Y-79814530D01*
X152515499Y-79808673D01*
X152379606Y-79726522D01*
X152217196Y-79675914D01*
X152217194Y-79675913D01*
X152217192Y-79675913D01*
X152167778Y-79671423D01*
X152146616Y-79669500D01*
X151633384Y-79669500D01*
X151614145Y-79671248D01*
X151562807Y-79675913D01*
X151400393Y-79726522D01*
X151254811Y-79814530D01*
X151254810Y-79814531D01*
X151152681Y-79916661D01*
X151091358Y-79950146D01*
X151021666Y-79945162D01*
X150977319Y-79916661D01*
X150875188Y-79814530D01*
X150865499Y-79808673D01*
X150729606Y-79726522D01*
X150567196Y-79675914D01*
X150567194Y-79675913D01*
X150567192Y-79675913D01*
X150517778Y-79671423D01*
X150496616Y-79669500D01*
X149983384Y-79669500D01*
X149964145Y-79671248D01*
X149912807Y-79675913D01*
X149750393Y-79726522D01*
X149604811Y-79814530D01*
X149484531Y-79934810D01*
X149484528Y-79934814D01*
X149469514Y-79959651D01*
X149417986Y-80006838D01*
X149363398Y-80019500D01*
X140417743Y-80019500D01*
X140402122Y-80017775D01*
X140402096Y-80018061D01*
X140394334Y-80017327D01*
X140394333Y-80017327D01*
X140325186Y-80019500D01*
X140295649Y-80019500D01*
X140288766Y-80020369D01*
X140282949Y-80020826D01*
X140236373Y-80022290D01*
X140217129Y-80027881D01*
X140198079Y-80031825D01*
X140178211Y-80034334D01*
X140134884Y-80051488D01*
X140129358Y-80053379D01*
X140084614Y-80066379D01*
X140084610Y-80066381D01*
X140067366Y-80076579D01*
X140049905Y-80085133D01*
X140031274Y-80092510D01*
X140031262Y-80092517D01*
X139993570Y-80119902D01*
X139988687Y-80123109D01*
X139948580Y-80146829D01*
X139934414Y-80160995D01*
X139919624Y-80173627D01*
X139903414Y-80185404D01*
X139903411Y-80185407D01*
X139873710Y-80221309D01*
X139869777Y-80225631D01*
X136065980Y-84029427D01*
X136004657Y-84062912D01*
X135934965Y-84057928D01*
X135897730Y-84035496D01*
X135897610Y-84035649D01*
X135896417Y-84034706D01*
X135895848Y-84034363D01*
X135894770Y-84033403D01*
X135869041Y-84013059D01*
X135837791Y-83986838D01*
X135810214Y-83963698D01*
X135810210Y-83963696D01*
X135810209Y-83963695D01*
X135804180Y-83959729D01*
X135804212Y-83959680D01*
X135797853Y-83955628D01*
X135797822Y-83955679D01*
X135791680Y-83951891D01*
X135791678Y-83951890D01*
X135791677Y-83951889D01*
X135734015Y-83925000D01*
X135722058Y-83919424D01*
X135687894Y-83902267D01*
X135653433Y-83884960D01*
X135653431Y-83884959D01*
X135653430Y-83884959D01*
X135646645Y-83882489D01*
X135646665Y-83882433D01*
X135639549Y-83879959D01*
X135639531Y-83880015D01*
X135632671Y-83877742D01*
X135604841Y-83871996D01*
X135557434Y-83862207D01*
X135507556Y-83850386D01*
X135482719Y-83844499D01*
X135475547Y-83843661D01*
X135475553Y-83843601D01*
X135468055Y-83842835D01*
X135468050Y-83842895D01*
X135460860Y-83842265D01*
X135384083Y-83844500D01*
X134954641Y-83844500D01*
X134887602Y-83824815D01*
X134841847Y-83772011D01*
X134831903Y-83702853D01*
X134849103Y-83655403D01*
X134896542Y-83578492D01*
X134896547Y-83578481D01*
X134949855Y-83417606D01*
X134959999Y-83318322D01*
X134960000Y-83318309D01*
X134960000Y-83295000D01*
X133010001Y-83295000D01*
X133010001Y-83318322D01*
X133020144Y-83417607D01*
X133073452Y-83578481D01*
X133073457Y-83578492D01*
X133120897Y-83655403D01*
X133139338Y-83722795D01*
X133118416Y-83789459D01*
X133064774Y-83834228D01*
X133015359Y-83844500D01*
X132891230Y-83844500D01*
X132824191Y-83824815D01*
X132818345Y-83820818D01*
X132786734Y-83797851D01*
X132786729Y-83797848D01*
X132613807Y-83720857D01*
X132613802Y-83720855D01*
X132468001Y-83689865D01*
X132428646Y-83681500D01*
X132239354Y-83681500D01*
X132239353Y-83681500D01*
X132155280Y-83699370D01*
X132085613Y-83694054D01*
X132029880Y-83651917D01*
X132005775Y-83586337D01*
X132005500Y-83578080D01*
X132005500Y-82795000D01*
X133010000Y-82795000D01*
X133735000Y-82795000D01*
X133735000Y-82095000D01*
X134235000Y-82095000D01*
X134235000Y-82795000D01*
X134959999Y-82795000D01*
X134959999Y-82771692D01*
X134959998Y-82771677D01*
X134949855Y-82672392D01*
X134896547Y-82511518D01*
X134896542Y-82511507D01*
X134807575Y-82367271D01*
X134807572Y-82367267D01*
X134687732Y-82247427D01*
X134687728Y-82247424D01*
X134543492Y-82158457D01*
X134543481Y-82158452D01*
X134382606Y-82105144D01*
X134283322Y-82095000D01*
X134235000Y-82095000D01*
X133735000Y-82095000D01*
X133734999Y-82094999D01*
X133686693Y-82095000D01*
X133686675Y-82095001D01*
X133587392Y-82105144D01*
X133426518Y-82158452D01*
X133426507Y-82158457D01*
X133282271Y-82247424D01*
X133282267Y-82247427D01*
X133162427Y-82367267D01*
X133162424Y-82367271D01*
X133073457Y-82511507D01*
X133073452Y-82511518D01*
X133020144Y-82672393D01*
X133010000Y-82771677D01*
X133010000Y-82795000D01*
X132005500Y-82795000D01*
X132005500Y-79750452D01*
X132025185Y-79683413D01*
X132041819Y-79662771D01*
X140557772Y-71146819D01*
X140619095Y-71113334D01*
X140645453Y-71110500D01*
X149363398Y-71110500D01*
X149430437Y-71130185D01*
X149469514Y-71170349D01*
X149484528Y-71195185D01*
X149484531Y-71195189D01*
X149604811Y-71315469D01*
X149604813Y-71315470D01*
X149604815Y-71315472D01*
X149750394Y-71403478D01*
X149912804Y-71454086D01*
X149983384Y-71460500D01*
X149983387Y-71460500D01*
X150496613Y-71460500D01*
X150496616Y-71460500D01*
X150567196Y-71454086D01*
X150729606Y-71403478D01*
X150875185Y-71315472D01*
X150977320Y-71213336D01*
X151038641Y-71179853D01*
X151108333Y-71184837D01*
X151152682Y-71213339D01*
X151199695Y-71260353D01*
X151233179Y-71321676D01*
X151228194Y-71391368D01*
X151199694Y-71435714D01*
X149031208Y-73604199D01*
X149018951Y-73614020D01*
X149019134Y-73614241D01*
X149013123Y-73619213D01*
X148965772Y-73669636D01*
X148944889Y-73690519D01*
X148944877Y-73690532D01*
X148940621Y-73696017D01*
X148936837Y-73700447D01*
X148904937Y-73734418D01*
X148904936Y-73734420D01*
X148895284Y-73751976D01*
X148884610Y-73768226D01*
X148872329Y-73784061D01*
X148872324Y-73784068D01*
X148853815Y-73826838D01*
X148851245Y-73832084D01*
X148828803Y-73872906D01*
X148823822Y-73892307D01*
X148817521Y-73910710D01*
X148809562Y-73929102D01*
X148809561Y-73929105D01*
X148802271Y-73975127D01*
X148801087Y-73980846D01*
X148789501Y-74025972D01*
X148789500Y-74025982D01*
X148789500Y-74046016D01*
X148787973Y-74065415D01*
X148784840Y-74085194D01*
X148784840Y-74085195D01*
X148789225Y-74131583D01*
X148789500Y-74137421D01*
X148789500Y-74515452D01*
X148769815Y-74582491D01*
X148742410Y-74612719D01*
X148736958Y-74617029D01*
X148617029Y-74736959D01*
X148528001Y-74881294D01*
X148527996Y-74881305D01*
X148474651Y-75042290D01*
X148464500Y-75141647D01*
X148464500Y-75988337D01*
X148464501Y-75988355D01*
X148474650Y-76087707D01*
X148474651Y-76087710D01*
X148527996Y-76248694D01*
X148528001Y-76248705D01*
X148617029Y-76393040D01*
X148617032Y-76393044D01*
X148736955Y-76512967D01*
X148736959Y-76512970D01*
X148881294Y-76601998D01*
X148881297Y-76601999D01*
X148881303Y-76602003D01*
X149042292Y-76655349D01*
X149141655Y-76665500D01*
X149688344Y-76665499D01*
X149688352Y-76665498D01*
X149688355Y-76665498D01*
X149742760Y-76659940D01*
X149787708Y-76655349D01*
X149948697Y-76602003D01*
X150093044Y-76512968D01*
X150212968Y-76393044D01*
X150302003Y-76248697D01*
X150355349Y-76087708D01*
X150365500Y-75988345D01*
X150365500Y-75815000D01*
X151765001Y-75815000D01*
X151765001Y-75988322D01*
X151775144Y-76087607D01*
X151828452Y-76248481D01*
X151828457Y-76248492D01*
X151917424Y-76392728D01*
X151917427Y-76392732D01*
X152037267Y-76512572D01*
X152037271Y-76512575D01*
X152181507Y-76601542D01*
X152181518Y-76601547D01*
X152342393Y-76654855D01*
X152441683Y-76664999D01*
X152465000Y-76664998D01*
X152465000Y-75815000D01*
X152965000Y-75815000D01*
X152965000Y-76664999D01*
X152988308Y-76664999D01*
X152988322Y-76664998D01*
X153087607Y-76654855D01*
X153248481Y-76601547D01*
X153248492Y-76601542D01*
X153392728Y-76512575D01*
X153392732Y-76512572D01*
X153512572Y-76392732D01*
X153512575Y-76392728D01*
X153601542Y-76248492D01*
X153601547Y-76248481D01*
X153654855Y-76087606D01*
X153664999Y-75988322D01*
X153665000Y-75988309D01*
X153665000Y-75815000D01*
X152965000Y-75815000D01*
X152465000Y-75815000D01*
X151765001Y-75815000D01*
X150365500Y-75815000D01*
X150365500Y-75565004D01*
X159089953Y-75565004D01*
X159110113Y-75834026D01*
X159110113Y-75834028D01*
X159170142Y-76097033D01*
X159170148Y-76097052D01*
X159268709Y-76348181D01*
X159268708Y-76348181D01*
X159403602Y-76581822D01*
X159457294Y-76649151D01*
X159457295Y-76649151D01*
X160292452Y-75813993D01*
X160302188Y-75843956D01*
X160390186Y-75982619D01*
X160509903Y-76095040D01*
X160644510Y-76169041D01*
X159809848Y-77003702D01*
X159992483Y-77128220D01*
X159992485Y-77128221D01*
X160235539Y-77245269D01*
X160235537Y-77245269D01*
X160493337Y-77324790D01*
X160493343Y-77324792D01*
X160760101Y-77364999D01*
X160760110Y-77365000D01*
X161029890Y-77365000D01*
X161029898Y-77364999D01*
X161296656Y-77324792D01*
X161296662Y-77324790D01*
X161554461Y-77245269D01*
X161797521Y-77128218D01*
X161980150Y-77003702D01*
X161142534Y-76166086D01*
X161210629Y-76139126D01*
X161343492Y-76042595D01*
X161448175Y-75916055D01*
X161496631Y-75813079D01*
X162332703Y-76649151D01*
X162332704Y-76649150D01*
X162386393Y-76581828D01*
X162386400Y-76581817D01*
X162521290Y-76348181D01*
X162619851Y-76097052D01*
X162619857Y-76097033D01*
X162679886Y-75834028D01*
X162679886Y-75834026D01*
X162700047Y-75565004D01*
X162700047Y-75564995D01*
X162679886Y-75295973D01*
X162679886Y-75295971D01*
X162619857Y-75032966D01*
X162619851Y-75032947D01*
X162521290Y-74781818D01*
X162521291Y-74781818D01*
X162386397Y-74548177D01*
X162332704Y-74480847D01*
X161497546Y-75316004D01*
X161487812Y-75286044D01*
X161399814Y-75147381D01*
X161280097Y-75034960D01*
X161145489Y-74960958D01*
X161980150Y-74126296D01*
X161797517Y-74001779D01*
X161797516Y-74001778D01*
X161554460Y-73884730D01*
X161554462Y-73884730D01*
X161296662Y-73805209D01*
X161296656Y-73805207D01*
X161029898Y-73765000D01*
X160760101Y-73765000D01*
X160493343Y-73805207D01*
X160493337Y-73805209D01*
X160235538Y-73884730D01*
X159992485Y-74001778D01*
X159992476Y-74001783D01*
X159809848Y-74126296D01*
X160647465Y-74963913D01*
X160579371Y-74990874D01*
X160446508Y-75087405D01*
X160341825Y-75213945D01*
X160293368Y-75316920D01*
X159457295Y-74480848D01*
X159403600Y-74548180D01*
X159268709Y-74781818D01*
X159170148Y-75032947D01*
X159170142Y-75032966D01*
X159110113Y-75295971D01*
X159110113Y-75295973D01*
X159089953Y-75564995D01*
X159089953Y-75565004D01*
X150365500Y-75565004D01*
X150365499Y-75315000D01*
X151765000Y-75315000D01*
X152465000Y-75315000D01*
X152465000Y-74465000D01*
X152965000Y-74465000D01*
X152965000Y-75315000D01*
X153664999Y-75315000D01*
X153664999Y-75141692D01*
X153664998Y-75141677D01*
X153654855Y-75042392D01*
X153601547Y-74881518D01*
X153601542Y-74881507D01*
X153512575Y-74737271D01*
X153512572Y-74737267D01*
X153392732Y-74617427D01*
X153392728Y-74617424D01*
X153248492Y-74528457D01*
X153248481Y-74528452D01*
X153087606Y-74475144D01*
X152988322Y-74465000D01*
X152965000Y-74465000D01*
X152465000Y-74465000D01*
X152465000Y-74464999D01*
X152441693Y-74465000D01*
X152441674Y-74465001D01*
X152342392Y-74475144D01*
X152181518Y-74528452D01*
X152181507Y-74528457D01*
X152037271Y-74617424D01*
X152037267Y-74617427D01*
X151917427Y-74737267D01*
X151917424Y-74737271D01*
X151828457Y-74881507D01*
X151828452Y-74881518D01*
X151775144Y-75042393D01*
X151765000Y-75141677D01*
X151765000Y-75315000D01*
X150365499Y-75315000D01*
X150365499Y-75141656D01*
X150355349Y-75042292D01*
X150302003Y-74881303D01*
X150301999Y-74881297D01*
X150301998Y-74881294D01*
X150212970Y-74736959D01*
X150212969Y-74736958D01*
X150212968Y-74736956D01*
X150093044Y-74617032D01*
X150093043Y-74617031D01*
X150093041Y-74617029D01*
X150087590Y-74612719D01*
X150047213Y-74555697D01*
X150040500Y-74515452D01*
X150040500Y-74415451D01*
X150060185Y-74348412D01*
X150076814Y-74327775D01*
X152273786Y-72130802D01*
X152286048Y-72120980D01*
X152285865Y-72120759D01*
X152291867Y-72115792D01*
X152291877Y-72115786D01*
X152339241Y-72065348D01*
X152360120Y-72044470D01*
X152364373Y-72038986D01*
X152368150Y-72034563D01*
X152400062Y-72000582D01*
X152409714Y-71983023D01*
X152420389Y-71966772D01*
X152432674Y-71950936D01*
X152451186Y-71908152D01*
X152453742Y-71902935D01*
X152476197Y-71862092D01*
X152481180Y-71842680D01*
X152487477Y-71824291D01*
X152495438Y-71805895D01*
X152502729Y-71759853D01*
X152503908Y-71754162D01*
X152515500Y-71709019D01*
X152515500Y-71688983D01*
X152517027Y-71669582D01*
X152520160Y-71649804D01*
X152515775Y-71603415D01*
X152515500Y-71597577D01*
X152515500Y-71376519D01*
X152535185Y-71309480D01*
X152551814Y-71288842D01*
X152645472Y-71195185D01*
X152660486Y-71170349D01*
X152712014Y-71123162D01*
X152766602Y-71110500D01*
X159121745Y-71110500D01*
X159188784Y-71130185D01*
X159234539Y-71182989D01*
X159237167Y-71189184D01*
X159246648Y-71213339D01*
X159268258Y-71268400D01*
X159295433Y-71315469D01*
X159403185Y-71502102D01*
X159481661Y-71600507D01*
X159571442Y-71713089D01*
X159757373Y-71885606D01*
X159769259Y-71896635D01*
X159992226Y-72048651D01*
X160235359Y-72165738D01*
X160493228Y-72245280D01*
X160493229Y-72245280D01*
X160493232Y-72245281D01*
X160760063Y-72285499D01*
X160760068Y-72285499D01*
X160760071Y-72285500D01*
X160760072Y-72285500D01*
X161029928Y-72285500D01*
X161029929Y-72285500D01*
X161029936Y-72285499D01*
X161296767Y-72245281D01*
X161296768Y-72245280D01*
X161296772Y-72245280D01*
X161554641Y-72165738D01*
X161797775Y-72048651D01*
X162020741Y-71896635D01*
X162178358Y-71750388D01*
X162218557Y-71713089D01*
X162218557Y-71713087D01*
X162218561Y-71713085D01*
X162386815Y-71502102D01*
X162521743Y-71268398D01*
X162620334Y-71017195D01*
X162680383Y-70754103D01*
X162700549Y-70485000D01*
X162680383Y-70215897D01*
X162620334Y-69952805D01*
X162521743Y-69701602D01*
X162386815Y-69467898D01*
X162218561Y-69256915D01*
X162218560Y-69256914D01*
X162218557Y-69256910D01*
X162020741Y-69073365D01*
X161797775Y-68921349D01*
X161797769Y-68921346D01*
X161797768Y-68921345D01*
X161797767Y-68921344D01*
X161554643Y-68804263D01*
X161554645Y-68804263D01*
X161296773Y-68724720D01*
X161296767Y-68724718D01*
X161029936Y-68684500D01*
X161029929Y-68684500D01*
X160760071Y-68684500D01*
X160760063Y-68684500D01*
X160493232Y-68724718D01*
X160493226Y-68724720D01*
X160235358Y-68804262D01*
X159992230Y-68921346D01*
X159769258Y-69073365D01*
X159571442Y-69256910D01*
X159403185Y-69467898D01*
X159268258Y-69701599D01*
X159237173Y-69780803D01*
X159194357Y-69836016D01*
X159128487Y-69859317D01*
X159121745Y-69859500D01*
X152766602Y-69859500D01*
X152699563Y-69839815D01*
X152660486Y-69799651D01*
X152645471Y-69774814D01*
X152645468Y-69774810D01*
X152525188Y-69654530D01*
X152515499Y-69648673D01*
X152379606Y-69566522D01*
X152217196Y-69515914D01*
X152217194Y-69515913D01*
X152217192Y-69515913D01*
X152167778Y-69511423D01*
X152146616Y-69509500D01*
X151633384Y-69509500D01*
X151614145Y-69511248D01*
X151562807Y-69515913D01*
X151400393Y-69566522D01*
X151254811Y-69654530D01*
X151254810Y-69654531D01*
X151152681Y-69756661D01*
X151091358Y-69790146D01*
X151021666Y-69785162D01*
X150977319Y-69756661D01*
X150875188Y-69654530D01*
X150865499Y-69648673D01*
X150729606Y-69566522D01*
X150567196Y-69515914D01*
X150567194Y-69515913D01*
X150567192Y-69515913D01*
X150517778Y-69511423D01*
X150496616Y-69509500D01*
X149983384Y-69509500D01*
X149964145Y-69511248D01*
X149912807Y-69515913D01*
X149750393Y-69566522D01*
X149604811Y-69654530D01*
X149484531Y-69774810D01*
X149484528Y-69774814D01*
X149469514Y-69799651D01*
X149417986Y-69846838D01*
X149363398Y-69859500D01*
X140417737Y-69859500D01*
X140402120Y-69857776D01*
X140402093Y-69858062D01*
X140394331Y-69857327D01*
X140325203Y-69859500D01*
X140295650Y-69859500D01*
X140294929Y-69859590D01*
X140288757Y-69860369D01*
X140282945Y-69860826D01*
X140236372Y-69862290D01*
X140236369Y-69862291D01*
X140217126Y-69867881D01*
X140198083Y-69871825D01*
X140178204Y-69874336D01*
X140178203Y-69874337D01*
X140134878Y-69891490D01*
X140129352Y-69893382D01*
X140084608Y-69906383D01*
X140084604Y-69906385D01*
X140067365Y-69916580D01*
X140049898Y-69925137D01*
X140031269Y-69932512D01*
X140031267Y-69932513D01*
X139993564Y-69959906D01*
X139988682Y-69963112D01*
X139948580Y-69986828D01*
X139934408Y-70001000D01*
X139919623Y-70013628D01*
X139903412Y-70025407D01*
X139873709Y-70061310D01*
X139869777Y-70065631D01*
X130996208Y-78939199D01*
X130983951Y-78949020D01*
X130984134Y-78949241D01*
X130978123Y-78954213D01*
X130930772Y-79004636D01*
X130909889Y-79025519D01*
X130909877Y-79025532D01*
X130905621Y-79031017D01*
X130901837Y-79035447D01*
X130869937Y-79069418D01*
X130869936Y-79069420D01*
X130860284Y-79086976D01*
X130849610Y-79103226D01*
X130837329Y-79119061D01*
X130837324Y-79119068D01*
X130818815Y-79161838D01*
X130816245Y-79167084D01*
X130793803Y-79207906D01*
X130788822Y-79227307D01*
X130782521Y-79245710D01*
X130774562Y-79264102D01*
X130774561Y-79264105D01*
X130767271Y-79310127D01*
X130766087Y-79315846D01*
X130754501Y-79360972D01*
X130754500Y-79360982D01*
X130754500Y-79381016D01*
X130752973Y-79400415D01*
X130749840Y-79420194D01*
X130749840Y-79420195D01*
X130754225Y-79466583D01*
X130754500Y-79472421D01*
X130754500Y-83419770D01*
X130734815Y-83486809D01*
X130682011Y-83532564D01*
X130612853Y-83542508D01*
X130549297Y-83513483D01*
X130542819Y-83507451D01*
X130072819Y-83037451D01*
X130039334Y-82976128D01*
X130036500Y-82949770D01*
X130036500Y-58991705D01*
X130037809Y-58973735D01*
X130041289Y-58949974D01*
X130036736Y-58897939D01*
X130036500Y-58892532D01*
X130036500Y-58884296D01*
X130036500Y-58884291D01*
X130032691Y-58851705D01*
X130025998Y-58775203D01*
X130025995Y-58775194D01*
X130024538Y-58768135D01*
X130024598Y-58768122D01*
X130022966Y-58760764D01*
X130022908Y-58760778D01*
X130021241Y-58753747D01*
X130021241Y-58753745D01*
X129994969Y-58681563D01*
X129970815Y-58608668D01*
X129967762Y-58602121D01*
X129967815Y-58602095D01*
X129964531Y-58595311D01*
X129964479Y-58595338D01*
X129961236Y-58588882D01*
X129960301Y-58587461D01*
X129919034Y-58524716D01*
X129878712Y-58459344D01*
X129878710Y-58459342D01*
X129874234Y-58453681D01*
X129874280Y-58453643D01*
X129869519Y-58447799D01*
X129869474Y-58447838D01*
X129864834Y-58442308D01*
X129808982Y-58389613D01*
X128713729Y-57294361D01*
X128701949Y-57280730D01*
X128694482Y-57270701D01*
X128687612Y-57261472D01*
X128687610Y-57261470D01*
X128647587Y-57227886D01*
X128643612Y-57224244D01*
X128640690Y-57221322D01*
X128637780Y-57218411D01*
X128612040Y-57198059D01*
X128553209Y-57148694D01*
X128547180Y-57144729D01*
X128547212Y-57144680D01*
X128540853Y-57140628D01*
X128540822Y-57140679D01*
X128534680Y-57136891D01*
X128534678Y-57136890D01*
X128534677Y-57136889D01*
X128495474Y-57118608D01*
X128465058Y-57104424D01*
X128430894Y-57087267D01*
X128396433Y-57069960D01*
X128396431Y-57069959D01*
X128396430Y-57069959D01*
X128389645Y-57067489D01*
X128389665Y-57067433D01*
X128382549Y-57064959D01*
X128382531Y-57065015D01*
X128375671Y-57062742D01*
X128347841Y-57056996D01*
X128300434Y-57047207D01*
X128251472Y-57035603D01*
X128225719Y-57029499D01*
X128218547Y-57028661D01*
X128218553Y-57028601D01*
X128211055Y-57027835D01*
X128211050Y-57027895D01*
X128203860Y-57027265D01*
X128127083Y-57029500D01*
X118196291Y-57029500D01*
X118065745Y-57044759D01*
X118065743Y-57044759D01*
X118065739Y-57044760D01*
X118059516Y-57047025D01*
X118017119Y-57054500D01*
X117990596Y-57054501D01*
X117955847Y-57057234D01*
X117929065Y-57065015D01*
X117807113Y-57100445D01*
X117807111Y-57100445D01*
X117807111Y-57100446D01*
X117673805Y-57179282D01*
X117673796Y-57179289D01*
X117564289Y-57288796D01*
X117564282Y-57288805D01*
X117485446Y-57422111D01*
X117442234Y-57570847D01*
X117442234Y-57570849D01*
X117439500Y-57605593D01*
X117439501Y-57954405D01*
X117442234Y-57989152D01*
X117442234Y-57989155D01*
X117442235Y-57989156D01*
X117485445Y-58137887D01*
X117485446Y-58137888D01*
X117564282Y-58271194D01*
X117564289Y-58271203D01*
X117673796Y-58380710D01*
X117673805Y-58380717D01*
X117688849Y-58389614D01*
X117807113Y-58459555D01*
X117955844Y-58502765D01*
X117975701Y-58504327D01*
X117990592Y-58505500D01*
X117990594Y-58505499D01*
X117990595Y-58505500D01*
X118032302Y-58505499D01*
X118060901Y-58508842D01*
X118152273Y-58530499D01*
X118152276Y-58530499D01*
X118152279Y-58530500D01*
X127775770Y-58530500D01*
X127842809Y-58550185D01*
X127863451Y-58566819D01*
X128499181Y-59202548D01*
X128532666Y-59263871D01*
X128535500Y-59290229D01*
X128535500Y-83248294D01*
X128534191Y-83266263D01*
X128530710Y-83290025D01*
X128535264Y-83342064D01*
X128535500Y-83347470D01*
X128535500Y-83355709D01*
X128539306Y-83388274D01*
X128546000Y-83464791D01*
X128547461Y-83471867D01*
X128547403Y-83471878D01*
X128549034Y-83479237D01*
X128549092Y-83479224D01*
X128550757Y-83486250D01*
X128577025Y-83558424D01*
X128601185Y-83631331D01*
X128604236Y-83637874D01*
X128604182Y-83637898D01*
X128607470Y-83644688D01*
X128607521Y-83644663D01*
X128610761Y-83651113D01*
X128610762Y-83651114D01*
X128610763Y-83651117D01*
X128625622Y-83673709D01*
X128652965Y-83715283D01*
X128693287Y-83780655D01*
X128697766Y-83786319D01*
X128697719Y-83786356D01*
X128702482Y-83792202D01*
X128702528Y-83792164D01*
X128707173Y-83797700D01*
X128754410Y-83842265D01*
X128763018Y-83850386D01*
X129210053Y-84297421D01*
X129643228Y-84730595D01*
X129673478Y-84779958D01*
X129728818Y-84950277D01*
X129728821Y-84950284D01*
X129823467Y-85114216D01*
X129902862Y-85202393D01*
X129950129Y-85254888D01*
X130103265Y-85366148D01*
X130103270Y-85366151D01*
X130276192Y-85443142D01*
X130276197Y-85443144D01*
X130461354Y-85482500D01*
X130461355Y-85482500D01*
X130630500Y-85482500D01*
X130697539Y-85502185D01*
X130743294Y-85554989D01*
X130754500Y-85606500D01*
X130754500Y-85738397D01*
X130734815Y-85805436D01*
X130694652Y-85844513D01*
X130669813Y-85859529D01*
X130669811Y-85859530D01*
X130549531Y-85979810D01*
X130549526Y-85979817D01*
X130533322Y-86006621D01*
X130481794Y-86053808D01*
X130412934Y-86065645D01*
X130348606Y-86038375D01*
X130321090Y-86006619D01*
X130305072Y-85980122D01*
X130184877Y-85859927D01*
X130039395Y-85771980D01*
X130039396Y-85771980D01*
X129877105Y-85721409D01*
X129877106Y-85721409D01*
X129806572Y-85715000D01*
X129725000Y-85715000D01*
X129725000Y-86741000D01*
X129705315Y-86808039D01*
X129652511Y-86853794D01*
X129601000Y-86865000D01*
X128500001Y-86865000D01*
X128500001Y-86871582D01*
X128506408Y-86942102D01*
X128506409Y-86942107D01*
X128556981Y-87104396D01*
X128644927Y-87249877D01*
X128747015Y-87351965D01*
X128780500Y-87413288D01*
X128775516Y-87482980D01*
X128747015Y-87527327D01*
X128644531Y-87629810D01*
X128644530Y-87629811D01*
X128556522Y-87775393D01*
X128505913Y-87937807D01*
X128500782Y-87994275D01*
X128499500Y-88008384D01*
X128499500Y-88521616D01*
X128505914Y-88592196D01*
X128551540Y-88738619D01*
X128554654Y-88748611D01*
X128555804Y-88818471D01*
X128519003Y-88877863D01*
X128455934Y-88907931D01*
X128436268Y-88909500D01*
X128199452Y-88909500D01*
X128132413Y-88889815D01*
X128111771Y-88873181D01*
X127661819Y-88423228D01*
X127628334Y-88361905D01*
X127625500Y-88335547D01*
X127625500Y-86365000D01*
X128500000Y-86365000D01*
X129225000Y-86365000D01*
X129225000Y-85715000D01*
X129224999Y-85714999D01*
X129143417Y-85715000D01*
X129072897Y-85721408D01*
X129072892Y-85721409D01*
X128910603Y-85771981D01*
X128765122Y-85859927D01*
X128644927Y-85980122D01*
X128556980Y-86125604D01*
X128506409Y-86287893D01*
X128500000Y-86358427D01*
X128500000Y-86365000D01*
X127625500Y-86365000D01*
X127625500Y-72218742D01*
X127627224Y-72203122D01*
X127626939Y-72203095D01*
X127627673Y-72195333D01*
X127626743Y-72165736D01*
X127625500Y-72126171D01*
X127625500Y-72096650D01*
X127624631Y-72089779D01*
X127624173Y-72083952D01*
X127622710Y-72037373D01*
X127617119Y-72018130D01*
X127613173Y-71999078D01*
X127610664Y-71979208D01*
X127593504Y-71935867D01*
X127591624Y-71930379D01*
X127578618Y-71885610D01*
X127568422Y-71868370D01*
X127559861Y-71850894D01*
X127552487Y-71832270D01*
X127552486Y-71832268D01*
X127525079Y-71794545D01*
X127521888Y-71789686D01*
X127513813Y-71776032D01*
X127502548Y-71756982D01*
X127498172Y-71749583D01*
X127498165Y-71749574D01*
X127484006Y-71735415D01*
X127471368Y-71720619D01*
X127465897Y-71713089D01*
X127459594Y-71704413D01*
X127454403Y-71700119D01*
X127423688Y-71674709D01*
X127419376Y-71670786D01*
X125849803Y-70101212D01*
X125839980Y-70088950D01*
X125839759Y-70089134D01*
X125834786Y-70083123D01*
X125816159Y-70065631D01*
X125784364Y-70035773D01*
X125773919Y-70025328D01*
X125763475Y-70014883D01*
X125757986Y-70010625D01*
X125753561Y-70006847D01*
X125719582Y-69974938D01*
X125719580Y-69974936D01*
X125719577Y-69974935D01*
X125702029Y-69965288D01*
X125685763Y-69954604D01*
X125669936Y-69942327D01*
X125669935Y-69942326D01*
X125669933Y-69942325D01*
X125627168Y-69923818D01*
X125621922Y-69921248D01*
X125581093Y-69898803D01*
X125581092Y-69898802D01*
X125561693Y-69893822D01*
X125543281Y-69887518D01*
X125524898Y-69879562D01*
X125524892Y-69879560D01*
X125478874Y-69872272D01*
X125473152Y-69871087D01*
X125428021Y-69859500D01*
X125428019Y-69859500D01*
X125407984Y-69859500D01*
X125388586Y-69857973D01*
X125381162Y-69856797D01*
X125368805Y-69854840D01*
X125368804Y-69854840D01*
X125322416Y-69859225D01*
X125316578Y-69859500D01*
X120381602Y-69859500D01*
X120314563Y-69839815D01*
X120275486Y-69799651D01*
X120260471Y-69774814D01*
X120260468Y-69774810D01*
X120166819Y-69681161D01*
X120133334Y-69619838D01*
X120130500Y-69593480D01*
X120130500Y-68836519D01*
X120150185Y-68769480D01*
X120166814Y-68748842D01*
X120260472Y-68655185D01*
X120348478Y-68509606D01*
X120399086Y-68347196D01*
X120405500Y-68276616D01*
X120405500Y-67613384D01*
X120399086Y-67542804D01*
X120348478Y-67380394D01*
X120260472Y-67234815D01*
X120260470Y-67234813D01*
X120260469Y-67234811D01*
X120140188Y-67114530D01*
X119994606Y-67026522D01*
X119832196Y-66975914D01*
X119832194Y-66975913D01*
X119832192Y-66975913D01*
X119782778Y-66971423D01*
X119761616Y-66969500D01*
X119248384Y-66969500D01*
X119229145Y-66971248D01*
X119177807Y-66975913D01*
X119015393Y-67026522D01*
X118869811Y-67114530D01*
X118869810Y-67114531D01*
X118767327Y-67217015D01*
X118706004Y-67250500D01*
X118636312Y-67245516D01*
X118591965Y-67217015D01*
X118489877Y-67114927D01*
X118344395Y-67026980D01*
X118344396Y-67026980D01*
X118182105Y-66976409D01*
X118182106Y-66976409D01*
X118111572Y-66970000D01*
X118105000Y-66970000D01*
X118105000Y-68919999D01*
X118111581Y-68919999D01*
X118182102Y-68913591D01*
X118182107Y-68913590D01*
X118344396Y-68863018D01*
X118489877Y-68775072D01*
X118489878Y-68775071D01*
X118591963Y-68672985D01*
X118653286Y-68639499D01*
X118722977Y-68644483D01*
X118767326Y-68672983D01*
X118843182Y-68748839D01*
X118876666Y-68810160D01*
X118879500Y-68836519D01*
X118879500Y-69593480D01*
X118859815Y-69660519D01*
X118843181Y-69681161D01*
X118767681Y-69756661D01*
X118706358Y-69790146D01*
X118636666Y-69785162D01*
X118592319Y-69756661D01*
X118490188Y-69654530D01*
X118480499Y-69648673D01*
X118344606Y-69566522D01*
X118182196Y-69515914D01*
X118182194Y-69515913D01*
X118182192Y-69515913D01*
X118132778Y-69511423D01*
X118111616Y-69509500D01*
X117598384Y-69509500D01*
X117579145Y-69511248D01*
X117527807Y-69515913D01*
X117365393Y-69566522D01*
X117219811Y-69654530D01*
X117099531Y-69774810D01*
X117099528Y-69774814D01*
X117084514Y-69799651D01*
X117032986Y-69846838D01*
X116978398Y-69859500D01*
X110444499Y-69859500D01*
X110377460Y-69839815D01*
X110331705Y-69787011D01*
X110320499Y-69735500D01*
X110320499Y-69137129D01*
X110320498Y-69137123D01*
X110320497Y-69137116D01*
X110314091Y-69077517D01*
X110312542Y-69073365D01*
X110263797Y-68942671D01*
X110263793Y-68942664D01*
X110177547Y-68827455D01*
X110177544Y-68827452D01*
X110062335Y-68741206D01*
X110062328Y-68741202D01*
X109927482Y-68690908D01*
X109927483Y-68690908D01*
X109867883Y-68684501D01*
X109867881Y-68684500D01*
X109867873Y-68684500D01*
X109867864Y-68684500D01*
X107172129Y-68684500D01*
X107172123Y-68684501D01*
X107112516Y-68690908D01*
X106977671Y-68741202D01*
X106977664Y-68741206D01*
X106862455Y-68827452D01*
X106862452Y-68827455D01*
X106776206Y-68942664D01*
X106776202Y-68942671D01*
X106725908Y-69077517D01*
X106719501Y-69137116D01*
X106719501Y-69137123D01*
X106719500Y-69137135D01*
X106719500Y-71832870D01*
X106719501Y-71832876D01*
X106725908Y-71892483D01*
X106776202Y-72027328D01*
X106776206Y-72027335D01*
X106862452Y-72142544D01*
X106862455Y-72142547D01*
X106977664Y-72228793D01*
X106977671Y-72228797D01*
X107112517Y-72279091D01*
X107112516Y-72279091D01*
X107119444Y-72279835D01*
X107172127Y-72285500D01*
X109867872Y-72285499D01*
X109927483Y-72279091D01*
X110062331Y-72228796D01*
X110177546Y-72142546D01*
X110263796Y-72027331D01*
X110314091Y-71892483D01*
X110320500Y-71832873D01*
X110320500Y-71234500D01*
X110340185Y-71167461D01*
X110392989Y-71121706D01*
X110444500Y-71110500D01*
X116978398Y-71110500D01*
X117045437Y-71130185D01*
X117084514Y-71170349D01*
X117099528Y-71195185D01*
X117193182Y-71288839D01*
X117226666Y-71350160D01*
X117229500Y-71376519D01*
X117229500Y-71417255D01*
X117227775Y-71432872D01*
X117228061Y-71432899D01*
X117227326Y-71440665D01*
X117229500Y-71509814D01*
X117229500Y-71539343D01*
X117229501Y-71539360D01*
X117230368Y-71546231D01*
X117230826Y-71552050D01*
X117232290Y-71598624D01*
X117232291Y-71598627D01*
X117237880Y-71617867D01*
X117241824Y-71636911D01*
X117244336Y-71656792D01*
X117251430Y-71674709D01*
X117261490Y-71700119D01*
X117263382Y-71705647D01*
X117276147Y-71749583D01*
X117276382Y-71750390D01*
X117280280Y-71756982D01*
X117286580Y-71767634D01*
X117295136Y-71785100D01*
X117302514Y-71803732D01*
X117323679Y-71832864D01*
X117329898Y-71841423D01*
X117333106Y-71846307D01*
X117356827Y-71886416D01*
X117356833Y-71886424D01*
X117370990Y-71900580D01*
X117383627Y-71915375D01*
X117395406Y-71931587D01*
X117397313Y-71933165D01*
X117431309Y-71961288D01*
X117435620Y-71965210D01*
X118980186Y-73509776D01*
X119668181Y-74197771D01*
X119701666Y-74259094D01*
X119704500Y-74285452D01*
X119704500Y-74515452D01*
X119684815Y-74582491D01*
X119657410Y-74612719D01*
X119651958Y-74617029D01*
X119532029Y-74736959D01*
X119443001Y-74881294D01*
X119442996Y-74881305D01*
X119389651Y-75042290D01*
X119379500Y-75141647D01*
X119379500Y-75988337D01*
X119379501Y-75988355D01*
X119389650Y-76087707D01*
X119389651Y-76087710D01*
X119442996Y-76248694D01*
X119443001Y-76248705D01*
X119532029Y-76393040D01*
X119532032Y-76393044D01*
X119651955Y-76512967D01*
X119651959Y-76512970D01*
X119796294Y-76601998D01*
X119796297Y-76601999D01*
X119796303Y-76602003D01*
X119957292Y-76655349D01*
X120056655Y-76665500D01*
X120603344Y-76665499D01*
X120603352Y-76665498D01*
X120603355Y-76665498D01*
X120657760Y-76659940D01*
X120702708Y-76655349D01*
X120863697Y-76602003D01*
X121008044Y-76512968D01*
X121127968Y-76393044D01*
X121217003Y-76248697D01*
X121270349Y-76087708D01*
X121280500Y-75988345D01*
X121280499Y-75141656D01*
X121270349Y-75042292D01*
X121217003Y-74881303D01*
X121216999Y-74881297D01*
X121216998Y-74881294D01*
X121127970Y-74736959D01*
X121127969Y-74736958D01*
X121127968Y-74736956D01*
X121008044Y-74617032D01*
X121008043Y-74617031D01*
X121008041Y-74617029D01*
X121002590Y-74612719D01*
X120962213Y-74555697D01*
X120955500Y-74515452D01*
X120955500Y-74057742D01*
X120957224Y-74042122D01*
X120956939Y-74042095D01*
X120957673Y-74034333D01*
X120955500Y-73965172D01*
X120955500Y-73935656D01*
X120955500Y-73935650D01*
X120954631Y-73928779D01*
X120954173Y-73922952D01*
X120952710Y-73876373D01*
X120947119Y-73857130D01*
X120943173Y-73838078D01*
X120940664Y-73818208D01*
X120923504Y-73774867D01*
X120921624Y-73769379D01*
X120908618Y-73724610D01*
X120898422Y-73707370D01*
X120889861Y-73689894D01*
X120882487Y-73671270D01*
X120881300Y-73669636D01*
X120855079Y-73633545D01*
X120851888Y-73628686D01*
X120846286Y-73619214D01*
X120828170Y-73588580D01*
X120828168Y-73588578D01*
X120828165Y-73588574D01*
X120814006Y-73574415D01*
X120801368Y-73559619D01*
X120789594Y-73543413D01*
X120753688Y-73513709D01*
X120749376Y-73509786D01*
X118796055Y-71556465D01*
X118762570Y-71495142D01*
X118767554Y-71425450D01*
X118809426Y-71369517D01*
X118874890Y-71345100D01*
X118943163Y-71359952D01*
X118947859Y-71362651D01*
X119015394Y-71403478D01*
X119177804Y-71454086D01*
X119248384Y-71460500D01*
X119248387Y-71460500D01*
X119761613Y-71460500D01*
X119761616Y-71460500D01*
X119832196Y-71454086D01*
X119994606Y-71403478D01*
X120140185Y-71315472D01*
X120260472Y-71195185D01*
X120275486Y-71170349D01*
X120327014Y-71123162D01*
X120381602Y-71110500D01*
X125038548Y-71110500D01*
X125105587Y-71130185D01*
X125126229Y-71146819D01*
X126338181Y-72358771D01*
X126371666Y-72420094D01*
X126374500Y-72446452D01*
X126374500Y-81248547D01*
X126354815Y-81315586D01*
X126302011Y-81361341D01*
X126232853Y-81371285D01*
X126169297Y-81342260D01*
X126162819Y-81336228D01*
X125087803Y-80261212D01*
X125077980Y-80248950D01*
X125077759Y-80249134D01*
X125072786Y-80243123D01*
X125054159Y-80225631D01*
X125022364Y-80195773D01*
X125011919Y-80185328D01*
X125001475Y-80174883D01*
X124995986Y-80170625D01*
X124991561Y-80166847D01*
X124957582Y-80134938D01*
X124957580Y-80134936D01*
X124957577Y-80134935D01*
X124940029Y-80125288D01*
X124923763Y-80114604D01*
X124907936Y-80102327D01*
X124907935Y-80102326D01*
X124907933Y-80102325D01*
X124865168Y-80083818D01*
X124859922Y-80081248D01*
X124819093Y-80058803D01*
X124819092Y-80058802D01*
X124799693Y-80053822D01*
X124781281Y-80047518D01*
X124762898Y-80039562D01*
X124762892Y-80039560D01*
X124716874Y-80032272D01*
X124711152Y-80031087D01*
X124666021Y-80019500D01*
X124666019Y-80019500D01*
X124645984Y-80019500D01*
X124626586Y-80017973D01*
X124619162Y-80016797D01*
X124606805Y-80014840D01*
X124606804Y-80014840D01*
X124560416Y-80019225D01*
X124554578Y-80019500D01*
X120381602Y-80019500D01*
X120314563Y-79999815D01*
X120275486Y-79959651D01*
X120260471Y-79934814D01*
X120260468Y-79934810D01*
X120166819Y-79841161D01*
X120133334Y-79779838D01*
X120130500Y-79753480D01*
X120130500Y-78996519D01*
X120150185Y-78929480D01*
X120166814Y-78908842D01*
X120260472Y-78815185D01*
X120348478Y-78669606D01*
X120399086Y-78507196D01*
X120405500Y-78436616D01*
X120405500Y-77773384D01*
X120399086Y-77702804D01*
X120348478Y-77540394D01*
X120260472Y-77394815D01*
X120260470Y-77394813D01*
X120260469Y-77394811D01*
X120140188Y-77274530D01*
X119994606Y-77186522D01*
X119832196Y-77135914D01*
X119832194Y-77135913D01*
X119832192Y-77135913D01*
X119782778Y-77131423D01*
X119761616Y-77129500D01*
X119248384Y-77129500D01*
X119229145Y-77131248D01*
X119177807Y-77135913D01*
X119015393Y-77186522D01*
X118869811Y-77274530D01*
X118869810Y-77274531D01*
X118767327Y-77377015D01*
X118706004Y-77410500D01*
X118636312Y-77405516D01*
X118591965Y-77377015D01*
X118489877Y-77274927D01*
X118344395Y-77186980D01*
X118344396Y-77186980D01*
X118182105Y-77136409D01*
X118182106Y-77136409D01*
X118111572Y-77130000D01*
X118105000Y-77130000D01*
X118105000Y-79079999D01*
X118111581Y-79079999D01*
X118182102Y-79073591D01*
X118182107Y-79073590D01*
X118344396Y-79023018D01*
X118489877Y-78935072D01*
X118489878Y-78935071D01*
X118591963Y-78832985D01*
X118653286Y-78799499D01*
X118722977Y-78804483D01*
X118767326Y-78832983D01*
X118843182Y-78908839D01*
X118876666Y-78970160D01*
X118879500Y-78996519D01*
X118879500Y-79753480D01*
X118859815Y-79820519D01*
X118843181Y-79841161D01*
X118767681Y-79916661D01*
X118706358Y-79950146D01*
X118636666Y-79945162D01*
X118592319Y-79916661D01*
X118490188Y-79814530D01*
X118480499Y-79808673D01*
X118344606Y-79726522D01*
X118182196Y-79675914D01*
X118182194Y-79675913D01*
X118182192Y-79675913D01*
X118132778Y-79671423D01*
X118111616Y-79669500D01*
X117598384Y-79669500D01*
X117579145Y-79671248D01*
X117527807Y-79675913D01*
X117365393Y-79726522D01*
X117219811Y-79814530D01*
X117099531Y-79934810D01*
X117099528Y-79934814D01*
X117084514Y-79959651D01*
X117032986Y-80006838D01*
X116978398Y-80019500D01*
X110293255Y-80019500D01*
X110226216Y-79999815D01*
X110180461Y-79947011D01*
X110177827Y-79940803D01*
X110175477Y-79934815D01*
X110146743Y-79861602D01*
X110011815Y-79627898D01*
X109843561Y-79416915D01*
X109843560Y-79416914D01*
X109843557Y-79416910D01*
X109645741Y-79233365D01*
X109636856Y-79227307D01*
X109422775Y-79081349D01*
X109422769Y-79081346D01*
X109422768Y-79081345D01*
X109422767Y-79081344D01*
X109179643Y-78964263D01*
X109179645Y-78964263D01*
X108921773Y-78884720D01*
X108921767Y-78884718D01*
X108654936Y-78844500D01*
X108654929Y-78844500D01*
X108385071Y-78844500D01*
X108385063Y-78844500D01*
X108118232Y-78884718D01*
X108118226Y-78884720D01*
X107860358Y-78964262D01*
X107617230Y-79081346D01*
X107394258Y-79233365D01*
X107196442Y-79416910D01*
X107028185Y-79627898D01*
X106893258Y-79861599D01*
X106893256Y-79861603D01*
X106794666Y-80112804D01*
X106794664Y-80112811D01*
X106734616Y-80375898D01*
X106714451Y-80644995D01*
X106714451Y-80645004D01*
X103764981Y-80645004D01*
X103773278Y-78355000D01*
X116955001Y-78355000D01*
X116955001Y-78436582D01*
X116961408Y-78507102D01*
X116961409Y-78507107D01*
X117011981Y-78669396D01*
X117099927Y-78814877D01*
X117220122Y-78935072D01*
X117365604Y-79023019D01*
X117365603Y-79023019D01*
X117527894Y-79073590D01*
X117527893Y-79073590D01*
X117598408Y-79079998D01*
X117598426Y-79079999D01*
X117604999Y-79079998D01*
X117605000Y-79079998D01*
X117605000Y-78355000D01*
X116955001Y-78355000D01*
X103773278Y-78355000D01*
X103775090Y-77855000D01*
X116955000Y-77855000D01*
X117605000Y-77855000D01*
X117605000Y-77130000D01*
X117604999Y-77129999D01*
X117598436Y-77130000D01*
X117598417Y-77130001D01*
X117527897Y-77136408D01*
X117527892Y-77136409D01*
X117365603Y-77186981D01*
X117220122Y-77274927D01*
X117099927Y-77395122D01*
X117011980Y-77540604D01*
X116961409Y-77702893D01*
X116955000Y-77773427D01*
X116955000Y-77855000D01*
X103775090Y-77855000D01*
X103783387Y-75565004D01*
X106714953Y-75565004D01*
X106735113Y-75834026D01*
X106735113Y-75834028D01*
X106795142Y-76097033D01*
X106795148Y-76097052D01*
X106893709Y-76348181D01*
X106893708Y-76348181D01*
X107028602Y-76581822D01*
X107082294Y-76649151D01*
X107917452Y-75813992D01*
X107927188Y-75843956D01*
X108015186Y-75982619D01*
X108134903Y-76095040D01*
X108269510Y-76169041D01*
X107434848Y-77003702D01*
X107617483Y-77128220D01*
X107617485Y-77128221D01*
X107860539Y-77245269D01*
X107860537Y-77245269D01*
X108118337Y-77324790D01*
X108118343Y-77324792D01*
X108385101Y-77364999D01*
X108385110Y-77365000D01*
X108654890Y-77365000D01*
X108654898Y-77364999D01*
X108921656Y-77324792D01*
X108921662Y-77324790D01*
X109179461Y-77245269D01*
X109422521Y-77128218D01*
X109605150Y-77003702D01*
X108767534Y-76166086D01*
X108835629Y-76139126D01*
X108968492Y-76042595D01*
X109073175Y-75916055D01*
X109121631Y-75813079D01*
X109957703Y-76649151D01*
X109957704Y-76649150D01*
X110011393Y-76581828D01*
X110011400Y-76581817D01*
X110146290Y-76348181D01*
X110244851Y-76097052D01*
X110244857Y-76097033D01*
X110304886Y-75834028D01*
X110304886Y-75834026D01*
X110306312Y-75815000D01*
X116080001Y-75815000D01*
X116080001Y-75988322D01*
X116090144Y-76087607D01*
X116143452Y-76248481D01*
X116143457Y-76248492D01*
X116232424Y-76392728D01*
X116232427Y-76392732D01*
X116352267Y-76512572D01*
X116352271Y-76512575D01*
X116496507Y-76601542D01*
X116496518Y-76601547D01*
X116657393Y-76654855D01*
X116756683Y-76664999D01*
X116780000Y-76664998D01*
X116780000Y-75815000D01*
X117280000Y-75815000D01*
X117280000Y-76664999D01*
X117303308Y-76664999D01*
X117303322Y-76664998D01*
X117402607Y-76654855D01*
X117563481Y-76601547D01*
X117563492Y-76601542D01*
X117707728Y-76512575D01*
X117707732Y-76512572D01*
X117827572Y-76392732D01*
X117827575Y-76392728D01*
X117916542Y-76248492D01*
X117916547Y-76248481D01*
X117969855Y-76087606D01*
X117979999Y-75988322D01*
X117980000Y-75988309D01*
X117980000Y-75815000D01*
X117280000Y-75815000D01*
X116780000Y-75815000D01*
X116080001Y-75815000D01*
X110306312Y-75815000D01*
X110325047Y-75565004D01*
X110325047Y-75564995D01*
X110306312Y-75315000D01*
X116080000Y-75315000D01*
X116780000Y-75315000D01*
X116780000Y-74465000D01*
X117280000Y-74465000D01*
X117280000Y-75315000D01*
X117979999Y-75315000D01*
X117979999Y-75141692D01*
X117979998Y-75141677D01*
X117969855Y-75042392D01*
X117916547Y-74881518D01*
X117916542Y-74881507D01*
X117827575Y-74737271D01*
X117827572Y-74737267D01*
X117707732Y-74617427D01*
X117707728Y-74617424D01*
X117563492Y-74528457D01*
X117563481Y-74528452D01*
X117402606Y-74475144D01*
X117303322Y-74465000D01*
X117280000Y-74465000D01*
X116780000Y-74465000D01*
X116780000Y-74464999D01*
X116756693Y-74465000D01*
X116756674Y-74465001D01*
X116657392Y-74475144D01*
X116496518Y-74528452D01*
X116496507Y-74528457D01*
X116352271Y-74617424D01*
X116352267Y-74617427D01*
X116232427Y-74737267D01*
X116232424Y-74737271D01*
X116143457Y-74881507D01*
X116143452Y-74881518D01*
X116090144Y-75042393D01*
X116080000Y-75141677D01*
X116080000Y-75315000D01*
X110306312Y-75315000D01*
X110304886Y-75295973D01*
X110304886Y-75295971D01*
X110244857Y-75032966D01*
X110244851Y-75032947D01*
X110146290Y-74781818D01*
X110146291Y-74781818D01*
X110011397Y-74548177D01*
X109957704Y-74480847D01*
X109122546Y-75316004D01*
X109112812Y-75286044D01*
X109024814Y-75147381D01*
X108905097Y-75034960D01*
X108770489Y-74960958D01*
X109605150Y-74126296D01*
X109422517Y-74001779D01*
X109422516Y-74001778D01*
X109179460Y-73884730D01*
X109179462Y-73884730D01*
X108921662Y-73805209D01*
X108921656Y-73805207D01*
X108654898Y-73765000D01*
X108385101Y-73765000D01*
X108118343Y-73805207D01*
X108118337Y-73805209D01*
X107860538Y-73884730D01*
X107617485Y-74001778D01*
X107617476Y-74001783D01*
X107434848Y-74126296D01*
X108272465Y-74963913D01*
X108204371Y-74990874D01*
X108071508Y-75087405D01*
X107966825Y-75213945D01*
X107918368Y-75316921D01*
X107082295Y-74480848D01*
X107028600Y-74548180D01*
X106893709Y-74781818D01*
X106795148Y-75032947D01*
X106795142Y-75032966D01*
X106735113Y-75295971D01*
X106735113Y-75295973D01*
X106714953Y-75564995D01*
X106714953Y-75565004D01*
X103783387Y-75565004D01*
X103810090Y-68195000D01*
X116955001Y-68195000D01*
X116955001Y-68276582D01*
X116961408Y-68347102D01*
X116961409Y-68347107D01*
X117011981Y-68509396D01*
X117099927Y-68654877D01*
X117220122Y-68775072D01*
X117365604Y-68863019D01*
X117365603Y-68863019D01*
X117527894Y-68913590D01*
X117527893Y-68913590D01*
X117598408Y-68919998D01*
X117598426Y-68919999D01*
X117604999Y-68919998D01*
X117605000Y-68919998D01*
X117605000Y-68195000D01*
X116955001Y-68195000D01*
X103810090Y-68195000D01*
X103811902Y-67695000D01*
X116955000Y-67695000D01*
X117605000Y-67695000D01*
X117605000Y-66970000D01*
X117604999Y-66969999D01*
X117598436Y-66970000D01*
X117598417Y-66970001D01*
X117527897Y-66976408D01*
X117527892Y-66976409D01*
X117365603Y-67026981D01*
X117220122Y-67114927D01*
X117099927Y-67235122D01*
X117011980Y-67380604D01*
X116961409Y-67542893D01*
X116955000Y-67613427D01*
X116955000Y-67695000D01*
X103811902Y-67695000D01*
X103829420Y-62860004D01*
X106714953Y-62860004D01*
X106735113Y-63129026D01*
X106735113Y-63129028D01*
X106795142Y-63392033D01*
X106795148Y-63392052D01*
X106893709Y-63643181D01*
X106893708Y-63643181D01*
X107028602Y-63876822D01*
X107082294Y-63944151D01*
X107917452Y-63108992D01*
X107927188Y-63138956D01*
X108015186Y-63277619D01*
X108134903Y-63390040D01*
X108269510Y-63464041D01*
X107434848Y-64298702D01*
X107617483Y-64423220D01*
X107617485Y-64423221D01*
X107860539Y-64540269D01*
X107860537Y-64540269D01*
X108118337Y-64619790D01*
X108118343Y-64619792D01*
X108385101Y-64659999D01*
X108385110Y-64660000D01*
X108654890Y-64660000D01*
X108654898Y-64659999D01*
X108921656Y-64619792D01*
X108921662Y-64619790D01*
X109179461Y-64540269D01*
X109422521Y-64423218D01*
X109605150Y-64298702D01*
X108767534Y-63461086D01*
X108835629Y-63434126D01*
X108968492Y-63337595D01*
X109073175Y-63211055D01*
X109121631Y-63108079D01*
X109957703Y-63944151D01*
X109957704Y-63944150D01*
X110011393Y-63876828D01*
X110011400Y-63876817D01*
X110146290Y-63643181D01*
X110244851Y-63392052D01*
X110244857Y-63392033D01*
X110304886Y-63129028D01*
X110304886Y-63129026D01*
X110325047Y-62860004D01*
X110325047Y-62859995D01*
X110304886Y-62590973D01*
X110304886Y-62590971D01*
X110244857Y-62327966D01*
X110244851Y-62327947D01*
X110146290Y-62076818D01*
X110146291Y-62076818D01*
X110011397Y-61843177D01*
X109957704Y-61775847D01*
X109122546Y-62611004D01*
X109112812Y-62581044D01*
X109024814Y-62442381D01*
X108905097Y-62329960D01*
X108770489Y-62255958D01*
X109605150Y-61421296D01*
X109422517Y-61296779D01*
X109422516Y-61296778D01*
X109179460Y-61179730D01*
X109179462Y-61179730D01*
X108921662Y-61100209D01*
X108921656Y-61100207D01*
X108654898Y-61060000D01*
X108385101Y-61060000D01*
X108118343Y-61100207D01*
X108118337Y-61100209D01*
X107860538Y-61179730D01*
X107617485Y-61296778D01*
X107617476Y-61296783D01*
X107434848Y-61421296D01*
X108272465Y-62258913D01*
X108204371Y-62285874D01*
X108071508Y-62382405D01*
X107966825Y-62508945D01*
X107918368Y-62611921D01*
X107082295Y-61775848D01*
X107028600Y-61843180D01*
X106893709Y-62076818D01*
X106795148Y-62327947D01*
X106795142Y-62327966D01*
X106735113Y-62590971D01*
X106735113Y-62590973D01*
X106714953Y-62859995D01*
X106714953Y-62860004D01*
X103829420Y-62860004D01*
X103842942Y-59127870D01*
X106719500Y-59127870D01*
X106719501Y-59127876D01*
X106725908Y-59187483D01*
X106776202Y-59322328D01*
X106776206Y-59322335D01*
X106862452Y-59437544D01*
X106862455Y-59437547D01*
X106977664Y-59523793D01*
X106977671Y-59523797D01*
X107112517Y-59574091D01*
X107112516Y-59574091D01*
X107119444Y-59574835D01*
X107172127Y-59580500D01*
X109867872Y-59580499D01*
X109927483Y-59574091D01*
X110062331Y-59523796D01*
X110177546Y-59437546D01*
X110263796Y-59322331D01*
X110314091Y-59187483D01*
X110320500Y-59127873D01*
X110320500Y-58654500D01*
X110340185Y-58587461D01*
X110392989Y-58541706D01*
X110444500Y-58530500D01*
X116183701Y-58530500D01*
X116183709Y-58530500D01*
X116314255Y-58515241D01*
X116320473Y-58512978D01*
X116362885Y-58505499D01*
X116389405Y-58505499D01*
X116396354Y-58504952D01*
X116424156Y-58502765D01*
X116572887Y-58459555D01*
X116706198Y-58380715D01*
X116815715Y-58271198D01*
X116894555Y-58137887D01*
X116937765Y-57989156D01*
X116940500Y-57954405D01*
X116940499Y-57605596D01*
X116937765Y-57570844D01*
X116894555Y-57422113D01*
X116815715Y-57288802D01*
X116815713Y-57288800D01*
X116815710Y-57288796D01*
X116706203Y-57179289D01*
X116706194Y-57179282D01*
X116579615Y-57104424D01*
X116572887Y-57100445D01*
X116424156Y-57057235D01*
X116424153Y-57057234D01*
X116424151Y-57057234D01*
X116389407Y-57054500D01*
X116389405Y-57054500D01*
X116347695Y-57054500D01*
X116319098Y-57051157D01*
X116227722Y-57029500D01*
X116227721Y-57029500D01*
X110444499Y-57029500D01*
X110377460Y-57009815D01*
X110331705Y-56957011D01*
X110320499Y-56905500D01*
X110320499Y-56432129D01*
X110320498Y-56432123D01*
X110320497Y-56432116D01*
X110314091Y-56372517D01*
X110263796Y-56237669D01*
X110263795Y-56237668D01*
X110263793Y-56237664D01*
X110177547Y-56122455D01*
X110177544Y-56122452D01*
X110062335Y-56036206D01*
X110062328Y-56036202D01*
X109927482Y-55985908D01*
X109927483Y-55985908D01*
X109867883Y-55979501D01*
X109867881Y-55979500D01*
X109867873Y-55979500D01*
X109867864Y-55979500D01*
X107172129Y-55979500D01*
X107172123Y-55979501D01*
X107112516Y-55985908D01*
X106977671Y-56036202D01*
X106977664Y-56036206D01*
X106862455Y-56122452D01*
X106862452Y-56122455D01*
X106776206Y-56237664D01*
X106776202Y-56237671D01*
X106725908Y-56372517D01*
X106719501Y-56432116D01*
X106719501Y-56432123D01*
X106719500Y-56432135D01*
X106719500Y-59127870D01*
X103842942Y-59127870D01*
X103872870Y-50867763D01*
X106665787Y-50867763D01*
X106695413Y-51137013D01*
X106695415Y-51137024D01*
X106763926Y-51399082D01*
X106763928Y-51399088D01*
X106869870Y-51648390D01*
X106941998Y-51766575D01*
X107010979Y-51879605D01*
X107010986Y-51879615D01*
X107184253Y-52087819D01*
X107184259Y-52087824D01*
X107385998Y-52268582D01*
X107611910Y-52418044D01*
X107857176Y-52533020D01*
X107857183Y-52533022D01*
X107857185Y-52533023D01*
X108116557Y-52611057D01*
X108116564Y-52611058D01*
X108116569Y-52611060D01*
X108384561Y-52650500D01*
X108384566Y-52650500D01*
X108587636Y-52650500D01*
X108639133Y-52646730D01*
X108790156Y-52635677D01*
X108902758Y-52610593D01*
X109054546Y-52576782D01*
X109054548Y-52576781D01*
X109054553Y-52576780D01*
X109307558Y-52480014D01*
X109543777Y-52347441D01*
X109758177Y-52181888D01*
X109946186Y-51986881D01*
X110103799Y-51766579D01*
X110177787Y-51622669D01*
X110227649Y-51525690D01*
X110227651Y-51525684D01*
X110227656Y-51525675D01*
X110315118Y-51269305D01*
X110364319Y-51002933D01*
X110369259Y-50867763D01*
X158735787Y-50867763D01*
X158765413Y-51137013D01*
X158765415Y-51137024D01*
X158833926Y-51399082D01*
X158833928Y-51399088D01*
X158939870Y-51648390D01*
X159011998Y-51766575D01*
X159080979Y-51879605D01*
X159080986Y-51879615D01*
X159254253Y-52087819D01*
X159254259Y-52087824D01*
X159455998Y-52268582D01*
X159681910Y-52418044D01*
X159927176Y-52533020D01*
X159927183Y-52533022D01*
X159927185Y-52533023D01*
X160186557Y-52611057D01*
X160186564Y-52611058D01*
X160186569Y-52611060D01*
X160454561Y-52650500D01*
X160454566Y-52650500D01*
X160657636Y-52650500D01*
X160709133Y-52646730D01*
X160860156Y-52635677D01*
X160972758Y-52610593D01*
X161124546Y-52576782D01*
X161124548Y-52576781D01*
X161124553Y-52576780D01*
X161377558Y-52480014D01*
X161613777Y-52347441D01*
X161828177Y-52181888D01*
X162016186Y-51986881D01*
X162173799Y-51766579D01*
X162247787Y-51622669D01*
X162297649Y-51525690D01*
X162297651Y-51525684D01*
X162297656Y-51525675D01*
X162385118Y-51269305D01*
X162434319Y-51002933D01*
X162444212Y-50732235D01*
X162414586Y-50462982D01*
X162346072Y-50200912D01*
X162240130Y-49951610D01*
X162099018Y-49720390D01*
X162009747Y-49613119D01*
X161925746Y-49512180D01*
X161925740Y-49512175D01*
X161724002Y-49331418D01*
X161498092Y-49181957D01*
X161498090Y-49181956D01*
X161252824Y-49066980D01*
X161252819Y-49066978D01*
X161252814Y-49066976D01*
X160993442Y-48988942D01*
X160993428Y-48988939D01*
X160877791Y-48971921D01*
X160725439Y-48949500D01*
X160522369Y-48949500D01*
X160522364Y-48949500D01*
X160319844Y-48964323D01*
X160319831Y-48964325D01*
X160055453Y-49023217D01*
X160055446Y-49023220D01*
X159802439Y-49119987D01*
X159566226Y-49252557D01*
X159351822Y-49418112D01*
X159163822Y-49613109D01*
X159163816Y-49613116D01*
X159006202Y-49833419D01*
X159006199Y-49833424D01*
X158882350Y-50074309D01*
X158882343Y-50074327D01*
X158794884Y-50330685D01*
X158794881Y-50330699D01*
X158745681Y-50597068D01*
X158745680Y-50597075D01*
X158735787Y-50867763D01*
X110369259Y-50867763D01*
X110374212Y-50732235D01*
X110344586Y-50462982D01*
X110276072Y-50200912D01*
X110170130Y-49951610D01*
X110029018Y-49720390D01*
X109939747Y-49613119D01*
X109855746Y-49512180D01*
X109855740Y-49512175D01*
X109654002Y-49331418D01*
X109428092Y-49181957D01*
X109428090Y-49181956D01*
X109182824Y-49066980D01*
X109182819Y-49066978D01*
X109182814Y-49066976D01*
X108923442Y-48988942D01*
X108923428Y-48988939D01*
X108807791Y-48971921D01*
X108655439Y-48949500D01*
X108452369Y-48949500D01*
X108452364Y-48949500D01*
X108249844Y-48964323D01*
X108249831Y-48964325D01*
X107985453Y-49023217D01*
X107985446Y-49023220D01*
X107732439Y-49119987D01*
X107496226Y-49252557D01*
X107281822Y-49418112D01*
X107093822Y-49613109D01*
X107093816Y-49613116D01*
X106936202Y-49833419D01*
X106936199Y-49833424D01*
X106812350Y-50074309D01*
X106812343Y-50074327D01*
X106724884Y-50330685D01*
X106724881Y-50330699D01*
X106675681Y-50597068D01*
X106675680Y-50597075D01*
X106665787Y-50867763D01*
X103872870Y-50867763D01*
X103885552Y-47367549D01*
X103905479Y-47300583D01*
X103958449Y-47255020D01*
X104009551Y-47244000D01*
X165738000Y-47244000D01*
X165805039Y-47263685D01*
G37*
%TD.AperFunction*%
%TD*%
M02*
