%TF.GenerationSoftware,KiCad,Pcbnew,7.0.9*%
%TF.CreationDate,2024-02-06T13:40:39+00:00*%
%TF.ProjectId,dc-level-shifter,64632d6c-6576-4656-9c2d-736869667465,1.0*%
%TF.SameCoordinates,Original*%
%TF.FileFunction,Paste,Top*%
%TF.FilePolarity,Positive*%
%FSLAX46Y46*%
G04 Gerber Fmt 4.6, Leading zero omitted, Abs format (unit mm)*
G04 Created by KiCad (PCBNEW 7.0.9) date 2024-02-06 13:40:39*
%MOMM*%
%LPD*%
G01*
G04 APERTURE LIST*
G04 Aperture macros list*
%AMRoundRect*
0 Rectangle with rounded corners*
0 $1 Rounding radius*
0 $2 $3 $4 $5 $6 $7 $8 $9 X,Y pos of 4 corners*
0 Add a 4 corners polygon primitive as box body*
4,1,4,$2,$3,$4,$5,$6,$7,$8,$9,$2,$3,0*
0 Add four circle primitives for the rounded corners*
1,1,$1+$1,$2,$3*
1,1,$1+$1,$4,$5*
1,1,$1+$1,$6,$7*
1,1,$1+$1,$8,$9*
0 Add four rect primitives between the rounded corners*
20,1,$1+$1,$2,$3,$4,$5,0*
20,1,$1+$1,$4,$5,$6,$7,0*
20,1,$1+$1,$6,$7,$8,$9,0*
20,1,$1+$1,$8,$9,$2,$3,0*%
G04 Aperture macros list end*
%ADD10RoundRect,0.150000X-0.825000X-0.150000X0.825000X-0.150000X0.825000X0.150000X-0.825000X0.150000X0*%
%ADD11RoundRect,0.200000X0.200000X0.275000X-0.200000X0.275000X-0.200000X-0.275000X0.200000X-0.275000X0*%
%ADD12RoundRect,0.200000X0.275000X-0.200000X0.275000X0.200000X-0.275000X0.200000X-0.275000X-0.200000X0*%
%ADD13RoundRect,0.225000X-0.225000X-0.375000X0.225000X-0.375000X0.225000X0.375000X-0.225000X0.375000X0*%
%ADD14RoundRect,0.200000X-0.275000X0.200000X-0.275000X-0.200000X0.275000X-0.200000X0.275000X0.200000X0*%
%ADD15RoundRect,0.225000X0.250000X-0.225000X0.250000X0.225000X-0.250000X0.225000X-0.250000X-0.225000X0*%
%ADD16RoundRect,0.112500X0.187500X0.112500X-0.187500X0.112500X-0.187500X-0.112500X0.187500X-0.112500X0*%
%ADD17RoundRect,0.225000X0.225000X0.250000X-0.225000X0.250000X-0.225000X-0.250000X0.225000X-0.250000X0*%
%ADD18RoundRect,0.225000X0.225000X0.375000X-0.225000X0.375000X-0.225000X-0.375000X0.225000X-0.375000X0*%
G04 APERTURE END LIST*
D10*
%TO.C,U1*%
X133985000Y-86995000D03*
X133985000Y-88265000D03*
X133985000Y-89535000D03*
X133985000Y-90805000D03*
X133985000Y-92075000D03*
X133985000Y-93345000D03*
X133985000Y-94615000D03*
X138935000Y-94615000D03*
X138935000Y-93345000D03*
X138935000Y-92075000D03*
X138935000Y-90805000D03*
X138935000Y-89535000D03*
X138935000Y-88265000D03*
X138935000Y-86995000D03*
%TD*%
D11*
%TO.C,R11*%
X119505000Y-90805000D03*
X117855000Y-90805000D03*
%TD*%
D12*
%TO.C,R1*%
X129475000Y-88265000D03*
X129475000Y-86615000D03*
%TD*%
D11*
%TO.C,R6*%
X119505000Y-80645000D03*
X117855000Y-80645000D03*
%TD*%
D13*
%TO.C,D8*%
X149415000Y-106045000D03*
X152715000Y-106045000D03*
%TD*%
D11*
%TO.C,R4*%
X119505000Y-67945000D03*
X117855000Y-67945000D03*
%TD*%
D14*
%TO.C,R8*%
X129475000Y-93345000D03*
X129475000Y-94995000D03*
%TD*%
D15*
%TO.C,C2*%
X133985000Y-84595000D03*
X133985000Y-83045000D03*
%TD*%
D11*
%TO.C,R12*%
X119505000Y-88265000D03*
X117855000Y-88265000D03*
%TD*%
D13*
%TO.C,D4*%
X149415000Y-85725000D03*
X152715000Y-85725000D03*
%TD*%
D11*
%TO.C,R7*%
X119505000Y-78105000D03*
X117855000Y-78105000D03*
%TD*%
%TO.C,R3*%
X151890000Y-70485000D03*
X150240000Y-70485000D03*
%TD*%
D16*
%TO.C,D9*%
X118240000Y-57780000D03*
X116140000Y-57780000D03*
%TD*%
D14*
%TO.C,R2*%
X131380000Y-86615000D03*
X131380000Y-88265000D03*
%TD*%
D17*
%TO.C,C1*%
X131520000Y-90805000D03*
X129970000Y-90805000D03*
%TD*%
D18*
%TO.C,D1*%
X120330000Y-75565000D03*
X117030000Y-75565000D03*
%TD*%
D12*
%TO.C,R18*%
X143445000Y-88265000D03*
X143445000Y-86615000D03*
%TD*%
D11*
%TO.C,R5*%
X119505000Y-70485000D03*
X117855000Y-70485000D03*
%TD*%
D18*
%TO.C,D5*%
X120307500Y-95885000D03*
X117007500Y-95885000D03*
%TD*%
D11*
%TO.C,R17*%
X119505000Y-98425000D03*
X117855000Y-98425000D03*
%TD*%
D13*
%TO.C,D6*%
X149415000Y-95885000D03*
X152715000Y-95885000D03*
%TD*%
%TO.C,D2*%
X149415000Y-75565000D03*
X152715000Y-75565000D03*
%TD*%
D14*
%TO.C,R13*%
X143445000Y-93345000D03*
X143445000Y-94995000D03*
%TD*%
D11*
%TO.C,R16*%
X119505000Y-100965000D03*
X117855000Y-100965000D03*
%TD*%
D12*
%TO.C,R9*%
X131380000Y-94995000D03*
X131380000Y-93345000D03*
%TD*%
D11*
%TO.C,R15*%
X151890000Y-90805000D03*
X150240000Y-90805000D03*
%TD*%
D14*
%TO.C,R19*%
X141540000Y-86615000D03*
X141540000Y-88265000D03*
%TD*%
D11*
%TO.C,R10*%
X151890000Y-80645000D03*
X150240000Y-80645000D03*
%TD*%
D18*
%TO.C,D3*%
X120352500Y-85725000D03*
X117052500Y-85725000D03*
%TD*%
%TO.C,D7*%
X120307500Y-106045000D03*
X117007500Y-106045000D03*
%TD*%
D11*
%TO.C,R20*%
X151890000Y-100965000D03*
X150240000Y-100965000D03*
%TD*%
D12*
%TO.C,R14*%
X141540000Y-94995000D03*
X141540000Y-93345000D03*
%TD*%
M02*
