%TF.GenerationSoftware,KiCad,Pcbnew,7.0.9*%
%TF.CreationDate,2024-02-06T13:40:39+00:00*%
%TF.ProjectId,dc-level-shifter,64632d6c-6576-4656-9c2d-736869667465,1.0*%
%TF.SameCoordinates,Original*%
%TF.FileFunction,Copper,L2,Bot*%
%TF.FilePolarity,Positive*%
%FSLAX46Y46*%
G04 Gerber Fmt 4.6, Leading zero omitted, Abs format (unit mm)*
G04 Created by KiCad (PCBNEW 7.0.9) date 2024-02-06 13:40:39*
%MOMM*%
%LPD*%
G01*
G04 APERTURE LIST*
%TA.AperFunction,ComponentPad*%
%ADD10R,2.600000X2.600000*%
%TD*%
%TA.AperFunction,ComponentPad*%
%ADD11C,2.600000*%
%TD*%
%TA.AperFunction,ViaPad*%
%ADD12C,0.800000*%
%TD*%
%TA.AperFunction,Conductor*%
%ADD13C,0.500000*%
%TD*%
%TA.AperFunction,Conductor*%
%ADD14C,0.250000*%
%TD*%
G04 APERTURE END LIST*
D10*
%TO.P,J1,1,Pin_1*%
%TO.N,/IN_1*%
X108520000Y-70485000D03*
D11*
%TO.P,J1,2,Pin_2*%
%TO.N,GND*%
X108520000Y-75565000D03*
%TO.P,J1,3,Pin_3*%
%TO.N,/IN_2*%
X108520000Y-80645000D03*
%TO.P,J1,4,Pin_4*%
%TO.N,GND*%
X108520000Y-85725000D03*
%TO.P,J1,5,Pin_5*%
%TO.N,/IN_3*%
X108520000Y-90805000D03*
%TO.P,J1,6,Pin_6*%
%TO.N,GND*%
X108520000Y-95885000D03*
%TO.P,J1,7,Pin_7*%
%TO.N,/IN_4*%
X108520000Y-100965000D03*
%TO.P,J1,8,Pin_8*%
%TO.N,GND*%
X108520000Y-106045000D03*
%TD*%
D10*
%TO.P,J3,1,Pin_1*%
%TO.N,Net-(D9-A)*%
X108520000Y-57780000D03*
D11*
%TO.P,J3,2,Pin_2*%
%TO.N,GND*%
X108520000Y-62860000D03*
%TD*%
D10*
%TO.P,J2,1,Pin_1*%
%TO.N,GND*%
X160895000Y-106045000D03*
D11*
%TO.P,J2,2,Pin_2*%
%TO.N,/OUT_4*%
X160895000Y-100965000D03*
%TO.P,J2,3,Pin_3*%
%TO.N,GND*%
X160895000Y-95885000D03*
%TO.P,J2,4,Pin_4*%
%TO.N,/OUT_3*%
X160895000Y-90805000D03*
%TO.P,J2,5,Pin_5*%
%TO.N,GND*%
X160895000Y-85725000D03*
%TO.P,J2,6,Pin_6*%
%TO.N,/OUT_2*%
X160895000Y-80645000D03*
%TO.P,J2,7,Pin_7*%
%TO.N,GND*%
X160895000Y-75565000D03*
%TO.P,J2,8,Pin_8*%
%TO.N,/OUT_1*%
X160895000Y-70485000D03*
%TD*%
D12*
%TO.N,Net-(D9-K)*%
X130556000Y-84582000D03*
X132334000Y-84582000D03*
%TO.N,GND*%
X133985000Y-81280000D03*
X140970000Y-90805000D03*
X115570000Y-75565000D03*
X154178000Y-93726000D03*
X153924000Y-99060000D03*
X115570000Y-95885000D03*
X115570000Y-85725000D03*
X160782000Y-62738000D03*
X142748000Y-83058000D03*
X113792000Y-51054000D03*
X146304000Y-88392000D03*
X145796000Y-94996000D03*
X153162000Y-88138000D03*
X138684000Y-65532000D03*
X164592000Y-101854000D03*
X115570000Y-106045000D03*
X139192000Y-51054000D03*
X112776000Y-76708000D03*
X164592000Y-51054000D03*
X129032000Y-85090000D03*
X139192000Y-76454000D03*
X144780000Y-86614000D03*
X123952000Y-76708000D03*
X115570000Y-78105000D03*
X126746000Y-106172000D03*
X140970000Y-97028000D03*
X139954000Y-101092000D03*
X115570000Y-98425000D03*
X144526000Y-98806000D03*
X112522000Y-103632000D03*
X127508000Y-90424000D03*
X164592000Y-76454000D03*
X143002000Y-106680000D03*
X115570000Y-88265000D03*
X117856000Y-66548000D03*
X138938000Y-99314000D03*
%TO.N,Net-(U1C-IN+)*%
X143510000Y-91440000D03*
X137160000Y-99060000D03*
%TO.N,Net-(U1D-IN+)*%
X137160000Y-100838000D03*
X143510000Y-90170000D03*
%TD*%
D13*
%TO.N,Net-(D9-K)*%
X132334000Y-84582000D02*
X130556000Y-84582000D01*
D14*
%TO.N,Net-(U1C-IN+)*%
X143510000Y-91440000D02*
X143510000Y-92710000D01*
X143510000Y-92710000D02*
X137160000Y-99060000D01*
%TO.N,Net-(U1D-IN+)*%
X144526000Y-94478695D02*
X144309000Y-94695695D01*
X144526000Y-90678000D02*
X144526000Y-94478695D01*
X144309000Y-94695695D02*
X144309000Y-95467000D01*
X138938000Y-100838000D02*
X137160000Y-100838000D01*
X143510000Y-90170000D02*
X144018000Y-90170000D01*
X144309000Y-95467000D02*
X138938000Y-100838000D01*
X144018000Y-90170000D02*
X144526000Y-90678000D01*
%TD*%
%TA.AperFunction,Conductor*%
%TO.N,GND*%
G36*
X143819834Y-93387269D02*
G01*
X143875767Y-93429141D01*
X143900184Y-93494605D01*
X143900500Y-93503451D01*
X143900500Y-94167865D01*
X143880815Y-94234904D01*
X143866896Y-94252744D01*
X143859773Y-94260330D01*
X143852811Y-94267291D01*
X143838888Y-94281214D01*
X143838877Y-94281227D01*
X143834621Y-94286712D01*
X143830837Y-94291142D01*
X143798937Y-94325113D01*
X143798936Y-94325115D01*
X143789284Y-94342671D01*
X143778610Y-94358921D01*
X143766329Y-94374756D01*
X143766324Y-94374763D01*
X143747815Y-94417533D01*
X143745245Y-94422779D01*
X143722803Y-94463601D01*
X143717822Y-94483002D01*
X143711521Y-94501405D01*
X143703562Y-94519797D01*
X143703561Y-94519800D01*
X143696271Y-94565822D01*
X143695087Y-94571541D01*
X143683501Y-94616667D01*
X143683500Y-94616677D01*
X143683500Y-94636711D01*
X143681973Y-94656110D01*
X143678840Y-94675889D01*
X143678840Y-94675890D01*
X143683225Y-94722278D01*
X143683500Y-94728116D01*
X143683500Y-95156547D01*
X143663815Y-95223586D01*
X143647181Y-95244228D01*
X138715228Y-100176181D01*
X138653905Y-100209666D01*
X138627547Y-100212500D01*
X137863748Y-100212500D01*
X137796709Y-100192815D01*
X137771600Y-100171474D01*
X137765873Y-100165114D01*
X137765869Y-100165110D01*
X137607473Y-100050029D01*
X137609028Y-100047888D01*
X137568921Y-100005840D01*
X137555685Y-99937235D01*
X137581642Y-99872366D01*
X137608370Y-99849205D01*
X137607473Y-99847971D01*
X137677879Y-99796817D01*
X137765871Y-99732888D01*
X137892533Y-99592216D01*
X137987179Y-99428284D01*
X138045674Y-99248256D01*
X138063321Y-99080345D01*
X138089905Y-99015732D01*
X138098952Y-99005636D01*
X143688821Y-93415768D01*
X143750142Y-93382285D01*
X143819834Y-93387269D01*
G37*
%TD.AperFunction*%
%TA.AperFunction,Conductor*%
G36*
X165805039Y-47263685D02*
G01*
X165850794Y-47316489D01*
X165862000Y-47368000D01*
X165862000Y-117224000D01*
X165842315Y-117291039D01*
X165789511Y-117336794D01*
X165738000Y-117348000D01*
X103756450Y-117348000D01*
X103689411Y-117328315D01*
X103643656Y-117275511D01*
X103632451Y-117223551D01*
X103645099Y-113732763D01*
X106665787Y-113732763D01*
X106695413Y-114002013D01*
X106695415Y-114002024D01*
X106763926Y-114264082D01*
X106763928Y-114264088D01*
X106869870Y-114513390D01*
X106941998Y-114631575D01*
X107010979Y-114744605D01*
X107010986Y-114744615D01*
X107184253Y-114952819D01*
X107184259Y-114952824D01*
X107385998Y-115133582D01*
X107611910Y-115283044D01*
X107857176Y-115398020D01*
X107857183Y-115398022D01*
X107857185Y-115398023D01*
X108116557Y-115476057D01*
X108116564Y-115476058D01*
X108116569Y-115476060D01*
X108384561Y-115515500D01*
X108384566Y-115515500D01*
X108587636Y-115515500D01*
X108639133Y-115511730D01*
X108790156Y-115500677D01*
X108902758Y-115475593D01*
X109054546Y-115441782D01*
X109054548Y-115441781D01*
X109054553Y-115441780D01*
X109307558Y-115345014D01*
X109543777Y-115212441D01*
X109758177Y-115046888D01*
X109946186Y-114851881D01*
X110103799Y-114631579D01*
X110177787Y-114487669D01*
X110227649Y-114390690D01*
X110227651Y-114390684D01*
X110227656Y-114390675D01*
X110315118Y-114134305D01*
X110364319Y-113867933D01*
X110369259Y-113732763D01*
X158735787Y-113732763D01*
X158765413Y-114002013D01*
X158765415Y-114002024D01*
X158833926Y-114264082D01*
X158833928Y-114264088D01*
X158939870Y-114513390D01*
X159011998Y-114631575D01*
X159080979Y-114744605D01*
X159080986Y-114744615D01*
X159254253Y-114952819D01*
X159254259Y-114952824D01*
X159455998Y-115133582D01*
X159681910Y-115283044D01*
X159927176Y-115398020D01*
X159927183Y-115398022D01*
X159927185Y-115398023D01*
X160186557Y-115476057D01*
X160186564Y-115476058D01*
X160186569Y-115476060D01*
X160454561Y-115515500D01*
X160454566Y-115515500D01*
X160657636Y-115515500D01*
X160709133Y-115511730D01*
X160860156Y-115500677D01*
X160972758Y-115475593D01*
X161124546Y-115441782D01*
X161124548Y-115441781D01*
X161124553Y-115441780D01*
X161377558Y-115345014D01*
X161613777Y-115212441D01*
X161828177Y-115046888D01*
X162016186Y-114851881D01*
X162173799Y-114631579D01*
X162247787Y-114487669D01*
X162297649Y-114390690D01*
X162297651Y-114390684D01*
X162297656Y-114390675D01*
X162385118Y-114134305D01*
X162434319Y-113867933D01*
X162444212Y-113597235D01*
X162414586Y-113327982D01*
X162346072Y-113065912D01*
X162240130Y-112816610D01*
X162099018Y-112585390D01*
X162009747Y-112478119D01*
X161925746Y-112377180D01*
X161925740Y-112377175D01*
X161724002Y-112196418D01*
X161498092Y-112046957D01*
X161498090Y-112046956D01*
X161252824Y-111931980D01*
X161252819Y-111931978D01*
X161252814Y-111931976D01*
X160993442Y-111853942D01*
X160993428Y-111853939D01*
X160877791Y-111836921D01*
X160725439Y-111814500D01*
X160522369Y-111814500D01*
X160522364Y-111814500D01*
X160319844Y-111829323D01*
X160319831Y-111829325D01*
X160055453Y-111888217D01*
X160055446Y-111888220D01*
X159802439Y-111984987D01*
X159566226Y-112117557D01*
X159351822Y-112283112D01*
X159163822Y-112478109D01*
X159163816Y-112478116D01*
X159006202Y-112698419D01*
X159006199Y-112698424D01*
X158882350Y-112939309D01*
X158882343Y-112939327D01*
X158794884Y-113195685D01*
X158794881Y-113195699D01*
X158745681Y-113462068D01*
X158745680Y-113462075D01*
X158735787Y-113732763D01*
X110369259Y-113732763D01*
X110374212Y-113597235D01*
X110344586Y-113327982D01*
X110276072Y-113065912D01*
X110170130Y-112816610D01*
X110029018Y-112585390D01*
X109939747Y-112478119D01*
X109855746Y-112377180D01*
X109855740Y-112377175D01*
X109654002Y-112196418D01*
X109428092Y-112046957D01*
X109428090Y-112046956D01*
X109182824Y-111931980D01*
X109182819Y-111931978D01*
X109182814Y-111931976D01*
X108923442Y-111853942D01*
X108923428Y-111853939D01*
X108807791Y-111836921D01*
X108655439Y-111814500D01*
X108452369Y-111814500D01*
X108452364Y-111814500D01*
X108249844Y-111829323D01*
X108249831Y-111829325D01*
X107985453Y-111888217D01*
X107985446Y-111888220D01*
X107732439Y-111984987D01*
X107496226Y-112117557D01*
X107281822Y-112283112D01*
X107093822Y-112478109D01*
X107093816Y-112478116D01*
X106936202Y-112698419D01*
X106936199Y-112698424D01*
X106812350Y-112939309D01*
X106812343Y-112939327D01*
X106724884Y-113195685D01*
X106724881Y-113195699D01*
X106675681Y-113462068D01*
X106675680Y-113462075D01*
X106665787Y-113732763D01*
X103645099Y-113732763D01*
X103672953Y-106045004D01*
X106714953Y-106045004D01*
X106735113Y-106314026D01*
X106735113Y-106314028D01*
X106795142Y-106577033D01*
X106795148Y-106577052D01*
X106893709Y-106828181D01*
X106893708Y-106828181D01*
X107028602Y-107061822D01*
X107082294Y-107129151D01*
X107917452Y-106293992D01*
X107927188Y-106323956D01*
X108015186Y-106462619D01*
X108134903Y-106575040D01*
X108269510Y-106649041D01*
X107434848Y-107483702D01*
X107617483Y-107608220D01*
X107617485Y-107608221D01*
X107860539Y-107725269D01*
X107860537Y-107725269D01*
X108118337Y-107804790D01*
X108118343Y-107804792D01*
X108385101Y-107844999D01*
X108385110Y-107845000D01*
X108654890Y-107845000D01*
X108654898Y-107844999D01*
X108921656Y-107804792D01*
X108921662Y-107804790D01*
X109179461Y-107725269D01*
X109422521Y-107608218D01*
X109605150Y-107483702D01*
X109514292Y-107392844D01*
X159095000Y-107392844D01*
X159101401Y-107452372D01*
X159101403Y-107452379D01*
X159151645Y-107587086D01*
X159151649Y-107587093D01*
X159237809Y-107702187D01*
X159237812Y-107702190D01*
X159352906Y-107788350D01*
X159352913Y-107788354D01*
X159487620Y-107838596D01*
X159487627Y-107838598D01*
X159547155Y-107844999D01*
X159547172Y-107845000D01*
X160645000Y-107845000D01*
X160645000Y-106649310D01*
X160653817Y-106654158D01*
X160812886Y-106695000D01*
X160935894Y-106695000D01*
X161057933Y-106679583D01*
X161145000Y-106645110D01*
X161145000Y-107845000D01*
X162242828Y-107845000D01*
X162242844Y-107844999D01*
X162302372Y-107838598D01*
X162302379Y-107838596D01*
X162437086Y-107788354D01*
X162437093Y-107788350D01*
X162552187Y-107702190D01*
X162552190Y-107702187D01*
X162638350Y-107587093D01*
X162638354Y-107587086D01*
X162688596Y-107452379D01*
X162688598Y-107452372D01*
X162694999Y-107392844D01*
X162695000Y-107392827D01*
X162695000Y-106295000D01*
X161495728Y-106295000D01*
X161518100Y-106247457D01*
X161548873Y-106086138D01*
X161538561Y-105922234D01*
X161497220Y-105795000D01*
X162695000Y-105795000D01*
X162695000Y-104697172D01*
X162694999Y-104697155D01*
X162688598Y-104637627D01*
X162688596Y-104637620D01*
X162638354Y-104502913D01*
X162638350Y-104502906D01*
X162552190Y-104387812D01*
X162552187Y-104387809D01*
X162437093Y-104301649D01*
X162437086Y-104301645D01*
X162302379Y-104251403D01*
X162302372Y-104251401D01*
X162242844Y-104245000D01*
X161145000Y-104245000D01*
X161145000Y-105440689D01*
X161136183Y-105435842D01*
X160977114Y-105395000D01*
X160854106Y-105395000D01*
X160732067Y-105410417D01*
X160645000Y-105444889D01*
X160645000Y-104245000D01*
X159547155Y-104245000D01*
X159487627Y-104251401D01*
X159487620Y-104251403D01*
X159352913Y-104301645D01*
X159352906Y-104301649D01*
X159237812Y-104387809D01*
X159237809Y-104387812D01*
X159151649Y-104502906D01*
X159151645Y-104502913D01*
X159101403Y-104637620D01*
X159101401Y-104637627D01*
X159095000Y-104697155D01*
X159095000Y-105795000D01*
X160294272Y-105795000D01*
X160271900Y-105842543D01*
X160241127Y-106003862D01*
X160251439Y-106167766D01*
X160292780Y-106295000D01*
X159095000Y-106295000D01*
X159095000Y-107392844D01*
X109514292Y-107392844D01*
X108767534Y-106646086D01*
X108835629Y-106619126D01*
X108968492Y-106522595D01*
X109073175Y-106396055D01*
X109121631Y-106293079D01*
X109957703Y-107129151D01*
X109957704Y-107129150D01*
X110011393Y-107061828D01*
X110011400Y-107061817D01*
X110146290Y-106828181D01*
X110244851Y-106577052D01*
X110244857Y-106577033D01*
X110304886Y-106314028D01*
X110304886Y-106314026D01*
X110325047Y-106045004D01*
X110325047Y-106044995D01*
X110304886Y-105775973D01*
X110304886Y-105775971D01*
X110244857Y-105512966D01*
X110244851Y-105512947D01*
X110146290Y-105261818D01*
X110146291Y-105261818D01*
X110011397Y-105028177D01*
X109957704Y-104960847D01*
X109122546Y-105796004D01*
X109112812Y-105766044D01*
X109024814Y-105627381D01*
X108905097Y-105514960D01*
X108770489Y-105440958D01*
X109605150Y-104606296D01*
X109422517Y-104481779D01*
X109422516Y-104481778D01*
X109179460Y-104364730D01*
X109179462Y-104364730D01*
X108921662Y-104285209D01*
X108921656Y-104285207D01*
X108654898Y-104245000D01*
X108385101Y-104245000D01*
X108118343Y-104285207D01*
X108118337Y-104285209D01*
X107860538Y-104364730D01*
X107617485Y-104481778D01*
X107617476Y-104481783D01*
X107434848Y-104606296D01*
X108272465Y-105443913D01*
X108204371Y-105470874D01*
X108071508Y-105567405D01*
X107966825Y-105693945D01*
X107918368Y-105796921D01*
X107082295Y-104960848D01*
X107028600Y-105028180D01*
X106893709Y-105261818D01*
X106795148Y-105512947D01*
X106795142Y-105512966D01*
X106735113Y-105775971D01*
X106735113Y-105775973D01*
X106714953Y-106044995D01*
X106714953Y-106045004D01*
X103672953Y-106045004D01*
X103690484Y-101206284D01*
X103691358Y-100965004D01*
X106714451Y-100965004D01*
X106734616Y-101234101D01*
X106794664Y-101497188D01*
X106794666Y-101497195D01*
X106893257Y-101748398D01*
X107028185Y-101982102D01*
X107164080Y-102152509D01*
X107196442Y-102193089D01*
X107383183Y-102366358D01*
X107394259Y-102376635D01*
X107617226Y-102528651D01*
X107860359Y-102645738D01*
X108118228Y-102725280D01*
X108118229Y-102725280D01*
X108118232Y-102725281D01*
X108385063Y-102765499D01*
X108385068Y-102765499D01*
X108385071Y-102765500D01*
X108385072Y-102765500D01*
X108654928Y-102765500D01*
X108654929Y-102765500D01*
X108654936Y-102765499D01*
X108921767Y-102725281D01*
X108921768Y-102725280D01*
X108921772Y-102725280D01*
X109179641Y-102645738D01*
X109422775Y-102528651D01*
X109645741Y-102376635D01*
X109843561Y-102193085D01*
X110011815Y-101982102D01*
X110146743Y-101748398D01*
X110245334Y-101497195D01*
X110305383Y-101234103D01*
X110312105Y-101144402D01*
X110325549Y-100965004D01*
X110325549Y-100964995D01*
X110316032Y-100838000D01*
X136254540Y-100838000D01*
X136274326Y-101026256D01*
X136274327Y-101026259D01*
X136332818Y-101206277D01*
X136332821Y-101206284D01*
X136427467Y-101370216D01*
X136541800Y-101497195D01*
X136554129Y-101510888D01*
X136707265Y-101622148D01*
X136707270Y-101622151D01*
X136880192Y-101699142D01*
X136880197Y-101699144D01*
X137065354Y-101738500D01*
X137065355Y-101738500D01*
X137254644Y-101738500D01*
X137254646Y-101738500D01*
X137439803Y-101699144D01*
X137612730Y-101622151D01*
X137765871Y-101510888D01*
X137768788Y-101507647D01*
X137771600Y-101504526D01*
X137831087Y-101467879D01*
X137863748Y-101463500D01*
X138855257Y-101463500D01*
X138870877Y-101465224D01*
X138870904Y-101464939D01*
X138878660Y-101465671D01*
X138878667Y-101465673D01*
X138947814Y-101463500D01*
X138977350Y-101463500D01*
X138984228Y-101462630D01*
X138990041Y-101462172D01*
X139036627Y-101460709D01*
X139055869Y-101455117D01*
X139074912Y-101451174D01*
X139094792Y-101448664D01*
X139138122Y-101431507D01*
X139143646Y-101429617D01*
X139147396Y-101428527D01*
X139188390Y-101416618D01*
X139205629Y-101406422D01*
X139223103Y-101397862D01*
X139241727Y-101390488D01*
X139241727Y-101390487D01*
X139241732Y-101390486D01*
X139279449Y-101363082D01*
X139284305Y-101359892D01*
X139324420Y-101336170D01*
X139338589Y-101321999D01*
X139353379Y-101309368D01*
X139369587Y-101297594D01*
X139399299Y-101261676D01*
X139403212Y-101257376D01*
X139695584Y-100965004D01*
X159089451Y-100965004D01*
X159109616Y-101234101D01*
X159169664Y-101497188D01*
X159169666Y-101497195D01*
X159268257Y-101748398D01*
X159403185Y-101982102D01*
X159539080Y-102152509D01*
X159571442Y-102193089D01*
X159758183Y-102366358D01*
X159769259Y-102376635D01*
X159992226Y-102528651D01*
X160235359Y-102645738D01*
X160493228Y-102725280D01*
X160493229Y-102725280D01*
X160493232Y-102725281D01*
X160760063Y-102765499D01*
X160760068Y-102765499D01*
X160760071Y-102765500D01*
X160760072Y-102765500D01*
X161029928Y-102765500D01*
X161029929Y-102765500D01*
X161029936Y-102765499D01*
X161296767Y-102725281D01*
X161296768Y-102725280D01*
X161296772Y-102725280D01*
X161554641Y-102645738D01*
X161797775Y-102528651D01*
X162020741Y-102376635D01*
X162218561Y-102193085D01*
X162386815Y-101982102D01*
X162521743Y-101748398D01*
X162620334Y-101497195D01*
X162680383Y-101234103D01*
X162687105Y-101144402D01*
X162700549Y-100965004D01*
X162700549Y-100964995D01*
X162680383Y-100695898D01*
X162628760Y-100469722D01*
X162620334Y-100432805D01*
X162521743Y-100181602D01*
X162386815Y-99947898D01*
X162218561Y-99736915D01*
X162218560Y-99736914D01*
X162218557Y-99736910D01*
X162020741Y-99553365D01*
X161797775Y-99401349D01*
X161797769Y-99401346D01*
X161797768Y-99401345D01*
X161797767Y-99401344D01*
X161554643Y-99284263D01*
X161554645Y-99284263D01*
X161296773Y-99204720D01*
X161296767Y-99204718D01*
X161029936Y-99164500D01*
X161029929Y-99164500D01*
X160760071Y-99164500D01*
X160760063Y-99164500D01*
X160493232Y-99204718D01*
X160493226Y-99204720D01*
X160235358Y-99284262D01*
X159992230Y-99401346D01*
X159769258Y-99553365D01*
X159571442Y-99736910D01*
X159403185Y-99947898D01*
X159268258Y-100181599D01*
X159268256Y-100181603D01*
X159169666Y-100432804D01*
X159169664Y-100432811D01*
X159109616Y-100695898D01*
X159089451Y-100964995D01*
X159089451Y-100965004D01*
X139695584Y-100965004D01*
X144692788Y-95967801D01*
X144705042Y-95957986D01*
X144704859Y-95957764D01*
X144710866Y-95952792D01*
X144710877Y-95952786D01*
X144741775Y-95919882D01*
X144758227Y-95902364D01*
X144768671Y-95891918D01*
X144775586Y-95885004D01*
X159089953Y-95885004D01*
X159110113Y-96154026D01*
X159110113Y-96154028D01*
X159170142Y-96417033D01*
X159170148Y-96417052D01*
X159268709Y-96668181D01*
X159268708Y-96668181D01*
X159403602Y-96901822D01*
X159457294Y-96969151D01*
X159457295Y-96969151D01*
X160292452Y-96133993D01*
X160302188Y-96163956D01*
X160390186Y-96302619D01*
X160509903Y-96415040D01*
X160644510Y-96489041D01*
X159809848Y-97323702D01*
X159992483Y-97448220D01*
X159992485Y-97448221D01*
X160235539Y-97565269D01*
X160235537Y-97565269D01*
X160493337Y-97644790D01*
X160493343Y-97644792D01*
X160760101Y-97684999D01*
X160760110Y-97685000D01*
X161029890Y-97685000D01*
X161029898Y-97684999D01*
X161296656Y-97644792D01*
X161296662Y-97644790D01*
X161554461Y-97565269D01*
X161797521Y-97448218D01*
X161980150Y-97323702D01*
X161142534Y-96486086D01*
X161210629Y-96459126D01*
X161343492Y-96362595D01*
X161448175Y-96236055D01*
X161496631Y-96133079D01*
X162332703Y-96969151D01*
X162332704Y-96969150D01*
X162386393Y-96901828D01*
X162386400Y-96901817D01*
X162521290Y-96668181D01*
X162619851Y-96417052D01*
X162619857Y-96417033D01*
X162679886Y-96154028D01*
X162679886Y-96154026D01*
X162700047Y-95885004D01*
X162700047Y-95884995D01*
X162679886Y-95615973D01*
X162679886Y-95615971D01*
X162619857Y-95352966D01*
X162619851Y-95352947D01*
X162521290Y-95101818D01*
X162521291Y-95101818D01*
X162386397Y-94868177D01*
X162332704Y-94800847D01*
X161497546Y-95636004D01*
X161487812Y-95606044D01*
X161399814Y-95467381D01*
X161280097Y-95354960D01*
X161145489Y-95280958D01*
X161980150Y-94446296D01*
X161797517Y-94321779D01*
X161797516Y-94321778D01*
X161554460Y-94204730D01*
X161554462Y-94204730D01*
X161296662Y-94125209D01*
X161296656Y-94125207D01*
X161029898Y-94085000D01*
X160760101Y-94085000D01*
X160493343Y-94125207D01*
X160493337Y-94125209D01*
X160235538Y-94204730D01*
X159992485Y-94321778D01*
X159992476Y-94321783D01*
X159809848Y-94446296D01*
X160647465Y-95283913D01*
X160579371Y-95310874D01*
X160446508Y-95407405D01*
X160341825Y-95533945D01*
X160293368Y-95636920D01*
X159457295Y-94800848D01*
X159403600Y-94868180D01*
X159268709Y-95101818D01*
X159170148Y-95352947D01*
X159170142Y-95352966D01*
X159110113Y-95615971D01*
X159110113Y-95615973D01*
X159089953Y-95884995D01*
X159089953Y-95885004D01*
X144775586Y-95885004D01*
X144779120Y-95881471D01*
X144783379Y-95875978D01*
X144787152Y-95871561D01*
X144819062Y-95837582D01*
X144828715Y-95820020D01*
X144839389Y-95803770D01*
X144851673Y-95787936D01*
X144870180Y-95745167D01*
X144872749Y-95739924D01*
X144895196Y-95699093D01*
X144895197Y-95699092D01*
X144900177Y-95679691D01*
X144906478Y-95661288D01*
X144914438Y-95642896D01*
X144921730Y-95596849D01*
X144922911Y-95591152D01*
X144934500Y-95546019D01*
X144934500Y-95525983D01*
X144936027Y-95506582D01*
X144939160Y-95486804D01*
X144934775Y-95440415D01*
X144934500Y-95434577D01*
X144934500Y-95006523D01*
X144954185Y-94939484D01*
X144968111Y-94921636D01*
X144975229Y-94914057D01*
X144985672Y-94903613D01*
X144996120Y-94893166D01*
X145000379Y-94887673D01*
X145004152Y-94883256D01*
X145036062Y-94849277D01*
X145045713Y-94831719D01*
X145056396Y-94815456D01*
X145068673Y-94799631D01*
X145087185Y-94756848D01*
X145089738Y-94751636D01*
X145112197Y-94710787D01*
X145117180Y-94691375D01*
X145123481Y-94672975D01*
X145131437Y-94654591D01*
X145138729Y-94608547D01*
X145139906Y-94602866D01*
X145151500Y-94557714D01*
X145151500Y-94537678D01*
X145153027Y-94518277D01*
X145156160Y-94498499D01*
X145151775Y-94452110D01*
X145151500Y-94446272D01*
X145151500Y-90805004D01*
X159089451Y-90805004D01*
X159109616Y-91074101D01*
X159150161Y-91251740D01*
X159169666Y-91337195D01*
X159268257Y-91588398D01*
X159403185Y-91822102D01*
X159522896Y-91972214D01*
X159571442Y-92033089D01*
X159758183Y-92206358D01*
X159769259Y-92216635D01*
X159992226Y-92368651D01*
X160235359Y-92485738D01*
X160493228Y-92565280D01*
X160493229Y-92565280D01*
X160493232Y-92565281D01*
X160760063Y-92605499D01*
X160760068Y-92605499D01*
X160760071Y-92605500D01*
X160760072Y-92605500D01*
X161029928Y-92605500D01*
X161029929Y-92605500D01*
X161029936Y-92605499D01*
X161296767Y-92565281D01*
X161296768Y-92565280D01*
X161296772Y-92565280D01*
X161554641Y-92485738D01*
X161797775Y-92368651D01*
X162020741Y-92216635D01*
X162218561Y-92033085D01*
X162386815Y-91822102D01*
X162521743Y-91588398D01*
X162620334Y-91337195D01*
X162680383Y-91074103D01*
X162692847Y-90907784D01*
X162700549Y-90805004D01*
X162700549Y-90804995D01*
X162680383Y-90535898D01*
X162680383Y-90535897D01*
X162620334Y-90272805D01*
X162521743Y-90021602D01*
X162386815Y-89787898D01*
X162218561Y-89576915D01*
X162218560Y-89576914D01*
X162218557Y-89576910D01*
X162020741Y-89393365D01*
X162009716Y-89385848D01*
X161797775Y-89241349D01*
X161797769Y-89241346D01*
X161797768Y-89241345D01*
X161797767Y-89241344D01*
X161554643Y-89124263D01*
X161554645Y-89124263D01*
X161296773Y-89044720D01*
X161296767Y-89044718D01*
X161029936Y-89004500D01*
X161029929Y-89004500D01*
X160760071Y-89004500D01*
X160760063Y-89004500D01*
X160493232Y-89044718D01*
X160493226Y-89044720D01*
X160235358Y-89124262D01*
X159992230Y-89241346D01*
X159769258Y-89393365D01*
X159571442Y-89576910D01*
X159403185Y-89787898D01*
X159268258Y-90021599D01*
X159268256Y-90021603D01*
X159169666Y-90272804D01*
X159169664Y-90272811D01*
X159109616Y-90535898D01*
X159089451Y-90804995D01*
X159089451Y-90805004D01*
X145151500Y-90805004D01*
X145151500Y-90760737D01*
X145153224Y-90745123D01*
X145152938Y-90745096D01*
X145153672Y-90737333D01*
X145151500Y-90668202D01*
X145151500Y-90638651D01*
X145151500Y-90638650D01*
X145150629Y-90631759D01*
X145150172Y-90625945D01*
X145148709Y-90579374D01*
X145148709Y-90579372D01*
X145143120Y-90560137D01*
X145139174Y-90541084D01*
X145136664Y-90521208D01*
X145119501Y-90477859D01*
X145117614Y-90472346D01*
X145104617Y-90427610D01*
X145104616Y-90427608D01*
X145094421Y-90410369D01*
X145085860Y-90392893D01*
X145078486Y-90374269D01*
X145078486Y-90374267D01*
X145066853Y-90358256D01*
X145051083Y-90336550D01*
X145047900Y-90331705D01*
X145024170Y-90291579D01*
X145024165Y-90291573D01*
X145010005Y-90277413D01*
X144997370Y-90262620D01*
X144985593Y-90246412D01*
X144949693Y-90216713D01*
X144945381Y-90212790D01*
X144518803Y-89786212D01*
X144508980Y-89773950D01*
X144508759Y-89774134D01*
X144503786Y-89768123D01*
X144453364Y-89720773D01*
X144442919Y-89710328D01*
X144432475Y-89699883D01*
X144426986Y-89695625D01*
X144422561Y-89691847D01*
X144388582Y-89659938D01*
X144388580Y-89659936D01*
X144388577Y-89659935D01*
X144371029Y-89650288D01*
X144354763Y-89639604D01*
X144338933Y-89627325D01*
X144296168Y-89608818D01*
X144290922Y-89606248D01*
X144250094Y-89583804D01*
X144250093Y-89583803D01*
X144250092Y-89583803D01*
X144230689Y-89578821D01*
X144212283Y-89572519D01*
X144193896Y-89564562D01*
X144193894Y-89564561D01*
X144190378Y-89563040D01*
X144147475Y-89532211D01*
X144115871Y-89497112D01*
X144115864Y-89497106D01*
X143962734Y-89385851D01*
X143962729Y-89385848D01*
X143789807Y-89308857D01*
X143789802Y-89308855D01*
X143644001Y-89277865D01*
X143604646Y-89269500D01*
X143415354Y-89269500D01*
X143382897Y-89276398D01*
X143230197Y-89308855D01*
X143230192Y-89308857D01*
X143057270Y-89385848D01*
X143057265Y-89385851D01*
X142904129Y-89497111D01*
X142777466Y-89637785D01*
X142682821Y-89801715D01*
X142682818Y-89801722D01*
X142624327Y-89981740D01*
X142624326Y-89981744D01*
X142604540Y-90170000D01*
X142624326Y-90358256D01*
X142624327Y-90358259D01*
X142682818Y-90538277D01*
X142682821Y-90538284D01*
X142777467Y-90702216D01*
X142787806Y-90713699D01*
X142795307Y-90722030D01*
X142825535Y-90785022D01*
X142816909Y-90854357D01*
X142795307Y-90887970D01*
X142777466Y-90907785D01*
X142682821Y-91071715D01*
X142682818Y-91071722D01*
X142624327Y-91251740D01*
X142624326Y-91251744D01*
X142604540Y-91440000D01*
X142624326Y-91628256D01*
X142624327Y-91628259D01*
X142682818Y-91808277D01*
X142682821Y-91808284D01*
X142777467Y-91972216D01*
X142820772Y-92020310D01*
X142852650Y-92055715D01*
X142882880Y-92118706D01*
X142884500Y-92138687D01*
X142884500Y-92399547D01*
X142864815Y-92466586D01*
X142848181Y-92487228D01*
X137212228Y-98123181D01*
X137150905Y-98156666D01*
X137124547Y-98159500D01*
X137065354Y-98159500D01*
X137032897Y-98166398D01*
X136880197Y-98198855D01*
X136880192Y-98198857D01*
X136707270Y-98275848D01*
X136707265Y-98275851D01*
X136554129Y-98387111D01*
X136427466Y-98527785D01*
X136332821Y-98691715D01*
X136332818Y-98691722D01*
X136274327Y-98871740D01*
X136274326Y-98871744D01*
X136254540Y-99060000D01*
X136274326Y-99248256D01*
X136274327Y-99248259D01*
X136332818Y-99428277D01*
X136332821Y-99428284D01*
X136427467Y-99592216D01*
X136554129Y-99732888D01*
X136712527Y-99847971D01*
X136710976Y-99850105D01*
X136751098Y-99892199D01*
X136764309Y-99960808D01*
X136738330Y-100025668D01*
X136711634Y-100048800D01*
X136712527Y-100050029D01*
X136554129Y-100165111D01*
X136427466Y-100305785D01*
X136332821Y-100469715D01*
X136332818Y-100469722D01*
X136274327Y-100649740D01*
X136274326Y-100649744D01*
X136254540Y-100838000D01*
X110316032Y-100838000D01*
X110305383Y-100695898D01*
X110253760Y-100469722D01*
X110245334Y-100432805D01*
X110146743Y-100181602D01*
X110011815Y-99947898D01*
X109843561Y-99736915D01*
X109843560Y-99736914D01*
X109843557Y-99736910D01*
X109645741Y-99553365D01*
X109422775Y-99401349D01*
X109422769Y-99401346D01*
X109422768Y-99401345D01*
X109422767Y-99401344D01*
X109179643Y-99284263D01*
X109179645Y-99284263D01*
X108921773Y-99204720D01*
X108921767Y-99204718D01*
X108654936Y-99164500D01*
X108654929Y-99164500D01*
X108385071Y-99164500D01*
X108385063Y-99164500D01*
X108118232Y-99204718D01*
X108118226Y-99204720D01*
X107860358Y-99284262D01*
X107617230Y-99401346D01*
X107394258Y-99553365D01*
X107196442Y-99736910D01*
X107028185Y-99947898D01*
X106893258Y-100181599D01*
X106893256Y-100181603D01*
X106794666Y-100432804D01*
X106794664Y-100432811D01*
X106734616Y-100695898D01*
X106714451Y-100964995D01*
X106714451Y-100965004D01*
X103691358Y-100965004D01*
X103709764Y-95885004D01*
X106714953Y-95885004D01*
X106735113Y-96154026D01*
X106735113Y-96154028D01*
X106795142Y-96417033D01*
X106795148Y-96417052D01*
X106893709Y-96668181D01*
X106893708Y-96668181D01*
X107028602Y-96901822D01*
X107082294Y-96969151D01*
X107917452Y-96133992D01*
X107927188Y-96163956D01*
X108015186Y-96302619D01*
X108134903Y-96415040D01*
X108269510Y-96489041D01*
X107434848Y-97323702D01*
X107617483Y-97448220D01*
X107617485Y-97448221D01*
X107860539Y-97565269D01*
X107860537Y-97565269D01*
X108118337Y-97644790D01*
X108118343Y-97644792D01*
X108385101Y-97684999D01*
X108385110Y-97685000D01*
X108654890Y-97685000D01*
X108654898Y-97684999D01*
X108921656Y-97644792D01*
X108921662Y-97644790D01*
X109179461Y-97565269D01*
X109422521Y-97448218D01*
X109605150Y-97323702D01*
X108767534Y-96486086D01*
X108835629Y-96459126D01*
X108968492Y-96362595D01*
X109073175Y-96236055D01*
X109121631Y-96133079D01*
X109957703Y-96969151D01*
X109957704Y-96969150D01*
X110011393Y-96901828D01*
X110011400Y-96901817D01*
X110146290Y-96668181D01*
X110244851Y-96417052D01*
X110244857Y-96417033D01*
X110304886Y-96154028D01*
X110304886Y-96154026D01*
X110325047Y-95885004D01*
X110325047Y-95884995D01*
X110304886Y-95615973D01*
X110304886Y-95615971D01*
X110244857Y-95352966D01*
X110244851Y-95352947D01*
X110146290Y-95101818D01*
X110146291Y-95101818D01*
X110011397Y-94868177D01*
X109957704Y-94800847D01*
X109122546Y-95636004D01*
X109112812Y-95606044D01*
X109024814Y-95467381D01*
X108905097Y-95354960D01*
X108770489Y-95280958D01*
X109605150Y-94446296D01*
X109422517Y-94321779D01*
X109422516Y-94321778D01*
X109179460Y-94204730D01*
X109179462Y-94204730D01*
X108921662Y-94125209D01*
X108921656Y-94125207D01*
X108654898Y-94085000D01*
X108385101Y-94085000D01*
X108118343Y-94125207D01*
X108118337Y-94125209D01*
X107860538Y-94204730D01*
X107617485Y-94321778D01*
X107617476Y-94321783D01*
X107434848Y-94446296D01*
X108272465Y-95283913D01*
X108204371Y-95310874D01*
X108071508Y-95407405D01*
X107966825Y-95533945D01*
X107918368Y-95636921D01*
X107082295Y-94800848D01*
X107028600Y-94868180D01*
X106893709Y-95101818D01*
X106795148Y-95352947D01*
X106795142Y-95352966D01*
X106735113Y-95615971D01*
X106735113Y-95615973D01*
X106714953Y-95884995D01*
X106714953Y-95885004D01*
X103709764Y-95885004D01*
X103728170Y-90805004D01*
X106714451Y-90805004D01*
X106734616Y-91074101D01*
X106775161Y-91251740D01*
X106794666Y-91337195D01*
X106893257Y-91588398D01*
X107028185Y-91822102D01*
X107147896Y-91972214D01*
X107196442Y-92033089D01*
X107383183Y-92206358D01*
X107394259Y-92216635D01*
X107617226Y-92368651D01*
X107860359Y-92485738D01*
X108118228Y-92565280D01*
X108118229Y-92565280D01*
X108118232Y-92565281D01*
X108385063Y-92605499D01*
X108385068Y-92605499D01*
X108385071Y-92605500D01*
X108385072Y-92605500D01*
X108654928Y-92605500D01*
X108654929Y-92605500D01*
X108654936Y-92605499D01*
X108921767Y-92565281D01*
X108921768Y-92565280D01*
X108921772Y-92565280D01*
X109179641Y-92485738D01*
X109422775Y-92368651D01*
X109645741Y-92216635D01*
X109843561Y-92033085D01*
X110011815Y-91822102D01*
X110146743Y-91588398D01*
X110245334Y-91337195D01*
X110305383Y-91074103D01*
X110317847Y-90907784D01*
X110325549Y-90805004D01*
X110325549Y-90804995D01*
X110305383Y-90535898D01*
X110305383Y-90535897D01*
X110245334Y-90272805D01*
X110146743Y-90021602D01*
X110011815Y-89787898D01*
X109843561Y-89576915D01*
X109843560Y-89576914D01*
X109843557Y-89576910D01*
X109645741Y-89393365D01*
X109634716Y-89385848D01*
X109422775Y-89241349D01*
X109422769Y-89241346D01*
X109422768Y-89241345D01*
X109422767Y-89241344D01*
X109179643Y-89124263D01*
X109179645Y-89124263D01*
X108921773Y-89044720D01*
X108921767Y-89044718D01*
X108654936Y-89004500D01*
X108654929Y-89004500D01*
X108385071Y-89004500D01*
X108385063Y-89004500D01*
X108118232Y-89044718D01*
X108118226Y-89044720D01*
X107860358Y-89124262D01*
X107617230Y-89241346D01*
X107394258Y-89393365D01*
X107196442Y-89576910D01*
X107028185Y-89787898D01*
X106893258Y-90021599D01*
X106893256Y-90021603D01*
X106794666Y-90272804D01*
X106794664Y-90272811D01*
X106734616Y-90535898D01*
X106714451Y-90804995D01*
X106714451Y-90805004D01*
X103728170Y-90805004D01*
X103746576Y-85725004D01*
X106714953Y-85725004D01*
X106735113Y-85994026D01*
X106735113Y-85994028D01*
X106795142Y-86257033D01*
X106795148Y-86257052D01*
X106893709Y-86508181D01*
X106893708Y-86508181D01*
X107028602Y-86741822D01*
X107082294Y-86809151D01*
X107917452Y-85973992D01*
X107927188Y-86003956D01*
X108015186Y-86142619D01*
X108134903Y-86255040D01*
X108269510Y-86329041D01*
X107434848Y-87163702D01*
X107617483Y-87288220D01*
X107617485Y-87288221D01*
X107860539Y-87405269D01*
X107860537Y-87405269D01*
X108118337Y-87484790D01*
X108118343Y-87484792D01*
X108385101Y-87524999D01*
X108385110Y-87525000D01*
X108654890Y-87525000D01*
X108654898Y-87524999D01*
X108921656Y-87484792D01*
X108921662Y-87484790D01*
X109179461Y-87405269D01*
X109422521Y-87288218D01*
X109605150Y-87163702D01*
X108767534Y-86326086D01*
X108835629Y-86299126D01*
X108968492Y-86202595D01*
X109073175Y-86076055D01*
X109121631Y-85973079D01*
X109957703Y-86809151D01*
X109957704Y-86809150D01*
X110011393Y-86741828D01*
X110011400Y-86741817D01*
X110146290Y-86508181D01*
X110244851Y-86257052D01*
X110244857Y-86257033D01*
X110304886Y-85994028D01*
X110304886Y-85994026D01*
X110325047Y-85725004D01*
X159089953Y-85725004D01*
X159110113Y-85994026D01*
X159110113Y-85994028D01*
X159170142Y-86257033D01*
X159170148Y-86257052D01*
X159268709Y-86508181D01*
X159268708Y-86508181D01*
X159403602Y-86741822D01*
X159457294Y-86809151D01*
X159457295Y-86809151D01*
X160292452Y-85973993D01*
X160302188Y-86003956D01*
X160390186Y-86142619D01*
X160509903Y-86255040D01*
X160644510Y-86329041D01*
X159809848Y-87163702D01*
X159992483Y-87288220D01*
X159992485Y-87288221D01*
X160235539Y-87405269D01*
X160235537Y-87405269D01*
X160493337Y-87484790D01*
X160493343Y-87484792D01*
X160760101Y-87524999D01*
X160760110Y-87525000D01*
X161029890Y-87525000D01*
X161029898Y-87524999D01*
X161296656Y-87484792D01*
X161296662Y-87484790D01*
X161554461Y-87405269D01*
X161797521Y-87288218D01*
X161980150Y-87163702D01*
X161142534Y-86326086D01*
X161210629Y-86299126D01*
X161343492Y-86202595D01*
X161448175Y-86076055D01*
X161496631Y-85973079D01*
X162332703Y-86809151D01*
X162332704Y-86809150D01*
X162386393Y-86741828D01*
X162386400Y-86741817D01*
X162521290Y-86508181D01*
X162619851Y-86257052D01*
X162619857Y-86257033D01*
X162679886Y-85994028D01*
X162679886Y-85994026D01*
X162700047Y-85725004D01*
X162700047Y-85724995D01*
X162679886Y-85455973D01*
X162679886Y-85455971D01*
X162619857Y-85192966D01*
X162619851Y-85192947D01*
X162521290Y-84941818D01*
X162521291Y-84941818D01*
X162386397Y-84708177D01*
X162332704Y-84640847D01*
X161497546Y-85476004D01*
X161487812Y-85446044D01*
X161399814Y-85307381D01*
X161280097Y-85194960D01*
X161145489Y-85120958D01*
X161980150Y-84286296D01*
X161797517Y-84161779D01*
X161797516Y-84161778D01*
X161554460Y-84044730D01*
X161554462Y-84044730D01*
X161296662Y-83965209D01*
X161296656Y-83965207D01*
X161029898Y-83925000D01*
X160760101Y-83925000D01*
X160493343Y-83965207D01*
X160493337Y-83965209D01*
X160235538Y-84044730D01*
X159992485Y-84161778D01*
X159992476Y-84161783D01*
X159809848Y-84286296D01*
X160647465Y-85123913D01*
X160579371Y-85150874D01*
X160446508Y-85247405D01*
X160341825Y-85373945D01*
X160293368Y-85476920D01*
X159457295Y-84640848D01*
X159403600Y-84708180D01*
X159268709Y-84941818D01*
X159170148Y-85192947D01*
X159170142Y-85192966D01*
X159110113Y-85455971D01*
X159110113Y-85455973D01*
X159089953Y-85724995D01*
X159089953Y-85725004D01*
X110325047Y-85725004D01*
X110325047Y-85724995D01*
X110304886Y-85455973D01*
X110304886Y-85455971D01*
X110244857Y-85192966D01*
X110244851Y-85192947D01*
X110146290Y-84941818D01*
X110146291Y-84941818D01*
X110011397Y-84708177D01*
X109957704Y-84640847D01*
X109122546Y-85476004D01*
X109112812Y-85446044D01*
X109024814Y-85307381D01*
X108905097Y-85194960D01*
X108770489Y-85120958D01*
X109309446Y-84582000D01*
X129650540Y-84582000D01*
X129670326Y-84770256D01*
X129670327Y-84770259D01*
X129728818Y-84950277D01*
X129728821Y-84950284D01*
X129823467Y-85114216D01*
X129943391Y-85247405D01*
X129950129Y-85254888D01*
X130103265Y-85366148D01*
X130103270Y-85366151D01*
X130276192Y-85443142D01*
X130276197Y-85443144D01*
X130461354Y-85482500D01*
X130461355Y-85482500D01*
X130650644Y-85482500D01*
X130650646Y-85482500D01*
X130835803Y-85443144D01*
X131008730Y-85366151D01*
X131010776Y-85364664D01*
X131022452Y-85356182D01*
X131088258Y-85332702D01*
X131095337Y-85332500D01*
X131794663Y-85332500D01*
X131861702Y-85352185D01*
X131867548Y-85356182D01*
X131881265Y-85366148D01*
X131881270Y-85366151D01*
X132054192Y-85443142D01*
X132054197Y-85443144D01*
X132239354Y-85482500D01*
X132239355Y-85482500D01*
X132428644Y-85482500D01*
X132428646Y-85482500D01*
X132613803Y-85443144D01*
X132786730Y-85366151D01*
X132939871Y-85254888D01*
X133066533Y-85114216D01*
X133161179Y-84950284D01*
X133219674Y-84770256D01*
X133239460Y-84582000D01*
X133219674Y-84393744D01*
X133161179Y-84213716D01*
X133066533Y-84049784D01*
X132939871Y-83909112D01*
X132939870Y-83909111D01*
X132786734Y-83797851D01*
X132786729Y-83797848D01*
X132613807Y-83720857D01*
X132613802Y-83720855D01*
X132468001Y-83689865D01*
X132428646Y-83681500D01*
X132239354Y-83681500D01*
X132206897Y-83688398D01*
X132054197Y-83720855D01*
X132054192Y-83720857D01*
X131881270Y-83797848D01*
X131881265Y-83797851D01*
X131867548Y-83807818D01*
X131801742Y-83831298D01*
X131794663Y-83831500D01*
X131095337Y-83831500D01*
X131028298Y-83811815D01*
X131022452Y-83807818D01*
X131008734Y-83797851D01*
X131008729Y-83797848D01*
X130835807Y-83720857D01*
X130835802Y-83720855D01*
X130690001Y-83689865D01*
X130650646Y-83681500D01*
X130461354Y-83681500D01*
X130428897Y-83688398D01*
X130276197Y-83720855D01*
X130276192Y-83720857D01*
X130103270Y-83797848D01*
X130103265Y-83797851D01*
X129950129Y-83909111D01*
X129823466Y-84049785D01*
X129728821Y-84213715D01*
X129728818Y-84213722D01*
X129670327Y-84393740D01*
X129670326Y-84393744D01*
X129650540Y-84582000D01*
X109309446Y-84582000D01*
X109605150Y-84286296D01*
X109422517Y-84161779D01*
X109422516Y-84161778D01*
X109179460Y-84044730D01*
X109179462Y-84044730D01*
X108921662Y-83965209D01*
X108921656Y-83965207D01*
X108654898Y-83925000D01*
X108385101Y-83925000D01*
X108118343Y-83965207D01*
X108118337Y-83965209D01*
X107860538Y-84044730D01*
X107617485Y-84161778D01*
X107617476Y-84161783D01*
X107434848Y-84286296D01*
X108272465Y-85123913D01*
X108204371Y-85150874D01*
X108071508Y-85247405D01*
X107966825Y-85373945D01*
X107918368Y-85476921D01*
X107082295Y-84640848D01*
X107028600Y-84708180D01*
X106893709Y-84941818D01*
X106795148Y-85192947D01*
X106795142Y-85192966D01*
X106735113Y-85455971D01*
X106735113Y-85455973D01*
X106714953Y-85724995D01*
X106714953Y-85725004D01*
X103746576Y-85725004D01*
X103764981Y-80645004D01*
X106714451Y-80645004D01*
X106734616Y-80914101D01*
X106794664Y-81177188D01*
X106794666Y-81177195D01*
X106893257Y-81428398D01*
X107028185Y-81662102D01*
X107164080Y-81832509D01*
X107196442Y-81873089D01*
X107383183Y-82046358D01*
X107394259Y-82056635D01*
X107617226Y-82208651D01*
X107860359Y-82325738D01*
X108118228Y-82405280D01*
X108118229Y-82405280D01*
X108118232Y-82405281D01*
X108385063Y-82445499D01*
X108385068Y-82445499D01*
X108385071Y-82445500D01*
X108385072Y-82445500D01*
X108654928Y-82445500D01*
X108654929Y-82445500D01*
X108654936Y-82445499D01*
X108921767Y-82405281D01*
X108921768Y-82405280D01*
X108921772Y-82405280D01*
X109179641Y-82325738D01*
X109422775Y-82208651D01*
X109645741Y-82056635D01*
X109843561Y-81873085D01*
X110011815Y-81662102D01*
X110146743Y-81428398D01*
X110245334Y-81177195D01*
X110305383Y-80914103D01*
X110325549Y-80645004D01*
X159089451Y-80645004D01*
X159109616Y-80914101D01*
X159169664Y-81177188D01*
X159169666Y-81177195D01*
X159268257Y-81428398D01*
X159403185Y-81662102D01*
X159539080Y-81832509D01*
X159571442Y-81873089D01*
X159758183Y-82046358D01*
X159769259Y-82056635D01*
X159992226Y-82208651D01*
X160235359Y-82325738D01*
X160493228Y-82405280D01*
X160493229Y-82405280D01*
X160493232Y-82405281D01*
X160760063Y-82445499D01*
X160760068Y-82445499D01*
X160760071Y-82445500D01*
X160760072Y-82445500D01*
X161029928Y-82445500D01*
X161029929Y-82445500D01*
X161029936Y-82445499D01*
X161296767Y-82405281D01*
X161296768Y-82405280D01*
X161296772Y-82405280D01*
X161554641Y-82325738D01*
X161797775Y-82208651D01*
X162020741Y-82056635D01*
X162218561Y-81873085D01*
X162386815Y-81662102D01*
X162521743Y-81428398D01*
X162620334Y-81177195D01*
X162680383Y-80914103D01*
X162700549Y-80645000D01*
X162680383Y-80375897D01*
X162620334Y-80112805D01*
X162521743Y-79861602D01*
X162386815Y-79627898D01*
X162218561Y-79416915D01*
X162218560Y-79416914D01*
X162218557Y-79416910D01*
X162020741Y-79233365D01*
X161797775Y-79081349D01*
X161797769Y-79081346D01*
X161797768Y-79081345D01*
X161797767Y-79081344D01*
X161554643Y-78964263D01*
X161554645Y-78964263D01*
X161296773Y-78884720D01*
X161296767Y-78884718D01*
X161029936Y-78844500D01*
X161029929Y-78844500D01*
X160760071Y-78844500D01*
X160760063Y-78844500D01*
X160493232Y-78884718D01*
X160493226Y-78884720D01*
X160235358Y-78964262D01*
X159992230Y-79081346D01*
X159769258Y-79233365D01*
X159571442Y-79416910D01*
X159403185Y-79627898D01*
X159268258Y-79861599D01*
X159268256Y-79861603D01*
X159169666Y-80112804D01*
X159169664Y-80112811D01*
X159109616Y-80375898D01*
X159089451Y-80644995D01*
X159089451Y-80645004D01*
X110325549Y-80645004D01*
X110325549Y-80645000D01*
X110305383Y-80375897D01*
X110245334Y-80112805D01*
X110146743Y-79861602D01*
X110011815Y-79627898D01*
X109843561Y-79416915D01*
X109843560Y-79416914D01*
X109843557Y-79416910D01*
X109645741Y-79233365D01*
X109422775Y-79081349D01*
X109422769Y-79081346D01*
X109422768Y-79081345D01*
X109422767Y-79081344D01*
X109179643Y-78964263D01*
X109179645Y-78964263D01*
X108921773Y-78884720D01*
X108921767Y-78884718D01*
X108654936Y-78844500D01*
X108654929Y-78844500D01*
X108385071Y-78844500D01*
X108385063Y-78844500D01*
X108118232Y-78884718D01*
X108118226Y-78884720D01*
X107860358Y-78964262D01*
X107617230Y-79081346D01*
X107394258Y-79233365D01*
X107196442Y-79416910D01*
X107028185Y-79627898D01*
X106893258Y-79861599D01*
X106893256Y-79861603D01*
X106794666Y-80112804D01*
X106794664Y-80112811D01*
X106734616Y-80375898D01*
X106714451Y-80644995D01*
X106714451Y-80645004D01*
X103764981Y-80645004D01*
X103783387Y-75565004D01*
X106714953Y-75565004D01*
X106735113Y-75834026D01*
X106735113Y-75834028D01*
X106795142Y-76097033D01*
X106795148Y-76097052D01*
X106893709Y-76348181D01*
X106893708Y-76348181D01*
X107028602Y-76581822D01*
X107082294Y-76649151D01*
X107917452Y-75813992D01*
X107927188Y-75843956D01*
X108015186Y-75982619D01*
X108134903Y-76095040D01*
X108269510Y-76169041D01*
X107434848Y-77003702D01*
X107617483Y-77128220D01*
X107617485Y-77128221D01*
X107860539Y-77245269D01*
X107860537Y-77245269D01*
X108118337Y-77324790D01*
X108118343Y-77324792D01*
X108385101Y-77364999D01*
X108385110Y-77365000D01*
X108654890Y-77365000D01*
X108654898Y-77364999D01*
X108921656Y-77324792D01*
X108921662Y-77324790D01*
X109179461Y-77245269D01*
X109422521Y-77128218D01*
X109605150Y-77003702D01*
X108767534Y-76166086D01*
X108835629Y-76139126D01*
X108968492Y-76042595D01*
X109073175Y-75916055D01*
X109121631Y-75813079D01*
X109957703Y-76649151D01*
X109957704Y-76649150D01*
X110011393Y-76581828D01*
X110011400Y-76581817D01*
X110146290Y-76348181D01*
X110244851Y-76097052D01*
X110244857Y-76097033D01*
X110304886Y-75834028D01*
X110304886Y-75834026D01*
X110325047Y-75565004D01*
X159089953Y-75565004D01*
X159110113Y-75834026D01*
X159110113Y-75834028D01*
X159170142Y-76097033D01*
X159170148Y-76097052D01*
X159268709Y-76348181D01*
X159268708Y-76348181D01*
X159403602Y-76581822D01*
X159457294Y-76649151D01*
X159457295Y-76649151D01*
X160292452Y-75813993D01*
X160302188Y-75843956D01*
X160390186Y-75982619D01*
X160509903Y-76095040D01*
X160644510Y-76169041D01*
X159809848Y-77003702D01*
X159992483Y-77128220D01*
X159992485Y-77128221D01*
X160235539Y-77245269D01*
X160235537Y-77245269D01*
X160493337Y-77324790D01*
X160493343Y-77324792D01*
X160760101Y-77364999D01*
X160760110Y-77365000D01*
X161029890Y-77365000D01*
X161029898Y-77364999D01*
X161296656Y-77324792D01*
X161296662Y-77324790D01*
X161554461Y-77245269D01*
X161797521Y-77128218D01*
X161980150Y-77003702D01*
X161142534Y-76166086D01*
X161210629Y-76139126D01*
X161343492Y-76042595D01*
X161448175Y-75916055D01*
X161496631Y-75813079D01*
X162332703Y-76649151D01*
X162332704Y-76649150D01*
X162386393Y-76581828D01*
X162386400Y-76581817D01*
X162521290Y-76348181D01*
X162619851Y-76097052D01*
X162619857Y-76097033D01*
X162679886Y-75834028D01*
X162679886Y-75834026D01*
X162700047Y-75565004D01*
X162700047Y-75564995D01*
X162679886Y-75295973D01*
X162679886Y-75295971D01*
X162619857Y-75032966D01*
X162619851Y-75032947D01*
X162521290Y-74781818D01*
X162521291Y-74781818D01*
X162386397Y-74548177D01*
X162332704Y-74480847D01*
X161497546Y-75316004D01*
X161487812Y-75286044D01*
X161399814Y-75147381D01*
X161280097Y-75034960D01*
X161145489Y-74960958D01*
X161980150Y-74126296D01*
X161797517Y-74001779D01*
X161797516Y-74001778D01*
X161554460Y-73884730D01*
X161554462Y-73884730D01*
X161296662Y-73805209D01*
X161296656Y-73805207D01*
X161029898Y-73765000D01*
X160760101Y-73765000D01*
X160493343Y-73805207D01*
X160493337Y-73805209D01*
X160235538Y-73884730D01*
X159992485Y-74001778D01*
X159992476Y-74001783D01*
X159809848Y-74126296D01*
X160647465Y-74963913D01*
X160579371Y-74990874D01*
X160446508Y-75087405D01*
X160341825Y-75213945D01*
X160293368Y-75316920D01*
X159457295Y-74480848D01*
X159403600Y-74548180D01*
X159268709Y-74781818D01*
X159170148Y-75032947D01*
X159170142Y-75032966D01*
X159110113Y-75295971D01*
X159110113Y-75295973D01*
X159089953Y-75564995D01*
X159089953Y-75565004D01*
X110325047Y-75565004D01*
X110325047Y-75564995D01*
X110304886Y-75295973D01*
X110304886Y-75295971D01*
X110244857Y-75032966D01*
X110244851Y-75032947D01*
X110146290Y-74781818D01*
X110146291Y-74781818D01*
X110011397Y-74548177D01*
X109957704Y-74480847D01*
X109122546Y-75316004D01*
X109112812Y-75286044D01*
X109024814Y-75147381D01*
X108905097Y-75034960D01*
X108770489Y-74960958D01*
X109605150Y-74126296D01*
X109422517Y-74001779D01*
X109422516Y-74001778D01*
X109179460Y-73884730D01*
X109179462Y-73884730D01*
X108921662Y-73805209D01*
X108921656Y-73805207D01*
X108654898Y-73765000D01*
X108385101Y-73765000D01*
X108118343Y-73805207D01*
X108118337Y-73805209D01*
X107860538Y-73884730D01*
X107617485Y-74001778D01*
X107617476Y-74001783D01*
X107434848Y-74126296D01*
X108272465Y-74963913D01*
X108204371Y-74990874D01*
X108071508Y-75087405D01*
X107966825Y-75213945D01*
X107918368Y-75316921D01*
X107082295Y-74480848D01*
X107028600Y-74548180D01*
X106893709Y-74781818D01*
X106795148Y-75032947D01*
X106795142Y-75032966D01*
X106735113Y-75295971D01*
X106735113Y-75295973D01*
X106714953Y-75564995D01*
X106714953Y-75565004D01*
X103783387Y-75565004D01*
X103796909Y-71832870D01*
X106719500Y-71832870D01*
X106719501Y-71832876D01*
X106725908Y-71892483D01*
X106776202Y-72027328D01*
X106776206Y-72027335D01*
X106862452Y-72142544D01*
X106862455Y-72142547D01*
X106977664Y-72228793D01*
X106977671Y-72228797D01*
X107112517Y-72279091D01*
X107112516Y-72279091D01*
X107119444Y-72279835D01*
X107172127Y-72285500D01*
X109867872Y-72285499D01*
X109927483Y-72279091D01*
X110062331Y-72228796D01*
X110177546Y-72142546D01*
X110263796Y-72027331D01*
X110314091Y-71892483D01*
X110320500Y-71832873D01*
X110320500Y-70485004D01*
X159089451Y-70485004D01*
X159109616Y-70754101D01*
X159169664Y-71017188D01*
X159169666Y-71017195D01*
X159268257Y-71268398D01*
X159403185Y-71502102D01*
X159539080Y-71672509D01*
X159571442Y-71713089D01*
X159758183Y-71886358D01*
X159769259Y-71896635D01*
X159992226Y-72048651D01*
X160235359Y-72165738D01*
X160493228Y-72245280D01*
X160493229Y-72245280D01*
X160493232Y-72245281D01*
X160760063Y-72285499D01*
X160760068Y-72285499D01*
X160760071Y-72285500D01*
X160760072Y-72285500D01*
X161029928Y-72285500D01*
X161029929Y-72285500D01*
X161029936Y-72285499D01*
X161296767Y-72245281D01*
X161296768Y-72245280D01*
X161296772Y-72245280D01*
X161554641Y-72165738D01*
X161797775Y-72048651D01*
X162020741Y-71896635D01*
X162218561Y-71713085D01*
X162386815Y-71502102D01*
X162521743Y-71268398D01*
X162620334Y-71017195D01*
X162680383Y-70754103D01*
X162700549Y-70485000D01*
X162680383Y-70215897D01*
X162620334Y-69952805D01*
X162521743Y-69701602D01*
X162386815Y-69467898D01*
X162218561Y-69256915D01*
X162218560Y-69256914D01*
X162218557Y-69256910D01*
X162020741Y-69073365D01*
X161797775Y-68921349D01*
X161797769Y-68921346D01*
X161797768Y-68921345D01*
X161797767Y-68921344D01*
X161554643Y-68804263D01*
X161554645Y-68804263D01*
X161296773Y-68724720D01*
X161296767Y-68724718D01*
X161029936Y-68684500D01*
X161029929Y-68684500D01*
X160760071Y-68684500D01*
X160760063Y-68684500D01*
X160493232Y-68724718D01*
X160493226Y-68724720D01*
X160235358Y-68804262D01*
X159992230Y-68921346D01*
X159769258Y-69073365D01*
X159571442Y-69256910D01*
X159403185Y-69467898D01*
X159268258Y-69701599D01*
X159268256Y-69701603D01*
X159169666Y-69952804D01*
X159169664Y-69952811D01*
X159109616Y-70215898D01*
X159089451Y-70484995D01*
X159089451Y-70485004D01*
X110320500Y-70485004D01*
X110320499Y-69137128D01*
X110314091Y-69077517D01*
X110312542Y-69073365D01*
X110263797Y-68942671D01*
X110263793Y-68942664D01*
X110177547Y-68827455D01*
X110177544Y-68827452D01*
X110062335Y-68741206D01*
X110062328Y-68741202D01*
X109927482Y-68690908D01*
X109927483Y-68690908D01*
X109867883Y-68684501D01*
X109867881Y-68684500D01*
X109867873Y-68684500D01*
X109867864Y-68684500D01*
X107172129Y-68684500D01*
X107172123Y-68684501D01*
X107112516Y-68690908D01*
X106977671Y-68741202D01*
X106977664Y-68741206D01*
X106862455Y-68827452D01*
X106862452Y-68827455D01*
X106776206Y-68942664D01*
X106776202Y-68942671D01*
X106725908Y-69077517D01*
X106719501Y-69137116D01*
X106719501Y-69137123D01*
X106719500Y-69137135D01*
X106719500Y-71832870D01*
X103796909Y-71832870D01*
X103829420Y-62860004D01*
X106714953Y-62860004D01*
X106735113Y-63129026D01*
X106735113Y-63129028D01*
X106795142Y-63392033D01*
X106795148Y-63392052D01*
X106893709Y-63643181D01*
X106893708Y-63643181D01*
X107028602Y-63876822D01*
X107082294Y-63944151D01*
X107917452Y-63108992D01*
X107927188Y-63138956D01*
X108015186Y-63277619D01*
X108134903Y-63390040D01*
X108269510Y-63464041D01*
X107434848Y-64298702D01*
X107617483Y-64423220D01*
X107617485Y-64423221D01*
X107860539Y-64540269D01*
X107860537Y-64540269D01*
X108118337Y-64619790D01*
X108118343Y-64619792D01*
X108385101Y-64659999D01*
X108385110Y-64660000D01*
X108654890Y-64660000D01*
X108654898Y-64659999D01*
X108921656Y-64619792D01*
X108921662Y-64619790D01*
X109179461Y-64540269D01*
X109422521Y-64423218D01*
X109605150Y-64298702D01*
X108767534Y-63461086D01*
X108835629Y-63434126D01*
X108968492Y-63337595D01*
X109073175Y-63211055D01*
X109121631Y-63108079D01*
X109957703Y-63944151D01*
X109957704Y-63944150D01*
X110011393Y-63876828D01*
X110011400Y-63876817D01*
X110146290Y-63643181D01*
X110244851Y-63392052D01*
X110244857Y-63392033D01*
X110304886Y-63129028D01*
X110304886Y-63129026D01*
X110325047Y-62860004D01*
X110325047Y-62859995D01*
X110304886Y-62590973D01*
X110304886Y-62590971D01*
X110244857Y-62327966D01*
X110244851Y-62327947D01*
X110146290Y-62076818D01*
X110146291Y-62076818D01*
X110011397Y-61843177D01*
X109957704Y-61775847D01*
X109122546Y-62611004D01*
X109112812Y-62581044D01*
X109024814Y-62442381D01*
X108905097Y-62329960D01*
X108770489Y-62255958D01*
X109605150Y-61421296D01*
X109422517Y-61296779D01*
X109422516Y-61296778D01*
X109179460Y-61179730D01*
X109179462Y-61179730D01*
X108921662Y-61100209D01*
X108921656Y-61100207D01*
X108654898Y-61060000D01*
X108385101Y-61060000D01*
X108118343Y-61100207D01*
X108118337Y-61100209D01*
X107860538Y-61179730D01*
X107617485Y-61296778D01*
X107617476Y-61296783D01*
X107434848Y-61421296D01*
X108272465Y-62258913D01*
X108204371Y-62285874D01*
X108071508Y-62382405D01*
X107966825Y-62508945D01*
X107918368Y-62611921D01*
X107082295Y-61775848D01*
X107028600Y-61843180D01*
X106893709Y-62076818D01*
X106795148Y-62327947D01*
X106795142Y-62327966D01*
X106735113Y-62590971D01*
X106735113Y-62590973D01*
X106714953Y-62859995D01*
X106714953Y-62860004D01*
X103829420Y-62860004D01*
X103842942Y-59127870D01*
X106719500Y-59127870D01*
X106719501Y-59127876D01*
X106725908Y-59187483D01*
X106776202Y-59322328D01*
X106776206Y-59322335D01*
X106862452Y-59437544D01*
X106862455Y-59437547D01*
X106977664Y-59523793D01*
X106977671Y-59523797D01*
X107112517Y-59574091D01*
X107112516Y-59574091D01*
X107119444Y-59574835D01*
X107172127Y-59580500D01*
X109867872Y-59580499D01*
X109927483Y-59574091D01*
X110062331Y-59523796D01*
X110177546Y-59437546D01*
X110263796Y-59322331D01*
X110314091Y-59187483D01*
X110320500Y-59127873D01*
X110320499Y-56432128D01*
X110314091Y-56372517D01*
X110263796Y-56237669D01*
X110263795Y-56237668D01*
X110263793Y-56237664D01*
X110177547Y-56122455D01*
X110177544Y-56122452D01*
X110062335Y-56036206D01*
X110062328Y-56036202D01*
X109927482Y-55985908D01*
X109927483Y-55985908D01*
X109867883Y-55979501D01*
X109867881Y-55979500D01*
X109867873Y-55979500D01*
X109867864Y-55979500D01*
X107172129Y-55979500D01*
X107172123Y-55979501D01*
X107112516Y-55985908D01*
X106977671Y-56036202D01*
X106977664Y-56036206D01*
X106862455Y-56122452D01*
X106862452Y-56122455D01*
X106776206Y-56237664D01*
X106776202Y-56237671D01*
X106725908Y-56372517D01*
X106719501Y-56432116D01*
X106719501Y-56432123D01*
X106719500Y-56432135D01*
X106719500Y-59127870D01*
X103842942Y-59127870D01*
X103872870Y-50867763D01*
X106665787Y-50867763D01*
X106695413Y-51137013D01*
X106695415Y-51137024D01*
X106763926Y-51399082D01*
X106763928Y-51399088D01*
X106869870Y-51648390D01*
X106941998Y-51766575D01*
X107010979Y-51879605D01*
X107010986Y-51879615D01*
X107184253Y-52087819D01*
X107184259Y-52087824D01*
X107385998Y-52268582D01*
X107611910Y-52418044D01*
X107857176Y-52533020D01*
X107857183Y-52533022D01*
X107857185Y-52533023D01*
X108116557Y-52611057D01*
X108116564Y-52611058D01*
X108116569Y-52611060D01*
X108384561Y-52650500D01*
X108384566Y-52650500D01*
X108587636Y-52650500D01*
X108639133Y-52646730D01*
X108790156Y-52635677D01*
X108902758Y-52610593D01*
X109054546Y-52576782D01*
X109054548Y-52576781D01*
X109054553Y-52576780D01*
X109307558Y-52480014D01*
X109543777Y-52347441D01*
X109758177Y-52181888D01*
X109946186Y-51986881D01*
X110103799Y-51766579D01*
X110177787Y-51622669D01*
X110227649Y-51525690D01*
X110227651Y-51525684D01*
X110227656Y-51525675D01*
X110315118Y-51269305D01*
X110364319Y-51002933D01*
X110369259Y-50867763D01*
X158735787Y-50867763D01*
X158765413Y-51137013D01*
X158765415Y-51137024D01*
X158833926Y-51399082D01*
X158833928Y-51399088D01*
X158939870Y-51648390D01*
X159011998Y-51766575D01*
X159080979Y-51879605D01*
X159080986Y-51879615D01*
X159254253Y-52087819D01*
X159254259Y-52087824D01*
X159455998Y-52268582D01*
X159681910Y-52418044D01*
X159927176Y-52533020D01*
X159927183Y-52533022D01*
X159927185Y-52533023D01*
X160186557Y-52611057D01*
X160186564Y-52611058D01*
X160186569Y-52611060D01*
X160454561Y-52650500D01*
X160454566Y-52650500D01*
X160657636Y-52650500D01*
X160709133Y-52646730D01*
X160860156Y-52635677D01*
X160972758Y-52610593D01*
X161124546Y-52576782D01*
X161124548Y-52576781D01*
X161124553Y-52576780D01*
X161377558Y-52480014D01*
X161613777Y-52347441D01*
X161828177Y-52181888D01*
X162016186Y-51986881D01*
X162173799Y-51766579D01*
X162247787Y-51622669D01*
X162297649Y-51525690D01*
X162297651Y-51525684D01*
X162297656Y-51525675D01*
X162385118Y-51269305D01*
X162434319Y-51002933D01*
X162444212Y-50732235D01*
X162414586Y-50462982D01*
X162346072Y-50200912D01*
X162240130Y-49951610D01*
X162099018Y-49720390D01*
X162009747Y-49613119D01*
X161925746Y-49512180D01*
X161925740Y-49512175D01*
X161724002Y-49331418D01*
X161498092Y-49181957D01*
X161498090Y-49181956D01*
X161252824Y-49066980D01*
X161252819Y-49066978D01*
X161252814Y-49066976D01*
X160993442Y-48988942D01*
X160993428Y-48988939D01*
X160877791Y-48971921D01*
X160725439Y-48949500D01*
X160522369Y-48949500D01*
X160522364Y-48949500D01*
X160319844Y-48964323D01*
X160319831Y-48964325D01*
X160055453Y-49023217D01*
X160055446Y-49023220D01*
X159802439Y-49119987D01*
X159566226Y-49252557D01*
X159351822Y-49418112D01*
X159163822Y-49613109D01*
X159163816Y-49613116D01*
X159006202Y-49833419D01*
X159006199Y-49833424D01*
X158882350Y-50074309D01*
X158882343Y-50074327D01*
X158794884Y-50330685D01*
X158794881Y-50330699D01*
X158745681Y-50597068D01*
X158745680Y-50597075D01*
X158735787Y-50867763D01*
X110369259Y-50867763D01*
X110374212Y-50732235D01*
X110344586Y-50462982D01*
X110276072Y-50200912D01*
X110170130Y-49951610D01*
X110029018Y-49720390D01*
X109939747Y-49613119D01*
X109855746Y-49512180D01*
X109855740Y-49512175D01*
X109654002Y-49331418D01*
X109428092Y-49181957D01*
X109428090Y-49181956D01*
X109182824Y-49066980D01*
X109182819Y-49066978D01*
X109182814Y-49066976D01*
X108923442Y-48988942D01*
X108923428Y-48988939D01*
X108807791Y-48971921D01*
X108655439Y-48949500D01*
X108452369Y-48949500D01*
X108452364Y-48949500D01*
X108249844Y-48964323D01*
X108249831Y-48964325D01*
X107985453Y-49023217D01*
X107985446Y-49023220D01*
X107732439Y-49119987D01*
X107496226Y-49252557D01*
X107281822Y-49418112D01*
X107093822Y-49613109D01*
X107093816Y-49613116D01*
X106936202Y-49833419D01*
X106936199Y-49833424D01*
X106812350Y-50074309D01*
X106812343Y-50074327D01*
X106724884Y-50330685D01*
X106724881Y-50330699D01*
X106675681Y-50597068D01*
X106675680Y-50597075D01*
X106665787Y-50867763D01*
X103872870Y-50867763D01*
X103885552Y-47367549D01*
X103905479Y-47300583D01*
X103958449Y-47255020D01*
X104009551Y-47244000D01*
X165738000Y-47244000D01*
X165805039Y-47263685D01*
G37*
%TD.AperFunction*%
%TD*%
M02*
